<?xml version="1.0" encoding="UTF-8"?>
<svg id="Layer_1" data-name="Layer 1" xmlns="http://www.w3.org/2000/svg" xmlns:xlink="http://www.w3.org/1999/xlink" viewBox="0 0 150 150">
  <defs>
    <style>
      .cls-1 {
        fill: #422a16;
      }

      .cls-2 {
        fill: #fff;
      }

      .cls-3 {
        fill: none;
      }

      .cls-4 {
        clip-path: url(#clippath-1);
      }

      .cls-5 {
        fill: #fec9a1;
      }

      .cls-6 {
        clip-path: url(#clippath-3);
      }

      .cls-7 {
        clip-path: url(#clippath-2);
      }

      .cls-8 {
        clip-path: url(#clippath);
      }

      .cls-9 {
        fill: #ed9b64;
      }
    </style>
    <clipPath id="clippath">
      <path class="cls-5" d="M48.71,94.37c-2.06-2.05-4.21-4.06-6.76-5.45-2.55-1.39-5.58-2.11-8.4-1.41-4.08,1.01-7.06,4.99-7.43,9.18-.38,4.18,1.59,8.38,4.66,11.24,3.07,2.86,7.14,4.49,11.28,5.2,2.27.38,4.64.5,6.84-.17,2.2-.67,4.22-2.23,4.99-4.4"/>
    </clipPath>
    <clipPath id="clippath-1">
      <path class="cls-5" d="M108.65,94.37c2.06-2.05,4.21-4.06,6.76-5.45,2.55-1.39,5.58-2.11,8.4-1.41,4.08,1.01,7.06,4.99,7.43,9.18.38,4.18-1.59,8.38-4.66,11.24s-7.14,4.49-11.28,5.2c-2.27.38-4.64.5-6.84-.17-2.2-.67-4.22-2.23-4.99-4.4"/>
    </clipPath>
    <clipPath id="clippath-2">
      <circle class="cls-3" cx="59.85" cy="90.51" r="11.28"/>
    </clipPath>
    <clipPath id="clippath-3">
      <circle class="cls-3" cx="97.47" cy="90.51" r="11.28"/>
    </clipPath>
  </defs>
  <circle class="cls-2" cx="75" cy="75" r="75"/>
  <g>
    <g>
      <g>
        <g>
          <path class="cls-5" d="M48.71,94.37c-2.06-2.05-4.21-4.06-6.76-5.45-2.55-1.39-5.58-2.11-8.4-1.41-4.08,1.01-7.06,4.99-7.43,9.18-.38,4.18,1.59,8.38,4.66,11.24,3.07,2.86,7.14,4.49,11.28,5.2,2.27.38,4.64.5,6.84-.17,2.2-.67,4.22-2.23,4.99-4.4"/>
          <g class="cls-8">
            <path class="cls-5" d="M48.71,94.37c-2.06-2.05-4.21-4.06-6.76-5.45-2.55-1.39-5.58-2.11-8.4-1.41-4.08,1.01-7.06,4.99-7.43,9.18-.38,4.18,1.59,8.38,4.66,11.24,3.07,2.86,7.14,4.49,11.28,5.2,2.27.38,4.64.5,6.84-.17,2.2-.67,4.22-2.23,4.99-4.4"/>
            <path d="M50.67,112.6c-4.64-11.45-17.11-22.45-29.72-14.67-.81.5-.07,1.78.75,1.28,11.74-7.24,23.26,3.2,27.55,13.79.35.87,1.78.49,1.42-.39h0Z"/>
            <path d="M43.54,102.44c-2.92.26-5.54,1.61-7.37,3.92-.59.74.45,1.79,1.04,1.04,1.58-1.99,3.78-3.25,6.33-3.48.94-.09.95-1.56,0-1.48h0Z"/>
          </g>
        </g>
        <g>
          <path class="cls-5" d="M108.65,94.37c2.06-2.05,4.21-4.06,6.76-5.45,2.55-1.39,5.58-2.11,8.4-1.41,4.08,1.01,7.06,4.99,7.43,9.18.38,4.18-1.59,8.38-4.66,11.24s-7.14,4.49-11.28,5.2c-2.27.38-4.64.5-6.84-.17-2.2-.67-4.22-2.23-4.99-4.4"/>
          <g class="cls-4">
            <path class="cls-5" d="M108.65,94.37c2.06-2.05,4.21-4.06,6.76-5.45,2.55-1.39,5.58-2.11,8.4-1.41,4.08,1.01,7.06,4.99,7.43,9.18.38,4.18-1.59,8.38-4.66,11.24s-7.14,4.49-11.28,5.2c-2.27.38-4.64.5-6.84-.17-2.2-.67-4.22-2.23-4.99-4.4"/>
            <path d="M108.12,112.99c4.29-10.6,15.81-21.03,27.55-13.79.81.5,1.55-.78.75-1.28-12.61-7.78-25.08,3.22-29.72,14.67-.36.88,1.07,1.26,1.42.39h0Z"/>
            <path d="M113.83,103.92c2.55.23,4.75,1.49,6.33,3.48.59.74,1.63-.31,1.04-1.04-1.83-2.31-4.45-3.65-7.37-3.92-.95-.09-.94,1.39,0,1.48h0Z"/>
          </g>
        </g>
        <path class="cls-5" d="M113.59,51.43l-35.52-1.89-35.52,1.89-3.79,25.58s7.1,22.97,7.58,29.84c.47,6.87,3.55,24.63,31.73,24.63s31.26-17.76,31.73-24.63c.47-6.87,7.58-29.84,7.58-29.84l-3.79-25.58Z"/>
        <path class="cls-1" d="M39.81,40.07s2.84-17.29,11.13-21.08c8.29-3.79-2.65,16.67-2.65,16.67,0,0,30.12-18.56,63.03-2.46,32.92,16.1,18.1,52.12,1.23,60.64-1.94.46-2.18-35.77-2.18-35.77,0,0-17.76,9.71-21.31,8.05-3.55-1.66-1.89-14.21-1.89-14.21,0,0-24.39,17.76-28.89,16.81-4.5-.95-3.08-8.29-3.08-8.29l-11.6,18.94s3.91,20.85,1.6,20.96c-2.31.11-10.84-13.86-10.84-13.86,0,0-15.16-5.21-15.63-7.58-.47-2.37,6.63-19.44,6.63-19.44,0,0-5.45-2.35-4.74-5.66.71-3.32,19.18-13.73,19.18-13.73Z"/>
        <g>
          <circle class="cls-2" cx="59.85" cy="90.51" r="11.28"/>
          <g class="cls-7">
            <circle class="cls-1" cx="61.62" cy="91.16" r="8.76"/>
          </g>
        </g>
        <g>
          <circle class="cls-2" cx="97.47" cy="90.51" r="11.28"/>
          <g class="cls-6">
            <circle class="cls-1" cx="95.7" cy="91.16" r="8.76"/>
          </g>
        </g>
        <path class="cls-9" d="M77.88,83.85c1.31,0,4.79,10.1,4.79,10.1,0,0,5.91.38,5.72,3.24s-6.73,5.91-10.51,4c-3.78-1.91-2.51-17.34,0-17.34Z"/>
      </g>
      <path class="cls-1" d="M97.71,74.21c-1.17-.35-2.36-.59-3.59-.62-.54-.02-1.11.02-1.59.26-1.93.99,1,2.72,1.88,3.22,2.12,1.21,4.56,2.26,7.11,2.4,1.97.11,2.64-1.73,1.36-2.95-.52-.5-1.23-.81-1.92-1.1-1.06-.44-2.14-.87-3.25-1.2Z"/>
      <path class="cls-1" d="M57.97,74.45c1.13-.44,2.31-.78,3.53-.92.54-.06,1.11-.08,1.61.13,2,.83-.78,2.79-1.61,3.36-2.01,1.38-4.36,2.62-6.89,2.97-1.95.27-2.77-1.51-1.59-2.83.48-.54,1.16-.9,1.82-1.25,1.02-.53,2.06-1.04,3.14-1.47Z"/>
    </g>
    <path class="cls-1" d="M91.25,112.86c-.18-.47-.71-.84-1.13-1.18-2.75-2.24-6.02-2.86-9.44-3.01v.09c-3.8.05-7.14,1.23-9.64,4.22-.31.37-.14,1.14-.19,1.73.53-.14,1.25-.12,1.55-.46,2.21-2.5,5.13-3.28,8.26-3.63,0,0-.02.08-.02.08,3.51-.1,6.64.79,9.16,3.41.37.38,1.07.45,1.62.67-.04-.64.05-1.33-.17-1.89Z"/>
  </g>
</svg>