<?xml version="1.0" encoding="UTF-8"?>
<svg id="Layer_1" data-name="Layer 1" xmlns="http://www.w3.org/2000/svg" xmlns:xlink="http://www.w3.org/1999/xlink" viewBox="0 0 150 150">
  <defs>
    <style>
      .cls-1 {
        fill: #e33434;
      }

      .cls-2 {
        fill: #422a16;
      }

      .cls-3 {
        fill: #fff;
      }

      .cls-4 {
        fill: none;
      }

      .cls-5 {
        clip-path: url(#clippath-1);
      }

      .cls-6 {
        fill: #fec9a1;
      }

      .cls-7 {
        clip-path: url(#clippath-3);
      }

      .cls-8 {
        fill: #2d0276;
      }

      .cls-9 {
        clip-path: url(#clippath-2);
      }

      .cls-10 {
        clip-path: url(#clippath);
      }

      .cls-11 {
        fill: #ed9b64;
      }

      .cls-12 {
        fill: #ff7e5f;
        fill-rule: evenodd;
      }
    </style>
    <clipPath id="clippath">
      <path class="cls-6" d="M43.47,95.75c-2.16-2.14-4.41-4.25-7.08-5.7-2.67-1.45-5.84-2.21-8.79-1.48-4.27,1.06-7.39,5.23-7.78,9.61-.39,4.38,1.66,8.77,4.88,11.77,3.22,3,7.48,4.71,11.82,5.44,2.38.4,4.86.53,7.16-.18,2.31-.7,4.42-2.34,5.23-4.61"/>
    </clipPath>
    <clipPath id="clippath-1">
      <path class="cls-6" d="M106.24,95.75c2.16-2.14,4.41-4.25,7.08-5.7,2.67-1.45,5.84-2.21,8.79-1.48,4.27,1.06,7.39,5.23,7.78,9.61.39,4.38-1.66,8.77-4.88,11.77s-7.48,4.71-11.82,5.44c-2.38.4-4.86.53-7.16-.18s-4.42-2.34-5.23-4.61"/>
    </clipPath>
    <clipPath id="clippath-2">
      <circle class="cls-4" cx="55.14" cy="91.7" r="11.81"/>
    </clipPath>
    <clipPath id="clippath-3">
      <circle class="cls-4" cx="94.53" cy="91.7" r="11.81"/>
    </clipPath>
  </defs>
  <circle class="cls-3" cx="75" cy="75" r="75"/>
  <g>
    <g>
      <g>
        <path class="cls-8" d="M118.61,88.95c.24-.16,5.35-3.63,5.05-9.68-.24-4.91-3.85-7.73-4.38-8.13-4.16-.69-8.33-1.38-12.49-2.07.86,7.92,1.72,15.83,2.58,23.75"/>
        <path class="cls-8" d="M131.33,33.22c-7.71-8.14-18.64-6.6-26.4-3.55-1.77.69-3.74-.6-3.36-2.22.94-3.93.17-9.14-9.09-11.31-12.7-2.98-15.72,3.82-19.62,7.44-1.97-.64-4.09-1.05-6.31-1.17-7.19-.39-13.76,2.28-17.97,6.68-1.49-.01-3.08-.06-4.84-.16-1.17-.07-2.33-.03-3.47.04-6.51.29-12.32,3.08-16.01,7.31-5.11,5.52-7.62,14-5.12,25.16l.22.7c-.01.54-.02,1.09-.03,1.66-2.13,2.09-3.47,4.78-3.47,7.75,0,3.47,1.78,6.56,4.58,8.74-1.81,2-2.93,4.48-2.93,7.2,0,3.92,2.27,7.37,5.73,9.54v2.64h91.64v-23.61c8.71,0,16.05-5.7,16.62-13.16.34-4.44-1.8-8.53-5.42-11.32,5.01-3.89,11.99-11.24,5.23-18.38"/>
        <g>
          <g>
            <path class="cls-6" d="M43.47,95.75c-2.16-2.14-4.41-4.25-7.08-5.7-2.67-1.45-5.84-2.21-8.79-1.48-4.27,1.06-7.39,5.23-7.78,9.61-.39,4.38,1.66,8.77,4.88,11.77,3.22,3,7.48,4.71,11.82,5.44,2.38.4,4.86.53,7.16-.18,2.31-.7,4.42-2.34,5.23-4.61"/>
            <g class="cls-10">
              <path class="cls-6" d="M43.47,95.75c-2.16-2.14-4.41-4.25-7.08-5.7-2.67-1.45-5.84-2.21-8.79-1.48-4.27,1.06-7.39,5.23-7.78,9.61-.39,4.38,1.66,8.77,4.88,11.77,3.22,3,7.48,4.71,11.82,5.44,2.38.4,4.86.53,7.16-.18,2.31-.7,4.42-2.34,5.23-4.61"/>
              <path d="M45.52,114.83c-4.86-11.99-17.91-23.51-31.12-15.36-.85.52-.07,1.86.78,1.34,12.29-7.58,24.36,3.35,28.85,14.44.37.91,1.87.51,1.49-.41h0Z"/>
              <path d="M38.06,104.2c-3.06.28-5.8,1.68-7.72,4.1-.61.77.48,1.87,1.09,1.09,1.65-2.09,3.96-3.4,6.62-3.65.98-.09.99-1.64,0-1.55h0Z"/>
            </g>
          </g>
          <g>
            <path class="cls-6" d="M106.24,95.75c2.16-2.14,4.41-4.25,7.08-5.7,2.67-1.45,5.84-2.21,8.79-1.48,4.27,1.06,7.39,5.23,7.78,9.61.39,4.38-1.66,8.77-4.88,11.77s-7.48,4.71-11.82,5.44c-2.38.4-4.86.53-7.16-.18s-4.42-2.34-5.23-4.61"/>
            <g class="cls-5">
              <path class="cls-6" d="M106.24,95.75c2.16-2.14,4.41-4.25,7.08-5.7,2.67-1.45,5.84-2.21,8.79-1.48,4.27,1.06,7.39,5.23,7.78,9.61.39,4.38-1.66,8.77-4.88,11.77s-7.48,4.71-11.82,5.44c-2.38.4-4.86.53-7.16-.18s-4.42-2.34-5.23-4.61"/>
              <path d="M105.68,115.24c4.49-11.09,16.56-22.02,28.85-14.44.85.52,1.63-.81.78-1.34-13.21-8.14-26.26,3.37-31.12,15.36-.37.92,1.12,1.32,1.49.41h0Z"/>
              <path d="M111.65,105.74c2.67.24,4.97,1.56,6.62,3.65.62.78,1.71-.32,1.09-1.09-1.92-2.42-4.66-3.82-7.72-4.1-.99-.09-.99,1.46,0,1.55h0Z"/>
            </g>
          </g>
          <path class="cls-6" d="M111.41,50.79l-37.19-1.98-37.19,1.98-3.97,26.78s7.44,24.05,7.93,31.24c.5,7.19,3.72,25.79,33.22,25.79s32.73-18.6,33.22-25.79c.5-7.19,7.93-31.24,7.93-31.24l-3.97-26.78Z"/>
          <g>
            <circle class="cls-3" cx="55.14" cy="91.7" r="11.81"/>
            <g class="cls-9">
              <circle class="cls-2" cx="57.1" cy="92.32" r="9.18"/>
            </g>
          </g>
          <g>
            <circle class="cls-3" cx="94.53" cy="91.7" r="11.81"/>
            <g class="cls-7">
              <circle class="cls-2" cx="94.5" cy="92.39" r="9.18"/>
            </g>
          </g>
          <g>
            <path class="cls-1" d="M68.18,120.48c2.31.8,4.8,1.29,7.3,1.29,3.62,0,7.25-1.03,10.31-2.55-2.1-.95-4.36-1.54-6.66-1.66-3.84-.2-7.71.86-10.95,2.92Z"/>
            <path d="M93.82,110.06c-.1-.42-.32-.73-.63-.96-2.93-2.14-14.34,3.33-17.71,3.33-3.17,0-13.47-4.86-17.11-3.63-.64.22-1.07.61-1.23,1.26-.76,3.23,4.38,8.12,11.04,10.43,3.24-2.06,7.11-3.12,10.95-2.92,2.3.12,4.56.71,6.66,1.66,5.12-2.54,8.67-6.45,8.03-9.17Z"/>
            <path class="cls-3" d="M93.19,109.09c-1.57-1.15-5.58-.11-9.48,1.11.25,1.27.49,2.55.74,3.82,3.74-1.4,6.76-3.39,8.74-4.93Z"/>
            <path class="cls-3" d="M75.48,112.43c-3.17,0-13.47-4.86-17.11-3.63,2.91,2.62,8.93,6.92,17.11,6.92.95,0,1.89-.06,2.8-.17.01-1.21-.03-2.42-.12-3.62-1.11.31-2.04.5-2.67.5Z"/>
          </g>
        </g>
        <path class="cls-2" d="M97.02,71.29c-1.26-.17-2.54-.22-3.82-.05-.56.07-1.15.2-1.6.54-1.83,1.35,1.49,2.64,2.48,3.01,2.39.9,5.09,1.57,7.75,1.29,2.05-.21,2.44-2.23.91-3.28-.62-.43-1.4-.63-2.16-.81-1.17-.28-2.36-.55-3.56-.7Z"/>
        <path class="cls-2" d="M54.27,71.29c1.26-.17,2.54-.22,3.82-.05.56.07,1.15.2,1.6.54,1.83,1.35-1.49,2.64-2.48,3.01-2.39.9-5.09,1.57-7.75,1.29-2.05-.21-2.44-2.23-.91-3.28.62-.43,1.4-.63,2.16-.81,1.17-.28,2.36-.55,3.56-.7Z"/>
        <path class="cls-8" d="M33.06,73.62c.85.13,6.66.94,11.59-3.24,5.17-4.38,5.11-10.63,5.09-11.43,1.97,1.64,9.18,7.24,18.45,6.19,6.1-.69,12.21-4.16,12.04-4.71-.06-.2-1-.19-1.05,0-.16.63,8.69,5.8,17.79,4.19,5.34-.95,9.07-3.93,10.99-5.76,2.37,4.3,4.08,7.63,5.23,9.94.55,1.09.79,1.6,1.05,1.57.88-.1,1.22-6.46,0-27.21-16.74.7-33.49,1.4-50.23,2.09-8.02.7-16.05,1.4-24.07,2.09-2.27,1.4-4.53,2.79-6.8,4.19-.03,7.36-.05,14.72-.08,22.08Z"/>
      </g>
      <path class="cls-12" d="M106.07,78.72c-3.26-3.28-7.23-4.9-11.91-4.9s-8.64,1.63-11.91,4.9c-2.71,2.77-4.29,5.98-4.75,9.64l-6.4.09c-.45-3.7-2.06-6.95-4.85-9.74-3.33-3.27-7.3-4.9-11.91-4.9s-8.56,1.63-11.82,4.9c-3.27,3.33-4.9,7.3-4.9,11.91s1.64,8.64,4.9,11.91c3.27,3.27,7.21,4.9,11.82,4.9s8.58-1.64,11.91-4.9c3.23-3.17,4.88-7.02,4.98-11.51h6.13c.09,4.49,1.72,8.34,4.89,11.52,3.28,3.26,7.25,4.9,11.91,4.9s8.65-1.65,11.91-4.9c3.33-3.28,4.99-7.25,4.99-11.91s-1.66-8.58-4.99-11.91M64.33,100.7c-2.74,2.74-6.1,4.11-10.07,4.11s-7.3-1.37-10.16-4.11c-2.74-2.86-4.12-6.25-4.12-10.16s1.37-7.33,4.12-10.07c2.86-2.86,6.25-4.29,10.16-4.29s7.33,1.43,10.07,4.29c2.86,2.74,4.29,6.1,4.29,10.07s-1.43,7.3-4.29,10.16M104.23,100.71c-2.86,2.73-6.22,4.12-10.07,4.12s-7.41-1.38-10.16-4.12c-2.86-2.87-4.29-6.25-4.29-10.16s1.44-7.34,4.29-10.07c2.75-2.87,6.13-4.29,10.16-4.29s7.22,1.42,10.07,4.29c2.75,2.73,4.12,6.1,4.12,10.07s-1.37,7.29-4.12,10.16"/>
    </g>
    <path class="cls-11" d="M74.02,84.74c1.37,0,5.02,10.58,5.02,10.58,0,0,6.19.4,5.99,3.39-.2,2.99-7.05,6.19-11.01,4.19-3.96-2-2.63-18.16,0-18.16Z"/>
  </g>
</svg>