<?xml version="1.0" encoding="UTF-8"?>
<svg id="Layer_1" data-name="Layer 1" xmlns="http://www.w3.org/2000/svg" xmlns:xlink="http://www.w3.org/1999/xlink" viewBox="0 0 150 150">
  <defs>
    <style>
      .cls-1 {
        fill: #e33434;
      }

      .cls-2 {
        fill: #422a16;
      }

      .cls-3 {
        fill: #fff;
      }

      .cls-4 {
        fill: none;
      }

      .cls-5 {
        clip-path: url(#clippath-1);
      }

      .cls-6 {
        fill: #fec9a1;
      }

      .cls-7 {
        clip-path: url(#clippath-3);
      }

      .cls-8 {
        clip-path: url(#clippath-2);
      }

      .cls-9 {
        clip-path: url(#clippath);
      }

      .cls-10 {
        fill: #ed9b64;
      }
    </style>
    <clipPath id="clippath">
      <path class="cls-6" d="M48.97,94.17c-2.04-2.02-4.17-4.02-6.69-5.39s-5.52-2.09-8.31-1.4c-4.04,1-6.99,4.94-7.36,9.08-.37,4.14,1.57,8.29,4.62,11.13,3.04,2.83,7.07,4.45,11.17,5.14,2.25.38,4.59.5,6.77-.17,2.18-.66,4.18-2.21,4.94-4.36"/>
    </clipPath>
    <clipPath id="clippath-1">
      <path class="cls-6" d="M108.31,94.17c2.04-2.02,4.17-4.02,6.69-5.39s5.52-2.09,8.31-1.4c4.04,1,6.99,4.94,7.36,9.08.37,4.14-1.57,8.29-4.62,11.13-3.04,2.83-7.07,4.45-11.17,5.14-2.25.38-4.59.5-6.77-.17-2.18-.66-4.18-2.21-4.94-4.36"/>
    </clipPath>
    <clipPath id="clippath-2">
      <circle class="cls-4" cx="60" cy="90.35" r="11.17"/>
    </clipPath>
    <clipPath id="clippath-3">
      <circle class="cls-4" cx="97.24" cy="90.35" r="11.17"/>
    </clipPath>
  </defs>
  <circle class="cls-3" cx="75" cy="75" r="75"/>
  <g>
    <g>
      <g>
        <path class="cls-6" d="M48.97,94.17c-2.04-2.02-4.17-4.02-6.69-5.39s-5.52-2.09-8.31-1.4c-4.04,1-6.99,4.94-7.36,9.08-.37,4.14,1.57,8.29,4.62,11.13,3.04,2.83,7.07,4.45,11.17,5.14,2.25.38,4.59.5,6.77-.17,2.18-.66,4.18-2.21,4.94-4.36"/>
        <g class="cls-9">
          <path class="cls-6" d="M48.97,94.17c-2.04-2.02-4.17-4.02-6.69-5.39s-5.52-2.09-8.31-1.4c-4.04,1-6.99,4.94-7.36,9.08-.37,4.14,1.57,8.29,4.62,11.13,3.04,2.83,7.07,4.45,11.17,5.14,2.25.38,4.59.5,6.77-.17,2.18-.66,4.18-2.21,4.94-4.36"/>
          <path d="M50.91,112.21c-4.59-11.34-16.94-22.22-29.42-14.52-.8.49-.07,1.76.74,1.26,11.62-7.16,23.03,3.16,27.27,13.65.35.86,1.76.48,1.41-.39h0Z"/>
          <path d="M43.86,102.16c-2.89.26-5.48,1.59-7.3,3.88-.58.73.45,1.77,1.03,1.03,1.56-1.97,3.74-3.22,6.26-3.45.93-.08.94-1.55,0-1.46h0Z"/>
        </g>
      </g>
      <g>
        <path class="cls-6" d="M108.31,94.17c2.04-2.02,4.17-4.02,6.69-5.39s5.52-2.09,8.31-1.4c4.04,1,6.99,4.94,7.36,9.08.37,4.14-1.57,8.29-4.62,11.13-3.04,2.83-7.07,4.45-11.17,5.14-2.25.38-4.59.5-6.77-.17-2.18-.66-4.18-2.21-4.94-4.36"/>
        <g class="cls-5">
          <path class="cls-6" d="M108.31,94.17c2.04-2.02,4.17-4.02,6.69-5.39s5.52-2.09,8.31-1.4c4.04,1,6.99,4.94,7.36,9.08.37,4.14-1.57,8.29-4.62,11.13-3.04,2.83-7.07,4.45-11.17,5.14-2.25.38-4.59.5-6.77-.17-2.18-.66-4.18-2.21-4.94-4.36"/>
          <path d="M107.78,112.6c4.25-10.49,15.65-20.81,27.27-13.65.8.5,1.54-.77.74-1.26-12.48-7.7-24.83,3.18-29.42,14.52-.35.87,1.06,1.25,1.41.39h0Z"/>
          <path d="M113.43,103.62c2.52.23,4.7,1.48,6.26,3.45.58.74,1.61-.3,1.03-1.03-1.81-2.28-4.4-3.61-7.3-3.88-.94-.08-.93,1.38,0,1.46h0Z"/>
        </g>
      </g>
      <path class="cls-6" d="M113.2,51.67l-35.16-1.88-35.16,1.88-3.75,25.31s7.03,22.74,7.5,29.53c.47,6.8,3.52,24.38,31.41,24.38s30.94-17.58,31.41-24.38c.47-6.8,7.5-29.53,7.5-29.53l-3.75-25.31Z"/>
      <path class="cls-2" d="M40.16,40.42s2.81-17.11,11.02-20.86c8.2-3.75-2.62,16.5-2.62,16.5,0,0,29.81-18.38,62.39-2.44,32.58,15.94,17.91,51.59,1.22,60.02-1.92.46-2.16-35.41-2.16-35.41,0,0-17.58,9.61-21.1,7.97-3.52-1.64-1.88-14.06-1.88-14.06,0,0-24.14,17.58-28.6,16.64-4.45-.94-3.05-8.2-3.05-8.2l-11.49,18.75s3.87,20.63,1.59,20.75-10.73-13.72-10.73-13.72c0,0-15-5.16-15.47-7.5-.47-2.34,6.56-19.24,6.56-19.24,0,0-5.39-2.33-4.69-5.61.7-3.28,18.99-13.59,18.99-13.59Z"/>
      <g>
        <circle class="cls-3" cx="60" cy="90.35" r="11.17"/>
        <g class="cls-8">
          <circle class="cls-2" cx="61.74" cy="91" r="8.67"/>
        </g>
      </g>
      <g>
        <circle class="cls-3" cx="97.24" cy="90.35" r="11.17"/>
        <g class="cls-7">
          <circle class="cls-2" cx="95.5" cy="91" r="8.67"/>
        </g>
      </g>
      <path class="cls-10" d="M77.85,83.76c1.29,0,4.75,10,4.75,10,0,0,5.85.38,5.66,3.21-.19,2.83-6.66,5.85-10.41,3.96-3.74-1.89-2.48-17.17,0-17.17Z"/>
      <g>
        <path class="cls-1" d="M72.34,117.56c2.18.76,4.54,1.22,6.9,1.22,3.43,0,6.85-.98,9.74-2.41-1.98-.9-4.12-1.45-6.29-1.57-3.63-.19-7.29.82-10.35,2.76Z"/>
        <path d="M96.57,107.7c-.09-.4-.3-.69-.6-.91-2.77-2.03-13.56,3.15-16.74,3.15-2.99,0-12.74-4.59-16.18-3.43-.6.2-1.02.58-1.16,1.19-.72,3.05,4.14,7.68,10.44,9.86,3.06-1.94,6.72-2.95,10.35-2.76,2.17.11,4.31.67,6.29,1.57,4.84-2.4,8.2-6.1,7.59-8.67Z"/>
        <path class="cls-3" d="M95.97,106.79c-1.48-1.09-5.27-.1-8.96,1.05.23,1.2.46,2.41.7,3.61,3.53-1.32,6.39-3.21,8.26-4.66Z"/>
        <path class="cls-3" d="M79.23,109.94c-2.99,0-12.74-4.59-16.18-3.43,2.75,2.47,8.44,6.54,16.18,6.54.9,0,1.78-.06,2.64-.16.01-1.14-.03-2.28-.11-3.42-1.05.29-1.92.48-2.53.48Z"/>
      </g>
    </g>
    <path class="cls-2" d="M97.12,72.54c-1.19-.16-2.4-.2-3.61-.04-.53.07-1.09.19-1.52.51-1.73,1.27,1.41,2.5,2.35,2.85,2.26.85,4.81,1.49,7.33,1.22,1.94-.2,2.3-2.11.86-3.1-.59-.41-1.33-.59-2.05-.77-1.1-.27-2.23-.52-3.36-.67Z"/>
    <path class="cls-2" d="M58.69,71.55c1.19-.16,2.4-.2,3.61-.04.53.07,1.09.19,1.52.51,1.73,1.27-1.41,2.5-2.35,2.85-2.26.85-4.81,1.49-7.33,1.22-1.94-.2-2.3-2.11-.86-3.1.59-.41,1.33-.59,2.05-.77,1.1-.27,2.23-.52,3.36-.67Z"/>
  </g>
</svg>