<?xml version="1.0" encoding="UTF-8"?>
<svg id="Layer_1" xmlns="http://www.w3.org/2000/svg" version="1.1" viewBox="0 0 1920 1080">
  <!-- Generator: Adobe Illustrator 29.6.1, SVG Export Plug-In . SVG Version: 2.1.1 Build 9)  -->
  <defs>
    <style>
      .st0 {
        fill: #ffeccf;
      }

      .st1 {
        fill: none;
        stroke: #36f;
        stroke-dasharray: 5.8 5.8;
        stroke-miterlimit: 10;
        stroke-width: 5.1px;
      }

      .st2 {
        fill: #f5eaff;
      }

      .st3 {
        fill: #ffecf0;
      }

      .st4 {
        fill: #eaa239;
      }

      .st5 {
        fill: #cfffe2;
      }

      .st6 {
        fill: #e6fbfc;
      }

      .st7 {
        fill: #36f;
      }

      .st8 {
        fill: #61dafb;
      }

      .st9 {
        fill: #ea6449;
      }

      .st10 {
        fill: #4ce574;
      }

      .st11 {
        fill: #4b6ce8;
      }
    </style>
  </defs>
  <rect class="st6" x="2.2" y=".4" width="1916" height="1080"/>
  <g>
    <g>
      <path class="st3" d="M1300.2,320.4h205.8c6.6,0,11.9,5.3,11.9,11.9v49.8c0,6.6-5.3,11.9-11.9,11.9h-205.8c-6.6,0-11.9-5.3-11.9-11.9v-49.8c0-6.6,5.3-11.9,11.9-11.9Z"/>
      <path class="st9" d="M1506,321.2c6.2,0,11.2,5,11.2,11.2v49.8c0,6.2-5,11.2-11.2,11.2h-205.8c-6.2,0-11.2-5-11.2-11.2v-49.8c0-6.2,5-11.2,11.2-11.2h205.8M1506,319.6h-205.8c-7,0-12.7,5.7-12.7,12.7v49.8c0,7,5.7,12.7,12.7,12.7h205.8c7,0,12.7-5.7,12.7-12.7v-49.8c0-7-5.7-12.7-12.7-12.7h0Z"/>
    </g>
    <g>
      <rect class="st2" x="1404.1" y="415.9" width="229.6" height="73.7" rx="11.9" ry="11.9"/>
      <path class="st11" d="M1621.8,416.7c6.2,0,11.2,5,11.2,11.2v49.8c0,6.2-5,11.2-11.2,11.2h-205.8c-6.2,0-11.2-5-11.2-11.2v-49.8c0-6.2,5-11.2,11.2-11.2h205.8M1621.8,415.2h-205.8c-7,0-12.7,5.7-12.7,12.7v49.8c0,7,5.7,12.7,12.7,12.7h205.8c7,0,12.7-5.7,12.7-12.7v-49.8c0-7-5.7-12.7-12.7-12.7h0Z"/>
    </g>
    <g>
      <path class="st5" d="M1532.4,511.4h205.8c6.6,0,11.9,5.3,11.9,11.9v49.8c0,6.6-5.3,11.9-11.9,11.9h-205.8c-6.6,0-11.9-5.3-11.9-11.9v-49.8c0-6.6,5.3-11.9,11.9-11.9Z"/>
      <path class="st10" d="M1738.1,512.2c6.2,0,11.2,5,11.2,11.2v49.8c0,6.2-5,11.2-11.2,11.2h-205.8c-6.2,0-11.2-5-11.2-11.2v-49.8c0-6.2,5-11.2,11.2-11.2h205.8M1738.1,510.7h-205.8c-7,0-12.7,5.7-12.7,12.7v49.8c0,7,5.7,12.7,12.7,12.7h205.8c7,0,12.7-5.7,12.7-12.7v-49.8c0-7-5.7-12.7-12.7-12.7h0Z"/>
    </g>
    <g>
      <path class="st0" d="M1647.7,606.9h205.8c6.6,0,11.9,5.3,11.9,11.9v49.8c0,6.6-5.3,11.9-11.9,11.9h-205.8c-6.6,0-11.9-5.3-11.9-11.9v-49.8c0-6.6,5.3-11.9,11.9-11.9Z"/>
      <path class="st4" d="M1853.5,607.7c6.2,0,11.2,5,11.2,11.2v49.8c0,6.2-5,11.2-11.2,11.2h-205.8c-6.2,0-11.2-5-11.2-11.2v-49.8c0-6.2,5-11.2,11.2-11.2h205.8M1853.5,606.2h-205.8c-7,0-12.7,5.7-12.7,12.7v49.8c0,7,5.7,12.7,12.7,12.7h205.8c7,0,12.7-5.7,12.7-12.7v-49.8c0-7-5.7-12.7-12.7-12.7h0Z"/>
    </g>
  </g>
  <g>
    <g>
      <path class="st3" d="M672.6,320.4h205.8c6.6,0,11.9,5.3,11.9,11.9v49.8c0,6.6-5.3,11.9-11.9,11.9h-205.8c-6.6,0-11.9-5.3-11.9-11.9v-49.8c0-6.6,5.3-11.9,11.9-11.9Z"/>
      <path class="st9" d="M878.4,321.2c6.2,0,11.2,5,11.2,11.2v49.8c0,6.2-5,11.2-11.2,11.2h-205.8c-6.2,0-11.2-5-11.2-11.2v-49.8c0-6.2,5-11.2,11.2-11.2h205.8M878.4,319.6h-205.8c-7,0-12.7,5.7-12.7,12.7v49.8c0,7,5.7,12.7,12.7,12.7h205.8c7,0,12.7-5.7,12.7-12.7v-49.8c0-7-5.7-12.7-12.7-12.7h0Z"/>
    </g>
    <g>
      <path class="st2" d="M788.4,415.9h205.8c6.6,0,11.9,5.3,11.9,11.9v49.8c0,6.6-5.3,11.9-11.9,11.9h-205.8c-6.6,0-11.9-5.3-11.9-11.9v-49.8c0-6.6,5.3-11.9,11.9-11.9Z"/>
      <path class="st11" d="M994.2,416.7c6.2,0,11.2,5,11.2,11.2v49.8c0,6.2-5,11.2-11.2,11.2h-205.8c-6.2,0-11.2-5-11.2-11.2v-49.8c0-6.2,5-11.2,11.2-11.2h205.8M994.2,415.2h-205.8c-7,0-12.7,5.7-12.7,12.7v49.8c0,7,5.7,12.7,12.7,12.7h205.8c7,0,12.7-5.7,12.7-12.7v-49.8c0-7-5.7-12.7-12.7-12.7h0Z"/>
    </g>
    <g>
      <path class="st5" d="M904.8,511.4h205.8c6.6,0,11.9,5.3,11.9,11.9v49.8c0,6.6-5.3,11.9-11.9,11.9h-205.8c-6.6,0-11.9-5.3-11.9-11.9v-49.8c0-6.6,5.3-11.9,11.9-11.9Z"/>
      <path class="st10" d="M1110.5,512.2c6.2,0,11.2,5,11.2,11.2v49.8c0,6.2-5,11.2-11.2,11.2h-205.8c-6.2,0-11.2-5-11.2-11.2v-49.8c0-6.2,5-11.2,11.2-11.2h205.8M1110.5,510.7h-205.8c-7,0-12.7,5.7-12.7,12.7v49.8c0,7,5.7,12.7,12.7,12.7h205.8c7,0,12.7-5.7,12.7-12.7v-49.8c0-7-5.7-12.7-12.7-12.7h0Z"/>
    </g>
    <g>
      <path class="st0" d="M1020.1,606.9h205.8c6.6,0,11.9,5.3,11.9,11.9v49.8c0,6.6-5.3,11.9-11.9,11.9h-205.8c-6.6,0-11.9-5.3-11.9-11.9v-49.8c0-6.6,5.3-11.9,11.9-11.9Z"/>
      <path class="st4" d="M1225.9,607.7c6.2,0,11.2,5,11.2,11.2v49.8c0,6.2-5,11.2-11.2,11.2h-205.8c-6.2,0-11.2-5-11.2-11.2v-49.8c0-6.2,5-11.2,11.2-11.2h205.8M1225.9,606.2h-205.8c-7,0-12.7,5.7-12.7,12.7v49.8c0,7,5.7,12.7,12.7,12.7h205.8c7,0,12.7-5.7,12.7-12.7v-49.8c0-7-5.7-12.7-12.7-12.7h0Z"/>
    </g>
  </g>
  <g>
    <path class="st1" d="M881.9,354.6h60.2c0,18.2,0,36.3,0,54.5"/>
    <polygon class="st7" points="933.5 399 942.1 407.6 950.8 399 950.8 406.3 942.1 414.9 933.5 406.3 933.5 399"/>
  </g>
  <g>
    <path class="st1" d="M1519.1,353.2c20.1,0,269.5,2.9,289.6,2.9,0,18.9-.6,204.4-.7,243.9"/>
    <polygon class="st7" points="1799.4 589.8 1808 598.4 1816.6 589.8 1816.6 597.2 1808 605.7 1799.4 597.1 1799.4 589.8"/>
  </g>
  <g>
    <path class="st1" d="M996.6,451.9h60.2c0,18.2,0,36.3,0,54.5"/>
    <polygon class="st7" points="1048.2 496.2 1056.8 504.9 1065.4 496.2 1065.4 503.5 1056.8 512.2 1048.2 503.5 1048.2 496.2"/>
  </g>
  <g>
    <path class="st1" d="M1114.2,548.4h60.2c0,18.2,0,36.3,0,54.5"/>
    <polygon class="st7" points="1165.8 592.8 1174.4 601.4 1183 592.8 1183 600.1 1174.4 608.7 1165.8 600.1 1165.8 592.8"/>
  </g>
  <g>
    <path class="st8" d="M542.4,500.6c0-29.2-36.6-57-92.8-74.1,13-57.2,7.2-102.8-18.2-117.3-5.8-3.4-12.7-5-20.2-5v20.1c4.1,0,7.5.8,10.3,2.3,12.2,7,17.5,33.7,13.4,68.1-1,8.5-2.6,17.4-4.6,26.5-17.6-4.3-36.9-7.6-57.1-9.8-12.1-16.6-24.7-31.8-37.4-45,29.3-27.3,56.9-42.2,75.6-42.2v-20.1c-24.7,0-57.1,17.6-89.9,48.2-32.8-30.4-65.1-47.9-89.9-47.9v20.1c18.6,0,46.2,14.8,75.6,41.9-12.6,13.2-25.2,28.3-37.2,44.9-20.3,2.2-39.6,5.5-57.2,9.9-2.1-9-3.6-17.7-4.7-26.1-4.2-34.4,1-61.1,13.1-68.2,2.7-1.6,6.2-2.3,10.3-2.3v-20.1c-7.6,0-14.4,1.6-20.3,5-25.3,14.6-31,60-17.9,117.1-56,17.3-92.4,44.9-92.4,74.1s36.6,57,92.8,74.1c-13,57.2-7.2,102.8,18.2,117.3,5.8,3.4,12.7,5,20.2,5,24.7,0,57.1-17.6,89.9-48.2,32.8,30.4,65.1,47.9,89.9,47.9s14.4-1.6,20.3-5c25.3-14.6,31-60,17.9-117.1,55.8-17.2,92.2-44.9,92.2-74.1h0ZM425.2,440.6c-3.3,11.6-7.5,23.6-12.1,35.5-3.7-7.2-7.6-14.4-11.8-21.6-4.1-7.2-8.5-14.2-13-21.1,12.8,1.9,25.1,4.2,36.9,7.1h0ZM384,536.4c-7,12.1-14.2,23.7-21.7,34.4-13.4,1.2-27,1.8-40.7,1.8s-27.2-.6-40.5-1.7c-7.5-10.7-14.8-22.1-21.8-34.2-6.8-11.8-13-23.8-18.7-35.8,5.6-12.1,11.9-24.1,18.6-35.9,7-12.1,14.2-23.7,21.7-34.4,13.4-1.2,27-1.8,40.7-1.8s27.2.6,40.5,1.7c7.5,10.7,14.8,22.1,21.8,34.2,6.8,11.8,13,23.8,18.7,35.8-5.7,12.1-11.9,24.1-18.6,35.9h0ZM413.1,524.7c4.9,12.1,9,24.1,12.4,35.8-11.8,2.9-24.2,5.3-37.1,7.2,4.4-6.9,8.8-14,13-21.3,4.1-7.2,8-14.5,11.7-21.7h0ZM321.8,620.7c-8.4-8.6-16.7-18.3-25-28.8,8.1.4,16.4.6,24.7.6s16.8-.2,25-.6c-8.1,10.5-16.5,20.2-24.7,28.8ZM254.9,567.7c-12.8-1.9-25.1-4.2-36.9-7.1,3.3-11.6,7.5-23.6,12.1-35.5,3.7,7.2,7.6,14.4,11.8,21.6s8.5,14.2,13,21.1ZM321.4,380.5c8.4,8.6,16.7,18.3,25,28.8-8.1-.4-16.4-.6-24.7-.6s-16.8.2-25,.6c8.1-10.5,16.5-20.2,24.7-28.8ZM254.8,433.5c-4.4,6.9-8.8,14-13,21.3-4.1,7.2-8,14.4-11.7,21.6-4.9-12.1-9-24.1-12.4-35.8,11.8-2.8,24.2-5.2,37.1-7.1h0ZM173.4,546.1c-31.9-13.6-52.5-31.4-52.5-45.5s20.6-32,52.5-45.5c7.7-3.3,16.2-6.3,24.9-9.1,5.1,17.6,11.9,36,20.2,54.8-8.3,18.7-14.9,37-20,54.5-8.9-2.8-17.4-5.8-25.2-9.2h0ZM221.8,674.7c-12.2-7-17.5-33.7-13.4-68.1,1-8.5,2.6-17.4,4.6-26.5,17.6,4.3,36.9,7.6,57.1,9.8,12.1,16.6,24.7,31.8,37.4,45-29.3,27.3-56.9,42.2-75.6,42.2-4,0-7.5-.9-10.2-2.4h0ZM435.2,606.1c4.2,34.4-1,61.1-13.1,68.2-2.7,1.6-6.2,2.3-10.3,2.3-18.6,0-46.2-14.8-75.6-41.9,12.6-13.2,25.2-28.3,37.2-44.9,20.3-2.2,39.6-5.5,57.2-9.9,2.1,9.1,3.7,17.8,4.7,26.2ZM469.8,546.1c-7.7,3.3-16.2,6.3-24.9,9.1-5.1-17.6-11.9-36-20.2-54.8,8.3-18.7,14.9-37,20-54.5,8.9,2.8,17.4,5.8,25.3,9.2,31.9,13.6,52.5,31.4,52.5,45.5,0,14.1-20.7,32-52.5,45.5h0Z"/>
    <circle class="st8" cx="321.6" cy="500.6" r="41.1"/>
  </g>
  <g>
    <path d="M230.9,930.6h-11.2l-9-15.6c-1.6-2.7-3.1-4.6-4.4-5.6s-2.8-1.6-4.6-1.6h-5.3v22.9h-9.7v-58.4h19c6,0,10.7,1.4,14.2,4.1,3.4,2.7,5.2,6.8,5.2,12.1s-1.1,7.4-3.3,10.2c-2.2,2.8-5.2,4.8-9.1,6.1v.2c1.4.6,2.8,1.6,3.9,2.8,1.2,1.3,2.3,2.8,3.3,4.5l10.9,18.3ZM196.5,880v19.7h7.7c3.1,0,5.7-1,7.8-3,2-2,3-4.5,3-7.5s-.9-5.2-2.7-6.8c-1.8-1.6-4.4-2.4-7.9-2.4h-7.8Z"/>
    <path d="M270.5,912.2h-28.5c.2,3.9,1.3,6.9,3.4,9,2.1,2,5.1,3.1,8.9,3.1s3.3-.3,5.3-.9c2-.6,3.9-1.6,5.9-3l4.3,5.9c-2.6,1.9-5.2,3.2-7.9,4.1-2.7.8-5.6,1.3-8.8,1.3-6.5,0-11.5-1.9-15.1-5.6-3.6-3.7-5.4-8.9-5.5-15.7,0-6.7,1.9-12.1,5.6-16.2,3.7-4.1,8.5-6.2,14.4-6.2s10,1.8,13.2,5.3c3.2,3.5,4.8,8.5,4.8,14.9v4.1ZM261.3,905.6c0-3.6-.8-6.3-2.3-8.1-1.6-1.8-3.8-2.7-6.6-2.7s-5,1-6.9,2.9c-1.9,1.9-3,4.6-3.5,7.9h19.3Z"/>
    <path d="M311.3,930.6h-9.2v-6.3h-.2c-1.4,2.4-3.2,4.2-5.3,5.4s-4.5,1.8-7.2,1.8-6.9-1.1-9.4-3.4c-2.5-2.2-3.7-5.3-3.7-9.2s1.2-6.7,3.7-9.1c2.5-2.4,6.2-3.9,11.1-4.6l11-1.5v-.9c0-2.8-.7-4.9-2.2-6.1-1.5-1.3-3.4-1.9-5.9-1.9s-4,.4-6,1.1-4,1.8-6,3.3l-4.1-5.7c2.6-2,5.2-3.4,7.9-4.3,2.7-.9,5.7-1.4,9-1.4,5.6,0,9.7,1.4,12.5,4.1s4.1,6.9,4.1,12.4v26.1ZM302.2,913.6v-3.5l-8.9,1.2c-2.6.4-4.6,1.1-5.9,2.1s-2,2.6-2,4.6.6,3.6,1.9,4.8c1.2,1.1,2.8,1.7,4.8,1.7,3.1,0,5.5-1,7.4-3.1,1.8-2,2.8-4.6,2.8-7.8Z"/>
    <path d="M354.2,928c-2.1,1.2-4.1,2.2-6.1,2.7-2,.6-4.2.8-6.6.8-6.4,0-11.5-1.9-15.4-5.6-3.8-3.7-5.8-8.8-5.8-15.3s2-12.4,6-16.6c4-4.1,9.3-6.2,16.1-6.2s4.5.3,6.5.8,3.9,1.3,5.9,2.5l-3.7,6.6c-1.4-.8-2.8-1.4-4.2-1.7-1.4-.4-2.8-.5-4.4-.5-4,0-7.1,1.3-9.2,3.9-2.2,2.6-3.3,6.1-3.3,10.5s1.2,8.1,3.5,10.5c2.3,2.4,5.3,3.7,8.9,3.7s2.3-.2,3.7-.6,2.8-1,4.3-1.9l3.9,6.5Z"/>
    <path d="M384.9,930c-1.2.5-2.5.9-3.8,1.1-1.3.2-2.8.4-4.3.4-3.9,0-6.8-1-8.9-3.1-2.1-2-3.1-5.1-3.1-9.2v-23h-7v-7.4h7v-10.1l9.4-2.8v13h10v7.4h-10v22.2c0,2,.4,3.5,1.1,4.4.7.9,1.9,1.3,3.5,1.3s1.5,0,2.2-.3,1.3-.4,1.9-.7l2,6.7Z"/>
    <path d="M446.5,928c-2.1,1.2-4.1,2.2-6.1,2.7-2,.6-4.2.8-6.6.8-6.4,0-11.5-1.9-15.4-5.6-3.8-3.7-5.8-8.8-5.8-15.3s2-12.4,6-16.6c4-4.1,9.3-6.2,16.1-6.2s4.5.3,6.5.8,3.9,1.3,5.9,2.5l-3.7,6.6c-1.4-.8-2.8-1.4-4.2-1.7-1.4-.4-2.8-.5-4.4-.5-4,0-7.1,1.3-9.2,3.9-2.2,2.6-3.3,6.1-3.3,10.5s1.2,8.1,3.5,10.5c2.3,2.4,5.3,3.7,8.9,3.7s2.3-.2,3.7-.6,2.8-1,4.3-1.9l3.9,6.5Z"/>
    <path d="M473,931.5c-6.5,0-11.7-1.9-15.5-5.8-3.8-3.9-5.7-9.1-5.7-15.7,0-6.9,2-12.3,5.9-16.3,3.9-3.9,9.3-5.9,16.1-5.9,6.5,0,11.6,1.9,15.3,5.8,3.7,3.9,5.5,9.1,5.5,15.7s-1.9,12.2-5.8,16.2c-3.9,4-9.2,6-15.8,6ZM473.4,924c3.8,0,6.6-1.2,8.6-3.7,2-2.5,3-6,3-10.7s-1-8.1-3-10.5c-2-2.4-4.9-3.6-8.6-3.6s-6.6,1.3-8.8,3.8c-2.1,2.6-3.2,6.1-3.2,10.6s1.1,8,3.2,10.5c2.1,2.5,5.1,3.7,8.8,3.7Z"/>
    <path d="M541.4,930.6h-9.4v-23.5c0-3.9-.7-6.8-2.1-8.7-1.4-1.9-3.5-2.9-6.4-2.9s-5.2,1.1-7,3.2c-1.8,2.1-2.8,4.9-2.8,8.1v23.8h-9.5v-41.7h9.5v6.8h.2c1.5-2.6,3.4-4.5,5.7-5.8,2.3-1.3,4.9-1.9,7.9-1.9,4.6,0,8,1.5,10.4,4.4,2.4,2.9,3.6,7.2,3.6,12.8v25.5Z"/>
    <path d="M575.6,930c-1.2.5-2.5.9-3.8,1.1-1.3.2-2.8.4-4.3.4-3.9,0-6.8-1-8.9-3.1-2.1-2-3.1-5.1-3.1-9.2v-23h-7v-7.4h7v-10.1l9.4-2.8v13h10v7.4h-10v22.2c0,2,.4,3.5,1.1,4.4.7.9,1.9,1.3,3.5,1.3s1.5,0,2.2-.3,1.3-.4,1.9-.7l2,6.7Z"/>
    <path d="M618.3,912.2h-28.5c.2,3.9,1.3,6.9,3.4,9,2.1,2,5.1,3.1,8.9,3.1s3.3-.3,5.3-.9c2-.6,3.9-1.6,5.9-3l4.3,5.9c-2.6,1.9-5.2,3.2-7.9,4.1-2.7.8-5.6,1.3-8.8,1.3-6.5,0-11.5-1.9-15.1-5.6-3.6-3.7-5.4-8.9-5.5-15.7,0-6.7,1.9-12.1,5.6-16.2,3.7-4.1,8.5-6.2,14.4-6.2s10,1.8,13.2,5.3c3.2,3.5,4.8,8.5,4.8,14.9v4.1ZM609.1,905.6c0-3.6-.8-6.3-2.3-8.1-1.6-1.8-3.8-2.7-6.6-2.7s-5,1-6.9,2.9c-1.9,1.9-3,4.6-3.5,7.9h19.3Z"/>
    <path d="M662.2,888.9l-13.9,20.7,13.7,21h-11l-7.2-12.5c-.3-.4-.6-.9-.9-1.5-.3-.6-.6-1.2-1-1.9h-.2c-.1.3-.3.7-.6,1.3-.3.6-.7,1.3-1.2,2.1l-7.3,12.5h-10.9l14.2-20.6-13.4-21.1h11l7.1,13.1c.4.7.7,1.3.9,1.9.3.6.5,1.1.8,1.7h.2c.3-.6.6-1.2.9-1.8.3-.6.7-1.2,1-1.8l7.4-13.1h10.4Z"/>
    <path d="M691.8,930c-1.2.5-2.5.9-3.8,1.1-1.3.2-2.8.4-4.3.4-3.9,0-6.8-1-8.9-3.1-2.1-2-3.1-5.1-3.1-9.2v-23h-7v-7.4h7v-10.1l9.4-2.8v13h10v7.4h-10v22.2c0,2,.4,3.5,1.1,4.4.7.9,1.9,1.3,3.5,1.3s1.5,0,2.2-.3,1.3-.4,1.9-.7l2,6.7Z"/>
    <path d="M721.8,911.3v-7h22.2v7h-22.2Z"/>
    <path d="M816.5,927.2c0,7.1-2,12.7-6,16.8-4,4.1-9.7,6.2-17,6.2s-5.6-.3-8.1-.8c-2.5-.5-5-1.4-7.7-2.6l3-6.8c2.1.9,4.2,1.6,6.2,2.1,2,.4,4.2.7,6.6.7,4.3,0,7.6-1.2,9.9-3.7,2.3-2.5,3.5-6,3.5-10.5v-4.6h-.2c-1.5,2.5-3.4,4.4-5.7,5.7-2.3,1.2-5,1.9-8,1.9-5.3,0-9.5-1.9-12.6-5.6-3.1-3.7-4.7-8.7-4.7-14.9s1.7-12.5,5.2-16.8c3.5-4.2,8.1-6.4,13.8-6.4s5,.5,7,1.6c2,1.1,3.7,2.6,5,4.8h.2v-5.4h9.5v38.3ZM807.1,911.2v-4.8c0-3-1-5.6-2.9-7.7-1.9-2.1-4.4-3.2-7.3-3.2s-6.3,1.3-8.4,3.8c-2,2.6-3,6.3-3,11.3s.9,7.6,2.8,10c1.9,2.3,4.5,3.5,7.8,3.5s5.9-1.2,7.9-3.6c2-2.4,3-5.5,3-9.3Z"/>
    <path d="M828.8,930.6v-61.7h9.5v61.7h-9.5Z"/>
    <path d="M869.1,931.5c-6.5,0-11.7-1.9-15.5-5.8-3.8-3.9-5.7-9.1-5.7-15.7,0-6.9,2-12.3,5.9-16.3,3.9-3.9,9.3-5.9,16.1-5.9,6.5,0,11.6,1.9,15.3,5.8,3.7,3.9,5.5,9.1,5.5,15.7s-1.9,12.2-5.8,16.2c-3.9,4-9.2,6-15.8,6ZM869.5,924c3.8,0,6.6-1.2,8.6-3.7,2-2.5,3-6,3-10.7s-1-8.1-3-10.5c-2-2.4-4.9-3.6-8.6-3.6s-6.6,1.3-8.8,3.8c-2.1,2.6-3.2,6.1-3.2,10.6s1.1,8,3.2,10.5c2.1,2.5,5.1,3.7,8.8,3.7Z"/>
    <path d="M910,925.4h-.2v5.1h-9.5v-61.7h9.5v26.9h.2c1.6-2.6,3.6-4.6,5.9-5.9s5-2,8.1-2c5.4,0,9.5,1.9,12.5,5.6,3,3.7,4.5,8.7,4.5,15s-1.7,12.6-5.1,16.8c-3.4,4.2-8,6.3-13.8,6.3s-5-.5-7-1.5c-2-1-3.7-2.5-5.1-4.6ZM909.7,907.9v5.1c0,3.1,1,5.7,2.9,7.8,1.9,2.1,4.4,3.2,7.4,3.2s6.3-1.4,8.3-4.1c2-2.7,3-6.5,3-11.4s-.9-7.3-2.8-9.6c-1.8-2.3-4.4-3.5-7.6-3.5s-6,1.2-8.1,3.5-3.1,5.3-3.1,9Z"/>
    <path d="M982.3,930.6h-9.2v-6.3h-.2c-1.4,2.4-3.2,4.2-5.3,5.4s-4.5,1.8-7.2,1.8-6.9-1.1-9.4-3.4c-2.5-2.2-3.7-5.3-3.7-9.2s1.2-6.7,3.7-9.1c2.5-2.4,6.2-3.9,11.1-4.6l11-1.5v-.9c0-2.8-.7-4.9-2.2-6.1-1.5-1.3-3.4-1.9-5.9-1.9s-4,.4-6,1.1-4,1.8-6,3.3l-4.1-5.7c2.6-2,5.2-3.4,7.9-4.3,2.7-.9,5.7-1.4,9-1.4,5.6,0,9.7,1.4,12.5,4.1s4.1,6.9,4.1,12.4v26.1ZM973.2,913.6v-3.5l-8.9,1.2c-2.6.4-4.6,1.1-5.9,2.1s-2,2.6-2,4.6.6,3.6,1.9,4.8c1.2,1.1,2.8,1.7,4.8,1.7,3.1,0,5.5-1,7.4-3.1,1.8-2,2.8-4.6,2.8-7.8Z"/>
    <path d="M994,930.6v-61.7h9.5v61.7h-9.5Z"/>
    <path d="M1034.6,927.2l4.1-6.7c1.6,1.1,3.4,2.1,5.2,2.7,1.8.7,3.8,1,6,1s4.1-.4,5.4-1.3c1.3-.9,1.9-2.1,1.9-3.8s-.5-2.5-1.6-3.4c-1.1-.9-2.9-1.7-5.5-2.3-5.2-1.2-8.9-2.8-11-4.8-2.1-2-3.2-4.7-3.2-7.9s1.5-6.9,4.4-9.3c2.9-2.4,6.8-3.6,11.5-3.6s4.6.3,6.8.9c2.1.6,4.2,1.6,6.3,2.9l-3.8,6.5c-1.8-1.1-3.4-2-4.9-2.4-1.5-.5-3-.7-4.6-.7-2.2,0-4,.4-5.2,1.2-1.2.8-1.9,2-1.9,3.4s.6,2.7,1.9,3.4c1.3.7,3.4,1.5,6.4,2.2,4.5,1.1,7.8,2.7,9.9,4.7,2.1,2,3.1,4.8,3.1,8.2s-1.5,7.3-4.4,9.7c-2.9,2.4-6.9,3.6-11.9,3.6s-5.3-.4-7.8-1.1c-2.5-.7-4.9-1.8-7.1-3.2Z"/>
    <path d="M1097.3,930c-1.2.5-2.5.9-3.8,1.1-1.3.2-2.8.4-4.3.4-3.9,0-6.8-1-8.9-3.1-2.1-2-3.1-5.1-3.1-9.2v-23h-7v-7.4h7v-10.1l9.4-2.8v13h10v7.4h-10v22.2c0,2,.4,3.5,1.1,4.4.7.9,1.9,1.3,3.5,1.3s1.5,0,2.2-.3,1.3-.4,1.9-.7l2,6.7Z"/>
    <path d="M1136.6,930.6h-9.2v-6.3h-.2c-1.4,2.4-3.2,4.2-5.3,5.4s-4.5,1.8-7.2,1.8-6.9-1.1-9.4-3.4c-2.5-2.2-3.7-5.3-3.7-9.2s1.2-6.7,3.7-9.1c2.5-2.4,6.2-3.9,11.1-4.6l11-1.5v-.9c0-2.8-.7-4.9-2.2-6.1-1.5-1.3-3.4-1.9-5.9-1.9s-4,.4-6,1.1-4,1.8-6,3.3l-4.1-5.7c2.6-2,5.2-3.4,7.9-4.3,2.7-.9,5.7-1.4,9-1.4,5.6,0,9.7,1.4,12.5,4.1s4.1,6.9,4.1,12.4v26.1ZM1127.5,913.6v-3.5l-8.9,1.2c-2.6.4-4.6,1.1-5.9,2.1s-2,2.6-2,4.6.6,3.6,1.9,4.8c1.2,1.1,2.8,1.7,4.8,1.7,3.1,0,5.5-1,7.4-3.1,1.8-2,2.8-4.6,2.8-7.8Z"/>
    <path d="M1171,930c-1.2.5-2.5.9-3.8,1.1-1.3.2-2.8.4-4.3.4-3.9,0-6.8-1-8.9-3.1-2.1-2-3.1-5.1-3.1-9.2v-23h-7v-7.4h7v-10.1l9.4-2.8v13h10v7.4h-10v22.2c0,2,.4,3.5,1.1,4.4.7.9,1.9,1.3,3.5,1.3s1.5,0,2.2-.3,1.3-.4,1.9-.7l2,6.7Z"/>
    <path d="M1213.7,912.2h-28.5c.2,3.9,1.3,6.9,3.4,9,2.1,2,5.1,3.1,8.9,3.1s3.3-.3,5.3-.9c2-.6,3.9-1.6,5.9-3l4.3,5.9c-2.6,1.9-5.2,3.2-7.9,4.1-2.7.8-5.6,1.3-8.8,1.3-6.5,0-11.5-1.9-15.1-5.6-3.6-3.7-5.4-8.9-5.5-15.7,0-6.7,1.9-12.1,5.6-16.2,3.7-4.1,8.5-6.2,14.4-6.2s10,1.8,13.2,5.3c3.2,3.5,4.8,8.5,4.8,14.9v4.1ZM1204.5,905.6c0-3.6-.8-6.3-2.3-8.1-1.6-1.8-3.8-2.7-6.6-2.7s-5,1-6.9,2.9c-1.9,1.9-3,4.6-3.5,7.9h19.3Z"/>
    <path d="M1308,930.6h-9.4v-23.9c0-3.9-.6-6.8-1.9-8.6-1.3-1.8-3.4-2.7-6.2-2.7s-4.6,1.1-6.3,3.4c-1.7,2.2-2.5,5-2.5,8.2v23.6h-9.4v-24.4c0-3.6-.7-6.3-2.1-8-1.4-1.8-3.4-2.7-6.1-2.7s-4.7,1.1-6.4,3.2c-1.6,2.1-2.4,4.9-2.4,8.4v23.5h-9.5v-41.7h9.5v6.6h.2c1.4-2.4,3.2-4.2,5.5-5.6,2.3-1.3,4.8-2,7.7-2s5.4.7,7.4,2.2,3.6,3.5,4.5,6.1c1.6-2.7,3.5-4.8,5.8-6.2,2.3-1.4,5-2.1,8.1-2.1,4.6,0,8,1.4,10.3,4.2,2.3,2.8,3.4,7,3.4,12.6v25.8Z"/>
    <path d="M1351.3,930.6h-9.2v-6.3h-.2c-1.4,2.4-3.2,4.2-5.3,5.4s-4.5,1.8-7.2,1.8-6.9-1.1-9.4-3.4c-2.5-2.2-3.7-5.3-3.7-9.2s1.2-6.7,3.7-9.1c2.5-2.4,6.2-3.9,11.1-4.6l11-1.5v-.9c0-2.8-.7-4.9-2.2-6.1-1.5-1.3-3.4-1.9-5.9-1.9s-4,.4-6,1.1-4,1.8-6,3.3l-4.1-5.7c2.6-2,5.2-3.4,7.9-4.3,2.7-.9,5.7-1.4,9-1.4,5.6,0,9.7,1.4,12.5,4.1s4.1,6.9,4.1,12.4v26.1ZM1342.2,913.6v-3.5l-8.9,1.2c-2.6.4-4.6,1.1-5.9,2.1s-2,2.6-2,4.6.6,3.6,1.9,4.8c1.2,1.1,2.8,1.7,4.8,1.7,3.1,0,5.5-1,7.4-3.1,1.8-2,2.8-4.6,2.8-7.8Z"/>
    <path d="M1400.1,930.6h-9.4v-23.5c0-3.9-.7-6.8-2.1-8.7-1.4-1.9-3.5-2.9-6.4-2.9s-5.2,1.1-7,3.2c-1.8,2.1-2.8,4.9-2.8,8.1v23.8h-9.5v-41.7h9.5v6.8h.2c1.5-2.6,3.4-4.5,5.7-5.8,2.3-1.3,4.9-1.9,7.9-1.9,4.6,0,8,1.5,10.4,4.4,2.4,2.9,3.6,7.2,3.6,12.8v25.5Z"/>
    <path d="M1443.5,930.6h-9.2v-6.3h-.2c-1.4,2.4-3.2,4.2-5.3,5.4s-4.5,1.8-7.2,1.8-6.9-1.1-9.4-3.4c-2.5-2.2-3.7-5.3-3.7-9.2s1.2-6.7,3.7-9.1c2.5-2.4,6.2-3.9,11.1-4.6l11-1.5v-.9c0-2.8-.7-4.9-2.2-6.1-1.5-1.3-3.4-1.9-5.9-1.9s-4,.4-6,1.1-4,1.8-6,3.3l-4.1-5.7c2.6-2,5.2-3.4,7.9-4.3,2.7-.9,5.7-1.4,9-1.4,5.6,0,9.7,1.4,12.5,4.1s4.1,6.9,4.1,12.4v26.1ZM1434.3,913.6v-3.5l-8.9,1.2c-2.6.4-4.6,1.1-5.9,2.1s-2,2.6-2,4.6.6,3.6,1.9,4.8c1.2,1.1,2.8,1.7,4.8,1.7,3.1,0,5.5-1,7.4-3.1,1.8-2,2.8-4.6,2.8-7.8Z"/>
    <path d="M1493.1,927.2c0,7.1-2,12.7-6,16.8-4,4.1-9.7,6.2-17,6.2s-5.6-.3-8.1-.8c-2.5-.5-5-1.4-7.7-2.6l3-6.8c2.1.9,4.2,1.6,6.2,2.1,2,.4,4.2.7,6.6.7,4.3,0,7.6-1.2,9.9-3.7,2.3-2.5,3.5-6,3.5-10.5v-4.6h-.2c-1.5,2.5-3.4,4.4-5.7,5.7-2.3,1.2-5,1.9-8,1.9-5.3,0-9.5-1.9-12.6-5.6-3.1-3.7-4.7-8.7-4.7-14.9s1.7-12.5,5.2-16.8c3.5-4.2,8.1-6.4,13.8-6.4s5,.5,7,1.6c2,1.1,3.7,2.6,5,4.8h.2v-5.4h9.5v38.3ZM1483.7,911.2v-4.8c0-3-1-5.6-2.9-7.7-1.9-2.1-4.4-3.2-7.3-3.2s-6.3,1.3-8.4,3.8c-2,2.6-3,6.3-3,11.3s.9,7.6,2.8,10c1.9,2.3,4.5,3.5,7.8,3.5s5.9-1.2,7.9-3.6c2-2.4,3-5.5,3-9.3Z"/>
    <path d="M1540.7,912.2h-28.5c.2,3.9,1.3,6.9,3.4,9,2.1,2,5.1,3.1,8.9,3.1s3.3-.3,5.3-.9c2-.6,3.9-1.6,5.9-3l4.3,5.9c-2.6,1.9-5.2,3.2-7.9,4.1-2.7.8-5.6,1.3-8.8,1.3-6.5,0-11.5-1.9-15.1-5.6-3.6-3.7-5.4-8.9-5.5-15.7,0-6.7,1.9-12.1,5.6-16.2,3.7-4.1,8.5-6.2,14.4-6.2s10,1.8,13.2,5.3c3.2,3.5,4.8,8.5,4.8,14.9v4.1ZM1531.5,905.6c0-3.6-.8-6.3-2.3-8.1-1.6-1.8-3.8-2.7-6.6-2.7s-5,1-6.9,2.9c-1.9,1.9-3,4.6-3.5,7.9h19.3Z"/>
    <path d="M1612.1,930.6h-9.4v-23.9c0-3.9-.6-6.8-1.9-8.6-1.3-1.8-3.4-2.7-6.2-2.7s-4.6,1.1-6.3,3.4c-1.7,2.2-2.5,5-2.5,8.2v23.6h-9.4v-24.4c0-3.6-.7-6.3-2.1-8-1.4-1.8-3.4-2.7-6.1-2.7s-4.7,1.1-6.4,3.2c-1.6,2.1-2.4,4.9-2.4,8.4v23.5h-9.5v-41.7h9.5v6.6h.2c1.4-2.4,3.2-4.2,5.5-5.6,2.3-1.3,4.8-2,7.7-2s5.4.7,7.4,2.2,3.6,3.5,4.5,6.1c1.6-2.7,3.5-4.8,5.8-6.2,2.3-1.4,5-2.1,8.1-2.1,4.6,0,8,1.4,10.3,4.2,2.3,2.8,3.4,7,3.4,12.6v25.8Z"/>
    <path d="M1658.8,912.2h-28.5c.2,3.9,1.3,6.9,3.4,9,2.1,2,5.1,3.1,8.9,3.1s3.3-.3,5.3-.9c2-.6,3.9-1.6,5.9-3l4.3,5.9c-2.6,1.9-5.2,3.2-7.9,4.1-2.7.8-5.6,1.3-8.8,1.3-6.5,0-11.5-1.9-15.1-5.6-3.6-3.7-5.4-8.9-5.5-15.7,0-6.7,1.9-12.1,5.6-16.2,3.7-4.1,8.5-6.2,14.4-6.2s10,1.8,13.2,5.3c3.2,3.5,4.8,8.5,4.8,14.9v4.1ZM1649.6,905.6c0-3.6-.8-6.3-2.3-8.1-1.6-1.8-3.8-2.7-6.6-2.7s-5,1-6.9,2.9c-1.9,1.9-3,4.6-3.5,7.9h19.3Z"/>
    <path d="M1705,930.6h-9.4v-23.5c0-3.9-.7-6.8-2.1-8.7-1.4-1.9-3.5-2.9-6.4-2.9s-5.2,1.1-7,3.2c-1.8,2.1-2.8,4.9-2.8,8.1v23.8h-9.5v-41.7h9.5v6.8h.2c1.5-2.6,3.4-4.5,5.7-5.8,2.3-1.3,4.9-1.9,7.9-1.9,4.6,0,8,1.5,10.4,4.4,2.4,2.9,3.6,7.2,3.6,12.8v25.5Z"/>
    <path d="M1739.2,930c-1.2.5-2.5.9-3.8,1.1-1.3.2-2.8.4-4.3.4-3.9,0-6.8-1-8.9-3.1-2.1-2-3.1-5.1-3.1-9.2v-23h-7v-7.4h7v-10.1l9.4-2.8v13h10v7.4h-10v22.2c0,2,.4,3.5,1.1,4.4.7.9,1.9,1.3,3.5,1.3s1.5,0,2.2-.3,1.3-.4,1.9-.7l2,6.7Z"/>
  </g>
</svg>