<?xml version="1.0" encoding="UTF-8"?>
<svg id="Layer_1" data-name="Layer 1" xmlns="http://www.w3.org/2000/svg" xmlns:xlink="http://www.w3.org/1999/xlink" viewBox="0 0 805 805">
  <defs>
    <style>
      .cls-1 {
        fill: #0b2629;
      }

      .cls-2 {
        clip-path: url(#clippath-4);
      }

      .cls-3 {
        fill: #32c1aa;
      }

      .cls-4 {
        fill: #ffc94e;
      }

      .cls-5 {
        fill: #2c646e;
      }

      .cls-6 {
        fill: #fff2d3;
      }

      .cls-7 {
        fill: #2d63a9;
      }

      .cls-8 {
        fill: #fff;
      }

      .cls-9 {
        fill: #fa6666;
      }

      .cls-10 {
        fill: #194d84;
      }

      .cls-11, .cls-12, .cls-13 {
        fill: none;
      }

      .cls-12 {
        stroke: #428084;
        stroke-width: 2.96px;
      }

      .cls-12, .cls-13 {
        stroke-miterlimit: 10;
      }

      .cls-14 {
        clip-path: url(#clippath-1);
      }

      .cls-15 {
        clip-path: url(#clippath-3);
      }

      .cls-16 {
        fill: #314b46;
      }

      .cls-17 {
        fill: #42c5e5;
      }

      .cls-13 {
        stroke: #00f4ff;
        stroke-width: 5.92px;
      }

      .cls-18 {
        clip-path: url(#clippath-2);
      }

      .cls-19 {
        fill: #3d858d;
      }

      .cls-20 {
        fill: #206cb6;
      }

      .cls-21 {
        clip-path: url(#clippath);
      }

      .cls-22 {
        fill: #f3ce52;
      }
    </style>
    <clipPath id="clippath">
      <circle class="cls-11" cx="402.5" cy="402.5" r="399"/>
    </clipPath>
    <clipPath id="clippath-1">
      <path class="cls-11" d="M651.78,413.22c-8.78-41.05-20.5-81.91-40.78-118.67-20.28-36.76-49.75-69.41-87.43-87.91,8.18-5.63,4.66-19.68-3.92-24.68-8.58-5-19.28-3.74-29.11-2.33,8.73-6.72,9.01-21.76.53-28.8-7.73-6.41-20.63-4.43-26.64,3.4,5.22-8.64,11.6-24.52,1.96-32.4-10.15-8.29-32.6,1.7-41.43,7.91,2.82-6.07,2.7-13.39-1.19-18.99-3.9-5.62-11.18-8.68-17.93-7.54-7.71,1.3-13.94,7.67-16.57,15.04-2.62,7.37-2.07,15.55-.08,23.11-5.64-3.55-10.46-8.23-15.59-12.49-5.13-4.25-10.76-8.18-17.23-9.81-6.46-1.62-13.93-.57-18.69,4.1-7.56,7.42-2.83,23.65,2.86,31.06-6.01-7.83-18.91-9.81-26.64-3.4-8.48,7.04-8.2,22.08.53,28.8-9.83-1.41-20.53-2.67-29.11,2.33-8.58,5-12.1,19.05-3.92,24.68-37.68,18.51-67.15,51.15-87.43,87.91-20.28,36.76-32,77.62-40.77,118.67-22.11,103.39-26.48,209.75-26.36,315.48.03,24.74.93,51.43,16.03,71.04,17.15,22.28,47.49,28.9,75.38,32.45,62.33,7.92,125.31,7.54,188.01,6.49,60.3-1.02,120.48,1.14,180.47-6.49,27.89-3.55,58.24-10.17,75.38-32.45,15.09-19.61,16-46.3,16.03-71.04.12-105.73-4.25-212.09-26.36-315.48Z"/>
    </clipPath>
    <clipPath id="clippath-2">
      <path class="cls-11" d="M469.77,570.66c-22.92,11.98-48.95,17.07-74.8,18.01-22.28.81-44.95-1.44-65.76-9.43-20.81-7.99-39.72-22.09-50.97-41.33-2.94-5.03-5.46-10.51-9.9-14.29-4.44-3.78-11.6-5.21-15.95-1.33-2.31,2.06-3.37,5.16-4.2,8.14-10.4,37.41,1.79,79.46,28.31,107.82,23.4,25.03,55.45,38.41,88.99,41.57,17.87,1.68,34.36,3.84,52.37,1.21,17.41-2.54,34.42-7.98,50.02-16.12,6.55-3.42,12.86-7.31,18.84-11.66,21.37-15.54,38.43-36.78,49.47-60.75,5.52-11.99,9.54-24.67,11.85-37.66,2.19-12.38,5.09-27.47-3.85-38.08-4.3-5.11-14.49-8.79-20.41-4.11-5.42,4.28-8.15,15.83-12.34,21.9-10.56,15.27-25.26,27.54-41.67,36.11Z"/>
    </clipPath>
    <clipPath id="clippath-3">
      <circle class="cls-11" cx="402.5" cy="-540.7" r="399"/>
    </clipPath>
    <clipPath id="clippath-4">
      <rect class="cls-11" x="377.12" y="-265.51" width="388.96" height="460.96"/>
    </clipPath>
  </defs>
  <g>
    <circle class="cls-8" cx="402.5" cy="402.5" r="399"/>
    <g class="cls-21">
      <g>
        <g>
          <g class="cls-14">
            <path class="cls-17" d="M651.78,413.22c-8.78-41.05-20.5-81.91-40.78-118.67-20.28-36.76-49.75-69.41-87.43-87.91,8.18-5.63,4.66-19.68-3.92-24.68-8.58-5-19.28-3.74-29.11-2.33,8.73-6.72,9.01-21.76.53-28.8-7.73-6.41-20.63-4.43-26.64,3.4,5.22-8.64,11.6-24.52,1.96-32.4-10.15-8.29-32.6,1.7-41.43,7.91,2.82-6.07,2.7-13.39-1.19-18.99-3.9-5.62-11.18-8.68-17.93-7.54-7.71,1.3-13.94,7.67-16.57,15.04-2.62,7.37-2.07,15.55-.08,23.11-5.64-3.55-10.46-8.23-15.59-12.49-5.13-4.25-10.76-8.18-17.23-9.81-6.46-1.62-13.93-.57-18.69,4.1-7.56,7.42-2.83,23.65,2.86,31.06-6.01-7.83-18.91-9.81-26.64-3.4-8.48,7.04-8.2,22.08.53,28.8-9.83-1.41-20.53-2.67-29.11,2.33-8.58,5-12.1,19.05-3.92,24.68-37.68,18.51-67.15,51.15-87.43,87.91-20.28,36.76-32,77.62-40.77,118.67-22.11,103.39-26.48,209.75-26.36,315.48.03,24.74.93,51.43,16.03,71.04,17.15,22.28,47.49,28.9,75.38,32.45,62.33,7.92,125.31,7.54,188.01,6.49,60.3-1.02,120.48,1.14,180.47-6.49,27.89-3.55,58.24-10.17,75.38-32.45,15.09-19.61,16-46.3,16.03-71.04.12-105.73-4.25-212.09-26.36-315.48Z"/>
            <g>
              <path class="cls-20" d="M215.31,398.35c1.46,1.2,3.04,2.7,2.93,4.58-.14,2.42-2.87,3.69-5.18,4.41-22.27,6.95-45.47,10.89-68.79,11.7-5.07.17-10.96-.18-13.98-4.26-2-2.71-2.12-6.34-2.02-9.71.47-15.03,3.05-54.48,25.27-48.37,21.5,5.92,44.84,27.76,61.75,41.65Z"/>
              <path class="cls-20" d="M215.99,463.45c3.69,1.13,8.22,3.58,7.49,7.37-.56,2.91-3.95,4.18-6.82,4.89-24.48,6.11-49.52,9.98-74.71,11.56-8.78.55-18.69.4-24.84-5.88-12.56-12.83-1.1-42.04,16.74-41.43,12.49.43,27.29,7.31,39.3,10.76,14.32,4.11,28.6,8.36,42.85,12.73Z"/>
              <path class="cls-20" d="M205.55,546.02c3.12,1.36,6.6,3.23,7.3,6.57,1.02,4.91-4.51,8.45-9.19,10.27-27.47,10.72-56.58,17.22-86,19.18-4.25.28-8.98.31-12.15-2.53-2.6-2.34-3.44-6.03-3.86-9.5-2.09-17.15.58-44.41,22.07-45.15,26.58-.92,57.87,10.73,81.83,21.16Z"/>
              <path class="cls-20" d="M226.47,635.27c3.82.59,7.81,1.31,10.85,3.68,3.05,2.37,4.74,6.96,2.66,10.22-1.55,2.43-4.57,3.38-7.34,4.16-37.75,10.59-75.51,21.18-113.26,31.77-20.4,5.72-35.08-1.79-32.7-24.42,1.3-12.33,6.22-22.23,17.97-27.25,16.21-6.93,38.04-4.45,55.13-4.07,22.32.5,44.61,2.47,66.67,5.9Z"/>
              <path class="cls-20" d="M212.09,710.28c14.8-3.63,31.45-6.29,44.43,1.67-25.85,29.61-51.7,59.21-77.54,88.81-10.03,11.49-21.46,23.75-36.59,25.66-31.94,4.03-64.79-42.01-43.03-68.95,11.8-14.61,35.04-21.3,51.89-27.9,19.83-7.77,40.16-14.23,60.84-19.3Z"/>
              <path class="cls-20" d="M206.48,329.31c6.32-2.16,10.26-5.84,7.89-11.83-3.79-9.55-25.42-16.93-34.18-20.55-3.06-1.26-6.45-2.38-9.61-1.41-4.89,1.5-7.02,7.11-8.48,12.01-1.74,5.87-3.36,12.7.14,17.73,2.53,3.65,7.11,5.26,11.49,6.04,5.83,1.05,22.46,1.54,32.76-2Z"/>
            </g>
            <g>
              <path class="cls-20" d="M586.65,398.35c-1.46,1.2-3.04,2.7-2.93,4.58.14,2.42,2.87,3.69,5.18,4.41,22.27,6.95,45.47,10.89,68.79,11.7,5.07.17,10.96-.18,13.98-4.26,2-2.71,2.12-6.34,2.02-9.71-.47-15.03-3.05-54.48-25.27-48.37-21.5,5.92-44.84,27.76-61.75,41.65Z"/>
              <path class="cls-20" d="M585.98,463.45c-3.69,1.13-8.22,3.58-7.49,7.37.56,2.91,3.95,4.18,6.82,4.89,24.48,6.11,49.52,9.98,74.71,11.56,8.77.55,18.69.4,24.84-5.88,12.56-12.83,1.1-42.04-16.74-41.43-12.49.43-27.29,7.31-39.3,10.76-14.32,4.11-28.6,8.36-42.85,12.73Z"/>
              <path class="cls-20" d="M596.42,546.02c-3.12,1.36-6.6,3.23-7.3,6.57-1.02,4.91,4.51,8.45,9.19,10.27,27.47,10.72,56.58,17.22,86,19.18,4.24.28,8.98.31,12.15-2.53,2.6-2.34,3.44-6.03,3.86-9.5,2.09-17.15-.58-44.41-22.07-45.15-26.58-.92-57.87,10.73-81.83,21.16Z"/>
              <path class="cls-20" d="M575.49,635.27c-3.82.59-7.81,1.31-10.85,3.68-3.05,2.37-4.74,6.96-2.66,10.22,1.55,2.43,4.57,3.38,7.34,4.16,37.75,10.59,75.51,21.18,113.26,31.77,20.4,5.72,35.08-1.79,32.7-24.42-1.3-12.33-6.22-22.23-17.97-27.25-16.21-6.93-38.04-4.45-55.13-4.07-22.32.5-44.61,2.47-66.67,5.9Z"/>
              <path class="cls-20" d="M589.87,710.28c-14.8-3.63-31.45-6.29-44.43,1.67,25.85,29.61,51.7,59.21,77.54,88.81,10.03,11.49,21.46,23.75,36.59,25.66,31.94,4.03,64.79-42.01,43.03-68.95-11.8-14.61-35.04-21.3-51.89-27.9-19.83-7.77-40.16-14.23-60.84-19.3Z"/>
              <path class="cls-20" d="M595.48,329.31c-6.32-2.16-10.26-5.84-7.89-11.83,3.79-9.55,25.42-16.93,34.18-20.55,3.06-1.26,6.45-2.38,9.61-1.41,4.89,1.5,7.02,7.11,8.48,12.01,1.74,5.87,3.36,12.7-.14,17.73-2.53,3.65-7.11,5.26-11.49,6.04-5.83,1.05-22.46,1.54-32.76-2Z"/>
            </g>
          </g>
          <path class="cls-7" d="M354.31,382c-15.72,5.33-29,14.57-34.34,30.25-5.74,16.85-.22,36.22,11.28,49.8,11.5,13.59,28.2,21.94,45.42,26.48,16.02,4.22,33.4,5.34,48.88-.54,27.65-10.49,49.96-50.27,40.67-79.34-7.09-22.2-34.7-32.68-55.76-33.28-16.2-.46-37.83.42-56.15,6.63Z"/>
          <path class="cls-4" d="M335.7,489.73c-2.55,12.17-1.64,25.47,4.79,36.11,6.12,10.15,16.69,16.99,27.87,20.91,16.46,5.78,35.11,5.72,51.11-1.26,15.99-6.97,28.97-21.06,33.53-37.9,4.56-16.84.16-36.08-12.07-48.52-1.83-1.87-3.93-3.64-6.48-4.25-4.59-1.1-9.41,2.09-11.46,6.34-2.05,4.25-1.87,9.25-1,13.89.87,4.64,2.38,9.17,2.84,13.87,1.29,12.94-6.28,26.28-18.01,31.89-11.73,5.61-26.82,3.15-36.21-5.84-9.39-8.99-12.52-23.9-7.59-35.94,2.77-6.76,9.06-14.73,5.29-22.38-2.5-5.07-6.71-5.22-11.4-2.9-12.51,6.18-18.58,23.39-21.21,35.96Z"/>
          <path class="cls-10" d="M343.68,441.29c-4.2,6.29-3.35,15.26,1.37,21.17,5.35,6.71,14.38,9.3,22.93,9.97,4.16.33,8.88.07,11.68-3.02,2.43-2.68,2.63-6.72,2.02-10.28-2.49-14.44-25.76-36.14-38-17.84Z"/>
          <path class="cls-10" d="M407.96,456.28c-2.71,4.8-4.25,11.2-.89,15.57,3.5,4.55,10.45,4.48,15.89,2.65,9.08-3.05,16.82-9.91,20.96-18.55,4.15-8.68,1.31-19.88-9.85-18.7-10.68,1.13-21.02,10-26.11,19.02Z"/>
          <g class="cls-18">
            <path d="M469.77,570.66c-22.92,11.98-48.95,17.07-74.8,18.01-22.28.81-44.95-1.44-65.76-9.43-20.81-7.99-39.72-22.09-50.97-41.33-2.94-5.03-5.46-10.51-9.9-14.29-4.44-3.78-11.6-5.21-15.95-1.33-2.31,2.06-3.37,5.16-4.2,8.14-10.4,37.41,1.79,79.46,28.31,107.82,23.4,25.03,55.45,38.41,88.99,41.57,17.87,1.68,34.36,3.84,52.37,1.21,17.41-2.54,34.42-7.98,50.02-16.12,6.55-3.42,12.86-7.31,18.84-11.66,21.37-15.54,38.43-36.78,49.47-60.75,5.52-11.99,9.54-24.67,11.85-37.66,2.19-12.38,5.09-27.47-3.85-38.08-4.3-5.11-14.49-8.79-20.41-4.11-5.42,4.28-8.15,15.83-12.34,21.9-10.56,15.27-25.26,27.54-41.67,36.11Z"/>
            <path class="cls-8" d="M284.07,583.01c.06,7.1,1.31,27.1,11.27,27.79,7.02.49,8.28-16.98,10.34-22.46,3.89-10.4,9.06-20.33,15.37-29.46,3.69-5.34,7.87-10.65,9.19-17.01,1.76-8.53-2.58-17.97-10.2-22.19-31.78-17.57-36.12,45.87-35.97,63.33Z"/>
            <path class="cls-8" d="M338.43,627.28c.17.2.35.39.54.56,6.03,5.31,19.4-20.14,22.11-25.17,4.86-9.03,14.01-17.68,12.59-28.71-.86-6.68-5.32-12.55-10.96-16.24-4.6-3-15.44-8.49-20.57-4.4-5.09,4.06-6.21,18.45-7.03,24.44-1.4,10.27-1.39,20.74-.36,31.04.44,4.4.53,14.68,3.69,18.49Z"/>
            <path class="cls-8" d="M409.27,627.04c.52-.01,1.06-.16,1.65-.47,7.03-3.71,10.39-22.74,11.86-29.69,2.63-12.42,2.46-25.8-2.91-37.3-3.04-6.5-8.74-12.78-15.92-12.66-6.11.1-13.67,6.03-15.79,11.78-2.3,6.24,2.27,15.66,3.99,21.82,2.43,8.67,5.08,17.27,7.94,25.81,1.53,4.55,3.5,20.86,9.18,20.71Z"/>
            <path class="cls-8" d="M457.21,597.49c-.1,3.75-.46,7.61.72,11.17,1.18,3.56,4.44,6.78,8.18,6.49,2.16-.17,4.07-1.44,5.77-2.79,17.2-13.68,22.53-40.22,11.94-59.48-5.18-9.42-31.24-29.3-35.98-9.43-1.66,6.97,1.49,15.39,3.57,21.93,3.38,10.62,6.1,20.84,5.8,32.11Z"/>
            <path class="cls-8" d="M513.23,576.28c.36,1.86,1.85,4.33,3.45,3.31.56-.36.81-1.05,1-1.68,5.36-17.56,4.21-37.03-3.2-53.83-3.43-7.79-11.84-19.74-22.17-16.14-6.59,2.3-5.93,9.77-4.44,15.35,2.35,8.83,8.18,15.22,13.04,22.68,5.98,9.2,10.23,19.53,12.32,30.31Z"/>
            <path class="cls-8" d="M316.53,616.52c1.54.65,2.49,3.16,2.86,6.99,1.04,10.56,2.9,20.92,6.08,31.06,3.8,12.1,11.2,26.28,8.65,39.32-2.75,14.05-16.29,10.02-25.31,4.25-15.68-10.03-13.67-34.05-10.31-49.9,1.95-9.2,6.3-21.18,12.31-28.45,2.41-2.91,4.3-3.86,5.7-3.28Z"/>
            <path class="cls-8" d="M373.4,630.29c.14-3.87,1-8.81,4.79-9.61,3.87-.81,6.64,3.56,8.16,7.21,1.96,4.71,3.91,9.42,5.87,14.13,4.11,9.9,8.27,19.98,9.28,30.65,1.5,15.71-7.4,38.87-27.06,36.16-20.67-2.85-8.42-29.69-5.83-41.32,2.72-12.23,4.34-24.7,4.79-37.22Z"/>
            <path class="cls-8" d="M436.71,617.46c.35-3.37,1.88-7.77,5.25-7.41,2.25.24,3.55,2.6,4.46,4.66,5.34,12.02,10.67,24.05,16.01,36.07,2.82,6.36,5.67,12.8,6.91,19.65,1.24,6.85.73,14.26-2.84,20.24-4.44,7.44-12.82,11.56-21.05,14.27-5.56,1.83-15.87,3.87-17.75-3.78-1.57-6.38,2.08-17.55,2.76-24.11,2.08-19.86,4.16-39.73,6.25-59.59Z"/>
            <path class="cls-8" d="M498,604.87c-.66-3.37-1.26-7.39,1.2-9.79,2.14-2.09,5.66-1.86,8.47-.81,10.01,3.73,15.03,14.83,17.75,25.17,1.95,7.43,3.26,15.16,2.36,22.79-.9,7.63-4.23,15.2-10.22,20.01-3.53,2.83-11.5,6.74-16.04,4.1-5.17-3.01-2.15-10.87-1.63-15.55,1.71-15.28,1.08-30.83-1.88-45.92Z"/>
          </g>
          <g>
            <path class="cls-17" d="M570.97,190.12c14.32-20.93,37.58-34.13,61.45-42.68,5.71-2.04,12.19-3.83,17.64-1.19,6.8,3.28,8.96,11.87,9.43,19.4,2.32,37.47-21.82,84.61-61.37,93.02-44.26,9.41-45.49-41.78-27.16-68.55Z"/>
            <path class="cls-20" d="M617.69,174.67c1.33-.79,2.65-1.5,3.95-2.14,4.01-1.97,9.43-3.13,12.49.14,3.51,3.75.75,10.1-3.26,13.31-4.01,3.21-9.2,5.12-12.18,9.31,2.34-1.55,4.78-3.13,7.55-3.52,2.77-.39,5.98.81,7,3.42,1.27,3.27-1.35,6.73-4.14,8.85-2.79,2.12-6.16,4.01-7.28,7.33,2.04-2.43,6.48-.25,7.04,2.87.56,3.12-1.35,6.13-3.4,8.56-6.34,7.54-24.8,23.53-35.98,18.54-10.01-4.47-8.45-19.52-5.5-27.93,5.07-14.51,19.7-30.42,33.72-38.72Z"/>
          </g>
          <g>
            <path class="cls-17" d="M234.03,190.12c-14.32-20.93-37.58-34.13-61.45-42.68-5.71-2.04-12.19-3.83-17.64-1.19-6.8,3.28-8.96,11.87-9.43,19.4-2.32,37.47,21.82,84.61,61.37,93.02,44.26,9.41,45.49-41.78,27.16-68.55Z"/>
            <path class="cls-20" d="M187.31,174.67c-1.33-.79-2.65-1.5-3.95-2.14-4.01-1.97-9.43-3.13-12.49.14-3.51,3.75-.75,10.1,3.26,13.31,4.01,3.21,9.2,5.12,12.18,9.31-2.34-1.55-4.78-3.13-7.55-3.52-2.77-.39-5.98.81-7,3.42-1.27,3.27,1.35,6.73,4.14,8.85s6.16,4.01,7.28,7.33c-2.04-2.43-6.48-.25-7.04,2.87-.56,3.12,1.35,6.13,3.39,8.56,6.34,7.54,24.8,23.53,35.98,18.54,10.01-4.47,8.45-19.52,5.5-27.93-5.07-14.51-19.7-30.42-33.72-38.72Z"/>
          </g>
        </g>
        <g>
          <path class="cls-8" d="M459.48,338.99c-4.31,30.64,12.08,63.21,39.38,77.78,27.3,14.58,63.63,10,86.29-11.07,22.66-21.07,29.83-57.17,16.72-85.2-13.32-28.48-48.19-45.54-78.96-46.03-31.81-.51-59.39,35.77-63.43,64.52Z"/>
          <path d="M536.49,403.1c71.03-.2,73.97-105.08,1.2-106.46-74.77-1.42-74.01,106.67-1.2,106.46Z"/>
        </g>
        <g>
          <path class="cls-8" d="M321.8,251.28c-4.31,30.64,12.08,63.21,39.38,77.78,27.3,14.58,63.63,10,86.29-11.07,22.66-21.07,29.83-57.17,16.72-85.2-13.32-28.48-48.19-45.54-78.96-46.03-31.81-.51-59.39,35.77-63.43,64.52Z"/>
          <path d="M398.81,315.38c71.03-.2,73.97-105.08,1.2-106.46-74.77-1.42-74.01,106.67-1.2,106.46Z"/>
        </g>
        <g>
          <path class="cls-8" d="M181.51,338.99c-4.31,30.64,12.08,63.21,39.38,77.78,27.3,14.58,63.63,10,86.29-11.07,22.66-21.07,29.83-57.17,16.72-85.2-13.32-28.48-48.19-45.54-78.96-46.03-31.81-.51-59.39,35.77-63.43,64.52Z"/>
          <path d="M258.52,403.1c71.03-.2,73.97-105.08,1.2-106.46-74.77-1.42-74.01,106.67-1.2,106.46Z"/>
        </g>
      </g>
    </g>
  </g>
  <g class="cls-15">
    <g>
      <polygon class="cls-19" points="865.19 384.43 579.35 520.01 235.82 520.01 -58.99 384.43 -58.99 -393.4 865.19 -393.4 865.19 384.43"/>
      <g>
        <rect class="cls-1" x="377.12" y="-265.51" width="388.96" height="460.96"/>
        <g class="cls-2">
          <g>
            <g>
              <line class="cls-12" x1="426.25" y1="-265.51" x2="426.25" y2="195.46"/>
              <line class="cls-12" x1="474.8" y1="-265.51" x2="474.8" y2="195.46"/>
              <line class="cls-12" x1="523.35" y1="-265.51" x2="523.35" y2="195.46"/>
              <line class="cls-12" x1="571.89" y1="-265.51" x2="571.89" y2="195.46"/>
              <line class="cls-12" x1="620.44" y1="-265.51" x2="620.44" y2="195.46"/>
              <line class="cls-12" x1="668.98" y1="-265.51" x2="668.98" y2="195.46"/>
              <line class="cls-12" x1="717.53" y1="-265.51" x2="717.53" y2="195.46"/>
            </g>
            <g>
              <line class="cls-12" x1="813.82" y1="13.61" x2="329.97" y2="13.61"/>
              <line class="cls-12" x1="813.82" y1="60.34" x2="329.97" y2="60.34"/>
              <line class="cls-12" x1="813.82" y1="107.07" x2="329.97" y2="107.07"/>
              <line class="cls-12" x1="813.82" y1="153.8" x2="329.97" y2="153.8"/>
            </g>
          </g>
          <polyline class="cls-13" points="368.84 13.61 426.25 13.61 474.36 -128.3 522.46 -32.67 571.6 -35.03 620.22 63.88 668.98 13.61 717.53 13.61 766.08 -79.84"/>
        </g>
      </g>
      <circle class="cls-3" cx="207.4" cy="-40.71" r="56.66"/>
      <circle class="cls-9" cx="207.4" cy="120.78" r="56.66"/>
      <rect class="cls-6" x="32.88" y="-244.8" width="62.4" height="422.25"/>
      <g>
        <rect class="cls-22" x="168.11" y="289.57" width="58.75" height="58.75"/>
        <rect class="cls-9" x="226.85" y="289.57" width="58.75" height="58.75"/>
        <rect class="cls-6" x="285.6" y="289.57" width="58.75" height="58.75"/>
        <rect class="cls-3" x="344.35" y="289.57" width="58.75" height="58.75"/>
        <rect class="cls-22" x="403.1" y="289.57" width="58.75" height="58.75"/>
        <rect class="cls-22" x="285.6" y="348.32" width="58.75" height="58.75"/>
        <rect class="cls-9" x="344.35" y="348.32" width="58.75" height="58.75"/>
        <rect class="cls-6" x="403.1" y="348.32" width="58.75" height="58.75"/>
        <rect class="cls-3" x="461.85" y="348.32" width="58.75" height="58.75"/>
        <rect class="cls-3" x="226.85" y="348.32" width="58.75" height="58.75"/>
        <rect class="cls-22" x="520.6" y="348.32" width="58.75" height="58.75"/>
        <rect class="cls-9" x="461.85" y="289.57" width="58.75" height="58.75"/>
        <rect class="cls-6" x="520.6" y="289.57" width="58.75" height="58.75"/>
        <rect class="cls-3" x="579.35" y="289.57" width="58.75" height="58.75"/>
      </g>
      <g>
        <rect class="cls-16" x="282.07" y="651.12" width="59.33" height="364.63"/>
        <rect class="cls-5" x="242.86" y="519.19" width="142.89" height="142.89"/>
      </g>
      <g>
        <rect class="cls-16" x="480.25" y="651.12" width="59.33" height="364.63" transform="translate(1019.82 1666.88) rotate(180)"/>
        <rect class="cls-5" x="435.9" y="519.19" width="142.89" height="142.89" transform="translate(1014.69 1181.28) rotate(180)"/>
      </g>
    </g>
  </g>
</svg>