<?xml version="1.0" encoding="UTF-8"?>
<svg id="Layer_1" data-name="Layer 1" xmlns="http://www.w3.org/2000/svg" xmlns:xlink="http://www.w3.org/1999/xlink" viewBox="0 0 805 805">
  <defs>
    <style>
      .cls-1 {
        fill: #2e3192;
      }

      .cls-2 {
        fill: #422a16;
      }

      .cls-3 {
        fill: #fff;
      }

      .cls-4 {
        fill: none;
      }

      .cls-5 {
        fill: #f7c510;
      }

      .cls-6 {
        clip-path: url(#clippath-1);
      }

      .cls-7 {
        fill: #fec9a1;
      }

      .cls-8 {
        fill: #222621;
      }

      .cls-9 {
        clip-path: url(#clippath-3);
      }

      .cls-10 {
        clip-path: url(#clippath-2);
      }

      .cls-11 {
        clip-path: url(#clippath);
      }

      .cls-12 {
        fill: #ed9b64;
      }
    </style>
    <clipPath id="clippath">
      <path class="cls-7" d="M216.4,492.71c-8.57-8.5-17.5-16.87-28.11-22.64-10.6-5.77-23.18-8.76-34.9-5.86-16.95,4.19-29.34,20.76-30.9,38.15-1.56,17.39,6.61,34.82,19.38,46.73,12.77,11.9,29.69,18.68,46.91,21.6,9.43,1.6,19.28,2.09,28.43-.7,9.15-2.79,17.55-9.28,20.76-18.3"/>
    </clipPath>
    <clipPath id="clippath-1">
      <path class="cls-7" d="M550.77,485.63c8.57-8.5,17.5-16.87,28.11-22.64,10.6-5.77,23.18-8.76,34.9-5.86,16.95,4.19,29.34,20.76,30.9,38.15,1.56,17.39-6.61,34.82-19.38,46.73-12.77,11.9-29.69,18.68-46.91,21.6-9.43,1.6-19.28,2.09-28.43-.7-9.15-2.79-17.55-9.28-20.76-18.3"/>
    </clipPath>
    <clipPath id="clippath-2">
      <circle class="cls-4" cx="294.58" cy="485.1" r="48.21"/>
    </clipPath>
    <clipPath id="clippath-3">
      <circle class="cls-4" cx="473.09" cy="485.1" r="48.21"/>
    </clipPath>
  </defs>
  <circle class="cls-3" cx="402.5" cy="402.5" r="399"/>
  <g>
    <g>
      <g>
        <g>
          <g>
            <path class="cls-7" d="M216.4,492.71c-8.57-8.5-17.5-16.87-28.11-22.64-10.6-5.77-23.18-8.76-34.9-5.86-16.95,4.19-29.34,20.76-30.9,38.15-1.56,17.39,6.61,34.82,19.38,46.73,12.77,11.9,29.69,18.68,46.91,21.6,9.43,1.6,19.28,2.09,28.43-.7,9.15-2.79,17.55-9.28,20.76-18.3"/>
            <g class="cls-11">
              <path class="cls-7" d="M216.4,492.71c-8.57-8.5-17.5-16.87-28.11-22.64-10.6-5.77-23.18-8.76-34.9-5.86-16.95,4.19-29.34,20.76-30.9,38.15-1.56,17.39,6.61,34.82,19.38,46.73,12.77,11.9,29.69,18.68,46.91,21.6,9.43,1.6,19.28,2.09,28.43-.7,9.15-2.79,17.55-9.28,20.76-18.3"/>
              <path d="M224.54,568.48c-19.29-47.62-71.12-93.32-123.56-60.99-3.36,2.07-.28,7.39,3.1,5.3,48.8-30.09,96.7,13.29,114.53,57.32,1.47,3.62,7.41,2.04,5.92-1.63h0Z"/>
              <path d="M194.9,526.26c-12.14,1.1-23.03,6.68-30.64,16.28-2.43,3.07,1.89,7.44,4.34,4.34,6.57-8.28,15.71-13.52,26.3-14.48,3.91-.35,3.94-6.5,0-6.14h0Z"/>
            </g>
          </g>
          <g>
            <path class="cls-7" d="M550.77,485.63c8.57-8.5,17.5-16.87,28.11-22.64,10.6-5.77,23.18-8.76,34.9-5.86,16.95,4.19,29.34,20.76,30.9,38.15,1.56,17.39-6.61,34.82-19.38,46.73-12.77,11.9-29.69,18.68-46.91,21.6-9.43,1.6-19.28,2.09-28.43-.7-9.15-2.79-17.55-9.28-20.76-18.3"/>
            <g class="cls-6">
              <path class="cls-7" d="M550.77,485.63c8.57-8.5,17.5-16.87,28.11-22.64,10.6-5.77,23.18-8.76,34.9-5.86,16.95,4.19,29.34,20.76,30.9,38.15,1.56,17.39-6.61,34.82-19.38,46.73-12.77,11.9-29.69,18.68-46.91,21.6-9.43,1.6-19.28,2.09-28.43-.7-9.15-2.79-17.55-9.28-20.76-18.3"/>
              <path d="M542.63,561.4c19.29-47.62,71.12-93.32,123.56-60.99,3.36,2.07.28,7.39-3.1,5.3-48.8-30.09-96.7,13.29-114.53,57.32-1.47,3.62-7.41,2.04-5.92-1.63h0Z"/>
              <path d="M572.27,519.19c12.14,1.1,23.03,6.68,30.64,16.28,2.43,3.07-1.89,7.44-4.34,4.34-6.57-8.28-15.71-13.52-26.3-14.48-3.91-.35-3.94-6.5,0-6.14h0Z"/>
            </g>
          </g>
          <path class="cls-7" d="M590.04,247.32l-198.28-10.58-198.28,10.58s12.84,309.59,30.76,356.92c16.91,44.65,110.8,107.46,167.52,107.46s140.07-77.48,151.84-114.06c15.14-47.05,46.45-350.32,46.45-350.32Z"/>
          <g>
            <circle class="cls-3" cx="294.58" cy="485.1" r="48.21"/>
            <g class="cls-10">
              <circle class="cls-2" cx="298.79" cy="487.9" r="41.61"/>
            </g>
          </g>
          <g>
            <circle class="cls-3" cx="473.09" cy="485.1" r="48.21"/>
            <g class="cls-9">
              <circle class="cls-2" cx="468.87" cy="487.9" r="41.61"/>
            </g>
          </g>
          <path class="cls-12" d="M384.3,456.03c7.24.87,19.86,59.17,19.86,59.17,0,0,15.14,6.86,12.19,22.58-2.96,15.72-19.96,27.98-39.65,14.9-19.69-13.08-6.3-98.31,7.6-96.65Z"/>
          <g>
            <path d="M334.67,595.36c32.69,16.71,68.61,20.6,104.09,11.11,4.73-1.27,2.72-8.62-2.03-7.35-33.54,8.97-67.29,5.47-98.22-10.34-4.36-2.23-8.22,4.34-3.85,6.58h0Z"/>
            <path d="M334.29,598.27c1.79-3.13,4.02-5.76,6.77-8.1,3.75-3.18-1.67-8.54-5.39-5.39-3.21,2.72-5.88,5.98-7.97,9.64-2.44,4.27,4.15,8.11,6.58,3.85h0Z"/>
          </g>
          <path class="cls-2" d="M207.77,484.45c-2.09-1.54-27.64-18.1-27.64-18.1-7.36-13.32-10.88-49.13-10.88-49.13,0,0-44.5-7.55-42.56-13.35,1.93-5.8,32.89-40.63,32.89-40.63,0,0-72.55-73.52-70.62-76.42,1.93-2.9,64.81-50.08,64.81-50.08,0,0-21.91-21.72-17.41-34.09,3.36-9.24,145.55-90.95,332.09-52.67,79.95,16.41,137.01,87.36,135.26,168.96-1.79,83.74-34.23,164.78-41.34,165.5-11.6,1.18-11.39-152.45-11.39-152.45,0,0-51.27,17.09-56.96,13.29-5.7-3.8-12.83-47.47-12.83-47.47,0,0-82.5,56.96-88,53.16-5.5-3.8-16.89-60.76-16.89-60.76,0,0-76.35,87.34-92.29,79.75-15.94-7.59-37.64-37.97-37.64-37.97,0,0-19.13,166.84-38.6,152.45Z"/>
        </g>
        <path class="cls-2" d="M477.58,598.74c-25.94,2.75-36.78-21.13-76.6-29.18-36.9-7.46-70.17,4.44-91.19,14.59-9.32,5.76-17.28,7.29-23.36,7.36-31.36.36-63.67-37.58-78.78-94.91,3.65,48.64,7.3,97.27,10.94,145.91,11.5,14.99,28.1,33.48,51.07,51.07,31.59,24.2,62.44,36.91,83.9,43.77,5.56,1.61,14.48,3.65,25.53,3.65,11.42,0,20.13-2.17,25.53-3.65,46.84-12.77,72.59-19.8,94.84-40.13,17.54-16.02,24.54-32.68,36.48-62.01,26.71-65.65,35.38-135.62,25.53-138.61-11.93-3.63-32.54,96.7-83.9,102.14Z"/>
        <polygon class="cls-3" points="327.18 611.46 433.24 611.46 380.21 653.46 327.18 611.46"/>
      </g>
      <path class="cls-2" d="M307.01,386.84c7.57-.99,15.22-1.29,22.89-.28,3.38.45,6.89,1.21,9.62,3.21,10.96,8.07-8.94,15.83-14.87,18.05-14.33,5.38-30.52,9.42-46.47,7.75-12.31-1.28-14.61-13.37-5.47-19.65,3.74-2.57,8.4-3.77,12.97-4.88,6.99-1.69,14.12-3.27,21.33-4.22Z"/>
      <path class="cls-2" d="M472.25,389.98c-7.57-.99-15.22-1.29-22.89-.28-3.38.45-6.89,1.21-9.62,3.21-10.96,8.07,8.94,15.83,14.87,18.05,14.33,5.38,30.52,9.42,46.47,7.75,12.31-1.28,14.61-13.37,5.47-19.65-3.74-2.57-8.4-3.77-12.97-4.88-6.99-1.69-14.12-3.27-21.33-4.22Z"/>
    </g>
    <g>
      <path class="cls-1" d="M376.76,271.23l-215.78,91.78,12.86,69.97s67.28-64.47,202.92-65.14c135.64.68,202.91,65.14,202.91,65.14l12.86-69.97-215.77-91.78Z"/>
      <g>
        <path class="cls-8" d="M376.76,64c-122.46,0-182.39,39.26-182.39,39.26l25.38,183.36,157.01-21.98,157,21.98,25.39-183.36s-59.94-39.26-182.39-39.26Z"/>
        <path class="cls-8" d="M717.94,299.64c-27-59.77-98.19-75.87-103.1-126.46-4.89-50.59-96.8-110.36-165.51-91.97-68.74,18.39,106.61,103.47-72.59,103.47s-3.81-85.07-72.55-103.47c-68.72-18.39-160.63,41.38-165.53,91.97-4.91,50.59-76.1,66.68-103.08,126.46-27.01,59.78,137.44,133.35,137.44,133.35,56.47-137.95,203.72-133.35,203.72-133.35,0,0,147.27-4.6,203.73,133.35,0,0,164.46-73.57,137.46-133.35Z"/>
        <g>
          <path class="cls-5" d="M196.53,157.65c-17.65,17.11-28.73,36.18-30.44,53.83-2.04,20.92-22.72,39.69-46.68,61.42-24.3,22.03-51.29,46.64-67.47,80.29,4.66,5.19,9.93,10.28,15.67,15.25,13.99-34.65,41.75-60.14,66.6-82.67,25.62-23.24,49.85-45.21,52.51-72.71,2.02-20.85,22.78-46.02,52.85-64.13,9.48-5.72,19.25-10.32,29.06-13.9-40.32,9.41-64.16,21.72-71.63,26.01l-.48-3.39Z"/>
          <path class="cls-5" d="M634.09,272.9c-23.95-21.72-44.65-40.5-46.68-61.42-1.71-17.63-12.78-36.71-30.44-53.82l-.46,3.38c-7.47-4.3-31.34-16.62-71.69-26.02,9.83,3.58,19.62,8.18,29.12,13.9,30.07,18.11,50.82,43.28,52.85,64.13,2.66,27.5,26.88,49.47,52.51,72.71,24.85,22.54,52.61,48.02,66.6,82.68,5.73-4.97,11.01-10.06,15.67-15.24-16.17-33.66-43.17-58.28-67.47-80.31Z"/>
          <path class="cls-5" d="M435.35,107.82c8.1-.19,16.43.45,24.88,1.75-.02-.03-.06-.07-.09-.1-23.56-3.98-51.26-6.72-83.39-6.72s-57.69,2.5-80.64,6.22c-.03.04-.05.09-.08.13,7.51-1.01,14.91-1.44,22.12-1.27-2.65,5.9-6.77,12.24-10.95,18.69-12.48.86-25.56,3.76-38.58,8.51,28.02-6.54,63.93-11.66,108.12-11.66s80.06,5.13,108.06,11.66c-13.01-4.74-26.06-7.65-38.52-8.51-4.17-6.45-8.3-12.79-10.95-18.69Z"/>
          <path class="cls-5" d="M318.16,107.82c-28.96-.68-61.1,8.3-90.23,25.86-11.93,7.19-22.48,15.33-31.4,23.96l.48,3.39c7.47-4.3,31.31-16.61,71.63-26.01,13.02-4.75,26.1-7.66,38.58-8.51,4.18-6.45,8.3-12.79,10.95-18.69Z"/>
          <path class="cls-5" d="M556.97,157.66c-8.91-8.63-19.47-16.78-31.4-23.97-29.15-17.55-61.25-26.54-90.22-25.86,2.65,5.9,6.78,12.24,10.95,18.69,12.47.86,25.52,3.76,38.52,8.51,40.35,9.4,64.22,21.72,71.69,26.02l.46-3.38Z"/>
        </g>
      </g>
      <g>
        <g>
          <path class="cls-3" d="M376.76,262.64s13.52.32,19.2-3.31c5.68-3.62,4.62-5.05,4.97-9.61.35-4.58,1.43-12.83,4.44-16.19,3.02-3.35,7.28-3.98,9.24-3.03,1.95.94.36,3.46-2.66,5.98-3.03,2.52-3.56,7.08-2.31,12.28,1.25,5.2,2.31,9.3-3.91,12.29-6.21,2.99-10.29,12.29-14.91,12.91-4.63.63-9.28-1.26-14.06-1.26v-10.07Z"/>
          <path class="cls-3" d="M376.76,262.64s-13.51.32-19.2-3.31c-5.69-3.62-4.62-5.05-4.97-9.61-.36-4.58-1.42-12.83-4.45-16.19-3.02-3.35-7.28-3.98-9.24-3.03-1.95.94-.36,3.46,2.66,5.98,3.02,2.52,3.56,7.08,2.32,12.28-1.26,5.2-2.32,9.3,3.9,12.29,6.21,2.99,10.3,12.29,14.91,12.91,4.62.63,9.27-1.26,14.05-1.26v-10.07Z"/>
          <path class="cls-3" d="M374.08,246.24c2.27,0,2.49,1.67,2.34,3.27-.16,1.59-.79,3.78-2.34,3.78s-2.17-2.19-2.34-3.78c-.15-1.6.32-3.27,2.34-3.27Z"/>
          <path class="cls-3" d="M369.02,245.93c2.27,0,2.48,1.68,2.33,3.26-.16,1.6-.79,3.78-2.33,3.78s-2.19-2.19-2.35-3.78c-.14-1.58.33-3.26,2.35-3.26Z"/>
          <path class="cls-3" d="M364.05,244.98c2.19,0,2.38,1.61,2.24,3.14-.15,1.53-.76,3.64-2.24,3.64s-2.12-2.11-2.26-3.64c-.14-1.54.31-3.14,2.26-3.14Z"/>
          <path class="cls-3" d="M359.64,243.43c2.03,0,2.24,1.56,2.1,3.05-.15,1.49-.71,3.52-2.1,3.52s-1.95-2.04-2.1-3.52c-.12-1.49.29-3.05,2.1-3.05Z"/>
          <path class="cls-3" d="M374.08,261.29c2.27,0,2.49-1.67,2.34-3.27-.16-1.59-.79-3.78-2.34-3.78s-2.17,2.19-2.34,3.78c-.15,1.6.32,3.27,2.34,3.27Z"/>
          <path class="cls-3" d="M369.02,260.58c2.27,0,2.48-1.67,2.33-3.26-.16-1.6-.79-3.78-2.33-3.78s-2.19,2.19-2.35,3.78c-.14,1.59.33,3.26,2.35,3.26Z"/>
          <path class="cls-3" d="M363.77,259.74c2.18,0,2.38-1.61,2.25-3.14-.14-1.54-.76-3.64-2.25-3.64s-2.1,2.1-2.24,3.64c-.15,1.53.31,3.14,2.24,3.14Z"/>
          <path class="cls-3" d="M359.05,257.77c2.05,0,2.23-1.57,2.1-3.04-.14-1.49-.71-3.53-2.1-3.53s-1.96,2.04-2.09,3.53c-.13,1.47.3,3.04,2.09,3.04Z"/>
          <path class="cls-3" d="M419.4,199.93c.49-6.59.12-18.07-6.06-29.29-5.64-10.21-14.87-17.25-36.58-17.25s-30.94,7.04-36.58,17.25c-6.18,11.22-6.53,22.69-6.06,29.29.54,7.16-6.66,7.38-5.32,18.82,1.32,11.44,20.51,10.68,25.04,11.96,4.53,1.26-1.13,5.65,5.33,10.93,4.15,3.39,17.6,2.8,17.6,2.8,0,0,13.45.59,17.6-2.8,6.47-5.28.81-9.66,5.33-10.93,4.52-1.28,23.7-.52,25.03-11.96,1.35-11.43-5.84-11.66-5.32-18.82ZM358.84,221.05c-7.64,1.86-10.97-1.59-12.97-4.24-1.57-2.1-7.44-13.67,3.92-17.86,11.37-4.19,20.95-1.47,20.95,4.29s-4.24,15.93-11.89,17.81ZM382.77,233.68c-1.5,0-1.55-7.38-6.02-7.43-4.45.04-4.51,7.43-6.02,7.43s-2.48-2.86-1.06-8.36c1.42-5.5,4.36-6.48,7.08-6.48s5.66.97,7.09,6.48c1.42,5.5.44,8.36-1.07,8.36ZM407.64,216.81c-2,2.65-5.33,6.1-12.97,4.24-7.62-1.87-11.89-12.04-11.89-17.81s9.59-8.48,20.95-4.29c11.37,4.19,5.5,15.75,3.92,17.86Z"/>
          <path class="cls-3" d="M379.44,246.24c-2.28,0-2.5,1.67-2.34,3.27.15,1.59.79,3.78,2.34,3.78s2.19-2.19,2.33-3.78c.15-1.6-.32-3.27-2.33-3.27Z"/>
          <path class="cls-3" d="M384.5,245.93c-2.27,0-2.48,1.68-2.34,3.26.16,1.6.79,3.78,2.34,3.78s2.19-2.19,2.34-3.78c.16-1.58-.33-3.26-2.34-3.26Z"/>
          <path class="cls-3" d="M389.47,244.98c-2.18,0-2.39,1.61-2.24,3.14.15,1.53.75,3.64,2.24,3.64s2.11-2.11,2.25-3.64c.15-1.54-.31-3.14-2.25-3.14Z"/>
          <path class="cls-3" d="M393.88,243.43c-2.04,0-2.24,1.56-2.09,3.05.13,1.49.69,3.52,2.09,3.52s1.97-2.04,2.09-3.52c.13-1.49-.3-3.05-2.09-3.05Z"/>
          <path class="cls-3" d="M379.44,261.29c-2.28,0-2.5-1.67-2.34-3.27.15-1.59.79-3.78,2.34-3.78s2.19,2.19,2.33,3.78c.15,1.6-.32,3.27-2.33,3.27Z"/>
          <path class="cls-3" d="M384.5,260.58c-2.27,0-2.48-1.67-2.34-3.26.16-1.6.79-3.78,2.34-3.78s2.19,2.19,2.34,3.78c.16,1.59-.33,3.26-2.34,3.26Z"/>
          <path class="cls-3" d="M389.74,259.74c-2.19,0-2.39-1.61-2.25-3.14.16-1.54.76-3.64,2.25-3.64s2.1,2.1,2.25,3.64c.14,1.53-.3,3.14-2.25,3.14Z"/>
          <path class="cls-3" d="M394.45,257.77c-2.03,0-2.23-1.57-2.09-3.04.15-1.49.7-3.53,2.09-3.53s1.97,2.04,2.09,3.53c.14,1.47-.27,3.04-2.09,3.04Z"/>
        </g>
        <g>
          <path class="cls-3" d="M341.57,236.5c-1.35-1.13-2.42-2.27-3.01-3.26l-33.62,19.03s-3.97,1.07-9.06,1.39c-5.08.33-11,2.28-11.13,8.66-.13,5.87,4.97,9.47,7.76,9.03,2.87-.44,1.79,4.79,6.43,6.27,6.24,1.99,9.01-6.06,8.87-8.37-.16-2.32,1.33-4.68,3.11-5.7l33.56-18.98c.13-3.4-.76-6.28-2.92-8.08Z"/>
          <path class="cls-3" d="M419.4,199.93c-.06.83,0,1.55.1,2.22l31-17.53-.13-.23c.65.4,3.12,1.57,9.58,1.22,7.76-.42,10.51-10.18,7.81-13.14-2.7-2.95-5.19-.76-5.19-.76.13-2.61,1.37-7.38-1.85-11.03-3.23-3.66-13.71-2.04-15.89,2.45-2.18,4.48-1.47,10.6-1.47,10.6l.12.17-24.51,13.85c.7,4.8.67,9.04.44,12.18Z"/>
          <path class="cls-3" d="M334.85,185.82l-23.62-13.56c-1.77-1.03-3.24-3.4-3.07-5.71.17-2.31-2.55-10.39-8.81-8.43-4.66,1.46-3.61,6.68-6.47,6.23-2.79-.45-7.91,3.12-7.83,9,.09,6.38,5.99,8.36,11.07,8.71,5.07.37,9.04,1.46,9.04,1.46l28.95,16.62c-.02-.07-.02-.14-.02-.22-.26-3.55-.27-8.53.74-14.11Z"/>
          <path class="cls-3" d="M459.71,251.16c-6.46-.39-8.94.77-9.59,1.16l.13-.23-34.83-20c-.23,1.2-1.56,2.8-3.48,4.4-1.87,1.55-2.77,3.89-2.91,6.67l34.12,19.59-.13.18s-.75,6.1,1.39,10.61c2.14,4.5,12.62,6.19,15.87,2.55,3.26-3.63,2.06-8.41,1.95-11.03,0,0,2.46,2.22,5.19-.72,2.72-2.94.04-12.71-7.72-13.18Z"/>
        </g>
      </g>
      <path class="cls-1" d="M565.06,429.39s-44.83,66.58-2.59,147.7c42.25,81.12,24.38,96.09,24.38,96.09,0,0,124.74-101.61-21.79-243.79Z"/>
      <path class="cls-1" d="M564.2,431.06s67.95,111.18,208.21,43.79c0,0-47.55,3.7-79.33-29.29-28.62-29.73-94.76-56.67-128.88-14.5Z"/>
      <path class="cls-1" d="M590.34,419.74c0,13.78-11.7,24.94-26.13,24.94s-26.13-11.16-26.13-24.94,11.7-24.96,26.13-24.96,26.13,11.17,26.13,24.96Z"/>
    </g>
  </g>
</svg>