<?xml version="1.0" encoding="UTF-8"?>
<svg id="Layer_1" data-name="Layer 1" xmlns="http://www.w3.org/2000/svg" xmlns:xlink="http://www.w3.org/1999/xlink" viewBox="0 0 150 150">
  <defs>
    <style>
      .cls-1 {
        fill: none;
      }

      .cls-2 {
        fill: #fbbd00;
      }

      .cls-3 {
        fill: #42c5e5;
      }

      .cls-4 {
        fill: #fed82e;
      }

      .cls-5 {
        fill: #36f;
      }

      .cls-6 {
        fill: #206cb6;
      }

      .cls-7 {
        clip-path: url(#clippath);
      }
    </style>
    <clipPath id="clippath">
      <rect class="cls-1" x="24.69" y="46.93" width="100.61" height="88.35"/>
    </clipPath>
  </defs>
  <g>
    <g>
      <path class="cls-4" d="M75,30.41s-30.48-27.63-30.34-11.25c.14,16.38,21.79,15.95,30.34,11.25Z"/>
      <path class="cls-4" d="M75,30.41s30.48-27.63,30.34-11.25c-.14,16.38-21.79,15.95-30.34,11.25Z"/>
    </g>
    <path class="cls-2" d="M80.98,29.41c0,3.3-2.68,5.98-5.98,5.98s-5.98-2.68-5.98-5.98,2.68-5.98,5.98-5.98,5.98,2.68,5.98,5.98Z"/>
  </g>
  <g>
    <rect class="cls-5" x="18.51" y="32.33" width="112.97" height="14.6"/>
    <g class="cls-7">
      <rect class="cls-3" x="24.69" y="46.93" width="100.61" height="88.35"/>
      <polygon class="cls-5" points="43.55 96.01 49.09 101.98 57.15 100.8 53.18 107.92 56.8 115.23 48.8 113.65 42.97 119.35 42 111.25 34.78 107.47 42.17 104.04 43.55 96.01"/>
      <polygon class="cls-5" points="102.73 57.72 104.13 65.75 111.53 69.16 104.33 72.96 103.38 81.06 97.53 75.38 89.54 76.98 93.13 69.67 89.14 62.56 97.21 63.72 102.73 57.72"/>
      <polygon class="cls-5" points="99.83 107.68 101.23 115.71 108.63 119.11 101.43 122.92 100.48 131.01 94.63 125.34 86.64 126.94 90.23 119.62 86.24 112.52 94.31 113.67 99.83 107.68"/>
      <polygon class="cls-5" points="48.36 53.18 49.76 61.21 57.16 64.61 49.96 68.42 49.01 76.51 43.16 70.84 35.17 72.44 38.76 65.12 34.77 58.02 42.84 59.17 48.36 53.18"/>
      <polygon class="cls-6" points="69.51 77.03 70.43 82.28 75.27 84.51 70.56 87 69.94 92.3 66.11 88.58 60.88 89.63 63.23 84.84 60.62 80.19 65.9 80.95 69.51 77.03"/>
      <polygon class="cls-5" points="113.64 91.04 117.14 95.08 122.44 94.49 119.68 99.06 121.88 103.92 116.68 102.7 112.74 106.3 112.29 100.98 107.65 98.34 112.57 96.27 113.64 91.04"/>
      <polygon class="cls-5" points="66.21 123.39 69.7 127.42 75 126.83 72.24 131.4 74.44 136.26 69.25 135.05 65.3 138.64 64.85 133.32 60.21 130.68 65.13 128.61 66.21 123.39"/>
      <polygon class="cls-5" points="23.29 115.28 26.78 119.31 32.09 118.73 29.33 123.29 31.53 128.15 26.33 126.94 22.39 130.53 21.94 125.22 17.3 122.58 22.22 120.5 23.29 115.28"/>
      <polygon class="cls-5" points="125.49 51.25 128.98 55.28 134.28 54.69 131.52 59.26 133.72 64.12 128.53 62.91 124.58 66.5 124.13 61.19 119.49 58.55 124.41 56.47 125.49 51.25"/>
      <polygon class="cls-5" points="88.19 92.49 90.57 95.24 94.18 94.84 92.3 97.95 93.8 101.27 90.26 100.44 87.57 102.89 87.26 99.27 84.1 97.47 87.45 96.05 88.19 92.49"/>
      <polygon class="cls-5" points="28.78 80.55 31.16 83.3 34.77 82.9 32.89 86.01 34.39 89.32 30.85 88.5 28.16 90.95 27.85 87.32 24.69 85.52 28.04 84.11 28.78 80.55"/>
      <polygon class="cls-6" points="74.32 54.09 76.7 56.84 80.31 56.44 78.43 59.55 79.93 62.86 76.39 62.04 73.7 64.49 73.39 60.86 70.23 59.06 73.58 57.65 74.32 54.09"/>
      <polygon class="cls-6" points="66.99 104.84 69.37 107.59 72.98 107.19 71.1 110.3 72.6 113.61 69.06 112.79 66.37 115.24 66.06 111.61 62.9 109.81 66.25 108.4 66.99 104.84"/>
      <polygon class="cls-5" points="120.89 120.62 123.27 123.37 126.89 122.96 125.01 126.08 126.51 129.39 122.96 128.56 120.28 131.01 119.97 127.39 116.81 125.59 120.16 124.18 120.89 120.62"/>
      <polygon class="cls-5" points="23.74 52.52 26.12 55.27 29.73 54.87 27.85 57.99 29.35 61.3 25.81 60.47 23.12 62.92 22.81 59.3 19.65 57.5 23 56.09 23.74 52.52"/>
      <polygon class="cls-5" points="118.54 75.35 120.92 78.1 124.53 77.7 122.65 80.81 124.15 84.12 120.61 83.3 117.92 85.75 117.61 82.12 114.45 80.32 117.81 78.91 118.54 75.35"/>
    </g>
  </g>
  <rect class="cls-4" x="66.19" y="31.1" width="17.63" height="104.94"/>
</svg>