<?xml version="1.0" encoding="UTF-8"?>
<svg id="Layer_1" data-name="Layer 1" xmlns="http://www.w3.org/2000/svg" xmlns:xlink="http://www.w3.org/1999/xlink" viewBox="0 0 805 805">
  <defs>
    <style>
      .cls-1 {
        fill: #e33434;
      }

      .cls-2 {
        fill: #422a16;
      }

      .cls-3 {
        fill: #fff;
      }

      .cls-4 {
        fill: none;
      }

      .cls-5 {
        clip-path: url(#clippath-1);
      }

      .cls-6 {
        fill: #fec9a1;
      }

      .cls-7 {
        fill: #006837;
      }

      .cls-8 {
        clip-path: url(#clippath-3);
      }

      .cls-9 {
        clip-path: url(#clippath-2);
      }

      .cls-10 {
        fill: #025129;
      }

      .cls-11 {
        clip-path: url(#clippath);
      }

      .cls-12 {
        fill: #ed9b64;
      }
    </style>
    <clipPath id="clippath">
      <path class="cls-6" d="M281.65,482.85c-9.97-9.89-20.36-19.62-32.69-26.33-12.33-6.71-26.96-10.19-40.59-6.82-19.71,4.88-34.12,24.14-35.94,44.36-1.82,20.22,7.69,40.5,22.54,54.34,14.86,13.84,34.53,21.73,54.55,25.12,10.97,1.86,22.42,2.43,33.07-.82,10.64-3.24,20.4-10.8,24.14-21.28"/>
    </clipPath>
    <clipPath id="clippath-1">
      <path class="cls-6" d="M571.46,482.85c9.97-9.89,20.36-19.62,32.69-26.33,12.33-6.71,26.96-10.19,40.59-6.82,19.71,4.88,34.12,24.14,35.94,44.36,1.82,20.22-7.69,40.5-22.54,54.34-14.86,13.84-34.53,21.73-54.55,25.12-10.97,1.86-22.42,2.43-33.07-.82-10.64-3.24-20.4-10.8-24.14-21.28"/>
    </clipPath>
    <clipPath id="clippath-2">
      <circle class="cls-4" cx="335.5" cy="464.19" r="54.54"/>
    </clipPath>
    <clipPath id="clippath-3">
      <circle class="cls-4" cx="517.4" cy="464.19" r="54.54"/>
    </clipPath>
  </defs>
  <circle class="cls-3" cx="402.5" cy="402.5" r="399"/>
  <g>
    <g>
      <g>
        <g>
          <path class="cls-6" d="M281.65,482.85c-9.97-9.89-20.36-19.62-32.69-26.33-12.33-6.71-26.96-10.19-40.59-6.82-19.71,4.88-34.12,24.14-35.94,44.36-1.82,20.22,7.69,40.5,22.54,54.34,14.86,13.84,34.53,21.73,54.55,25.12,10.97,1.86,22.42,2.43,33.07-.82,10.64-3.24,20.4-10.8,24.14-21.28"/>
          <g class="cls-11">
            <path class="cls-6" d="M281.65,482.85c-9.97-9.89-20.36-19.62-32.69-26.33-12.33-6.71-26.96-10.19-40.59-6.82-19.71,4.88-34.12,24.14-35.94,44.36-1.82,20.22,7.69,40.5,22.54,54.34,14.86,13.84,34.53,21.73,54.55,25.12,10.97,1.86,22.42,2.43,33.07-.82,10.64-3.24,20.4-10.8,24.14-21.28"/>
            <path d="M291.12,570.97c-22.43-55.38-82.71-108.53-143.69-70.93-3.91,2.41-.32,8.59,3.61,6.17,56.75-34.99,112.46,15.45,133.2,66.66,1.7,4.21,8.62,2.37,6.89-1.9h0Z"/>
            <path d="M256.65,521.87c-14.12,1.28-26.78,7.77-35.63,18.93-2.83,3.56,2.19,8.65,5.05,5.05,7.64-9.63,18.28-15.72,30.58-16.83,4.54-.41,4.58-7.56,0-7.14h0Z"/>
          </g>
        </g>
        <g>
          <path class="cls-6" d="M571.46,482.85c9.97-9.89,20.36-19.62,32.69-26.33,12.33-6.71,26.96-10.19,40.59-6.82,19.71,4.88,34.12,24.14,35.94,44.36,1.82,20.22-7.69,40.5-22.54,54.34-14.86,13.84-34.53,21.73-54.55,25.12-10.97,1.86-22.42,2.43-33.07-.82-10.64-3.24-20.4-10.8-24.14-21.28"/>
          <g class="cls-5">
            <path class="cls-6" d="M571.46,482.85c9.97-9.89,20.36-19.62,32.69-26.33,12.33-6.71,26.96-10.19,40.59-6.82,19.71,4.88,34.12,24.14,35.94,44.36,1.82,20.22-7.69,40.5-22.54,54.34-14.86,13.84-34.53,21.73-54.55,25.12-10.97,1.86-22.42,2.43-33.07-.82-10.64-3.24-20.4-10.8-24.14-21.28"/>
            <path d="M568.87,572.87c20.75-51.22,76.45-101.65,133.2-66.66,3.92,2.42,7.52-3.76,3.61-6.17-60.98-37.6-121.26,15.55-143.69,70.93-1.73,4.26,5.18,6.11,6.89,1.9h0Z"/>
            <path d="M596.45,529.02c12.31,1.11,22.94,7.21,30.58,16.83,2.86,3.6,7.88-1.49,5.05-5.05-8.85-11.16-21.51-17.65-35.63-18.93-4.58-.41-4.55,6.73,0,7.14h0Z"/>
          </g>
        </g>
        <path class="cls-6" d="M595.32,275.3l-171.72-9.16-171.72,9.16-18.32,123.64s34.34,111.05,36.63,144.24c2.29,33.2,17.17,119.06,153.4,119.06s151.11-85.86,153.4-119.06c2.29-33.2,36.63-144.24,36.63-144.24l-18.32-123.64Z"/>
        <g>
          <circle class="cls-3" cx="335.5" cy="464.19" r="54.54"/>
          <g class="cls-9">
            <circle class="cls-2" cx="340.27" cy="467.36" r="47.08"/>
          </g>
        </g>
        <g>
          <circle class="cls-3" cx="517.4" cy="464.19" r="54.54"/>
          <g class="cls-8">
            <circle class="cls-2" cx="512.64" cy="467.36" r="47.08"/>
          </g>
        </g>
        <path class="cls-12" d="M422.7,432.02c6.31,0,23.18,48.83,23.18,48.83,0,0,28.56,1.84,27.64,15.66-.92,13.82-32.54,28.56-50.82,19.35-18.28-9.21-12.12-83.84,0-83.84Z"/>
        <g>
          <path class="cls-1" d="M395.75,597.07c10.67,3.7,22.18,5.97,33.69,5.97,16.73,0,33.46-4.77,47.59-11.79-9.68-4.39-20.12-7.1-30.73-7.66-17.71-.93-35.59,3.99-50.55,13.49Z"/>
          <path d="M514.11,548.92c-.46-1.94-1.47-3.39-2.92-4.45-13.53-9.9-66.22,15.4-81.75,15.4-14.63,0-62.21-22.43-79-16.77-2.94.99-4.96,2.83-5.67,5.82-3.51,14.9,20.23,37.49,50.98,48.15,14.96-9.5,32.84-14.42,50.55-13.49,10.62.56,21.06,3.27,30.73,7.66,23.64-11.74,40.03-29.77,37.07-42.33Z"/>
          <path class="cls-3" d="M511.19,544.47c-7.25-5.3-25.75-.49-43.75,5.11,1.13,5.88,2.27,11.76,3.4,17.65,17.25-6.45,31.21-15.66,40.35-22.76Z"/>
          <path class="cls-3" d="M429.44,559.87c-14.63,0-62.21-22.43-79-16.77,13.42,12.08,41.21,31.94,79,31.94,4.41,0,8.71-.28,12.91-.78.05-5.58-.15-11.15-.56-16.72-5.1,1.41-9.4,2.33-12.35,2.33Z"/>
        </g>
      </g>
      <path class="cls-2" d="M516.79,377.19c-5.83-.77-11.72-.99-17.64-.21-2.61.34-5.31.93-7.41,2.48-8.44,6.21,6.89,12.19,11.46,13.91,11.03,4.14,23.51,7.25,35.79,5.97,9.48-.99,11.26-10.3,4.21-15.14-2.88-1.98-6.47-2.91-9.99-3.76-5.39-1.3-10.88-2.52-16.43-3.25Z"/>
      <path class="cls-2" d="M329.11,372.36c5.83-.77,11.72-.99,17.64-.21,2.61.34,5.31.93,7.41,2.48,8.44,6.21-6.89,12.19-11.46,13.91-11.03,4.14-23.51,7.25-35.79,5.97-9.48-.99-11.26-10.3-4.21-15.14,2.88-1.98,6.47-2.91,9.99-3.76,5.39-1.3,10.88-2.52,16.43-3.25Z"/>
    </g>
    <path class="cls-2" d="M582.79,382.25c-1.09,19.04-.65,41.55,3.3,66.43,1.58,9.95,3.56,19.28,5.77,27.93,8.08-3.65,27.57-13.78,40.99-36.08,8.37-13.91,11.13-27.17,12.15-35.43,8.69-21.88-5.92-17.98-22-25.54-19.99-9.4-38.81,1.82-40.22,2.68Z"/>
    <path class="cls-2" d="M211.87,459.55c9.9,12.1,20.73,24.52,32.57,37.1,6.33,6.73,12.63,13.16,18.87,19.3,1.95,0,3.76-1.05,4.69-2.74,1.36-2.47.09-4.92,0-5.09.85-18.2.1-40.38-4.69-65.08-2.12-10.91-4.76-20.94-7.62-30.03,11.43-14.12,22.86-28.24,34.29-42.36-34.71-1.38-51.62-9.99-86.33-11.37-1.9,21.21-21.62,49.66-23.52,70.87,2.53,11.9,5.06,23.81,7.59,35.71"/>
    <g>
      <path class="cls-7" d="M190.82,407.06s35.5,55.61,1.66,123.14c-33.83,67.5-19.65,80.03-19.65,80.03,0,0-98.99-85.01,17.98-203.17Z"/>
      <path class="cls-7" d="M203.65,399.14s-65.35,85.1-168.97,15.27c0,0,37.14,7.85,65.71-16.25,25.72-21.69,80.77-37.32,103.26.98Z"/>
      <path class="cls-7" d="M423.85,142.76c-228.12-.77-237.51,168.61-230.19,258.44,49.86-28.97,130.03-34.45,229.52-35.31,99.43,1.51,179.55,7.51,229.2,36.8,7.88-89.78-.39-259.19-228.53-259.94Z"/>
      <path class="cls-10" d="M170.74,398.97c-.04,11.48,9.25,20.82,20.73,20.88,11.5.04,20.82-9.25,20.86-20.73.04-11.5-9.23-20.82-20.72-20.86-11.48-.05-20.83,9.22-20.87,20.72Z"/>
    </g>
  </g>
</svg>