<?xml version="1.0" encoding="UTF-8"?>
<svg id="Layer_1" data-name="Layer 1" xmlns="http://www.w3.org/2000/svg" xmlns:xlink="http://www.w3.org/1999/xlink" viewBox="0 0 805 805">
  <defs>
    <style>
      .cls-1 {
        fill: #fff;
      }

      .cls-2, .cls-3 {
        fill: none;
      }

      .cls-4 {
        clip-path: url(#clippath-1);
      }

      .cls-5 {
        fill: #de946c;
      }

      .cls-5, .cls-6 {
        fill-rule: evenodd;
      }

      .cls-7, .cls-6 {
        fill: #b6b7b4;
      }

      .cls-8 {
        fill: #fec9a1;
      }

      .cls-9 {
        fill: #222621;
      }

      .cls-10 {
        clip-path: url(#clippath-3);
      }

      .cls-11 {
        clip-path: url(#clippath-2);
      }

      .cls-3 {
        stroke: #f7c510;
        stroke-miterlimit: 10;
        stroke-width: 18.02px;
      }

      .cls-12 {
        opacity: .58;
      }

      .cls-13 {
        clip-path: url(#clippath);
      }

      .cls-14 {
        fill: #ed9b64;
      }
    </style>
    <clipPath id="clippath">
      <path class="cls-2" d="M240.46,456.93c-9.23-9.15-18.85-18.16-30.26-24.38-11.42-6.21-24.96-9.43-37.58-6.31-18.25,4.52-31.59,22.35-33.27,41.07-1.68,18.72,7.12,37.49,20.87,50.31,13.75,12.82,31.97,20.11,50.5,23.26,10.16,1.72,20.76,2.25,30.61-.76,9.85-3,18.89-10,22.35-19.7"/>
    </clipPath>
    <clipPath id="clippath-1">
      <path class="cls-2" d="M600.47,449.32c9.23-9.15,18.85-18.16,30.26-24.38,11.42-6.21,24.96-9.43,37.58-6.31,18.25,4.52,31.59,22.35,33.27,41.07,1.68,18.72-7.12,37.49-20.87,50.31-13.75,12.82-31.97,20.11-50.5,23.26-10.16,1.72-20.76,2.25-30.61-.76-9.85-3-18.89-10-22.35-19.7"/>
    </clipPath>
    <clipPath id="clippath-2">
      <circle class="cls-2" cx="326.16" cy="439.51" r="48.73"/>
    </clipPath>
    <clipPath id="clippath-3">
      <circle class="cls-2" cx="513.96" cy="435.82" r="48.73"/>
    </clipPath>
  </defs>
  <circle class="cls-1" cx="402.5" cy="402.5" r="399"/>
  <g>
    <circle class="cls-3" cx="657.82" cy="536.02" r="28.34"/>
    <g>
      <g>
        <g>
          <g class="cls-13">
            <path class="cls-8" d="M240.46,456.93c-9.23-9.15-18.85-18.16-30.26-24.38-11.42-6.21-24.96-9.43-37.58-6.31-18.25,4.52-31.59,22.35-33.27,41.07-1.68,18.72,7.12,37.49,20.87,50.31,13.75,12.82,31.97,20.11,50.5,23.26,10.16,1.72,20.76,2.25,30.61-.76,9.85-3,18.89-10,22.35-19.7"/>
            <path d="M249.23,538.51c-20.77-51.27-76.58-100.48-133.03-65.67-3.62,2.23-.3,7.95,3.34,5.71,52.54-32.4,104.11,14.3,123.32,61.71,1.58,3.89,7.98,2.19,6.38-1.76h0Z"/>
            <path d="M217.32,493.06c-13.07,1.18-24.79,7.19-32.99,17.52-2.62,3.3,2.03,8.01,4.68,4.68,7.07-8.91,16.92-14.55,28.31-15.59,4.2-.38,4.24-7,0-6.61h0Z"/>
          </g>
          <g class="cls-4">
            <path class="cls-8" d="M600.47,449.32c9.23-9.15,18.85-18.16,30.26-24.38,11.42-6.21,24.96-9.43,37.58-6.31,18.25,4.52,31.59,22.35,33.27,41.07,1.68,18.72-7.12,37.49-20.87,50.31-13.75,12.82-31.97,20.11-50.5,23.26-10.16,1.72-20.76,2.25-30.61-.76-9.85-3-18.89-10-22.35-19.7"/>
            <path d="M591.71,530.9c20.77-51.27,76.58-100.48,133.03-65.67,3.62,2.23.3,7.95-3.34,5.71-52.54-32.4-104.11,14.3-123.32,61.71-1.58,3.89-7.98,2.19-6.38-1.76h0Z"/>
            <path d="M623.62,485.44c13.07,1.18,24.79,7.19,32.99,17.52,2.62,3.3-2.03,8.01-4.68,4.68-7.07-8.91-16.92-14.55-28.31-15.59-4.2-.38-4.24-7,0-6.61h0Z"/>
          </g>
          <path class="cls-8" d="M642.76,192.73l-213.49-11.39-213.49,11.39s13.82,333.32,33.12,384.29c18.2,48.07,119.3,115.7,180.37,115.7s150.81-83.42,163.48-122.8c16.3-50.66,50.01-377.18,50.01-377.18Z"/>
          <path class="cls-14" d="M421.24,417.45c7.79.93,21.39,63.71,21.39,63.71,0,0,16.3,7.38,13.12,24.31-3.18,16.92-21.49,30.12-42.7,16.04-21.2-14.08-6.78-105.85,8.19-104.06Z"/>
          <path class="cls-7" d="M231.17,448.05c-2.25-1.66-29.76-19.49-29.76-19.49-7.92-14.34-11.72-52.9-11.72-52.9,0,0-47.91-8.13-45.83-14.37,2.08-6.25,35.41-43.74,35.41-43.74,0,0-78.12-79.16-76.03-82.28,2.08-3.12,207.74-188.54,408.59-147.32,86.09,17.67,147.52,94.06,145.63,181.92-1.93,90.16-36.86,177.42-44.51,178.19-12.49,1.27-25.43-195.36-25.43-195.36,0,0,6.13,52.45,0,48.36-6.13-4.09-56.95-78.58-56.95-78.58,0,0-144.31,47.02-150.23,42.93-5.92-4.09,22.01-42.93,22.01-42.93,0,0-99.77,74.41-116.93,66.23-17.16-8.18-21.76-42.05-21.76-42.05,0,0-11.55,216.89-32.51,201.4Z"/>
          <path class="cls-14" d="M481.25,498.81c13.03,4.2,26.35,5.62,39.97,4.18,4.88-.52,4.93-8.22,0-7.7-12.96,1.37-25.51.1-37.92-3.9-4.73-1.53-6.75,5.91-2.05,7.43h0Z"/>
          <path class="cls-14" d="M354.41,491.39c-12.42,4-24.96,5.27-37.92,3.9-4.92-.52-4.89,7.19,0,7.7,13.62,1.44,26.94.02,39.97-4.18,4.7-1.52,2.69-8.95-2.05-7.43h0Z"/>
          <path d="M365.41,572.05c38.04,15.31,78.92,15.36,117.01.17,4.55-1.81,2.56-9.27-2.05-7.43-36.97,14.75-75.99,14.69-112.92-.17-4.6-1.85-6.6,5.6-2.05,7.43h0Z"/>
        </g>
        <g>
          <circle class="cls-1" cx="326.16" cy="439.51" r="48.73"/>
          <g class="cls-11">
            <circle cx="330.42" cy="442.34" r="42.06"/>
          </g>
        </g>
        <g>
          <circle class="cls-1" cx="513.96" cy="435.82" r="48.73"/>
          <g class="cls-10">
            <circle cx="509.7" cy="438.65" r="42.06"/>
          </g>
        </g>
        <path class="cls-6" d="M428.58,545.02c-33.8,47.26-79.28,55.79-136.41,25.58,24.53,1.8,44.87-8.97,61.02-32.31,27.52-40.99,52.66-38.74,75.39,6.73,22.14-45.47,47.11-47.71,74.93-6.73,15.85,23.34,36.04,34.11,60.57,32.31-56.53,30.21-101.71,21.68-135.51-25.58"/>
        <g class="cls-12">
          <path class="cls-5" d="M340.66,315.99l163.19-4.56s-39.47,20.49-83.49,20.49-79.7-15.94-79.7-15.94"/>
          <path class="cls-5" d="M365.86,344.94l117.72-1.72s-28.94,19.8-60.67,19.04c-31.73-.77-57.06-17.32-57.06-17.32"/>
        </g>
      </g>
      <g>
        <path class="cls-9" d="M596.26,446.25c-12.93,42.81-60.34,74.27-103.13,61.35-42.79-12.95-64.84-65.41-51.88-108.23,12.96-42.81,51.58-45.24,94.37-32.29,42.79,12.95,73.6,36.37,60.63,79.18Z"/>
        <path class="cls-9" d="M636.36,440.18c-11.59-1.37-23.51-2.3-35.05-3.18-27.52-2.12-55.97-4.32-83.8-12.89-140.71-43.35-257.89-127.92-262.81-131.51l15.69-21.58c1.18.86,118.64,85.57,254.98,127.58,25,7.7,50.72,9.69,77.99,11.79,11.81.9,24.03,1.85,36.17,3.29l-3.16,26.5Z"/>
      </g>
      <path class="cls-7" d="M597.86,528.66c-7.49,60.81-109.24,102.3-127.09,108.53-17.8,6.4-77.55,6.19-95.33-.31-17.83-6.35-119.31-48.52-126.4-109.36-3.77-32.03-42.39-140.87-42.39-140.87.79,6.44,1.57,12.94,2.33,19.46,0,0,12.71,134.73,14.98,134.19,1.01,10.01,1.86,18.79,2.43,25.76.36,3.35,1.47,7.11,3.04,11,4.65,7.41,12.05,19.46,21.33,33.78,29.93,37.33,78.48,79.51,93,96.32,19.72,22.81,52.73,14.04,63.31,13.58,10.65-.47,15.75-.73,15.75-.73,0,0,5.13.29,15.79.83,10.53.52,43.56,9.51,63.39-13.17,29.79-34.16,76.4-74.51,93.65-95.69,9.32-14.28,16.76-26.28,21.53-33.66,1.53-3.87,2.78-7.63,3.11-10.98.64-6.97,1.51-15.74,2.62-25.75,2.27.56,15.8-134.09,15.8-134.09.87-6.51,1.67-13.03,2.48-19.43,0,0-39.33,108.58-43.32,140.57Z"/>
      <path class="cls-7" d="M324.55,347.19c10.06-1.32,20.23-1.71,30.44-.37,4.5.59,9.16,1.61,12.78,4.27,14.57,10.73-11.89,21.04-19.78,24.01-19.05,7.15-40.58,12.52-61.79,10.31-16.37-1.71-19.43-17.77-7.27-26.13,4.98-3.42,11.17-5.01,17.25-6.48,9.3-2.25,18.78-4.35,28.36-5.61Z"/>
    </g>
  </g>
</svg>