<?xml version="1.0" encoding="UTF-8"?>
<svg id="Layer_1" data-name="Layer 1" xmlns="http://www.w3.org/2000/svg" xmlns:xlink="http://www.w3.org/1999/xlink" viewBox="0 0 805 805">
  <defs>
    <style>
      .cls-1 {
        fill: #333;
      }

      .cls-2 {
        fill: gray;
      }

      .cls-3 {
        fill: #fec300;
      }

      .cls-4 {
        fill: #2c646e;
      }

      .cls-5 {
        fill: #6c2a80;
      }

      .cls-6 {
        fill: #fff;
      }

      .cls-7 {
        fill: #ccc;
      }

      .cls-8 {
        fill: none;
      }

      .cls-9 {
        fill: #707070;
      }

      .cls-10 {
        fill: #deaa00;
      }

      .cls-11 {
        clip-path: url(#clippath-1);
      }

      .cls-12 {
        fill: #4d4d4d;
      }

      .cls-13 {
        fill: #314b46;
      }

      .cls-14 {
        fill: #9c5cb1;
      }

      .cls-15 {
        fill: #e6e6e6;
      }

      .cls-16 {
        fill: #feffff;
      }

      .cls-17 {
        clip-path: url(#clippath);
      }
    </style>
    <clipPath id="clippath">
      <circle class="cls-8" cx="402.5" cy="402.5" r="399"/>
    </clipPath>
    <clipPath id="clippath-1">
      <circle class="cls-8" cx="1302.95" cy="402.5" r="399"/>
    </clipPath>
  </defs>
  <g>
    <circle class="cls-6" cx="402.5" cy="402.5" r="399"/>
    <g class="cls-17">
      <g>
        <g>
          <path class="cls-9" d="M403.31,626.89c5.37.05,10.73.15,16.08.32,26.25.82,27.6,39.51,3.96,42.71,72.06,1.3,144.45,14.89,200.91,60.69l24.16-36.41c-67.8-54.38-159.38-68.24-245.12-67.31Z"/>
          <path class="cls-12" d="M672.06,715.85c-7.48-7.86-15.39-15.03-23.63-21.65l-24.16,36.41c5.98,4.85,11.8,10.03,17.41,15.63,5.37,5.37,10.29,10.94,14.88,16.64l34.04-25.35c-5.68-7.38-11.81-14.63-18.53-21.68Z"/>
          <path class="cls-9" d="M690.59,737.53l-34.04,25.35c11.38,14.15,20.45,29.28,27.66,45.14l39.16-14.95c-8.47-19.32-19.23-37.89-32.78-55.54Z"/>
          <path class="cls-9" d="M383.35,669.91c1.33.19,2.7.33,4.19.29,5.35-.17,10.72-.28,16.1-.34-6.72-.08-13.49-.07-20.29.05Z"/>
          <path class="cls-12" d="M723.37,793.07l-39.16,14.95c8.76,19.3,14.8,39.67,18.95,60.65l39.94-13.44c-4.62-21.35-10.95-42.15-19.73-62.15Z"/>
          <path class="cls-12" d="M63.32,855.05l40.94,13.77c4.24-20.88,10.35-41.17,19.18-60.54l-40.66-15.52c-8.69,19.96-14.95,40.84-19.46,62.29Z"/>
          <path class="cls-12" d="M134.87,715.85c-6.89,6.88-13.16,14.02-18.96,21.35l34.82,25.94c4.49-5.76,9.29-11.41,14.53-16.9,5.47-5.74,11.22-11.05,17.16-16l-23.6-35.56c-8.28,6.49-16.29,13.51-23.95,21.17Z"/>
          <path class="cls-9" d="M403.64,669.86c5.28.06,10.54.17,15.76.34,1.41.04,2.7-.1,3.96-.27-6.58-.12-13.16-.14-19.72-.06Z"/>
          <path class="cls-9" d="M82.78,792.77l40.66,15.52c7.16-15.72,16.13-30.82,27.3-45.15l-34.82-25.94c-13.78,17.44-24.64,36.06-33.13,55.57Z"/>
          <path class="cls-9" d="M387.54,627.21c5.23-.17,10.49-.27,15.77-.32-86.99-.88-175.63,13.83-244.49,67.79l23.6,35.56c55.25-46.05,129.53-59.1,200.92-60.33-23.41-3.4-21.97-41.88,4.19-42.69Z"/>
          <path class="cls-9" d="M419.4,627.21c-5.35-.17-10.71-.27-16.08-.32-5.28.05-10.54.15-15.77.32-26.16.82-27.6,39.3-4.19,42.69,6.8-.12,13.57-.13,20.29-.05,6.57-.07,13.14-.05,19.72.06,23.64-3.2,22.28-41.89-3.96-42.71Z"/>
        </g>
        <rect class="cls-3" x="206.84" y="607.76" width="393.26" height="387.63"/>
        <rect class="cls-1" x="332.36" y="546.48" width="142.23" height="94.12"/>
        <g>
          <rect class="cls-7" x="626.14" y="384.07" width="110.45" height="23.77"/>
          <rect class="cls-2" x="626.14" y="396.47" width="110.45" height="11.88"/>
          <rect class="cls-14" x="609.12" y="371.31" width="34.74" height="49.3"/>
          <path class="cls-1" d="M626.14,438.8c0,9.39-7.61,17.02-17.02,17.02h0c-9.4,0-17.02-7.62-17.02-17.02v-83.34c0-9.4,7.62-17.02,17.02-17.02h0c9.4,0,17.02,7.62,17.02,17.02v83.34Z"/>
          <path class="cls-3" d="M777.53,396.47c0,22.61-18.33,40.94-40.94,40.94s-40.94-18.33-40.94-40.94,18.33-40.94,40.94-40.94,40.94,18.33,40.94,40.94Z"/>
          <path class="cls-10" d="M736.6,355.53c22.61,0,40.94,18.33,40.94,40.94s-18.33,40.94-40.94,40.94"/>
        </g>
        <g>
          <rect class="cls-7" x="71.23" y="386.42" width="110.45" height="23.77"/>
          <rect class="cls-2" x="71.23" y="385.9" width="110.45" height="11.88"/>
          <rect class="cls-14" x="163.96" y="373.65" width="34.74" height="49.3"/>
          <path class="cls-1" d="M181.68,355.46c0-9.4,7.62-17.02,17.02-17.02h0c9.4,0,17.02,7.62,17.02,17.02v83.34c0,9.39-7.62,17.02-17.02,17.02h0c-9.4,0-17.02-7.62-17.02-17.02v-83.34Z"/>
          <path class="cls-3" d="M30.29,397.79c0-22.61,18.33-40.94,40.94-40.94s40.94,18.33,40.94,40.94-18.33,40.94-40.94,40.94-40.94-18.32-40.94-40.94Z"/>
          <path class="cls-10" d="M71.23,438.72c-22.61,0-40.94-18.32-40.94-40.94s18.33-40.94,40.94-40.94"/>
        </g>
        <path class="cls-3" d="M609.12,536.77c0,22.06-17.88,39.95-39.94,39.95H237.77c-22.07,0-39.95-17.88-39.95-39.95v-268.73c0-22.06,17.88-39.95,39.95-39.95h331.41c22.06,0,39.94,17.88,39.94,39.95v268.73Z"/>
        <path class="cls-10" d="M571.42,486.38c0,29.24-22.89,52.94-51.11,52.94h-233.67c-28.23,0-51.11-23.7-51.11-52.94h0c0-29.23,22.88-52.93,51.11-52.93h233.67c28.22,0,51.11,23.7,51.11,52.93h0Z"/>
        <g>
          <g>
            <path class="cls-1" d="M285.05,333.84c20.27,20.33,40.13,41.06,60.89,60.9,11.55,11.03,29.09-6.47,17.52-17.52-20.76-19.83-40.62-40.57-60.89-60.9-11.29-11.32-28.81,6.19-17.52,17.52h0Z"/>
            <path class="cls-1" d="M345.95,316.33c-20.27,20.33-40.13,41.06-60.89,60.9-11.57,11.05,5.97,28.54,17.52,17.52,20.76-19.83,40.62-40.57,60.89-60.9,11.29-11.32-6.23-28.84-17.52-17.52h0Z"/>
          </g>
          <g>
            <path class="cls-1" d="M437.81,333.84c20.27,20.33,40.13,41.06,60.89,60.9,11.55,11.03,29.09-6.47,17.52-17.52-20.76-19.83-40.63-40.57-60.9-60.9-11.29-11.32-28.81,6.2-17.52,17.52h0Z"/>
            <path class="cls-1" d="M498.7,316.33c-20.27,20.33-40.13,41.06-60.89,60.9-11.57,11.05,5.97,28.54,17.52,17.52,20.76-19.83,40.62-40.57,60.9-60.9,11.29-11.32-6.23-28.84-17.52-17.52h0Z"/>
          </g>
        </g>
        <g>
          <path class="cls-16" d="M292,447.47c-21.52,0-38.96,17.44-38.96,38.96s17.44,38.96,38.96,38.96h2.25v-77.92h-2.25Z"/>
          <rect class="cls-15" x="294.25" y="447.47" width="54.61" height="77.92"/>
          <rect class="cls-16" x="348.86" y="447.47" width="54.61" height="77.92"/>
          <rect class="cls-16" x="458.08" y="447.47" width="54.61" height="77.92"/>
          <path class="cls-15" d="M514.94,447.47h-2.25v77.92h2.25c21.52,0,38.96-17.45,38.96-38.96s-17.45-38.96-38.96-38.96Z"/>
          <rect class="cls-15" x="403.47" y="447.47" width="54.61" height="77.92"/>
        </g>
        <rect class="cls-14" x="153.55" y="607.76" width="499.85" height="62.09"/>
        <rect class="cls-5" x="153.55" y="640.6" width="499.85" height="27.46"/>
        <path class="cls-10" d="M548.88,904.6c0,29.92-24.25,54.18-54.17,54.18h-182.47c-29.92,0-54.18-24.25-54.18-54.18v-57.21c0-29.92,24.25-54.17,54.18-54.17h182.47c29.92,0,54.17,24.25,54.17,54.17v57.21Z"/>
        <path class="cls-16" d="M312.43,736.04c0,15.02-12.17,27.19-27.19,27.19s-27.19-12.17-27.19-27.19,12.18-27.19,27.19-27.19,27.19,12.17,27.19,27.19Z"/>
        <rect class="cls-16" x="361.37" y="708.85" width="187.51" height="54.37"/>
      </g>
    </g>
  </g>
  <g class="cls-11">
    <g>
      <rect class="cls-13" x="701.37" y="765.72" width="49.45" height="610.69" transform="translate(58.48 -37.4) rotate(3.07)"/>
      <circle class="cls-4" cx="767.17" cy="686.13" r="153.86"/>
    </g>
  </g>
</svg>