<?xml version="1.0" encoding="UTF-8"?>
<svg id="Layer_1" data-name="Layer 1" xmlns="http://www.w3.org/2000/svg" xmlns:xlink="http://www.w3.org/1999/xlink" viewBox="0 0 805 805">
  <defs>
    <style>
      .cls-1 {
        fill: #ff1433;
      }

      .cls-2 {
        fill: #2c646e;
      }

      .cls-3 {
        stroke: #202836;
        stroke-miterlimit: 10;
        stroke-width: 38.57px;
      }

      .cls-3, .cls-4 {
        fill: none;
      }

      .cls-5 {
        fill: #fff;
      }

      .cls-6 {
        clip-path: url(#clippath-1);
      }

      .cls-7 {
        fill: #11a64c;
      }

      .cls-8 {
        fill: #314b46;
      }

      .cls-9 {
        fill: #7dffb0;
      }

      .cls-10 {
        fill: #317856;
      }

      .cls-11 {
        fill: #202836;
      }

      .cls-12 {
        fill: #4ace81;
      }

      .cls-13 {
        clip-path: url(#clippath);
      }
    </style>
    <clipPath id="clippath">
      <circle class="cls-4" cx="-547.9" cy="402.5" r="399"/>
    </clipPath>
    <clipPath id="clippath-1">
      <circle class="cls-4" cx="402.5" cy="402.5" r="399"/>
    </clipPath>
  </defs>
  <g class="cls-13">
    <g>
      <rect class="cls-8" x="4.23" y="765.72" width="49.45" height="610.69" transform="translate(115.3 2139.03) rotate(176.93)"/>
      <circle class="cls-2" cx="-12.12" cy="686.13" r="153.86"/>
    </g>
  </g>
  <g>
    <circle class="cls-5" cx="402.5" cy="402.5" r="399"/>
    <g class="cls-6">
      <g>
        <g>
          <path class="cls-3" d="M135.39,728.39c-110.98,0-107.2,182.79-107.2,491.24"/>
          <circle class="cls-10" cx="143.81" cy="725.1" r="49.59"/>
        </g>
        <g>
          <path class="cls-3" d="M669.61,728.39c110.98,0,107.2,182.79,107.2,491.24"/>
          <circle class="cls-10" cx="661.19" cy="725.1" r="49.59"/>
        </g>
        <path class="cls-12" d="M676.36,736.68c0,94.26-102.95,170.67-275.09,170.67s-275.09-76.41-275.09-170.67,102.95-105.86,275.09-105.86,275.09,11.6,275.09,105.86Z"/>
        <path class="cls-9" d="M601.74,734.26c0,54.17-75.02,98.09-200.47,98.09s-200.47-43.91-200.47-98.09,75.02-60.84,200.47-60.84,200.47,6.67,200.47,60.84Z"/>
        <g>
          <path class="cls-12" d="M401.26,275.34h0c95.92,0,173.8,77.88,173.8,173.8v161.33H227.46v-161.33c0-95.92,77.88-173.8,173.8-173.8Z"/>
          <path class="cls-7" d="M315.71,552.89c0-14.44,13.03-9.71,29.11-9.71s29.11-4.74,29.11,9.71-13.03,21.41-29.11,21.41-29.11-6.96-29.11-21.41Z"/>
          <rect class="cls-10" x="217.22" y="610.47" width="368.09" height="34.33"/>
          <path class="cls-9" d="M502.3,536.04h-199.6c-36.81,0-66.65-29.84-66.65-66.65h0c0-36.81,29.84-66.65,66.65-66.65h199.6c36.81,0,66.65,29.84,66.65,66.65h0c0,36.81-29.84,66.65-66.65,66.65Z"/>
          <path class="cls-11" d="M302.7,519.5c-27.63,0-50.11-22.48-50.11-50.11s22.48-50.11,50.11-50.11h199.6c27.63,0,50.11,22.48,50.11,50.11s-22.48,50.11-50.11,50.11h-199.6Z"/>
          <path class="cls-9" d="M464.43,322.33c0,21.2-28.28,38.39-63.17,38.39s-63.17-17.19-63.17-38.39,28.28-31.65,63.17-31.65,63.17,10.44,63.17,31.65Z"/>
          <g>
            <polygon class="cls-11" points="197.81 477.36 150.25 477.36 150.25 373.05 165.69 373.05 165.69 461.92 197.81 461.92 197.81 477.36"/>
            <g>
              <rect class="cls-7" x="183.59" y="410.71" width="43.88" height="117.36"/>
              <rect class="cls-9" x="183.59" y="425.21" width="43.88" height="26.29"/>
              <rect class="cls-10" x="183.59" y="476.45" width="43.88" height="51.62"/>
            </g>
            <circle class="cls-1" cx="157.15" cy="357.29" r="22.42"/>
          </g>
          <g>
            <polygon class="cls-11" points="604.72 477.36 652.27 477.36 652.27 373.05 636.84 373.05 636.84 461.92 604.72 461.92 604.72 477.36"/>
            <g>
              <rect class="cls-7" x="575.06" y="410.71" width="43.88" height="117.36" transform="translate(1194 938.79) rotate(180)"/>
              <rect class="cls-9" x="575.06" y="425.21" width="43.88" height="26.29" transform="translate(1194 876.7) rotate(180)"/>
              <rect class="cls-10" x="575.06" y="476.45" width="43.88" height="51.62" transform="translate(1194 1004.52) rotate(180)"/>
            </g>
            <circle class="cls-1" cx="645.38" cy="357.29" r="22.42"/>
          </g>
          <g>
            <path class="cls-5" d="M333.09,433.83c-10.33,0-18.7,16.34-18.7,36.5s8.37,36.5,18.7,36.5,18.7-16.34,18.7-36.5-8.37-36.5-18.7-36.5Z"/>
            <path class="cls-5" d="M474.91,433.83c-10.33,0-18.7,16.34-18.7,36.5s8.37,36.5,18.7,36.5,18.7-16.34,18.7-36.5-8.37-36.5-18.7-36.5Z"/>
          </g>
        </g>
      </g>
    </g>
  </g>
</svg>