<?xml version="1.0" encoding="UTF-8"?>
<svg id="Layer_1" data-name="Layer 1" xmlns="http://www.w3.org/2000/svg" xmlns:xlink="http://www.w3.org/1999/xlink" viewBox="0 0 805 805">
  <defs>
    <style>
      .cls-1 {
        clip-path: url(#clippath-4);
      }

      .cls-2 {
        fill: #2c646e;
      }

      .cls-3 {
        stroke: #202836;
        stroke-miterlimit: 10;
        stroke-width: 38.57px;
      }

      .cls-3, .cls-4 {
        fill: none;
      }

      .cls-5 {
        fill: #fff;
      }

      .cls-6 {
        clip-path: url(#clippath-1);
      }

      .cls-7 {
        fill: #b9d669;
      }

      .cls-8 {
        clip-path: url(#clippath-3);
      }

      .cls-9 {
        fill: #314b46;
      }

      .cls-10 {
        fill: #3b485c;
      }

      .cls-11 {
        fill: #f3757a;
      }

      .cls-12 {
        fill: #7dffb0;
      }

      .cls-13 {
        fill: #9ab537;
      }

      .cls-14 {
        clip-path: url(#clippath-2);
      }

      .cls-15 {
        fill: #3d858d;
      }

      .cls-16 {
        fill: #317856;
      }

      .cls-17 {
        fill: #ede4c0;
      }

      .cls-18 {
        fill: #202836;
      }

      .cls-19 {
        fill: #4ace81;
      }

      .cls-20 {
        clip-path: url(#clippath);
      }
    </style>
    <clipPath id="clippath">
      <circle class="cls-4" cx="402.5" cy="402.5" r="399"/>
    </clipPath>
    <clipPath id="clippath-1">
      <path class="cls-4" d="M188.85,657.08c-10.13-48.38-15.8-98.18-10.38-147.31,5.42-49.14,22.49-97.79,53.98-135.89,44.57-53.94,117.71-82.77,187.1-73.77,69.39,9,132.75,55.54,162.09,119.06,30.28,65.54,24.52,141.87,10.55,212.7-11.7,59.32-28.73,117.59-50.82,173.88-9.71,24.76-20.91,49.87-40.31,68.05-28.27,26.49-69.77,34.07-108.44,31.77-26.08-1.55-51.66-7.04-77.24-12.01-17.52-3.41-35.4-1.78-46.09-17.43-27.2-39.82-44.36-92.45-59-138.02-8.55-26.61-15.71-53.66-21.44-81.02Z"/>
    </clipPath>
    <clipPath id="clippath-2">
      <path class="cls-4" d="M418.71,534.83c-35.93,6.2-73.75,8.18-108.06-4.15-10.66-3.83-20.89-9.01-31.91-11.62-11.03-2.61-23.42-2.32-32.73,4.13-10.25,7.1-14.68,20.14-15.95,32.55-3.24,31.87,10.53,63.77,31.5,87.99,37.73,43.58,99.84,64.5,156.25,52.64,56.41-11.86,104.83-56.03,121.82-111.12,3.76-12.2,6.09-25.07,4.64-37.76-1.08-9.45-4.75-22.89-12.5-29.24-8.6-7.04-22.55-1.64-32.97.22-26.83,4.8-53.24,11.71-80.1,16.35Z"/>
    </clipPath>
    <clipPath id="clippath-3">
      <circle class="cls-4" cx="-547.9" cy="-540.7" r="399"/>
    </clipPath>
    <clipPath id="clippath-4">
      <circle class="cls-4" cx="402.5" cy="-540.7" r="399"/>
    </clipPath>
  </defs>
  <g>
    <circle class="cls-5" cx="402.5" cy="402.5" r="399"/>
    <g class="cls-20">
      <g>
        <g class="cls-6">
          <path class="cls-7" d="M188.85,657.08c-10.13-48.38-15.8-98.18-10.38-147.31,5.42-49.14,22.49-97.79,53.98-135.89,44.57-53.94,117.71-82.77,187.1-73.77,69.39,9,132.75,55.54,162.09,119.06,30.28,65.54,24.52,141.87,10.55,212.7-11.7,59.32-28.73,117.59-50.82,173.88-9.71,24.76-20.91,49.87-40.31,68.05-28.27,26.49-69.77,34.07-108.44,31.77-26.08-1.55-51.66-7.04-77.24-12.01-17.52-3.41-35.4-1.78-46.09-17.43-27.2-39.82-44.36-92.45-59-138.02-8.55-26.61-15.71-53.66-21.44-81.02Z"/>
          <g>
            <path class="cls-13" d="M191.7,535.15c8.16,2.3,5.79,27.82,6.62,34.86,2.15,18.31,5.46,36.48,9.91,54.38,2.42,9.74,5.2,19.57,4.86,29.61-.9,27.33-38.81,43.18-47.61,12.73-7.79-26.96-3.69-64.82,3.57-91.23,2.62-9.53,8.45-38.45,20.51-40.43.78-.13,1.49-.09,2.14.09Z"/>
            <path class="cls-13" d="M205,695.51c2.96-3.45,6.8-6.89,11.33-6.65,4.98.25,8.55,4.76,11.25,8.95,13.73,21.34,23.11,45.46,27.4,70.47,1.57,9.17,2.43,18.81-.64,27.59-3.08,8.78-11.03,16.44-20.33,16.5-8.05.05-15.1-5.33-20.67-11.14-28.49-29.72-36.26-73.21-8.35-105.72Z"/>
            <path class="cls-13" d="M187.87,494.34c16.82.52,31.63-1.29,46.97-13.54,18.05-14.42,29.42-35.39,40.26-55.8,7.52-14.16,15.19-30.76,9.06-45.58-5.64-13.62-21.98-20.57-36.62-18.83-14.64,1.74-27.56,10.52-38.1,20.82-10.92,10.68-19.93,23.3-26.57,37.06-3.33,6.89-4.9,14.58-8.13,21.39-3,6.33-7.79,11.4-10.59,18.08-2.94,7.02-6.21,16.21-5.5,23.93,1.04,11.34,5.39,11.05,14.65,11.66,5.05.33,9.89.66,14.57.8Z"/>
            <path class="cls-13" d="M282.03,344.35c-1.77,5.11-2.45,12.07,2.26,14.72,4.64,2.61,10.08-1.35,14.16-4.76,11.81-9.89,25.78-17.2,40.65-21.26,4.17-1.14,8.45-2.04,12.31-3.98,3.86-1.94,7.35-5.13,8.49-9.3,1.16-4.23-.32-8.89-3.13-12.26-2.81-3.36-6.8-5.57-10.94-7.01-31.44-10.99-54.61,17.39-63.79,43.86Z"/>
            <path class="cls-13" d="M226.35,674.74c2,10.21,6.16,20.24,13.43,27.68,2.99,3.06,7.05,5.78,11.25,4.99,5.88-1.11,8.38-8.14,8.91-14.11,1.47-16.5-3.94-33.51-14.68-46.14-5.05-5.94-16.6-13.14-21.44-3.39-3.09,6.22,1.21,24.35,2.51,30.97Z"/>
            <path class="cls-13" d="M273.72,788.51c3.25,13.92,11.05,27.3,23.35,34.57,5.14,3.04,12.34,4.67,16.62.51,3.14-3.06,3.34-7.97,3.06-12.34-1.51-23.84-11.35-47.08-27.42-64.75-2.33-2.56-5-5.13-8.4-5.78-15.07-2.89-8.97,40.21-7.21,47.79Z"/>
          </g>
          <g>
            <path class="cls-13" d="M589,535.15c-8.16,2.3-5.79,27.82-6.62,34.86-2.15,18.31-5.46,36.48-9.91,54.38-2.42,9.74-5.2,19.57-4.86,29.61.9,27.33,38.81,43.18,47.61,12.73,7.79-26.96,3.69-64.82-3.57-91.23-2.62-9.53-8.45-38.45-20.51-40.43-.78-.13-1.49-.09-2.14.09Z"/>
            <path class="cls-13" d="M575.69,695.51c-2.96-3.45-6.8-6.89-11.33-6.65-4.98.25-8.55,4.76-11.25,8.95-13.73,21.34-23.11,45.46-27.4,70.47-1.57,9.17-2.43,18.81.64,27.59,3.08,8.78,11.03,16.44,20.33,16.5,8.05.05,15.1-5.33,20.67-11.14,28.49-29.72,36.25-73.21,8.35-105.72Z"/>
            <path class="cls-13" d="M592.82,494.34c-16.82.52-31.63-1.29-46.97-13.54-18.05-14.42-29.42-35.39-40.26-55.8-7.52-14.16-15.19-30.76-9.06-45.58,5.64-13.62,21.98-20.57,36.62-18.83,14.64,1.74,27.56,10.52,38.1,20.82,10.92,10.68,19.93,23.3,26.57,37.06,3.33,6.89,4.9,14.58,8.13,21.39,3,6.33,7.79,11.4,10.59,18.08,2.94,7.02,6.21,16.21,5.5,23.93-1.04,11.34-5.39,11.05-14.65,11.66-5.05.33-9.89.66-14.57.8Z"/>
            <path class="cls-13" d="M498.66,344.35c1.77,5.11,2.45,12.07-2.26,14.72-4.64,2.61-10.08-1.35-14.16-4.76-11.81-9.89-25.78-17.2-40.65-21.26-4.17-1.14-8.45-2.04-12.31-3.98-3.86-1.94-7.35-5.13-8.49-9.3-1.16-4.23.32-8.89,3.13-12.26,2.81-3.36,6.8-5.57,10.94-7.01,31.44-10.99,54.61,17.39,63.79,43.86Z"/>
            <path class="cls-13" d="M554.35,674.74c-2,10.21-6.16,20.24-13.43,27.68-2.99,3.06-7.05,5.78-11.25,4.99-5.88-1.11-8.38-8.14-8.91-14.11-1.47-16.5,3.94-33.51,14.68-46.14,5.05-5.94,16.6-13.14,21.44-3.39,3.09,6.22-1.21,24.35-2.51,30.97Z"/>
            <path class="cls-13" d="M506.98,788.51c-3.25,13.92-11.05,27.3-23.35,34.57-5.14,3.04-12.34,4.67-16.62.51-3.14-3.06-3.33-7.97-3.06-12.34,1.51-23.84,11.35-47.08,27.42-64.75,2.33-2.56,5-5.13,8.4-5.78,15.07-2.89,8.97,40.21,7.21,47.79Z"/>
          </g>
        </g>
        <g>
          <path class="cls-5" d="M307.09,407.58c-4.82,34.26,13.51,70.67,44.03,86.97,30.52,16.3,71.15,11.18,96.49-12.38,25.34-23.56,33.35-63.92,18.69-95.26-14.9-31.84-53.89-50.92-88.29-51.47-35.56-.57-66.4,40-70.92,72.14Z"/>
          <path d="M393.2,479.26c79.43-.22,82.7-117.49,1.34-119.04-83.6-1.59-82.75,119.27-1.34,119.04Z"/>
        </g>
        <g class="cls-14">
          <path d="M418.71,534.83c-35.93,6.2-73.75,8.18-108.06-4.15-10.66-3.83-20.89-9.01-31.91-11.62-11.03-2.61-23.42-2.32-32.73,4.13-10.25,7.1-14.68,20.14-15.95,32.55-3.24,31.87,10.53,63.77,31.5,87.99,37.73,43.58,99.84,64.5,156.25,52.64,56.41-11.86,104.83-56.03,121.82-111.12,3.76-12.2,6.09-25.07,4.64-37.76-1.08-9.45-4.75-22.89-12.5-29.24-8.6-7.04-22.55-1.64-32.97.22-26.83,4.8-53.24,11.71-80.1,16.35Z"/>
          <path class="cls-5" d="M280.61,564.37c5.56,10.53,19.35,15.18,30.8,11.9,25.54-7.32,36.32-48.76,19.95-69.11-12.17-15.14-38.05-9.47-46.92,6.25-7.09,12.57-10.74,37.88-3.83,50.97Z"/>
          <path class="cls-5" d="M355.03,562.37c.61,14.45,8.32,29.59,21.92,34.51,9,3.26,19.01,1.63,28.23-.94,8.74-2.44,17.8-6.11,22.9-13.61,6.49-9.54,4.72-22.28,2.05-33.5-2.44-10.23-5.5-20.53-11.41-29.24-5.91-8.71-15.09-15.71-25.56-16.75-29.32-2.91-39.05,37.86-38.13,59.53Z"/>
          <path class="cls-5" d="M445.24,546.55c.06,6.93.29,14.38,4.45,19.92,6.69,8.92,19.88,8.74,30.98,7.7,7.3-.69,14.75-1.41,21.46-4.36s12.69-8.56,14.12-15.75c1.21-6.09-.93-12.3-3.28-18.04-4.35-10.63-9.56-20.92-15.55-30.72-4.18-6.84-9.39-13.93-17.13-16-10.87-2.91-25.99,6.51-32.05,15.45-7.16,10.56-3.1,29.67-2.99,41.81Z"/>
          <path class="cls-5" d="M271.06,620.27c2.58-6.36,5.8-13.06,11.84-16.33,6.54-3.53,14.94-1.95,21.08,2.23,13.88,9.44,16.83,29.58,11.28,45.43-5.54,15.84-17.61,28.39-29.33,40.41-14.47,14.82-28.75.47-29.89-16.64-1.16-17.43,8.63-39.35,15.01-55.1Z"/>
          <path class="cls-5" d="M470.2,640.45c-4.16-6.56-8.4-13.8-7.64-21.53,1.17-11.91,13.21-19.25,23.95-24.54,8.06-3.97,17.73-7.87,25.63-3.59,6.91,3.75,9.47,12.28,10.7,20.04,2.16,13.66,2.16,27.56,2.15,41.39,0,11.96-4.21,41.33-22.98,31.96-13.43-6.71-24.11-31.59-31.8-43.72Z"/>
        </g>
        <path class="cls-11" d="M355.77,647.49c14.99-.69,30.45,11.04,30.98,26.03.2-12.33,7.79-24.26,18.88-29.65,11.09-5.4,25.16-4.01,34.98,3.44,16.61,12.61,17.91,37.01,14.84,57.64-3.31,22.23-9.95,43.96-19.63,64.25-4.92,10.3-11.01,20.66-20.73,26.65-9.94,6.12-22.43,6.8-33.9,4.66-28.53-5.33-51.36-26.72-59.68-54.29-7.7-25.55-13.87-47.86-1.19-73.1,6.77-13.47,19.83-24.91,35.46-25.63Z"/>
        <path class="cls-17" d="M164.62,440.99c-22.34-50.08-17.63-111.29,12.1-157.37,2.84-4.41,6.88-9.17,12.11-8.76,7.14.57,9.56,9.6,10.79,16.65,4.3,24.78,16.38,48.16,34.11,66,8.49,8.54,18.4,16.05,24.27,26.57,8.86,15.87,6.59,36.44-2.95,51.91-8.99,14.57-29.67,32.88-46.33,38.02-20.88,6.45-36.88-16.83-44.11-33.03Z"/>
        <path class="cls-17" d="M616.08,440.99c22.34-50.08,17.63-111.29-12.1-157.37-2.84-4.41-6.88-9.17-12.11-8.76-7.14.57-9.56,9.6-10.78,16.65-4.3,24.78-16.38,48.16-34.11,66-8.49,8.54-18.4,16.05-24.27,26.57-8.86,15.87-6.6,36.44,2.95,51.91,8.99,14.57,29.67,32.88,46.33,38.02,20.88,6.45,36.88-16.83,44.11-33.03Z"/>
      </g>
    </g>
  </g>
  <g class="cls-8">
    <g>
      <rect class="cls-9" x="4.23" y="-177.48" width="49.45" height="610.69" transform="translate(64.72 253.99) rotate(176.93)"/>
      <g>
        <polygon class="cls-15" points="108.83 449.84 174.87 533.86 175.87 626.78 88.1 678.92 20.24 663.59 22.85 591.37 73.67 596.1 87.1 538.73 25.59 519.9 -18.75 557.17 -75.15 537.45 -19.6 430.04 108.83 449.84"/>
        <path class="cls-2" d="M114.07,373.79c-35.58,6.21-70.49,9.71-106.02,14.49-12.26,1.65-32.04,3.35-40.93,11.01-11.61,10-8.12,33.04-5.55,43.77,4.66,19.4,4.3,17.39,31.06,18.37,31.45,1.16,88.27,5.91,116.2-11.58,26.98-16.9,19.02-55.13,5.24-76.06Z"/>
      </g>
    </g>
  </g>
  <g class="cls-1">
    <g>
      <g>
        <path class="cls-18" d="M93.21,288.15c-12.17,5.06-12.43,32.26-.59,60.76,11.84,28.5,27.62,37.35,39.79,32.3,12.17-5.06,16.11-22.11,4.27-50.61-11.84-28.5-31.31-47.5-43.47-42.45Z"/>
        <path class="cls-3" d="M135.39-214.81c-110.98,0-107.2,182.79-107.2,491.24"/>
        <path class="cls-16" d="M-62.62,259.98c0-111.66,40.65-202.18,90.8-202.18s90.8,90.52,90.8,202.18-40.65,125.99-90.8,125.99-90.8-14.33-90.8-125.99Z"/>
        <g>
          <circle class="cls-19" cx="28.18" cy="56.37" r="49.59"/>
          <ellipse class="cls-12" cx="28.18" cy="28.17" rx="23.14" ry="13.09"/>
        </g>
        <path class="cls-18" d="M46.71,340.83c18.22-1.59,24.14,15.79,27.33,52.43,3.19,36.64,1.39,66.72-16.83,68.31-18.22,1.59-25.64-27.69-28.83-64.33-3.19-36.64.1-54.82,18.32-56.41Z"/>
        <path class="cls-18" d="M-4.67,335.06c18.22,1.56,21.08,19.7,17.93,56.34-3.15,36.64-10.08,65.97-28.3,64.4s-20.51-31.68-17.36-68.33c3.15-36.64,9.51-53.99,27.73-52.42Z"/>
      </g>
      <g>
        <path class="cls-18" d="M711.79,288.15c12.17,5.06,12.43,32.26.59,60.76-11.84,28.5-27.62,37.35-39.79,32.3-12.17-5.06-16.11-22.11-4.27-50.61,11.84-28.5,31.31-47.5,43.47-42.45Z"/>
        <path class="cls-3" d="M669.61-214.81c110.98,0,107.2,182.79,107.2,491.24"/>
        <path class="cls-16" d="M867.62,259.98c0-111.66-40.65-202.18-90.8-202.18s-90.8,90.52-90.8,202.18,40.65,125.99,90.8,125.99,90.8-14.33,90.8-125.99Z"/>
        <g>
          <circle class="cls-19" cx="776.82" cy="56.37" r="49.59"/>
          <ellipse class="cls-12" cx="776.82" cy="28.17" rx="23.14" ry="13.09"/>
        </g>
        <path class="cls-18" d="M758.29,340.83c-18.22-1.59-24.14,15.79-27.33,52.43-3.19,36.64-1.39,66.72,16.83,68.31,18.22,1.59,25.64-27.69,28.83-64.33,3.19-36.64-.1-54.82-18.32-56.41Z"/>
        <path class="cls-18" d="M809.67,335.06c-18.22,1.56-21.08,19.7-17.93,56.34,3.15,36.64,10.08,65.97,28.3,64.4,18.22-1.56,20.51-31.68,17.36-68.33-3.15-36.64-9.51-53.99-27.73-52.42Z"/>
      </g>
      <path class="cls-19" d="M575.51,84.58c0,60.99-65.21,110.43-174.24,110.43s-174.24-49.44-174.24-110.43S292.23,16.08,401.26,16.08s174.24,7.51,174.24,68.49Z"/>
      <path class="cls-18" d="M518.87-23.04c0,59.76-52.65,108.21-117.61,108.21s-117.61-48.45-117.61-108.21,52.65-64.76,117.61-64.76,117.61,5,117.61,64.76Z"/>
      <path class="cls-10" d="M475.22-37.53c0,32.31-33.11,58.5-73.96,58.5s-73.96-26.19-73.96-58.5,33.11-35.01,73.96-35.01,73.96,2.7,73.96,35.01Z"/>
      <g>
        <path class="cls-16" d="M265.02,80.45c-13.68,0-26.55,3.44-37.82,9.49,2.93,46.11,43.67,84.79,112.62,99.11,3.38-8.86,5.25-18.48,5.25-28.53,0-44.22-35.84-80.06-80.06-80.06Z"/>
        <path class="cls-16" d="M575.33,89.94c-11.26-6.05-24.14-9.49-37.82-9.49-44.22,0-80.06,35.85-80.06,80.06,0,10.05,1.87,19.67,5.25,28.53,68.95-14.32,109.7-52.99,112.62-99.11Z"/>
      </g>
      <g>
        <line class="cls-3" x1="272.23" y1="168.99" x2="272.23" y2="510.71"/>
        <g>
          <circle class="cls-19" cx="271.92" cy="161.7" r="49.59"/>
          <path class="cls-12" d="M295.06,133.5c0,7.23-10.36,13.09-23.14,13.09s-23.14-5.86-23.14-13.09,10.36-13.09,23.14-13.09,23.14,5.86,23.14,13.09Z"/>
        </g>
        <polygon class="cls-16" points="323.87 801.5 323.87 447.35 218.28 447.35 145.35 801.5 323.87 801.5"/>
        <g>
          <circle class="cls-19" cx="271.92" cy="447.35" r="49.59" transform="translate(-213.21 644.1) rotate(-80.78)"/>
          <ellipse class="cls-12" cx="271.92" cy="419.15" rx="23.14" ry="13.09"/>
        </g>
        <path class="cls-19" d="M281.03,740.18c-32.23-151.92-83.14-172.71-152.48,3.42-12.37,4.29-23.23,12.45-30.78,23.58l-23.26,34.32h249.36v-61.32h-42.84Z"/>
      </g>
      <g>
        <line class="cls-3" x1="528.7" y1="168.99" x2="528.7" y2="510.71"/>
        <g>
          <circle class="cls-19" cx="529.01" cy="161.7" r="49.59"/>
          <path class="cls-12" d="M505.87,133.5c0,7.23,10.36,13.09,23.14,13.09s23.14-5.86,23.14-13.09-10.36-13.09-23.14-13.09-23.14,5.86-23.14,13.09Z"/>
        </g>
        <polygon class="cls-16" points="477.06 801.5 477.06 447.35 582.65 447.35 655.58 801.5 477.06 801.5"/>
        <g>
          <circle class="cls-19" cx="529.01" cy="447.35" r="49.59" transform="translate(-64.83 90.51) rotate(-9.22)"/>
          <ellipse class="cls-12" cx="529.01" cy="419.15" rx="23.14" ry="13.09"/>
        </g>
        <path class="cls-19" d="M519.9,740.18c32.23-151.92,83.14-172.71,152.48,3.42,12.37,4.29,23.23,12.45,30.78,23.58l23.26,34.32h-249.36v-61.32h42.84Z"/>
      </g>
    </g>
  </g>
</svg>