<?xml version="1.0" encoding="UTF-8"?>
<svg id="Layer_1" data-name="Layer 1" xmlns="http://www.w3.org/2000/svg" xmlns:xlink="http://www.w3.org/1999/xlink" viewBox="0 0 805 805">
  <defs>
    <style>
      .cls-1 {
        fill: #ec9b5e;
      }

      .cls-2 {
        clip-path: url(#clippath-4);
      }

      .cls-3 {
        fill: #fec300;
      }

      .cls-4 {
        fill: #2c646e;
      }

      .cls-5 {
        fill: #6c2a80;
      }

      .cls-6 {
        fill: #fff;
      }

      .cls-7 {
        fill: #b46133;
      }

      .cls-8 {
        fill: none;
      }

      .cls-9 {
        fill: #707070;
      }

      .cls-10 {
        fill: #deaa00;
      }

      .cls-11 {
        clip-path: url(#clippath-1);
      }

      .cls-12 {
        fill: #4d4d4d;
      }

      .cls-13 {
        clip-path: url(#clippath-3);
      }

      .cls-14 {
        fill: #314b46;
      }

      .cls-15 {
        fill: #9c5cb1;
      }

      .cls-16 {
        fill: #e6e6e6;
      }

      .cls-17 {
        clip-path: url(#clippath-2);
      }

      .cls-18 {
        fill: #3d858d;
      }

      .cls-19 {
        fill: #7f3814;
      }

      .cls-20 {
        fill: #f05161;
      }

      .cls-21 {
        clip-path: url(#clippath);
      }

      .cls-22 {
        fill: #fdd2b9;
      }
    </style>
    <clipPath id="clippath">
      <circle class="cls-8" cx="402.5" cy="402.5" r="399"/>
    </clipPath>
    <clipPath id="clippath-1">
      <path class="cls-8" d="M242.8,186.7c-40.37,42.79-53.79,103.69-64.47,161.54-20.91,113.18-37.61,227.63-37.67,342.72-.01,30.8,1.78,63.55,19.41,88.8,22.38,32.06,63.96,43.51,102.45,50.36,64.59,11.5,130.34,16.45,195.93,14.74,50.91-1.32,104.91-7.89,144.63-39.75,34.15-27.39,52.97-70.32,59.87-113.55,6.89-43.23,3.08-87.37-.75-130.98-4.86-55.4-9.72-110.81-14.59-166.21-5.6-63.84-12.68-131.59-52-182.19-33.35-42.92-83.96-63.75-136.35-71.89-42.17-6.55-95.43-7.82-136.74,1.69-30.1,6.93-58.45,22.18-79.72,44.72Z"/>
    </clipPath>
    <clipPath id="clippath-2">
      <path class="cls-8" d="M225.4,472.08c-9.86-1.74-20.71-3.48-29.34,1.6-11.14,6.55-13.67,21.31-14.73,34.18-2.81,34.01-2.47,71.42,18.9,98.03,17.35,21.61,45.14,31.6,71.92,38.74,66.62,17.76,136.26,24.01,205,18.73,33.88-2.6,69.32-8.74,95.68-30.17,23.21-18.87,36.68-48,40.46-77.67,2.84-22.28,4.83-62.54-11.93-80.51-16.1-17.26-47.26-4.41-66.62-1.23-65.33,10.73-131.82,14.4-197.94,10.95-37.35-1.95-74.58-6.16-111.41-12.65Z"/>
    </clipPath>
    <clipPath id="clippath-3">
      <circle class="cls-8" cx="402.5" cy="-540.7" r="399"/>
    </clipPath>
    <clipPath id="clippath-4">
      <circle class="cls-8" cx="1302.95" cy="-540.7" r="399"/>
    </clipPath>
  </defs>
  <g>
    <circle class="cls-6" cx="402.5" cy="402.5" r="399"/>
    <g class="cls-21">
      <g>
        <g class="cls-11">
          <path class="cls-1" d="M242.8,186.7c-40.37,42.79-53.79,103.69-64.47,161.54-20.91,113.18-37.61,227.63-37.67,342.72-.01,30.8,1.78,63.55,19.41,88.8,22.38,32.06,63.96,43.51,102.45,50.36,64.59,11.5,130.34,16.45,195.93,14.74,50.91-1.32,104.91-7.89,144.63-39.75,34.15-27.39,52.97-70.32,59.87-113.55,6.89-43.23,3.08-87.37-.75-130.98-4.86-55.4-9.72-110.81-14.59-166.21-5.6-63.84-12.68-131.59-52-182.19-33.35-42.92-83.96-63.75-136.35-71.89-42.17-6.55-95.43-7.82-136.74,1.69-30.1,6.93-58.45,22.18-79.72,44.72Z"/>
          <g>
            <path class="cls-7" d="M218.55,380.71c-.21,1.28-.94,2.53-2.36,3.73-8.26,6.97-21.35,7.62-31.33,10.52-8.75,2.54-17.45,5.28-26.08,8.21-9.47,3.22-19.79,8.09-19.29-5.71.34-9.55,5.76-18.13,7.95-27.24,2.78-11.62.53-27.67,13.64-27.78,10.1-.08,28.6,14.72,37.31,19.76,5.97,3.45,21.32,11.38,20.17,18.51Z"/>
            <path class="cls-7" d="M158.48,477.68c4.51-9.02,14.23-18.43,20.86-26.09,7.93-9.16,15.85-18.33,23.77-27.49,1.22-1.41,2.48-2.89,2.94-4.69.47-1.8-.12-4.03-1.8-4.83-1.41-.67-3.07-.18-4.55.33-10.35,3.58-20.55,7.56-30.59,11.93-7.8,3.4-16.96,6.05-23.34,11.86-8.08,7.36-6.19,39.9,6.44,42.63,2.5.54,4.67-1.67,6.27-3.66Z"/>
            <path class="cls-7" d="M210.39,340.51c-1.85,1.61-3.87,3.65-3.53,6.07.35,2.52,3.02,3.92,5.36,4.91,7.14,3.02,14.27,6.04,21.41,9.06,4.43,1.88,12.74,7.58,17.44,7.62,10.55.09,3.32-14.04,1.75-19.78-1.7-6.23-2.95-15.1-7.18-20.25-12.8-15.55-22.75,1.47-35.25,12.35Z"/>
            <path class="cls-7" d="M276.43,205.19c3.14,1.5,6.89,2.89,9.96,1.26,3.66-1.95,4.15-6.92,3.98-11.05-.49-11.29-2.58-22.51-6.18-33.22-7.64-22.71-32.73-12.07-40.05,5.69-7.87,19.1,18.75,30.84,32.29,37.33Z"/>
            <path class="cls-7" d="M183.4,646.83c-.33,1.29-1.23,2.46-2.92,3.41-4.68,2.64-14.79,2.05-20.18,2.8-6.71.93-13.42,1.87-20.13,2.8-4.12.57-8.54,1.1-12.24-.8-5.06-2.59-7.02-8.77-7.85-14.39-2.41-16.16,2.38-36.13,21.96-26.95,12.13,5.69,25.9,11.93,35.49,21.69,3.24,3.29,6.79,7.82,5.87,11.42Z"/>
            <path class="cls-7" d="M175.75,685.36c4.54-.83,9.21-1.65,13.74-.8,4.54.85,8.99,3.75,10.32,8.17,1.77,5.89-2.34,11.78-6.2,16.56-12.7,15.73-25.4,31.45-38.09,47.18-4.5,5.57-10.75,11.76-17.66,9.89-5.26-1.43-8.13-6.95-10.38-11.92-3.97-8.78-7.93-17.56-11.9-26.34-5.22-11.55-10.53-28.6,5.47-32.77,17.76-4.64,36.63-6.68,54.7-9.96Z"/>
            <path class="cls-7" d="M184.45,764.07c-2.19,4.05-4.07,9.82-.41,12.62,2.34,1.79,5.66,1.14,8.5.38,10.04-2.68,20-5.68,29.86-8.98,6.43-2.16,13.11-4.63,17.58-9.73,7.02-8,6.52-20.52,1.68-30-5.2-10.18-20.53-30.08-29.98-14.62-9.9,16.2-18.2,33.64-27.23,50.34Z"/>
            <path class="cls-7" d="M213.29,786.24c2.59-1.17,5.47-2.34,8.2-1.56,3.28.94,5.17,4.35,6.26,7.59,4.22,12.59,1.13,27.36-7.78,37.21-4,4.42-9.64,8.02-15.57,7.36-4.15-.46-7.77-2.91-11.21-5.29-6.31-4.38-12.63-8.75-18.94-13.13-7.92-5.49-8.62-7.34.03-12.43,12.6-7.42,25.96-13.22,39.01-19.74Z"/>
          </g>
          <g>
            <path class="cls-7" d="M583.21,380.71c.21,1.28.94,2.53,2.36,3.73,8.26,6.97,21.35,7.62,31.33,10.52,8.75,2.54,17.45,5.28,26.08,8.21,9.47,3.22,19.79,8.09,19.29-5.71-.34-9.55-5.76-18.13-7.95-27.24-2.78-11.62-.53-27.67-13.64-27.78-10.1-.08-28.6,14.72-37.31,19.76-5.97,3.45-21.32,11.38-20.17,18.51Z"/>
            <path class="cls-7" d="M643.28,477.68c-4.51-9.02-14.23-18.43-20.86-26.09-7.93-9.16-15.85-18.33-23.77-27.49-1.22-1.41-2.47-2.89-2.94-4.69-.47-1.8.12-4.03,1.8-4.83,1.41-.67,3.07-.18,4.55.33,10.35,3.58,20.55,7.56,30.59,11.93,7.8,3.4,16.96,6.05,23.34,11.86,8.08,7.36,6.19,39.9-6.44,42.63-2.5.54-4.67-1.67-6.27-3.66Z"/>
            <path class="cls-7" d="M591.37,340.51c1.85,1.61,3.87,3.65,3.53,6.07-.35,2.52-3.02,3.92-5.36,4.91-7.14,3.02-14.27,6.04-21.41,9.06-4.43,1.88-12.74,7.58-17.44,7.62-10.55.09-3.32-14.04-1.75-19.78,1.7-6.23,2.95-15.1,7.18-20.25,12.8-15.55,22.75,1.47,35.25,12.35Z"/>
            <path class="cls-7" d="M525.33,205.19c-3.14,1.5-6.89,2.89-9.96,1.26-3.66-1.95-4.15-6.92-3.98-11.05.49-11.29,2.58-22.51,6.18-33.22,7.64-22.71,32.73-12.07,40.05,5.69,7.87,19.1-18.75,30.84-32.29,37.33Z"/>
            <path class="cls-7" d="M618.36,646.83c.33,1.29,1.23,2.46,2.92,3.41,4.68,2.64,14.79,2.05,20.18,2.8,6.71.93,13.42,1.87,20.13,2.8,4.12.57,8.54,1.1,12.24-.8,5.06-2.59,7.02-8.77,7.85-14.39,2.41-16.16-2.38-36.13-21.96-26.95-12.13,5.69-25.9,11.93-35.49,21.69-3.24,3.29-6.79,7.82-5.87,11.42Z"/>
            <path class="cls-7" d="M626.01,685.36c-4.54-.83-9.21-1.65-13.74-.8-4.54.85-8.99,3.75-10.32,8.17-1.77,5.89,2.34,11.78,6.2,16.56,12.7,15.73,25.4,31.45,38.09,47.18,4.5,5.57,10.75,11.76,17.66,9.89,5.26-1.43,8.13-6.95,10.38-11.92,3.97-8.78,7.93-17.56,11.9-26.34,5.22-11.55,10.53-28.6-5.47-32.77-17.76-4.64-36.63-6.68-54.7-9.96Z"/>
            <path class="cls-7" d="M617.31,764.07c2.19,4.05,4.07,9.82.41,12.62-2.34,1.79-5.66,1.14-8.5.38-10.04-2.68-20-5.68-29.86-8.98-6.43-2.16-13.11-4.63-17.58-9.73-7.02-8-6.52-20.52-1.68-30,5.2-10.18,20.53-30.08,29.98-14.62,9.9,16.2,18.2,33.64,27.23,50.34Z"/>
            <path class="cls-7" d="M588.47,786.24c-2.59-1.17-5.47-2.34-8.2-1.56-3.28.94-5.17,4.35-6.26,7.59-4.22,12.59-1.13,27.36,7.78,37.21,4,4.42,9.64,8.02,15.57,7.36,4.15-.46,7.77-2.91,11.2-5.29,6.31-4.38,12.63-8.75,18.94-13.13,7.92-5.49,8.62-7.34-.03-12.43-12.6-7.42-25.96-13.22-39.01-19.74Z"/>
          </g>
        </g>
        <path class="cls-6" d="M323.3,299.11c-8.74.01-18.07.2-25.3,5.12-12.33,8.41-12.88,26.76-7.81,40.8,9.66,26.71,34.28,46.07,61.24,55.01,26.95,8.94,56.11,8.68,84.35,5.64,18.32-1.97,37.7-5.64,51.07-18.31,20.44-19.38,32.1-80.35-4.76-87.78-23.57-4.75-51.78-.58-75.8-.57-27.66.02-55.33.05-82.99.08Z"/>
        <path d="M398.62,293.55c-11.27.06-22.76,3.58-33.11,11.13-50,36.53-13.03,118.87,47.37,105.14,31.86-7.24,52.82-45.31,41.66-76.02-9.11-25.07-32.04-40.4-55.93-40.26Z"/>
        <path class="cls-22" d="M160.26,159.86c-3.53-5.83-9.23-13-15.49-10.33-4.09,1.75-5.4,6.81-6.11,11.2-3.45,21.29-5.04,43.24-.54,64.33,4.5,21.1,15.67,41.41,33.57,53.46,17.89,12.05,42.92,14.36,61.04,2.67,21.53-13.9,29.69-50.42,5.26-64.71-30.3-17.72-58-24.07-77.73-56.63Z"/>
        <path class="cls-22" d="M644.74,159.86c3.53-5.83,9.23-13,15.49-10.33,4.09,1.75,5.4,6.81,6.11,11.2,3.45,21.29,5.04,43.24.54,64.33-4.5,21.1-15.67,41.41-33.57,53.46-17.89,12.05-42.92,14.36-61.04,2.67-21.53-13.9-29.69-50.42-5.26-64.71,30.3-17.72,58-24.07,77.73-56.63Z"/>
        <path class="cls-19" d="M301.31,228.17c.68-2.49,1.79-4.99,3.39-7.48,5.59-8.7,17.65-12.55,27.24-8.7-3.76-4.74-.47-12.3,4.89-15.1,5.36-2.8,11.78-2.25,17.79-1.65,6.02.6,12.45,1.1,17.77-1.79,6.58-3.58,11.2-12.11,18.67-11.46,6.99.61,10.73,9.12,17.44,11.19,4.75,1.47,9.8-.63,14.29-2.79,4.48-2.15,9.37-4.46,14.23-3.41,4.86,1.06,8.62,7.4,5.37,11.16,7.29-3.35,15.14-6.79,23.05-5.44,7.91,1.35,15.06,9.78,11.95,17.18,4.83-10.79,16.79-.96,19.73,5.13,4.25,8.82,1.34,24.12-1.86,32.58-2.92,7.7-8.57,14.75-16.34,17.46-14.21,4.96-28.57-5.46-42.19-11.87-19.61-9.22-42.88-10.31-63.27-2.98-12.05,4.34-23.25,11.5-35.94,13.22-20.2,2.73-41.6-15.62-36.2-35.26Z"/>
        <path d="M225.4,472.08c-9.86-1.74-20.71-3.48-29.34,1.6-11.14,6.55-13.67,21.31-14.73,34.18-2.81,34.01-2.47,71.42,18.9,98.03,17.35,21.61,45.14,31.6,71.92,38.74,66.62,17.76,136.26,24.01,205,18.73,33.88-2.6,69.32-8.74,95.68-30.17,23.21-18.87,36.68-48,40.46-77.67,2.84-22.28,4.83-62.54-11.93-80.51-16.1-17.26-47.26-4.41-66.62-1.23-65.33,10.73-131.82,14.4-197.94,10.95-37.35-1.95-74.58-6.16-111.41-12.65Z"/>
        <g class="cls-17">
          <path class="cls-6" d="M225.37,508.32c-1.3,6.24-2.51,12.83-.54,18.9,2.52,7.76,9.93,13.13,17.76,15.39,7.84,2.27,16.16,1.93,24.3,1.58,8.51-.37,18.34-1.45,23-8.58,2.45-3.75,2.88-8.44,3.24-12.91,1.25-15.64,2.5-31.28,3.75-46.92.41-5.11.79-10.41-.97-15.23-6.75-18.47-35.61-15.95-49.4-7.66-16.58,9.97-17.57,38.28-21.15,55.42Z"/>
          <path class="cls-6" d="M216.1,650.39c-1.96,6.07-3.86,12.49-2.55,18.73,1.68,7.98,8.48,14.11,16.03,17.19,7.55,3.09,15.86,3.64,24,4.15,8.5.54,18.39.5,23.78-6.09,2.84-3.47,3.76-8.08,4.59-12.49,2.9-15.42,5.81-30.84,8.71-46.25.95-5.04,1.89-10.27.66-15.24-4.75-19.08-33.71-19.64-48.3-12.86-17.55,8.15-21.54,36.2-26.92,52.87Z"/>
          <path class="cls-6" d="M321.17,515.25c-1.22,6.26-2.35,12.86-.3,18.9,2.62,7.72,10.1,13,17.96,15.16s16.18,1.72,24.32,1.26c8.5-.48,18.32-1.69,22.89-8.88,2.41-3.79,2.77-8.47,3.07-12.95,1.05-15.65,2.1-31.31,3.15-46.96.34-5.12.66-10.42-1.16-15.21-6.98-18.38-35.81-15.49-49.49-7.02-16.45,10.18-17.08,38.5-20.44,55.69Z"/>
          <path class="cls-6" d="M415.15,518.87c-.55,6.35-.98,13.04,1.7,18.83,3.42,7.4,11.41,11.86,19.46,13.18,8.05,1.32,16.27,0,24.32-1.31,8.41-1.37,18.04-3.61,21.82-11.24,1.99-4.02,1.86-8.72,1.69-13.2-.61-15.68-1.22-31.35-1.83-47.03-.2-5.12-.44-10.43-2.76-15.01-8.88-17.55-37.24-11.63-49.95-1.76-15.29,11.86-12.92,40.09-14.45,57.54Z"/>
          <path class="cls-6" d="M517.77,507.94c.17,6.37.5,13.07,3.81,18.52,4.24,6.97,12.68,10.49,20.83,10.9,8.15.41,16.17-1.83,24.02-4.05,8.2-2.32,17.51-5.62,20.41-13.63,1.53-4.22.87-8.87.19-13.31-2.38-15.51-4.75-31.02-7.13-46.52-.78-5.07-1.62-10.31-4.44-14.6-10.81-16.43-38.32-7.34-49.83,3.9-13.85,13.51-8.31,41.29-7.85,58.8Z"/>
          <path class="cls-6" d="M512.9,655.44c.17,6.37.5,13.07,3.81,18.52,4.24,6.97,12.68,10.49,20.83,10.9,8.15.41,16.17-1.83,24.02-4.05,8.2-2.32,17.51-5.62,20.41-13.63,1.53-4.22.87-8.87.19-13.3-2.38-15.51-4.75-31.02-7.13-46.52-.78-5.07-1.62-10.31-4.44-14.6-10.81-16.43-38.32-7.34-49.83,3.9-13.85,13.51-8.31,41.29-7.85,58.8Z"/>
        </g>
        <path class="cls-20" d="M383.23,609.67c5.67,2.79,10.85,6.56,15.16,11.2,9.49-10.66,23.72-16.93,37.98-16.75,27.32.34,41.33,21.07,48.99,44.74,10.39,32.13-3.69,69.98-31.53,89.09-27.84,19.11-66.91,19.16-95.86,1.78-24.51-14.71-54.12-54.39-51.04-84.98,2.34-23.27,16.42-43.54,40.12-49.3,12.05-2.93,25.06-1.24,36.17,4.22Z"/>
      </g>
    </g>
  </g>
  <g class="cls-13">
    <g>
      <path class="cls-16" d="M898.84,324.88c0,18.38-222.22,33.27-496.34,33.27s-496.34-14.9-496.34-33.27,222.22-33.27,496.34-33.27,496.34,14.9,496.34,33.27Z"/>
      <g>
        <g>
          <path class="cls-9" d="M712.28,52.19c.02,8.66,0,17.28,0,25.81,0,27.72,42.98,27.72,42.98,0,0-8.61-.03-17.22-.09-25.81h-42.89Z"/>
          <path class="cls-12" d="M752.79-17.04l-42.12,4.1c1.32,21.7,1.58,43.56,1.62,65.13h42.89c-.19-23.25-.75-46.4-2.39-69.23Z"/>
          <path class="cls-12" d="M51.74,52.19h42.93c.08-21.76.41-43.57,1.8-65.11l-42.52-4.14c-1.57,23-2.06,46.21-2.21,69.25Z"/>
          <path class="cls-9" d="M51.67,78c0,27.72,42.98,27.72,42.98,0,0-8.59,0-17.2.03-25.81h-42.93c-.06,8.63-.07,17.25-.07,25.81Z"/>
        </g>
        <g>
          <path class="cls-9" d="M570.03,188.69h-44.59c.14,16.45-1.01,32.88-3.21,48.95l44.7,10.49c2.45-18.79,3.57-38.91,3.09-59.45Z"/>
          <path class="cls-9" d="M239.33,247.63l44.96-10.55c-1.32-16.04-1.81-32.22-1.37-48.38h-46.09c-.22,20.63.78,40.61,2.5,58.94Z"/>
          <path class="cls-9" d="M546.71,69.54l-44.36,9.75c2.13,4.27,4.08,8.61,5.78,13.01,4.75,12.3,8.41,25.09,11.15,38.14l45.4,2.37c-3.8-21.96-9.68-43.43-17.96-63.28Z"/>
          <path class="cls-9" d="M240.73,132.75l47.93-2.5c.54-3.12,1-6.26,1.62-9.36,2.7-13.67,6.5-27.92,11.88-41.52l-46.4-10.19c-7.26,20-12.08,41.59-15.03,63.57Z"/>
          <path class="cls-12" d="M242.69,276.01c3.97,27.36,48.57,15.66,44.64-11.43-1.32-9.08-2.28-18.27-3.04-27.51l-44.96,10.55c.94,10.01,2.07,19.55,3.36,28.38Z"/>
          <path class="cls-12" d="M517.5,264.58c-5.92,27.06,38.7,38.58,44.64,11.43,1.93-8.85,3.54-18.19,4.8-27.88l-44.7-10.49c-1.25,9.12-2.81,18.13-4.73,26.94Z"/>
          <path class="cls-12" d="M564.67,132.81l-45.4-2.37c4,19.03,6,38.64,6.17,58.25h44.59c-.43-18.52-2.15-37.37-5.35-55.88Z"/>
          <path class="cls-12" d="M236.83,188.69h46.09c.53-19.67,2.44-39.26,5.73-58.45l-47.93,2.5c-2.51,18.64-3.71,37.53-3.9,55.95Z"/>
          <path class="cls-12" d="M376.88-33.09c-65.19,7.18-101.81,49.06-121.12,102.27l46.4,10.19c12.55-31.74,33.91-59.9,71.34-68.63,58.48-13.64,105.9,22.69,128.85,68.55l44.36-9.75c-27.14-64.97-80.03-112.51-169.82-102.63Z"/>
        </g>
        <rect class="cls-3" x="206.84" y="-335.44" width="393.26" height="387.63"/>
        <path class="cls-10" d="M548.88-38.6c0,29.92-24.25,54.18-54.17,54.18h-182.47c-29.92,0-54.18-24.25-54.18-54.18v-57.21c0-29.92,24.25-54.17,54.18-54.17h182.47c29.92,0,54.17,24.25,54.17,54.17v57.21Z"/>
        <path class="cls-3" d="M577.58,278.27c0,19.69-15.95,35.63-35.63,35.63h0c-19.69,0-35.64-15.94-35.64-35.63v-9.77c0-19.68,15.95-35.64,35.64-35.64h0c19.68,0,35.63,15.96,35.63,35.64v9.77Z"/>
        <path class="cls-3" d="M299.09,278.27c0,19.69-15.96,35.63-35.64,35.63h0c-19.68,0-35.64-15.94-35.64-35.63v-9.77c0-19.68,15.95-35.64,35.64-35.64h0c19.68,0,35.64,15.96,35.64,35.64v9.77Z"/>
        <g>
          <rect class="cls-15" x="142.34" y="276.64" width="170.79" height="52.54"/>
          <rect class="cls-15" x="493.81" y="276.64" width="170.79" height="52.54"/>
        </g>
        <g>
          <rect class="cls-5" x="142.34" y="302.91" width="170.79" height="26.67"/>
          <rect class="cls-5" x="493.81" y="302.91" width="170.79" height="26.67"/>
        </g>
        <path class="cls-5" d="M151.92,198.43h-42.98v-55.67c0-20.79-16.92-37.71-37.71-37.71s-37.72,16.92-37.72,37.71v55.67H-9.47v-55.67c0-44.49,36.2-80.69,80.7-80.69s80.69,36.2,80.69,80.69v55.67Z"/>
        <path class="cls-15" d="M814.47,198.43h-42.98v-55.67c0-20.79-16.92-37.71-37.72-37.71s-37.71,16.92-37.71,37.71v55.67h-42.98v-55.67c0-44.49,36.2-80.69,80.69-80.69s80.7,36.2,80.7,80.69v55.67Z"/>
      </g>
    </g>
  </g>
  <g class="cls-2">
    <g>
      <rect class="cls-14" x="701.37" y="-177.48" width="49.45" height="610.69" transform="translate(7.9 -38.76) rotate(3.07)"/>
      <g>
        <polygon class="cls-18" points="646.22 449.84 580.18 533.86 579.18 626.78 666.95 678.92 734.81 663.59 732.2 591.37 681.38 596.1 667.95 538.73 729.46 519.9 773.8 557.17 830.2 537.45 774.65 430.04 646.22 449.84"/>
        <path class="cls-4" d="M640.98,373.79c35.58,6.21,70.49,9.71,106.02,14.49,12.26,1.65,32.04,3.35,40.93,11.01,11.61,10,8.12,33.04,5.55,43.77-4.66,19.4-4.3,17.39-31.06,18.37-31.45,1.16-88.27,5.91-116.2-11.58-26.98-16.9-19.02-55.13-5.24-76.06Z"/>
      </g>
    </g>
  </g>
</svg>