<?xml version="1.0" encoding="UTF-8"?>
<svg id="Layer_1" xmlns="http://www.w3.org/2000/svg" version="1.1" xmlns:xlink="http://www.w3.org/1999/xlink" viewBox="0 0 960 1080">
  <!-- Generator: Adobe Illustrator 29.6.1, SVG Export Plug-In . SVG Version: 2.1.1 Build 9)  -->
  <defs>
    <style>
      .st0 {
        fill: #ea6828;
      }

      .st1 {
        fill: #fcaf74;
      }

      .st2 {
        fill: #dc692e;
      }

      .st3 {
        fill: #dea57d;
      }

      .st4 {
        opacity: .6;
      }

      .st5 {
        fill: #b54807;
      }

      .st6 {
        fill: #fff;
      }

      .st7 {
        fill: #f5eaff;
      }

      .st8 {
        fill: #fcae73;
      }

      .st9 {
        fill: none;
      }

      .st10 {
        fill: #e2a57a;
      }

      .st11 {
        clip-path: url(#clippath-1);
      }

      .st12 {
        fill: #de946c;
      }

      .st12, .st13, .st14 {
        fill-rule: evenodd;
      }

      .st15, .st13 {
        fill: #b6b7b4;
      }

      .st16 {
        isolation: isolate;
      }

      .st17 {
        fill: #fec9a1;
      }

      .st18 {
        clip-path: url(#clippath-3);
      }

      .st19 {
        fill: #d37e48;
      }

      .st20 {
        fill: #f7d9c9;
      }

      .st21 {
        fill: #de7642;
      }

      .st22 {
        fill: #e1723c;
      }

      .st23 {
        fill: #f9b78a;
      }

      .st24 {
        fill: #edd2c1;
      }

      .st25 {
        fill: #df7439;
      }

      .st26 {
        clip-path: url(#clippath-2);
      }

      .st27 {
        fill: #e86a2b;
      }

      .st28 {
        fill: #e2a578;
      }

      .st29 {
        fill: #f6f1ee;
      }

      .st30 {
        fill: #b24808;
      }

      .st31 {
        clip-path: url(#clippath);
      }

      .st32 {
        fill: #ef7e46;
      }

      .st33 {
        fill: #ed9b64;
      }

      .st14 {
        fill: #ff7e5f;
      }
    </style>
    <clipPath id="clippath">
      <path class="st9" d="M429.3,533.4c-4.3-4.3-8.9-8.5-14.2-11.5-5.4-2.9-11.7-4.4-17.7-3-8.6,2.1-14.9,10.5-15.7,19.3-.8,8.8,3.3,17.6,9.8,23.7,6.5,6,15,9.5,23.8,10.9,4.8.8,9.8,1.1,14.4-.4,4.6-1.4,8.9-4.7,10.5-9.3l-10.9-29.7h0Z"/>
    </clipPath>
    <clipPath id="clippath-1">
      <path class="st9" d="M598.8,529.8c4.3-4.3,8.9-8.5,14.2-11.5,5.4-2.9,11.7-4.4,17.7-3,8.6,2.1,14.9,10.5,15.7,19.3s-3.3,17.6-9.8,23.7c-6.5,6-15,9.5-23.8,10.9-4.8.8-9.8,1.1-14.4-.4-4.6-1.4-8.9-4.7-10.5-9.3l10.9-29.7h0Z"/>
    </clipPath>
    <clipPath id="clippath-2">
      <circle class="st9" cx="469.7" cy="525.1" r="22.9"/>
    </clipPath>
    <clipPath id="clippath-3">
      <circle class="st9" cx="558.1" cy="523.4" r="22.9"/>
    </clipPath>
  </defs>
  <path class="st0" d="M690,921.6c13.6-5.5,28.2-12.1,43.3-19.8,14.4-7.4,27.6-14.9,39.6-22.3-33.4-95.2-60.2-171.1-60.7-170.9,0,0,.2,1.1,0,1.2-.6.2-3.1-6.3-6.2-11.1-2.3-3.6-6-8.1-12.4-12.4-20.1-10.1-41.9-20.2-65.6-29.7-14.9-6-29.4-11.3-43.3-16.1-59.4,6.6-118.9,13.2-178.3,19.8-13.6,86.7-27.2,173.4-40.9,260.1-5,54.9-9.9,109.8-14.9,164.7h298.5c-3.3-29.4-4.7-65.3-.6-105.9,2.5-24.3,6.5-46.2,11.1-65.6,10.1,2.7,20.2,5.4,30.3,8h.1Z"/>
  <path class="st23" d="M647.7,1001.6c-4.3-3-8.7-6-13-9-3-2.3-6.1-4.5-9.1-6.8-12.5-9.6-25.2-18.8-37.4-28.8-16.5-13.6-32.6-27.7-48.8-41.6-7-7.2-13-15-23.6-18.5-6.3-2.1-12.4-8.4-15.9-14.4-7.4-12.6-17.8-20.8-30.3-27.4-10.3-5.4-20.2-11.5-29.9-17.9-2.4-1.6-3.2-5.5-4.7-8.4,3.1-.8,6.4-2.6,9.4-2.1,11.1,1.7,22.1,4.2,33.1,6.4,1,.2,2,.5,5,1.2-6.3-6.9-11-12.8-16.4-18.1-10.9-10.6-22.1-20.8-33.2-31.2-3.1-2.9-6.5-6-4.1-10.5,2.6-4.9,7-2.9,11-1.7,1,.3,2,.6,3.6,1.1-.2-3.8-4.4-8.7,1.7-9.9,3.5-.7,7.5.9,11.7,1.5,4-4.1,12.2-4.9,20.2-.8,18,9.3,35.9,19,53.8,28.5,1.1.6,2.3.9,3.2,1.3,1.9-8.9,3.8-17.5,5.7-26,10.9,2.2,15.1,10.4,16.6,20.1,2.9,18.8,5.2,37.7,8,56.5.4,2.6,1.6,6,3.5,7.3,12.5,8.2,25.3,15.9,38,23.7,2.6,1.8,5.3,3.5,7.9,5.3,7.3,4.3,14.5,8.6,21.8,12.7,10.3,5.7,20.7,11.3,31.1,16.8,6.3,3.3,12.7,6.6,19.2,9.5,1.8.8,4.4,1.3,6.1.6,16.3-7,32.4-14.2,48.6-21.4.9,0,1.8-.3,2.6-.4.2,1.5.4,3,.6,4.5-.4.2-.7.3-1.1.5.4,0,.8.3,1.2.4,6.3,30.8,9.5,61.8,8.4,93.2-.4,12.2-8,20.8-17,27.9-15.8,12.6-27,13.3-44,2.7-13.5-8.3-26.6-17.1-40-25.6-1.1-.7-2.4-1-3.6-1.4v.2h0ZM516,804.2c-2.6-2.4-5.1-5.4-8.2-7.5-11.7-8.3-23.4-16.5-35.4-24.3-2.6-1.7-6.5-1.5-9.8-2.2,1.7,2.9,2.8,6.7,5.3,8.6,6,4.6,12.7,8.2,19,12.5,7.3,5,14.4,10.4,21.6,15.6,3,2.2,5.6,2.3,7.5-2.7h0ZM492.8,815.5c-1.5-2.2-2.6-4.7-4.4-6.3-7.4-6.6-15-13.1-22.8-19.4-4.4-3.5-9.1-6.6-13.9-9.5-1.1-.7-3.2,0-4.8.2.3,1.6.1,3.5.9,4.8,1,1.6,2.7,2.9,4.2,4.1,5.4,4.3,11.1,8.3,16.4,12.7,5.6,4.8,10.8,10.1,16.4,14.8,1.4,1.2,3.9,1.3,5.9,1.4.5,0,1.2-1.5,2.1-2.8h0ZM702,926.4c-2.1.9-3.8,1.3-5,2.3-.5.5-.3,2.9.4,3.4,7.2,4.6,14.5,9,21.9,13.2.7.4,2.8-.9,3.6-1.9.5-.7.2-2.9-.5-3.4-6.7-4.6-13.5-9.1-20.4-13.6ZM543.4,797.3h-2.5c-1,1.3-3,2.9-2.8,3.6,1.4,3.4,3.3,6.7,5.4,9.7.3.5,2.9-.7,4.4-1.1-1.6-4.1-3.1-8.2-4.7-12.2h.2,0Z"/>
  <path class="st22" d="M308.8,450.9c-1.5.5-2.9,1.4-4.4,1.4s-3.6-.4-4.6-1.4c-3.1-3.3-5.9-6.9-8.8-10.5-13.3-16.6-26.7-33.2-40-49.7-.4-.5-1-1-1.2-1.6-.5-2.3-.8-4.6-1.2-6.9,2.4.7,5.6.6,6.9,2.1,7.7,8.8,15,18,22.4,27,8.5,10.4,16.9,20.9,25.3,31.4,1.5,1.8,2.6,3.9,5.4,8l.2.2Z"/>
  <path class="st25" d="M188.9,458c1.4.6,2.8,1.2,4,2,16.4,10.6,32.9,21.2,49.2,32.1,1.8,1.2,3.9,5.1,3.3,6.5-1.8,3.9-4.9,1.8-7.6.1-16.4-10.7-32.8-21.4-49.1-32.2-1.6-1.1-2.7-3.6-3.2-5.6s1-2.8,1.6-4.2c.6.5,1.2,1,1.8,1.4h0Z"/>
  <path class="st25" d="M779.6,390.4c-1,1.7-1.7,3-2.6,4.2-10.8,14.2-21.5,28.5-32.5,42.4-1.3,1.7-4.5,1.8-6.8,2.6,0-2.3-.6-5.2.6-6.7,10.8-14.7,21.9-29.2,33.1-43.6,1.1-1.4,3.6-2,5.5-2.1.8,0,1.8,2,2.8,3.2h0Z"/>
  <path class="st25" d="M778.3,596.6c-3.8,0-8,.2-12.1,0-1.3,0-3.3-1.7-3.4-2.8,0-1.2,1.2-3.2,2.4-3.8,1.9-.9,4.2-1,6.3-1.1,10.8-.8,21.6-1.5,32.4-2.2,1.3,0,2.8-.5,3.9,0,1.7.8,3,2.3,4.5,3.4-1.4,1.3-2.6,3.6-4.1,3.8-9.9,1.1-19.8,1.8-30.1,2.7h.2,0Z"/>
  <path class="st21" d="M597.9,651.5c-4.3-3.9-8.6-7.7-12.9-11.6,15.3,5.9,30.8,11.4,45.9,17.9,20.5,8.8,40.6,18.3,60.8,27.7,2.3,1,4,3.2,6,4.8,0,.2-.3.3-.4.5-1.1-.2-2.2-.2-3.2-.7-11.2-5.7-22.1-12-33.6-17.1-12.7-5.7-26-10.1-38.9-15.5-5.8-2.4-11.2-5.8-16.9-8.6-3-1.5-6.4-3.3-6.7,2.6h0Z"/>
  <path class="st21" d="M804.7,513.6c-1.6,1.2-3,2.9-4.8,3.6-9.5,3.6-19,7.2-28.7,10.3-1.9.6-4.5-.9-6.7-1.4,1.4-2,2.4-4.9,4.3-5.7,9.4-3.9,18.9-7.3,28.6-10.5,2-.7,4.8.8,7.2,1.2v2.4h.1Z"/>
  <path class="st21" d="M710.5,704.9c4,9.7,8.5,19.3,12,29.2,9.1,25.9,17.7,52,26.5,78.1.4,1.2.5,2.5.8,3.8l-.3.2c-3.8-9.4-8-18.8-11.4-28.3-5.3-14.9-10-29.9-15.1-44.9-4.2-12.6-8.5-25.2-12.8-37.9l.3-.2h0Z"/>
  <path class="st21" d="M749.8,816c5.2,13.7,10.4,27.3,15.5,41,2,5.4,3.6,11,5.5,16.5,0,0-.4.2-.3.2-1-1.8-2.3-3.6-3-5.5-2.8-7.2-5.6-14.3-8.1-21.6-3.4-10.1-6.6-20.2-9.8-30.4l.3-.2h-.1Z"/>
  <path class="st21" d="M743.2,899.4c-.9,0-1.8.3-2.6.4,1.2-2.4,2.5-4.9,3.5-7,2-.2,4.2.2,5.7-.6,5.5-2.9,10.6-6.5,16.2-9.2,4.3-2.1,5.4-5,4.4-9.3l.4-.2c3.9,4.7,3.3,8-2.5,11-8.6,4.5-16.7,9.9-25,14.9h-.1Z"/>
  <path class="st29" d="M237.3,711.8c3.5,1.3,7,2.6,10.5,3.9-1.6,4.7-4,5.2-7.1,1.3-1.3-1.6-2.3-3.4-3.4-5.2Z"/>
  <path class="st21" d="M700.1,691.8c2.6,3,5.3,6.1,7.9,9.1l-.4.3c-2.6-3-5.3-6-7.9-9l.3-.4h.1Z"/>
  <path class="st29" d="M271.4,723.1c2.7.8,5.5,1.7,8.2,2.5-2.3.5-4.6,1.3-6.9,1.3s-4-1.4-1.3-3.8h0Z"/>
  <path class="st29" d="M228.1,707.8c1.9,1.1,3.8,2.3,5.8,3.4-1.9-1.1-3.8-2.3-5.8-3.4Z"/>
  <path class="st29" d="M290.9,728.3c1.3.4,2.7.8,4,1.2-2.2,2.6-3.4,1.9-4-1.2Z"/>
  <path class="st29" d="M328.8,780.8c.4,1.3.8,2.7,1.1,4-.4-1.3-.8-2.7-1.1-4Z"/>
  <path class="st21" d="M708,700.9c.8,1.3,1.7,2.7,2.5,4l-.3.2c-.9-1.3-1.7-2.6-2.6-4l.4-.3h0Z"/>
  <path class="st29" d="M264.7,721.1c1.5.6,3,1.2,4.6,1.9-1.5-.6-3-1.2-4.6-1.9Z"/>
  <path class="st29" d="M252.9,717.1c.9.4,1.7.8,2.6,1.2-.9-.4-1.7-.8-2.6-1.2Z"/>
  <path class="st21" d="M697.7,690.2c.8.5,1.6,1.1,2.3,1.6l-.3.4c-.8-.5-1.6-1-2.4-1.5,0-.2.3-.4.4-.5Z"/>
  <path class="st21" d="M743.9,904.7c-.4,0-.8-.3-1.2-.4.4-.2.7-.3,1.1-.5.2.3.2.5,0,.8h.1Z"/>
  <path class="st29" d="M250.6,716.3c.3,0,.7.3,1,.4-.4,0-.7-.2-1-.4Z"/>
  <path class="st3" d="M450.3,732.5h-9.1c-3.1.4-6.1.8-9.2,1.2h-2.6c-1.3,0-2.6,0-3.9.2h-37.9c-13.2-.9-26.4-1.8-39.5-2.6-2.8-.2-5.9-.6-4.6-4.2.6-1.7,3.8-3.5,5.7-3.5,21.7.7,43.3,3,65,2.6,23.5-.5,46.9-3.4,70.3-5.2,1.7,0,3.5-.2,5.2-.2.8,7.3,6.7,4.4,10.7,5.3-13.1,1.8-26.2,3.5-39.3,5.3-3.5.4-7.1.8-10.6,1.2h-.2Z"/>
  <path class="st10" d="M387.5,691.1c-9.7-1-20.3-2.1-30.8-3.3-1.5-.2-3.3-.4-4.3-1.3-1.2-1.1-1.7-3.1-2.5-4.6,1.4-.7,2.8-2.1,4.2-2,7.1.4,14.3.8,21.3,1.8,22,3.1,43.7-.6,65.4-3.4,9-1.2,17.9-3.2,26.9-4.3,1.8-.2,3.9,1.5,5.9,2.3-1.3,1.5-2.5,4.2-4.1,4.5-13.2,2.6-26.3,5.2-39.6,6.9-13.8,1.7-27.6,2.3-42.4,3.5h0Z"/>
  <path class="st28" d="M434.3,700.9c16.5-2,33-4.2,49.6-5.8,11.2-1.1,22.5-1.4,33.7-1.5,1.5,0,3.1,2.6,4.7,3.9-1.6,1.2-3.1,3.3-4.8,3.5-24.5,2.3-49,4.6-73.6,6.4-7.8.6-15.7.4-23.4,0-2.2-.2-4.3-2.7-6.5-4.1,2.2-1.1,4.3-3,6.6-3.3,4.5-.5,9.1-.2,13.7-.2,0,.4,0,.8.1,1.2h-.1Z"/>
  <path class="st30" d="M398,923.8c3.3,15.4,6,31,10,46.2,4.2,16.1,9.7,31.8,14.3,47.8.6,2.2-1.2,5.2-1.8,7.8-1.9-1.9-5-3.4-5.7-5.7-6.8-23.3-13.3-46.7-19.6-70.1-2.4-8.8-4.1-17.7-6.1-26.5,3,.2,6,.3,9,.5h0Z"/>
  <path class="st10" d="M394.9,669.1c-15.3-1.6-30.6-3.2-45.8-4.8-.8,0-1.9-.2-2.4-.8-1.6-1.6-3.1-3.4-4.6-5.1,2.1-.9,4.3-2.8,6.3-2.6,10.1.9,20.1,2.7,30.3,3.5,10.4.8,20.8.7,31.2,1.4,1.7,0,3.3,1.9,5,2.9-1.4,1.4-2.7,3.9-4.3,4.1-5.2.5-10.4.2-15.6.2v1.2h-.1Z"/>
  <path class="st20" d="M387.6,733.8h32.7c-.4,4.3-.9,8.6-1.3,12.8h0c-.4.9-.7,1.8-1.1,2.6,2.5.9,5.1,1.7,7.6,2.6.2,1.4.4,2.9.5,4.3.7-.3,1.3-.6,2-1-.8-1.1-1.7-2.2-2.5-3.3-.5-1.2-.9-2.4-1.6-4.2,2.2.6,3.8,1,5.5,1.5v-11.7h0c.4,4.2,1.3,8.4,1.2,12.6,0,4.6,0,8.7,7.1,9.1-18.2,6.7-32.1-2-33-19.7-.3-5-2.7-5.5-6.3-4-5.1,2.1-10,4.5-15,6.9-.5-.4-1-.8-1.6-1.3,1.9-2.5,3.8-4.9,5.7-7.4h0v.2Z"/>
  <path class="st10" d="M371.2,708.1c-8.2-.6-16.4-1-24.6-2-1.7-.2-3.2-2.5-4.7-3.9,1.7-1.3,3.3-3.6,4.9-3.6,6.7,0,13.4,1.1,20,1.4,6,.3,12,0,18,0s3.8-.6,5.1,0c1.3.8,2.5,2.8,2.7,4.4,0,.9-2,2.8-3.2,2.9-6.1.3-12.2,0-18.2,0v.5h0v.3Z"/>
  <path class="st3" d="M476.7,750.4c-.7-4.8.5-7.5,6.3-7.9,10.5-.7,20.9-2.4,31.3-3.7,1.3,0,2.6.3,3.8.4,2.2,3.5,1.1,6.1-2.6,6.9-4.8,1.1-9.7,1.5-14.6,2.1-4.9.7-9.8,1.2-14.7,2-.5,0-.8,1.9-.6,1.3-2.9-.3-5.4-.6-7.9-.9-.4,0-.7,0-1.1-.2h.1Z"/>
  <path class="st20" d="M450.3,732.5c3.5-.4,7.1-.8,10.6-1.2,8.2,2.7,11,15,3.8,23.9,0-4.9.2-9.9-.1-14.8-.1-1.8-1.5-3.5-2.3-5.2-.9,1.8-2.5,3.5-2.7,5.4-.4,3.4.6,7.2-.4,10.3-.7,2.3-3.8,3.9-5.8,5.8-1-1.8-2.8-3.6-2.9-5.4-.4-6.3-.2-12.6-.2-18.9h0Z"/>
  <path class="st19" d="M544.8,613.6c8.5-2.3,16.9-4.7,25.4-6.7,2-.5,4.4.5,6.7.9-1,1.8-1.6,4.4-3.2,5.3-8.9,5.4-18.6,7.8-29,8.1v-7.6h0Z"/>
  <path class="st10" d="M511.5,666.6c4.4,1.3,10.6-1.9,10.4,4.7-.2,5.8-6,3-9.5,3.6-5.3.8-10.7,1.5-16,1.8-1.7,0-3.5-1.2-5.3-1.8,1.1-1.7,2-4.6,3.5-5,5.8-1.5,11.8-2.3,16.9-3.2h0Z"/>
  <path class="st28" d="M500.3,726c-4-.9-9.8,2-10.7-5.3,7-1.2,14-2.8,21.1-3.5,2-.2,4.2,1.7,6.3,2.7-1.6,1.6-2.8,3.9-4.7,4.7-2.5,1-5.5.9-8.2,1.3h-3.8Z"/>
  <path class="st24" d="M518.2,739.1c-1.3,0-2.5-.3-3.8-.4,0-8.8,4.4-14.5,10.9-14.1,1.6,0,3.1,1.4,4.6,2.2-1.3,1.1-2.5,2.2-3.9,3.1-.8.6-1.8,1-2.5,2.4,2.6-.4,5.3-.8,7.9-1.3h0c-.4.5-.7,1.5-1.1,1.5-5.4.9-7.4,4.1-7.2,9.4,0,1.6-1,3.2-2,6.4v-16.5c-1.5,3.6-2.2,5.4-2.9,7.2h0Z"/>
  <path class="st29" d="M326.1,649h-1.1c-4-1.4-7.9-2.8-13.5-4.8,5.6-5.1,10-9,14.4-13,.1,3.6.3,7.2.3,10.8s0,4.7-.1,7h0Z"/>
  <path class="st20" d="M432,733.9c3.1-.4,6.1-.8,9.2-1.2-.4,8.2-.9,16.4-1.3,24.6h0c-.2-7.4-.3-14.8-.5-22.2h-2.7v21.8h-2.5c-.8-7.7-1.5-15.4-2.3-23.2h0v.2Z"/>
  <path class="st20" d="M446.4,732.6h2.7v24.6h-2.3c-.1-8.2-.3-16.5-.4-24.7h0Z"/>
  <path class="st24" d="M531.4,731.1c.2-2.7.5-5.3.7-7.8,4.1,4,4.1,4.4-.7,7.8h0Z"/>
  <path class="st24" d="M456.8,760.4c-1.8.2-3.7.4-5.5.7-.1-.6-.2-1.2-.3-1.7,1.8-.4,3.6-.8,5.4-1.2.2.8.3,1.5.5,2.3h-.1Z"/>
  <path class="st24" d="M475.7,759.2c.1-1.2.3-2.4.4-3.6h1.1v3.6h-1.5Z"/>
  <path class="st24" d="M471.3,759.8c-1.2-.3-2.4-.6-3.5-.9.1-.4.2-.8.3-1.2,1.2.4,2.3.8,3.5,1.2l-.3.9Z"/>
  <path class="st24" d="M425.6,733.9c1.3,0,2.6,0,3.9-.2v3.9h0c-1.3-1.2-2.6-2.5-3.9-3.7Z"/>
  <path class="st32" d="M540.8,752c1.2.9,2.5,1.8,3.7,2.7-1.3-.4-2.6-.9-3.9-1.3,0-.5,0-.9.2-1.4Z"/>
  <path class="st24" d="M476.7,750.4c.4,0,.7.2,1.1.2-.2.5-.3,1.1-.5,1.6-.2-.6-.4-1.2-.6-1.8Z"/>
  <path class="st24" d="M439.9,757.3c-.1.2-.2.4-.3.5,0-.2.2-.4.3-.6h0Z"/>
  <path class="st3" d="M502.6,725.9h1.3-1.3Z"/>
  <path class="st8" d="M540.2,754.5v1.6-1.6Z"/>
  <path class="st27" d="M326.4,718.7c-.4-23.2-.2-46.5-.3-69.7h-1.1c-.5,3.3-1.1,6.6-1.6,9.9-6.9,20.5-11.7,41.3-12.9,62.9-.4,3.5-.9,6.9-1.3,10.4.4,1.7,1.1,3.3,1.2,5,.7,8.5,5,13.9,13.1,16.2h1.3c1.2-.4,2.4-.7,3.5-1.1-.7-11.2-1.9-22.5-2.1-33.7h.2,0ZM319.3,747.6c-2.6-.3-6.3-3.6-6.9-6.2-.6-2.6,1.6-6.4,3.7-8.6,1.6-1.7,4.9-1.8,8.8-3,0,3.9-.2,7.1,0,10.3.4,4.4-1.4,8-5.7,7.5h.1Z"/>
  <path class="st30" d="M365.3,939.9c1.5-2.9,3.1-8.2,4.6-8.2,5.5,0,4,5.6,4.4,9,2.4,21.9,4.5,43.9,6.6,65.9,1.9,20.5,3.6,41,5.5,61.5.2,1.9,1.2,3.9.9,5.7-.4,2.1-1.9,3.9-3,5.9-1.5-1.5-4.1-2.9-4.3-4.6-1.3-9.7-1.9-19.4-2.9-29.1-2.4-23-5.1-46-7.5-69-1.2-12.1-1.9-24.2-2.9-36.3-.5-.2-1-.5-1.5-.7h0Z"/>
  <path class="st30" d="M625.5,985.8c3,2.3,6.1,4.5,9.1,6.8,0,8,.2,16,0,24,0,1.5-1.5,3-2.3,4.5-1.4-1.3-3.9-2.4-4.1-3.8-1.2-10.4-1.9-20.9-2.8-31.4h0Z"/>
  <path class="st19" d="M516,804.2c-1.9,4.9-4.5,4.8-7.5,2.7-7.2-5.2-14.3-10.6-21.6-15.6-6.2-4.3-13-7.9-19-12.5-2.5-1.9-3.6-5.7-5.3-8.6,3.3.7,7.2.5,9.8,2.2,12,7.8,23.7,16,35.4,24.3,3.1,2.2,5.6,5.1,8.2,7.5h0Z"/>
  <path class="st19" d="M492.8,815.5c-.9,1.3-1.6,2.8-2.1,2.8-2-.2-4.5-.3-5.9-1.4-5.6-4.7-10.8-10-16.4-14.8-5.3-4.5-10.9-8.5-16.4-12.7-1.5-1.2-3.2-2.4-4.2-4.1-.8-1.3-.6-3.2-.9-4.8,1.6,0,3.6-.9,4.8-.2,4.8,2.9,9.5,6,13.9,9.5,7.8,6.3,15.3,12.8,22.8,19.4,1.8,1.6,2.9,4.1,4.4,6.3h0Z"/>
  <path class="st30" d="M605.8,876.3c-1.8-7.6-3.8-15.1-5.2-22.7-.3-1.8,1.2-3.9,1.9-5.9,2,1.3,5.2,2.3,5.7,4,2.5,9.1,4.4,18.4,6.4,27.7,0,.6-.5,1.5-.8,2.2-2.6-1.8-5.3-3.5-7.9-5.3h-.1Z"/>
  <path class="st19" d="M702,926.4c6.9,4.5,13.7,9,20.4,13.6.7.5,1,2.7.5,3.4-.8,1-2.9,2.3-3.6,1.9-7.4-4.2-14.7-8.6-21.9-13.2-.6-.4-.9-2.9-.4-3.4,1.1-1,2.9-1.4,5-2.3Z"/>
  <path class="st19" d="M543.4,797.3c1.6,4.1,3.1,8.2,4.7,12.2-1.5.4-4.1,1.5-4.4,1.1-2.1-3-4-6.3-5.4-9.7-.3-.7,1.8-2.3,2.8-3.5h2.5-.2,0Z"/>
  <path class="st20" d="M323.5,753.5h1.3-1.3Z"/>
  <path class="st5" d="M759,866.1c2.8,8.5-3,10.3-6.6,12.3-12.5,7-25.1,13.7-38,19.8-8.2,3.9-16.9,6.7-25.5,9.6-1.5.5-3.8-1.1-5.7-1.7,1.4-1.8,2.4-4.4,4.3-5.2,15.5-7.1,31.3-13.7,46.8-21,8.3-3.9,16.1-8.9,24.8-13.8h0Z"/>
  <path class="st30" d="M652.9,809.2c0-2.2-.3-5.1,0-7.9.3-1.6,1.7-3.1,2.6-4.6,1.6,1.2,3.3,2.3,4.7,3.7s.3,1.7.3,2.5c.5,12.4.9,24.7,1.4,37.1.3,8,1.2,16,1,24,0,2.3-2.6,4.5-4,6.8-1.2-2.2-3.3-4.3-3.4-6.5-1.1-18.2-1.9-36.4-2.8-55.1h.2Z"/>
  <path class="st5" d="M681.3,744.3c2.4-10.3,4.4-19.3,6.9-28.2.4-1.4,3.5-2.1,5.4-3.1.7,1.8,2.3,3.8,1.9,5.4-1.8,8.7-3.9,17.3-6.4,25.8-.6,2-3.3,3.3-5,4.9-1.1-1.8-2.2-3.7-2.9-4.8h0Z"/>
  <path class="st30" d="M570.5,689.2c1.7-.9,3.5-1.8,5.2-2.6h0c-1.7,1-3.5,1.8-5.2,2.7h0Z"/>
  <path class="st2" d="M565.4,708.9c.4.9.9,1.8,1.3,2.6-.4-.9-.9-1.8-1.3-2.6Z"/>
  <path class="st2" d="M564.1,702.3v3.9-3.9Z"/>
  <path class="st2" d="M566.7,712.8c.9.9,1.7,1.8,2.6,2.6-.9-.9-1.7-1.8-2.6-2.6Z"/>
  <path class="st20" d="M425.6,733.9c1.3,1.2,2.6,2.5,3.9,3.7v11.7c-1.8-.5-3.3-.9-5.5-1.5.7,1.8,1.1,3,1.6,4.2h0c-2.5-.9-5.1-1.7-7.6-2.6.4-.9.7-1.8,1.1-2.6.2,0,.4.2.6.3-.2,0-.4-.2-.5-.3.4-4.3.9-8.6,1.3-12.8h5.2-.1Z"/>
  <path class="st20" d="M425.5,752c.8,1.1,1.7,2.2,2.5,3.3-.7.3-1.3.6-2,1-.2-1.4-.4-2.9-.5-4.3h0Z"/>
  <path class="st27" d="M324.9,729.8c0,3.9-.2,7.1,0,10.3.4,4.4-1.4,8-5.7,7.5-2.6-.3-6.3-3.6-6.9-6.2-.6-2.6,1.6-6.4,3.7-8.6,1.6-1.7,4.9-1.8,8.8-3h.1Z"/>
  <g>
    <path class="st5" d="M542.2,695.8v8c7.3-1.3,14.6-2.6,22-3.9.4-.5.8-.9,1.3-1.4,1.8-3.1,3.5-6.1,5.3-9.2h0c-9.4,2.1-18.9,4.3-28.3,6.5h-.3Z"/>
    <path class="st5" d="M599,665.1c-8.1,7.5-15.7,14.5-23.3,21.4h0c-1.7,1-3.5,1.8-5.2,2.7-1.8,3.1-3.5,6.1-5.3,9.2,1.3,0,2.7,0,4-.2,2.2-.8,4.3-1.6,6.5-2.4,2.1-.5,4.3-1,6.4-1.5.4-1.3.8-2.6,1.2-3.8.2-1.2.3-2.4.5-3.6h3.7c4.1-4.9,8.4-9.7,12.4-14.8,2.5-3.2,2-6-1-6.9h0Z"/>
  </g>
  <path class="st24" d="M419,746.8c.2,0,.4.2.5.3-.2,0-.4-.2-.6-.3h.1Z"/>
  <path class="st23" d="M740.6,899.8c4.1,13.1,8,29.1,10.1,47.7,2.6,23.2,1.8,43.4,0,59.2-1.7,3.4-12.3,23.7-33.3,27.5-5,.9-9.7.7-13.6,0-5.8-2.8-11.5-5.6-17.3-8.7-59.8-31.2-108.3-70.7-147.4-111.5-.8-.8-3.7-4.6-8.7-8.7-4.1-3.4-8-5.7-11.1-7.4,16.1-15.3,32.2-30.5,48.3-45.8,21.6,14.6,45.8,29.5,72.4,44,17,9.2,33.6,17.4,49.5,24.8,17.1-7,34.1-14.1,51.2-21.1h-.1Z"/>
  <path class="st1" d="M236,701.9"/>
  <path class="st1" d="M123.4,653.3"/>
  <path class="st1" d="M585.9,600.8c-.8,1.2-11,17.1-3.7,33.4,3.8,8.6,10.6,13.1,13.6,14.9-2.3,5.6-8.5,18.3-22.3,28.5-12.5,9.1-24.9,11.6-31,12.4-7.4-28.9-14.9-57.8-22.3-86.7,21.9-.8,43.8-1.7,65.6-2.5h.1Z"/>
  <path class="st19" d="M309.3,649c-1.1,1.7-1.8,3.4-3,4.6-9.2,10.1-18.4,20.1-27.9,30-1.1,1.1-3.8.7-5.7,1-.1-2-1.2-4.7-.3-5.7,10.1-11,20.5-21.8,30.9-32.5.7-.8,2.7-1.3,3.4-.9,1.1.7,1.7,2.3,2.5,3.6h.1Z"/>
  <path class="st10" d="M405.4,645c-20.5-2.4-39.6-4.5-58.7-7-2.2-.3-4-3.1-6-4.8,2.3-.9,4.6-2.8,6.8-2.6,11.4,1,22.8,2.7,34.2,4,23.5,2.7,46.8,1.4,69.9-3.4,19.5-4.1,39-8.2,58.5-11.9,5.1-1,10.4-.7,15.6-.5,1.4,0,2.8,2,4.2,3-1.3,1.2-2.4,3.3-3.9,3.5-6,1-12.1,1.1-18,2.3-17.9,3.4-35.6,7.5-53.5,10.6-16.6,2.8-33.4,4.7-49.1,6.9h0Z"/>
  <g>
    <g>
      <g>
        <g class="st31">
          <g>
            <path class="st17" d="M429.3,533.4c-4.3-4.3-8.9-8.5-14.2-11.5-5.4-2.9-11.7-4.4-17.7-3-8.6,2.1-14.9,10.5-15.7,19.3-.8,8.8,3.3,17.6,9.8,23.7,6.5,6,15,9.5,23.8,10.9,4.8.8,9.8,1.1,14.4-.4,4.6-1.4,8.9-4.7,10.5-9.3"/>
            <path d="M433.5,571.8c-9.8-24.1-36-47.3-62.6-30.9-1.7,1-.1,3.7,1.6,2.7,24.7-15.2,49,6.7,58,29,.7,1.8,3.8,1,3-.8h0Z"/>
            <path d="M418.4,550.4c-6.2.6-11.7,3.4-15.5,8.2-1.2,1.6,1,3.8,2.2,2.2,3.3-4.2,8-6.9,13.3-7.3,2-.2,2-3.3,0-3.1h0Z"/>
          </g>
        </g>
        <g class="st11">
          <g>
            <path class="st17" d="M598.8,529.8c4.3-4.3,8.9-8.5,14.2-11.5,5.4-2.9,11.7-4.4,17.7-3,8.6,2.1,14.9,10.5,15.7,19.3s-3.3,17.6-9.8,23.7c-6.5,6-15,9.5-23.8,10.9-4.8.8-9.8,1.1-14.4-.4-4.6-1.4-8.9-4.7-10.5-9.3"/>
            <path d="M594.7,568.2c9.8-24.1,36-47.3,62.6-30.9,1.7,1,0,3.7-1.6,2.7-24.7-15.2-49,6.7-58,29-.7,1.8-3.8,1-3-.8h0Z"/>
            <path d="M609.7,546.8c6.2.6,11.7,3.4,15.5,8.2,1.2,1.6-1,3.8-2.2,2.2-3.3-4.2-8-6.9-13.3-7.3-2-.2-2-3.3,0-3.1h0Z"/>
          </g>
        </g>
        <path class="st17" d="M618.7,409l-100.5-5.4-100.5,5.4s6.5,156.9,15.6,180.9c8.6,22.6,56.2,54.5,84.9,54.5s71-39.3,77-57.8c7.7-23.8,23.5-177.5,23.5-177.5h0Z"/>
        <path class="st33" d="M514.4,514.8c3.7.4,10.1,30,10.1,30,0,0,7.7,3.5,6.2,11.4-1.5,8-10.1,14.2-20.1,7.6-10-6.6-3.2-49.8,3.9-49h0Z"/>
        <path class="st15" d="M425,529.2c-1.1-.8-14-9.2-14-9.2-3.7-6.7-5.5-24.9-5.5-24.9,0,0-22.6-3.8-21.6-6.8,1-2.9,16.7-20.6,16.7-20.6,0,0-36.8-37.3-35.8-38.7,1-1.5,97.8-88.7,192.3-69.3,40.5,8.3,69.4,44.3,68.5,85.6-.9,42.4-17.3,83.5-20.9,83.9-5.9.6-12-92-12-92,0,0,2.9,24.7,0,22.8-2.9-1.9-26.8-37-26.8-37,0,0-67.9,22.1-70.7,20.2-2.8-1.9,10.4-20.2,10.4-20.2,0,0-47,35-55,31.2-8.1-3.8-10.2-19.8-10.2-19.8,0,0-5.4,102.1-15.3,94.8h-.1Z"/>
        <path class="st33" d="M542.7,553.1c6.1,2,12.4,2.6,18.8,2s2.3-3.9,0-3.6c-6.1.6-12,0-17.8-1.8-2.2-.7-3.2,2.8-1,3.5h0Z"/>
        <path class="st33" d="M483,549.6c-5.8,1.9-11.7,2.5-17.8,1.8-2.3-.2-2.3,3.4,0,3.6,6.4.7,12.7,0,18.8-2,2.2-.7,1.3-4.2-1-3.5h0Z"/>
        <path d="M488.1,587.5c17.9,7.2,37.1,7.2,55.1,0,2.1-.9,1.2-4.4-1-3.5-17.4,6.9-35.8,6.9-53.1,0-2.2-.9-3.1,2.6-1,3.5h0Z"/>
      </g>
      <g>
        <circle class="st6" cx="469.7" cy="525.1" r="22.9"/>
        <g class="st26">
          <circle cx="471.7" cy="526.5" r="19.8"/>
        </g>
      </g>
      <g>
        <circle class="st6" cx="558.1" cy="523.4" r="22.9"/>
        <g class="st18">
          <circle cx="556.1" cy="524.7" r="19.8"/>
        </g>
      </g>
      <path class="st14" d="M584.6,500.2c-7.2-7.3-16-10.9-26.4-10.9s-19.2,3.6-26.4,10.9c-6,6.1-9.5,13.3-10.5,21.4l-14.2.2c-1-8.2-4.6-15.4-10.8-21.6-7.4-7.3-16.2-10.9-26.4-10.9s-19,3.6-26.2,10.9c-7.3,7.4-10.9,16.2-10.9,26.4s3.6,19.2,10.9,26.4c7.3,7.3,16,10.9,26.2,10.9s19-3.6,26.4-10.9c7.2-7,10.8-15.6,11-25.5h13.6c.2,10,3.8,18.5,10.8,25.6,7.3,7.2,16.1,10.9,26.4,10.9s19.2-3.7,26.4-10.9c7.4-7.3,11.1-16.1,11.1-26.4s-3.7-19-11.1-26.4M492,549c-6.1,6.1-13.5,9.1-22.3,9.1s-16.2-3-22.5-9.1c-6.1-6.3-9.1-13.9-9.1-22.5s3-16.3,9.1-22.3c6.3-6.3,13.9-9.5,22.5-9.5s16.3,3.2,22.3,9.5c6.3,6.1,9.5,13.5,9.5,22.3s-3.2,16.2-9.5,22.5M580.5,549c-6.3,6.1-13.8,9.1-22.3,9.1s-16.4-3.1-22.5-9.1c-6.3-6.4-9.5-13.9-9.5-22.5s3.2-16.3,9.5-22.3c6.1-6.4,13.6-9.5,22.5-9.5s16,3.1,22.3,9.5c6.1,6.1,9.1,13.5,9.1,22.3s-3,16.2-9.1,22.5"/>
      <path class="st13" d="M517.9,574.8c-15.9,22.2-37.3,26.3-64.2,12,11.5.8,21.1-4.2,28.7-15.2,13-19.3,24.8-18.2,35.5,3.2,10.4-21.4,22.2-22.5,35.3-3.2,7.5,11,17,16.1,28.5,15.2-26.6,14.2-47.9,10.2-63.8-12"/>
      <g class="st4">
        <path class="st12" d="M476.5,467l76.8-2.1s-18.6,9.6-39.3,9.6-37.5-7.5-37.5-7.5"/>
        <path class="st12" d="M488.4,480.6l55.4-.8s-13.6,9.3-28.6,9c-14.9-.4-26.9-8.2-26.9-8.2"/>
      </g>
    </g>
    <path class="st15" d="M563.7,472.9c-4.1-.5-8.2-.7-12.4-.1-1.8.2-3.7.7-5.2,1.7-5.9,4.4,4.8,8.5,8,9.7,7.7,2.9,16.5,5.1,25.1,4.2,6.6-.7,7.9-7.2,2.9-10.6-2-1.4-4.5-2-7-2.6-3.8-.9-7.6-1.8-11.5-2.3h.1Z"/>
    <path class="st15" d="M477.8,471.8c-4.1.4-8.2,1.1-12.1,2.6-1.7.6-3.5,1.5-4.7,2.8-4.8,5.6,6.6,7.3,10,7.7,8.2,1.1,17.2,1.3,25.4-1.5,6.3-2.1,6.1-8.8.5-11-2.3-.9-4.9-1-7.4-1-3.9,0-7.8,0-11.7.3h0Z"/>
  </g>
  <g>
    <path class="st23" d="M479.3,471.7c2-5.5,2.7-11.5,3.9-17.2-8.3-5.4-16.7-10.8-25-16.2-7.3-3.6-14.6-5.1-22.6-1.9-4.2,1.7-8.8,2.6-13.3,3-19.2,1.6-29.2,12.8-33.9,30.7-2.9,11-5.7,22.6-15.2,30.4-15.8,12.9-32,25.4-47.8,38.2-18.1,14.6-36.2,29-53.9,44-23.4,19.8-43.9,42.6-63.6,66.1-13.1,15.6-13,31.5,1.9,45.9,5.4,5.2,12.3,8.9,18.5,13.2,1.9,1.1,3.8,2.3,5.8,3.4,1.1.2,2.3.4,3.4.6,3.5,1.3,7,2.6,10.5,3.9,1,.2,1.9.5,2.9.7.3,0,.7.3,1,.4.4,0,.9.2,1.3.3.9.4,1.7.8,2.6,1.2,3.1.9,6.1,1.9,9.2,2.8,1.5.6,3,1.2,4.6,1.9.7,0,1.4,0,2.1.2,2.7.8,5.5,1.7,8.2,2.5,3.8.9,7.6,1.8,11.3,2.7,1.3.4,2.7.8,4,1.2,1.7.3,3.4.6,5.1.9,3.1.6,6.1,1.3,9.2,1.9.4-3.5.9-6.9,1.3-10.4,1.3-21.6,6.1-42.5,12.9-62.9.5-3.3,1.1-6.6,1.6-9.9-4-1.4-7.9-2.8-13.5-4.8,5.6-5.1,10-9,14.4-13,1.2-10.6,2.5-21.2,3.8-32.2,7.4,1.4,14.4,2.7,21.3,3.9,17.6-21.2,35-42.6,52.9-63.5,5.6-6.5,12.9-10.5,22.1-11.1,10.7-.7,19.4-5.8,25.8-14.5,1.9-2.5,3.9-5,5.9-7.6.3.9.6,1.7.9,2.6,3.1-5,7.7-9,13.8-9.6v-2c-2.4.9-4.8,1.8-7.2,2.6-2.3.7-4.6,1.2-6.9,1.7-.1-2.3-.3-4.6-.5-7.9-1.1.6-2.9.9-3.9,2-4,4.8-8.6,5.2-14.1,3-1.3-.5-3.5-.6-4.6.1-10,6.2-13.1,5.5-18.2-3.8-4,4.6-7.8,9.8-12.4,14.2-1.5,1.5-4.9,1-7.5,1.4.9-2.2,1.1-5.1,2.7-6.5,8.1-7.4,11.6-17.1,15.1-27,.6-1.7,2.4-3,3.6-4.5,1.4,1.9,3.5,3.7,4.1,5.8,1,3.9.9,8.2,1.7,12.2,1,4.7,4.2,5.4,6.6,1.6,3.7-5.8,6.4-12.2,9.3-18.5.3-.7-.9-2.6-1.8-3.4-6.8-5.4-13.7-10.7-20.5-16-1-.8-2.6-1.3-3.1-2.3-.9-1.9-1.3-4.1-1.9-6.2,2,0,4.5-.6,6,.3,6.2,4,12.4,8,18.1,12.7,14,11.8,14.8,8.9,5.8,28.4-.5,1.2-1,2.4-2.4,5.5,3.5-.8,5.7-.8,7.4-1.8,1.8-1.1,3.2-2.9,4.5-4.7,9.6-12.9,8.9-18.2-3.8-27.8-5-3.8-10.3-7.1-15.2-11-1.3-1.1-1.6-3.5-2.3-5.3,1.8-.3,4.3-1.4,5.3-.7,9.4,6.8,19.5,13.1,27.3,21.4,3,3.2.9,11.4.7,17.3,0,2-1.7,3.9-2.4,5.4,3.7,3.7,7.1,7.1,10.4,10.5,2.2-2.1,4.4-4.1,6.6-6.2,1.2-3,2.2-6.2,2.9-9.5-3.4-1.7-4.4-4.4-2.9-8.7h.1ZM306.3,653.6c-9.2,10.1-18.4,20.1-27.9,30-1.1,1.1-3.8.7-5.7,1-.1-2-1.2-4.7-.3-5.7,10.1-11,20.5-21.8,30.9-32.5.7-.8,2.7-1.3,3.4-.9,1.1.7,1.7,2.3,2.5,3.6-1.1,1.7-1.8,3.4-3,4.6h.1Z"/>
    <path class="st19" d="M472.5,497.3c-2.4.9-4.8,1.8-7.2,2.6-2.3.7-4.6,1.2-6.9,1.7-.1-2.3-.3-4.6-.5-7.9-1.1.6-2.9.9-3.9,2-4,4.8-8.6,5.2-14.1,3-1.3-.5-3.5-.6-4.6.1-10,6.2-13.1,5.5-18.2-3.8-4,4.6-7.8,9.8-12.4,14.2-1.5,1.5-5,1-7.5,1.4.9-2.2,1.1-5.1,2.7-6.5,8.1-7.4,11.6-17.1,15.1-27,.6-1.7,2.4-3,3.6-4.5,1.4,1.9,3.5,3.7,4.1,5.8,1,3.9.9,8.2,1.7,12.2,1,4.7,4.2,5.4,6.6,1.6,3.7-5.8,6.4-12.2,9.3-18.5.3-.7-.9-2.6-1.8-3.4-6.8-5.4-13.7-10.7-20.5-16-1-.8-2.6-1.3-3.1-2.3-.9-1.9-1.3-4.1-1.9-6.2,2,0,4.5-.6,6,.3,6.2,4,12.4,8,18.1,12.7,14,11.8,14.8,8.9,5.8,28.4-.5,1.2-1,2.4-2.4,5.5,3.5-.8,5.7-.8,7.4-1.8,1.8-1.1,3.2-2.9,4.5-4.7,9.6-12.9,8.9-18.2-3.8-27.8-5-3.8-10.3-7.1-15.2-11-1.3-1.1-1.6-3.5-2.3-5.3,1.8-.3,4.3-1.4,5.3-.7,9.4,6.8,19.5,13.1,27.3,21.4,3,3.2.9,11.4.7,17.3,0,2-1.7,3.9-2.4,5.4,3.7,3.7,7.1,7.1,10.4,10.5,0,.4,0,.8-.2,1.2h.3Z"/>
  </g>
  <path class="st7" d="M793.6,117.8h-236.3c-23.7,0-43,19.2-43,43v139.2c0,23.7,19.2,43,43,43h80.2l-30.8,64.4,47.2-.6-55.3,71.7,121-90.4-69.5.5,36.2-45.5h107.4c23.7,0,43-19.2,43-43v-139.2c0-23.7-19.2-43-43-43h-.1Z"/>
  <g class="st16">
    <g class="st16">
      <g class="st16">
        <path d="M602.6,178.5h0c-.4,2.9-1.4,4.8-3.2,5.8-2.4,1-4.9,1.5-7.4,1.5-7.2,0-10.7-3.9-10.7-11.6v-3c0-.4,0-.9,0-1.7,0-.6,0-1,0-1.3-.2-6.8.1-12.3.9-16.3.6-1.7,1.3-2.9,2.1-3.5.8-.6,2-1,3.7-1.2.4,0,.8,0,1.2,0,1.4,0,2.5.3,3.1.9.3.3.8,1.1,1.5,2.4.6,2.2.9,5.1.9,8.5s-.2,5.4-.6,10c-.3,3.1-.3,4.8-.1,5,1.3-.6,2.9-1,4.8-1s.8,0,1,.2c1,.3,1.7,1.1,2.2,2.3.3.8.5,1.9.7,3.3h0Z"/>
        <path d="M633.9,177.5h0c-.9,2.8-2.4,4.9-4.6,6.5-2.2,1.6-4.8,2.4-7.7,2.4-5.4,0-9.5-2-12.5-6.1-2.5-3.4-3.8-7.6-3.8-12.5s.2-4.4.6-6.3c1.9-8.8,5.8-13.8,11.8-14.9.5-.1,1.1-.2,1.7-.2,2.7,0,5.3.9,7.9,2.7,2.5,1.8,4.3,4,5.1,6.5,1.9,5.6,2.8,9.9,2.8,13s-.5,5.6-1.5,8.8h0ZM621.3,173.9h0c1-.2,1.5-2.1,1.5-5.7s-.2-4-.6-5.7c-.4-1.7-.8-2.6-1.2-2.7-.7-.2-1.4.6-2,2.4-.6,1.8-.9,3.8-.9,6,0,4.1,1.1,6,3.2,5.6Z"/>
        <path d="M668.1,156.6h0c.3,3.9.5,7.6.5,11,0,10.7-1.8,16.7-5.3,18-.5.2-1.2.3-1.9.3s-1.9-.2-3.3-.5c-1.7-.9-4.3-6.4-7.7-16.2.6,2.6.9,5.2.9,7.7s-.4,5-1.2,6.7c-.4.8-1,1.4-2,2-1,.6-1.9.8-2.8.7-2.8-.3-4.7-2-5.7-5.1-.7-2.1-1-5.3-1-9.7,0-8.5.4-14.3,1.1-17.2.5-2.2,1.8-4,3.7-5.4,1.1-.8,2.4-1.2,3.7-1.2s1.5.1,2.2.4c2,1,3.9,4.2,5.8,9.4.8,2.1,1.5,4.6,2.2,7.4-.3-2.2-.6-4.2-.9-5.9-.4-3-.6-5.1-.6-6.5s.4-3,1.3-4.1c1-1.2,2.4-1.9,4.3-1.9,3.3,0,5.3,1.8,6.1,5.5.2.8.4,2.4.6,4.8Z"/>
        <path d="M698,155.5c.1.6.2,1.1.2,1.7,0,1.8-.4,3.2-1.1,4.2-1.1,1.6-2.9,2.3-5.2,2.2-2.1-.1-3.5-1.1-4.2-2.9v-1.4c0-.4-.2-.8-.5-1.1h-.3c-2.2,5.5-3.2,10.1-3.2,13.8s0,1.7,0,1.3c0,.5.3,1,.9,1.5,1.5-.1,2.4-.6,2.8-1.4.2-.5,0-.9-.6-1.3-.5,0-.9-.2-1-.3-.4-.2-.6-.4-.6-.8,0-.8.2-1.8.8-2.7l1.3-1c.3,0,1.2,0,2.7-.2,1.4-.1,2.4-.2,2.9-.2,2,0,3.4.5,4.4,1.5.6.9,1,2.2,1,3.8s-.4,3.8-1.1,5.7c-.8,2.2-2,4-3.4,5.5-1.7,1.7-3.6,2.7-5.6,2.9-1,.1-2,.2-2.7.2-3,0-5.6-1-7.9-2.9-1.6-1.3-2.9-3.4-3.8-6.1-.9-2.7-1.4-5.8-1.4-9.2s.8-8.9,2.3-12.7,3.6-6.7,6.1-8.3c1.8-.9,3.7-1.4,5.9-1.4s3.7.4,5.3,1.2c3.9,2.7,6.1,5.5,6.3,8.3h.1Z"/>
      </g>
    </g>
    <g class="st16">
      <g class="st16">
        <path d="M602.6,240.4h0c-.4,2.9-1.4,4.8-3.2,5.8-2.4,1-4.9,1.5-7.4,1.5-7.2,0-10.7-3.9-10.7-11.6v-3c0-.4,0-.9,0-1.7,0-.6,0-1,0-1.3-.2-6.8.1-12.3.9-16.3.6-1.7,1.3-2.9,2.1-3.5.8-.6,2-1,3.7-1.2.4,0,.8,0,1.2,0,1.4,0,2.5.3,3.1.9.3.3.8,1.1,1.5,2.4.6,2.2.9,5.1.9,8.5s-.2,5.4-.6,10c-.3,3.1-.3,4.8-.1,5,1.3-.6,2.9-1,4.8-1s.8,0,1,.2c1,.3,1.7,1.1,2.2,2.3.3.8.5,1.9.7,3.3h0Z"/>
        <path d="M633.9,239.4h0c-.9,2.8-2.4,4.9-4.6,6.5-2.2,1.6-4.8,2.4-7.7,2.4-5.4,0-9.5-2-12.5-6.1-2.5-3.4-3.8-7.6-3.8-12.5s.2-4.4.6-6.3c1.9-8.8,5.8-13.8,11.8-14.9.5-.1,1.1-.2,1.7-.2,2.7,0,5.3.9,7.9,2.7,2.5,1.8,4.3,4,5.1,6.5,1.9,5.6,2.8,9.9,2.8,13s-.5,5.6-1.5,8.8h0ZM621.3,235.8h0c1-.2,1.5-2.1,1.5-5.7s-.2-4-.6-5.7c-.4-1.7-.8-2.6-1.2-2.7-.7-.2-1.4.6-2,2.4-.6,1.8-.9,3.8-.9,6,0,4.1,1.1,6,3.2,5.6Z"/>
        <path d="M647.5,237.9h0c1.2-.3,1.8-.9,1.9-1.8,0-.3-.1-.7-.4-1-.3-.3-1.4-1-3.2-2.2-1.6-1-2.7-1.8-3.4-2.5-1-.9-1.9-2.2-2.7-3.8-1-2.1-1.6-4.3-1.6-6.5,0-3.2,1.2-6,3.7-8.5,2.8-2.8,6.1-4.1,9.9-4.1s4.2.5,6,1.6c1.1.7,2.3,1.9,3.6,3.7.5.8.8,1.6.9,2.3,0,.8-.4,1.9-1.2,3.1h0c-1.1,1.6-2.2,2.3-3.4,2.3s-1,0-1.7-.3c-1.1-.3-1.7-1.2-1.9-2.8,0-.6-.6-1-1.5-1s-.9.1-1.3.4c-.4.7-.6,1.3-.6,2,0,1.1.5,2.1,1.6,2.9,4,2.8,6.3,4.6,7,5.3,2.5,2.4,3.9,4.9,4,7.5,0,.6,0,1.5.2,2.6,0,4.4-2.6,7.7-7.9,10.2-2,.9-3.9,1.4-5.7,1.4s-.6,0-1.1-.1h-.1c-6.5-1.1-10-3.5-10.5-7.4-.1-.9-.2-1.5-.3-1.8s0-.5,0-.3c0-.9.3-1.7.8-2.4.5-.7,1.2-1,1.8-1s1.2.4,2.7,1.2c1.5.8,2.5,1.2,3.1,1.2s.5,0,.9-.1h0Z"/>
        <path d="M694.6,214.7h0c.1.5.2,1.2.2,2,0,1.7-.4,3-1.2,3.8-.3.3-1.7.7-4.1,1.2-2.4.5-3.7.8-3.7.9,0,.4.3,3.9,1.2,10.6.2,1.3.3,2.7.3,4,0,3.1-.4,5.6-1.2,7.6-1,2.5-2.5,3.7-4.5,3.6-3.2-.1-5.4-1.1-6.6-3-.9-1.4-1.4-3.7-1.5-6.7,0,.3,0-1.5.2-5.3l.3-6.5c.1-2,.4-3.8.7-5.3-.2,0-.5.1-.9.1-1.1,0-2.3-.2-3.4-.6-1.6-.5-2.6-1.2-3.2-2.2-.8-1.4-1.2-2.7-1.2-3.9,0-2,1.1-3.6,3.3-4.7,2.9-1.4,6.3-2.2,10.4-2.2s4.4.2,6.7.6c1.1.4,2.8,1,5.1,1.9,1.9,1,3,2.3,3.3,4Z"/>
      </g>
    </g>
    <g class="st16">
      <g class="st16">
        <path d="M608.7,298.1c-.3,3.7-1.7,6.5-4.2,8.4-1.3,1-3.7,2.1-7.1,3.4-1.5.3-3.1.4-4.7.4-4.8,0-8.2-1-10.3-3-.5-.6-.8-5.8-.8-15.3s.3-17.6.8-18.7c2.4-2,5.9-3,10.7-3s2.4,0,3.1.2c3.7.7,6.5,2.1,8.3,4.1,1.8,2,2.8,4.6,2.9,7.7-.3,1.8-1,3.3-2.2,4.5-.5.5-1.7,1.2-3.4,2.2,2.2.4,3.9,1.5,5.2,3.3,1.3,1.8,1.9,3.8,1.7,6ZM594.9,297.8h0c.2-.7.4-1.4.4-1.9,0-1.6-.5-2.3-1.6-2.3s-1.1.2-1.7.7c0,.4,0,1.2-.2,2.4-.2,1.4-.3,2.3-.3,2.6s0,.7.1,1.6c1-.1,1.8-.5,2.3-1.2.2-.3.5-.9.9-1.8ZM595.9,280.7h0c-.2-.8-.9-1.3-2.2-1.3s-.7,0-.8.1c-.2,0-.5.3-.7.7.2,2,.3,4.2,0,6.7l2.2-1.4c1-1.8,1.5-3.1,1.5-4s0-.4-.1-.8Z"/>
        <path d="M640.8,304.9h0c-.5,1-1.3,2-2.4,3.1-1.5,1.3-2.9,2.1-4.4,2.2-2.9.3-5.8-2.6-8.8-8.8.1.9.2,1.6.2,2.3,0,2.1-.5,3.7-1.5,4.9-1.6,1.1-3.1,1.6-4.7,1.6s-1.3,0-1.8-.2c-2-.5-3.3-1.1-3.9-1.9-.8-1-1.2-2.8-1.2-5.5v-2c-.1-.1,0-3.1.1-9,.2-6.7.6-11.8,1.2-15.3.4-2.5,2.2-4.3,5.4-5.2,1.5-.4,4.4-.9,8.8-1.3,5.2.2,8.7,1.9,10.6,5.2,1.4,3.3,2.2,6.3,2.1,9,0,2.8-.8,5.1-2.3,7-.2.3-1.2,1.2-2.9,2.7,3.8,4.1,5.7,7.6,5.7,10.3s0,.5-.1.9ZM626.4,281.4h0c-.2,0-.4-.1-.5-.1s-.7.2-1.6.7c-.1.1-.2,1-.2,2.6,0,1.9,0,3.6,0,5.3,1.3-.4,2.3-1.1,3.2-1.9.9-.8,1.3-1.7,1.3-2.6s-.8-2.6-2.4-3.9Z"/>
        <path d="M672.6,301.4h0c-.9,2.8-2.4,4.9-4.6,6.5-2.2,1.6-4.8,2.4-7.7,2.4-5.4,0-9.5-2-12.5-6.1-2.5-3.4-3.8-7.6-3.8-12.5s.2-4.4.6-6.3c1.9-8.8,5.8-13.8,11.8-14.9.5-.1,1.1-.2,1.7-.2,2.7,0,5.3.9,7.9,2.7,2.5,1.8,4.3,4,5.1,6.5,1.9,5.6,2.8,9.9,2.8,13s-.5,5.6-1.5,8.8h0ZM660,297.8h0c1-.2,1.5-2.1,1.5-5.7s-.2-4-.6-5.7c-.4-1.7-.8-2.6-1.2-2.7-.7-.2-1.4.6-2,2.4-.6,1.8-.9,3.8-.9,6,0,4.1,1.1,6,3.2,5.6Z"/>
        <path d="M704.9,276.7h0c.1.5.2,1.2.2,2,0,1.7-.4,3-1.2,3.8-.3.3-1.7.7-4.1,1.2-2.4.5-3.7.8-3.7.9,0,.4.3,3.9,1.2,10.6.2,1.3.3,2.7.3,4,0,3.1-.4,5.6-1.2,7.6-1,2.5-2.5,3.7-4.5,3.6-3.2-.1-5.4-1.1-6.6-3-.9-1.4-1.4-3.7-1.5-6.7,0,.3,0-1.5.2-5.3l.3-6.5c.1-2,.4-3.8.7-5.3-.2,0-.5.1-.9.1-1.1,0-2.3-.2-3.4-.6-1.6-.5-2.6-1.2-3.2-2.2-.8-1.4-1.2-2.7-1.2-3.9,0-2,1.1-3.6,3.3-4.7,2.9-1.4,6.3-2.2,10.4-2.2s4.4.2,6.7.6c1.1.4,2.8,1,5.1,1.9,1.9,1,3,2.3,3.3,4Z"/>
        <path d="M709,273.4h0c1.5-1.5,3.4-2.2,5.6-2.2s3.3.3,4.1.8c1,1,1.5,2.5,1.6,4.6-.2,1.7-.4,3.9-.5,6.6.4,1.5,1,2.2,1.8,2.2s.8-.2,1.4-.5c.4-.2.7-.9.9-2.1-.2-1.8-.3-4.2-.4-7.2.1-1.8,1.2-3.3,3.3-4.6.4-.2,1.4-.4,3-.5,1.2,0,2,0,2.4.1,1.5.4,2.5,1.6,3,3.4.2.6.4,1.1.6,1.7.3,1.1.5,2.2.5,3.4.2,4.7.3,8.3.3,10.6,0,5-.9,10.5-2.6,16.5-.5,1.9-2,3-4.5,3.5-1.6.3-2.8.2-3.7-.5-1.3-.8-2-2.2-2.2-4.2,0-.5,0-1.5.1-2.9.2-1.4.2-2.3.2-2.9-.2-.8-.8-1.3-1.7-1.3s-1.6.3-2.3,1c-.7.6-1,1.5-1,2.5.2.7.4,1.9.7,3.6.2,1.1.1,2-.2,2.6-.4.9-1.1,1.6-2,2-.6.3-1.7.4-3.3.4s-2.8-.5-3.8-1.6c-.8-.9-1.6-2.4-2.1-4.5-.7-2.3-1-4.9-1.1-7.7-.1-4.1-.2-7.6-.2-10.5,0-6.4.7-10.6,2-12.5Z"/>
        <path d="M762.1,285.7c.1.5.2,1,.2,1.6,0,1.8-.7,3.3-2.2,4.5-1.3,1.1-2.7,1.6-4.2,1.5-.3-.1-.8-.1-1.5,0,0,.4,0,1.5-.4,3.2,0,.8.4,1.4,1.1,1.8,1.4-.4,2.5-.4,3.4,0,1.4.5,2.1,1.5,2.3,2.7.2,1.5-.3,2.9-1.3,4.4-1,1.5-2.4,2.8-4.2,3.8-1.6.9-3.5,1.4-5.6,1.4s-3.6-.4-5.1-1.1c-.6-.3-1.6-1.2-2.9-2.8-1.4-2.3-2.1-7.1-2.1-14.5,0-4.2.3-9.1,1.1-14.6.4-3.2,1.3-5.2,2.7-6.2l8.4-.9c1.4-.3,2.8-.5,4.1-.5,2.6,0,4.2.7,4.7,2,.2.5.3,1.1.3,1.8,0,1.5-.5,2.6-1.6,3.5-1.1.9-2.6,1.4-4.5,1.4h-1.1c-.2.5-.4,1.3-.4,2.4,0,1.4-.1,2.2-.2,2.4.1.5.5.8,1.1.9,1-.8,2.2-1.2,3.7-1.2s3.2.8,4.3,2.4Z"/>
        <path d="M794.2,304.9h0c-.5,1-1.3,2-2.4,3.1-1.5,1.3-2.9,2.1-4.4,2.2-2.9.3-5.8-2.6-8.8-8.8.1.9.2,1.6.2,2.3,0,2.1-.5,3.7-1.5,4.9-1.6,1.1-3.1,1.6-4.7,1.6s-1.3,0-1.8-.2c-2-.5-3.3-1.1-3.9-1.9-.8-1-1.2-2.8-1.2-5.5v-2c-.1-.1,0-3.1.1-9,.2-6.7.6-11.8,1.2-15.3.4-2.5,2.2-4.3,5.4-5.2,1.5-.4,4.4-.9,8.8-1.3,5.2.2,8.7,1.9,10.6,5.2,1.5,3.3,2.2,6.3,2.1,9,0,2.8-.8,5.1-2.3,7-.2.3-1.2,1.2-2.9,2.7,3.8,4.1,5.7,7.6,5.7,10.3s0,.5-.1.9ZM779.7,281.4h0c-.2,0-.4-.1-.5-.1s-.7.2-1.6.7c-.1.1-.2,1-.1,2.6,0,1.9,0,3.6,0,5.3,1.3-.4,2.3-1.1,3.2-1.9.9-.8,1.3-1.7,1.3-2.6s-.8-2.6-2.4-3.9Z"/>
      </g>
    </g>
  </g>
  <path class="st20" d="M328.8,780.8c0-7,0-13.9-.1-20.9,0-2.5-.2-5-.2-7.5-.7-11.2-1.9-22.5-2.1-33.7-.4-23.2-.2-46.5-.3-69.7,0-2.3.2-4.7.1-7,0-3.6-.2-7.2-.3-10.8,1.2-10.6,2.5-21.2,3.8-32.2,7.4,1.4,14.4,2.7,21.3,3.9,13,1.8,25.9,4.5,38.9,5.1,32.3,1.5,64.5-.6,96.3-6.5,4.7-.9,9.3-2.6,14-3.9,6.6-.2,13.3-.6,19.9-.7h23.3c.4,5.5.9,11.1,1.3,16.6v7.6c-.5,15.8-1,31.7-1.5,47.5-.2,6.9-.6,13.8-1,20.8v14.3c0,3.5-.3,7-.4,10.4v1.3c-.3,12.2-.7,24.4-1,36.6,0,.5,0,.9-.2,1.4-.2.4-.3.7-.4,1.2v1.6c-.2,4.2-.4,8.5-.6,12.7-1.9,8.5-3.7,17.1-5.7,26-.9-.4-2.1-.7-3.2-1.3-17.9-9.5-35.8-19.2-53.8-28.5-8-4.1-16.2-3.3-20.2.8-4.2-.6-8.1-2.2-11.7-1.5-6.1,1.2-1.9,6.1-1.7,9.9-1.6-.5-2.6-.8-3.6-1.1-4-1.3-8.4-3.3-11,1.7-2.4,4.6,1,7.6,4.1,10.5,11.1,10.3,22.3,20.6,33.2,31.2,5.4,5.2,10.1,11.1,16.4,18.1-2.9-.7-3.9-1-5-1.2-11-2.2-22-4.6-33.1-6.4-2.9-.5-6.2,1.3-9.4,2.1,1.5,2.9,2.3,6.8,4.7,8.4,9.7,6.4,19.6,12.5,29.9,17.9,12.5,6.6,22.9,14.9,30.3,27.4,3.5,6,9.6,12.3,15.9,14.4,10.6,3.5,16.6,11.2,23.6,18.5-1.8,1.7-3.4,4.7-5.3,4.8-28,2-56,4.1-84,5-17.3.6-34.8-.9-52.1-1.4-3-.2-6-.3-9-.5-8.1-.9-16.1-1.9-24-2.8-.9,2.2-1.5,3.8-2.1,5.4.3-3.7-1.2-5.5-5-5.9-4.7-.5-9.4-1.7-14.1-1.9-5.9-.2-7.1-3.3-7.2-8.4-.7-19.7-1.6-39.3-2.6-59-1.2-22-2.7-44-4-66-.4-1.3-.8-2.7-1.1-4v-.3h0ZM456.8,760.4c-.2-.8-.3-1.5-.5-2.3-1.8.4-3.6.8-5.4,1.2.1.6.2,1.2.3,1.7,1.8-.2,3.7-.4,5.5-.7h.1ZM475.7,759.2h1.5v-3.6h-1.1c-.1,1.2-.3,2.4-.4,3.6ZM471.3,759.8l.3-.9c-1.2-.4-2.3-.8-3.5-1.2-.1.4-.2.8-.3,1.2,1.2.3,2.4.6,3.5.9Z"/>
</svg>