<?xml version="1.0" encoding="UTF-8"?>
<svg id="Layer_1" data-name="Layer 1" xmlns="http://www.w3.org/2000/svg" xmlns:xlink="http://www.w3.org/1999/xlink" viewBox="0 0 150 150">
  <defs>
    <style>
      .cls-1 {
        fill: #422a16;
      }

      .cls-2 {
        fill: #fff;
      }

      .cls-3 {
        fill: none;
      }

      .cls-4 {
        clip-path: url(#clippath-1);
      }

      .cls-5 {
        fill: #fec9a1;
      }

      .cls-6 {
        clip-path: url(#clippath-3);
      }

      .cls-7 {
        clip-path: url(#clippath-2);
      }

      .cls-8 {
        clip-path: url(#clippath);
      }

      .cls-9 {
        fill: #ed9b64;
      }
    </style>
    <clipPath id="clippath">
      <path class="cls-5" d="M44.81,85.49c-1.72-1.71-3.51-3.38-5.64-4.54-2.13-1.16-4.65-1.76-7-1.18-3.4.84-5.89,4.16-6.2,7.65-.31,3.49,1.33,6.99,3.89,9.37,2.56,2.39,5.96,3.75,9.41,4.33,1.89.32,3.87.42,5.7-.14s3.52-1.86,4.16-3.67"/>
    </clipPath>
    <clipPath id="clippath-1">
      <path class="cls-5" d="M111.89,84.07c1.72-1.71,3.51-3.38,5.64-4.54,2.13-1.16,4.65-1.76,7-1.18,3.4.84,5.89,4.16,6.2,7.65.31,3.49-1.33,6.99-3.89,9.37s-5.96,3.75-9.41,4.33c-1.89.32-3.87.42-5.7-.14-1.84-.56-3.52-1.86-4.16-3.67"/>
    </clipPath>
    <clipPath id="clippath-2">
      <circle class="cls-3" cx="60.49" cy="83.96" r="9.67"/>
    </clipPath>
    <clipPath id="clippath-3">
      <circle class="cls-3" cx="96.3" cy="83.96" r="9.67"/>
    </clipPath>
  </defs>
  <circle class="cls-2" cx="75" cy="75" r="75"/>
  <g>
    <g>
      <g>
        <g>
          <path class="cls-5" d="M44.81,85.49c-1.72-1.71-3.51-3.38-5.64-4.54-2.13-1.16-4.65-1.76-7-1.18-3.4.84-5.89,4.16-6.2,7.65-.31,3.49,1.33,6.99,3.89,9.37,2.56,2.39,5.96,3.75,9.41,4.33,1.89.32,3.87.42,5.7-.14s3.52-1.86,4.16-3.67"/>
          <g class="cls-8">
            <path class="cls-5" d="M44.81,85.49c-1.72-1.71-3.51-3.38-5.64-4.54-2.13-1.16-4.65-1.76-7-1.18-3.4.84-5.89,4.16-6.2,7.65-.31,3.49,1.33,6.99,3.89,9.37,2.56,2.39,5.96,3.75,9.41,4.33,1.89.32,3.87.42,5.7-.14s3.52-1.86,4.16-3.67"/>
            <path d="M46.44,100.69c-3.87-9.55-14.27-18.72-24.79-12.24-.67.42-.06,1.48.62,1.06,9.79-6.04,19.4,2.67,22.98,11.5.29.73,1.49.41,1.19-.33h0Z"/>
            <path d="M40.49,92.22c-2.44.22-4.62,1.34-6.15,3.27-.49.61.38,1.49.87.87,1.32-1.66,3.15-2.71,5.28-2.9.78-.07.79-1.3,0-1.23h0Z"/>
          </g>
        </g>
        <g>
          <path class="cls-5" d="M111.89,84.07c1.72-1.71,3.51-3.38,5.64-4.54,2.13-1.16,4.65-1.76,7-1.18,3.4.84,5.89,4.16,6.2,7.65.31,3.49-1.33,6.99-3.89,9.37s-5.96,3.75-9.41,4.33c-1.89.32-3.87.42-5.7-.14-1.84-.56-3.52-1.86-4.16-3.67"/>
          <g class="cls-4">
            <path class="cls-5" d="M111.89,84.07c1.72-1.71,3.51-3.38,5.64-4.54,2.13-1.16,4.65-1.76,7-1.18,3.4.84,5.89,4.16,6.2,7.65.31,3.49-1.33,6.99-3.89,9.37s-5.96,3.75-9.41,4.33c-1.89.32-3.87.42-5.7-.14-1.84-.56-3.52-1.86-4.16-3.67"/>
            <path d="M110.26,99.27c3.87-9.55,14.27-18.72,24.79-12.24.67.42.06,1.48-.62,1.06-9.79-6.04-19.4,2.67-22.98,11.5-.29.73-1.49.41-1.19-.33h0Z"/>
            <path d="M116.2,90.8c2.44.22,4.62,1.34,6.15,3.27.49.61-.38,1.49-.87.87-1.32-1.66-3.15-2.71-5.28-2.9-.78-.07-.79-1.3,0-1.23h0Z"/>
          </g>
        </g>
        <path class="cls-5" d="M119.77,36.26l-39.78-2.12-39.78,2.12s2.58,62.11,6.17,71.61c3.39,8.96,22.23,21.56,33.61,21.56s28.1-15.54,30.46-22.88c3.04-9.44,9.32-70.28,9.32-70.28Z"/>
        <g>
          <circle class="cls-2" cx="60.49" cy="83.96" r="9.67"/>
          <g class="cls-7">
            <circle class="cls-1" cx="62.04" cy="84.53" r="7.51"/>
          </g>
        </g>
        <g>
          <circle class="cls-2" cx="96.3" cy="83.96" r="9.67"/>
          <g class="cls-6">
            <circle class="cls-1" cx="94.75" cy="84.53" r="7.51"/>
          </g>
        </g>
        <path class="cls-9" d="M78.49,78.13c1.45.17,3.99,11.87,3.99,11.87,0,0,3.04,1.38,2.45,4.53s-4,5.61-7.96,2.99c-3.95-2.62-1.26-19.72,1.53-19.39Z"/>
        <g>
          <path d="M68.53,106.08c6.56,3.35,13.76,4.13,20.88,2.23.95-.25.55-1.73-.41-1.47-6.73,1.8-13.5,1.1-19.71-2.07-.87-.45-1.65.87-.77,1.32h0Z"/>
          <path d="M68.46,106.67c.36-.63.81-1.16,1.36-1.62.75-.64-.33-1.71-1.08-1.08-.64.55-1.18,1.2-1.6,1.93-.49.86.83,1.63,1.32.77h0Z"/>
        </g>
        <path class="cls-1" d="M43.07,83.83c-.42-.31-5.54-3.63-5.54-3.63-1.48-2.67-2.18-9.86-2.18-9.86,0,0-8.93-1.51-8.54-2.68.39-1.16,6.6-8.15,6.6-8.15,0,0-14.56-14.75-14.17-15.33s13-10.05,13-10.05c0,0-4.4-4.36-3.49-6.84.67-1.85,29.2-18.25,66.63-10.57,16.04,3.29,27.49,17.53,27.14,33.9-.36,16.8-6.87,33.06-8.29,33.2-2.33.24-2.29-30.59-2.29-30.59,0,0-10.28,3.43-11.43,2.67s-2.57-9.52-2.57-9.52c0,0-16.55,11.43-17.65,10.67-1.1-.76-3.39-12.19-3.39-12.19,0,0-15.32,17.52-18.51,16-3.2-1.52-7.55-7.62-7.55-7.62,0,0-3.84,33.47-7.74,30.59Z"/>
      </g>
      <path class="cls-1" d="M97.2,106.76c-5.2.55-7.38-4.24-15.37-5.85-7.4-1.5-14.08.89-18.3,2.93-1.87,1.16-3.47,1.46-4.69,1.48-6.29.07-12.77-7.54-15.81-19.04.73,9.76,1.46,19.52,2.2,29.27,2.31,3.01,5.64,6.72,10.25,10.25,6.34,4.85,12.53,7.41,16.83,8.78,1.12.32,2.9.73,5.12.73,2.29,0,4.04-.44,5.12-.73,9.4-2.56,14.56-3.97,19.03-8.05,3.52-3.21,4.92-6.56,7.32-12.44,5.36-13.17,7.1-27.21,5.12-27.81-2.39-.73-6.53,19.4-16.83,20.49Z"/>
      <polygon class="cls-2" points="67.03 109.31 88.31 109.31 77.67 117.74 67.03 109.31"/>
    </g>
    <path class="cls-1" d="M62.99,64.25c1.52-.2,3.05-.26,4.59-.06.68.09,1.38.24,1.93.64,2.2,1.62-1.79,3.18-2.98,3.62-2.87,1.08-6.12,1.89-9.32,1.56-2.47-.26-2.93-2.68-1.1-3.94.75-.52,1.69-.76,2.6-.98,1.4-.34,2.83-.66,4.28-.85Z"/>
    <path class="cls-1" d="M96.14,64.88c-1.52-.2-3.05-.26-4.59-.06-.68.09-1.38.24-1.93.64-2.2,1.62,1.79,3.18,2.98,3.62,2.87,1.08,6.12,1.89,9.32,1.56,2.47-.26,2.93-2.68,1.1-3.94-.75-.52-1.69-.76-2.6-.98-1.4-.34-2.83-.66-4.28-.85Z"/>
  </g>
</svg>