<?xml version="1.0" encoding="UTF-8"?>
<svg id="Layer_1" data-name="Layer 1" xmlns="http://www.w3.org/2000/svg" xmlns:xlink="http://www.w3.org/1999/xlink" viewBox="0 0 150 150">
  <defs>
    <style>
      .cls-1 {
        stroke: #020202;
        stroke-miterlimit: 10;
        stroke-width: 1.81px;
      }

      .cls-1, .cls-2 {
        fill: none;
      }

      .cls-3 {
        fill: #422a16;
      }

      .cls-4 {
        fill: #fff;
      }

      .cls-5 {
        clip-path: url(#clippath-1);
      }

      .cls-6 {
        fill: #fec9a1;
      }

      .cls-7 {
        clip-path: url(#clippath-3);
      }

      .cls-8 {
        fill-rule: evenodd;
      }

      .cls-8, .cls-9 {
        fill: #2d0276;
      }

      .cls-10 {
        clip-path: url(#clippath-2);
      }

      .cls-11 {
        fill: #4d4d4d;
        opacity: .39;
      }

      .cls-12 {
        clip-path: url(#clippath);
      }

      .cls-13 {
        fill: #ed9b64;
      }
    </style>
    <clipPath id="clippath">
      <path class="cls-2" d="M35.74,89.17c-1.81-1.79-3.69-3.56-5.93-4.77-2.24-1.22-4.89-1.85-7.36-1.24-3.57.88-6.19,4.38-6.52,8.04-.33,3.67,1.39,7.34,4.09,9.85,2.69,2.51,6.26,3.94,9.89,4.55,1.99.34,4.06.44,5.99-.15,1.93-.59,3.7-1.96,4.38-3.86"/>
    </clipPath>
    <clipPath id="clippath-1">
      <path class="cls-2" d="M106.24,86.17c1.81-1.79,3.69-3.56,5.93-4.77,2.24-1.22,4.89-1.85,7.36-1.24,3.57.88,6.19,4.38,6.52,8.04s-1.39,7.34-4.09,9.85c-2.69,2.51-6.26,3.94-9.89,4.55-1.99.34-4.06.44-5.99-.15-1.93-.59-3.7-1.96-4.38-3.86"/>
    </clipPath>
    <clipPath id="clippath-2">
      <circle class="cls-2" cx="52.53" cy="85.76" r="9.54"/>
    </clipPath>
    <clipPath id="clippath-3">
      <circle class="cls-2" cx="89.3" cy="85.04" r="9.54"/>
    </clipPath>
  </defs>
  <circle class="cls-4" cx="75" cy="75" r="75"/>
  <g>
    <g>
      <g>
        <g class="cls-12">
          <path class="cls-6" d="M35.74,89.17c-1.81-1.79-3.69-3.56-5.93-4.77-2.24-1.22-4.89-1.85-7.36-1.24-3.57.88-6.19,4.38-6.52,8.04-.33,3.67,1.39,7.34,4.09,9.85,2.69,2.51,6.26,3.94,9.89,4.55,1.99.34,4.06.44,5.99-.15,1.93-.59,3.7-1.96,4.38-3.86"/>
          <path d="M37.46,105.14c-4.07-10.04-14.99-19.67-26.05-12.86-.71.44-.06,1.56.65,1.12,10.29-6.34,20.39,2.8,24.15,12.08.31.76,1.56.43,1.25-.34h0Z"/>
          <path d="M31.21,96.24c-2.56.23-4.85,1.41-6.46,3.43-.51.65.4,1.57.92.92,1.39-1.75,3.31-2.85,5.54-3.05.82-.07.83-1.37,0-1.3h0Z"/>
        </g>
        <g class="cls-5">
          <path class="cls-6" d="M106.24,86.17c1.81-1.79,3.69-3.56,5.93-4.77,2.24-1.22,4.89-1.85,7.36-1.24,3.57.88,6.19,4.38,6.52,8.04s-1.39,7.34-4.09,9.85c-2.69,2.51-6.26,3.94-9.89,4.55-1.99.34-4.06.44-5.99-.15-1.93-.59-3.7-1.96-4.38-3.86"/>
          <path d="M104.52,102.15c4.07-10.04,14.99-19.67,26.05-12.86.71.44.06,1.56-.65,1.12-10.29-6.34-20.39,2.8-24.15,12.08-.31.76-1.56.43-1.25-.34h0Z"/>
          <path d="M110.77,93.25c2.56.23,4.85,1.41,6.46,3.43.51.65-.4,1.57-.92.92-1.39-1.75-3.31-2.85-5.54-3.05-.82-.07-.83-1.37,0-1.3h0Z"/>
        </g>
        <path class="cls-6" d="M114.52,37.44l-41.8-2.23-41.8,2.23s2.71,65.27,6.48,75.25c3.56,9.41,23.36,22.65,35.32,22.65s29.53-16.33,32.01-24.05c3.19-9.92,9.79-73.85,9.79-73.85Z"/>
        <path class="cls-13" d="M71.14,81.44c1.53.18,4.19,12.47,4.19,12.47,0,0,3.19,1.45,2.57,4.76-.62,3.31-4.21,5.9-8.36,3.14-4.15-2.76-1.33-20.73,1.6-20.37Z"/>
        <path d="M60.21,111.71c7.45,3,15.45,3.01,22.91.03.89-.36.5-1.81-.4-1.45-7.24,2.89-14.88,2.88-22.11-.03-.9-.36-1.29,1.1-.4,1.45h0Z"/>
        <path class="cls-13" d="M55.05,98.32c-2.43.78-4.89,1.03-7.42.76-.96-.1-.96,1.41,0,1.51,2.67.28,5.27,0,7.83-.82.92-.3.53-1.75-.4-1.45h0Z"/>
      </g>
      <g>
        <circle class="cls-4" cx="52.53" cy="85.76" r="9.54"/>
        <g class="cls-10">
          <circle class="cls-3" cx="53.36" cy="86.31" r="7.41"/>
        </g>
      </g>
      <g>
        <circle class="cls-4" cx="89.3" cy="85.04" r="9.54"/>
        <g class="cls-7">
          <circle class="cls-3" cx="88.46" cy="85.59" r="8.24"/>
        </g>
      </g>
    </g>
    <path d="M78.91,75.76c-.79,1.37-2.77,5.31-1.35,9.92,1.4,4.53,6.29,10.31,12.79,9.92,5.4-.33,9.22-4.76,10.43-8.5,1.68-5.17-1.45-9.45-2.02-10.2"/>
    <path class="cls-1" d="M108.94,85.76c-.44,1.37-1.11,2.32-1.94,2.94-8.98,6.74-40.48-20.67-58.07-37.03"/>
    <path class="cls-6" d="M42.01,93.81c2.98-.54,6.65-.96,10.83-.9,3.54.05,6.69.42,9.33.9v3.01h-20.16v-3.01Z"/>
    <path class="cls-9" d="M44.73,23.2c15.3,1,19.73-2.25,25.81-4.29,6.08-2.04,7.08-15.83,22.63-11.39,9.14,2.61,9.83,8.94,8.85,13.72-.4,1.96,1.53,3.53,3.29,2.68,7.72-3.73,18.57-5.62,26.09,4.25,9.58,12.57-9.57,25.78-9.57,25.78,0,0,2.1,4.06-.35,16.03-.64,3.13-1.68,5.47-2.87,7.25-1.9-1.96-4.56-3.19-7.51-3.19h-3.51v-9.16s0-3.32,0-3.32c0-3.38-.51-6.64-1.45-9.71-2.27.1-5.27-.25-8.55.11-16.98,1.85-47.96,5.62-50.93-2.37,0,0-1.92,17.15-9.06,24.46h-1.87s-2.41,0-2.41,0c-3.64,0-6.83,1.73-8.81,4.37-.75-.99-1.35-2.12-1.69-3.37l-.03-.11-2.91-12.13c-4.5-26.37,9.53-40.59,24.82-39.59Z"/>
    <path class="cls-9" d="M118.58,81.02c.31-.61.76-1.55,1.2-2.73.76-2.04,1.07-4.27,1.66-7.35,1.32-6.98.9-12.9.3-16.85,2.25-1.58,5.6-4.35,8.43-8.73,2.19-3.39,4.11-6.36,3.91-10.23-.31-6.15-5.77-11.02-10.53-12.94-3.71-1.5-10.73-2.71-14.74.3-.72.54-2.01,1.71-3.61,1.5-1.16-.15-2.16-.99-3.31-2.71-3.04-4.55-1.67-7.11-3.91-10.23-2.35-3.28-6.43-4.02-7.52-4.21-5.21-.94-9.25,1.68-10.83,2.71-3.97,2.58-5.85,6.11-6.62,7.82-3.95,2.01-10,4.51-17.75,5.42-3.65.42-4.43.12-8.43.6-5.73.69-13.59,1.64-18.96,5.72-6.99,5.3-8.01,14.57-8.73,21.06-1.66,15.07,4.12,27.22,7.52,33.1,2.41,1.4,4.81,2.81,7.22,4.21,1.69-5.04,3.34-11.27,4.36-18.51,1.06-7.48,1.16-14.12.9-19.56,10.74,3.39,19.96,4.48,26.48,4.81,9.27.48,13.91.71,19.56-.9,2.92-.84,6-2.1,10.83-2.41,4.3-.28,7.87.34,10.23.9.9,11.33,1.81,22.67,2.71,34,.14-.45,1.04-3.14,3.91-4.51,2.72-1.3,5.24-.47,5.72-.3Z"/>
    <path class="cls-11" d="M34.48,88.1c-.09,4.92.18,12.27,2.11,21.06.54,2.47.81,3.71,1.2,4.81,4.51,12.73,19.27,19.27,30.39,20.76,2.32.31,4.72.63,7.82.3,17.52-1.86,27.35-21.19,29.19-24.97,1.2-7.52,2.41-15.04,3.61-22.57-.8,2.28-4.61,12.26-15.2,17.3-5.8,2.76-11.2,2.88-14.14,2.71-3.24.26-7.81.43-13.25,0-8.02-.64-13.83-1.1-19.54-4.51-6.63-3.96-10.25-10.15-12.19-14.89Z"/>
    <path class="cls-8" d="M72.58,106.42c-6.62,9.25-15.52,10.92-26.71,5.01,4.8.35,8.79-1.76,11.95-6.33,5.39-8.03,10.31-7.59,14.76,1.32,4.33-8.9,9.22-9.34,14.67-1.32,3.1,4.57,7.06,6.68,11.86,6.33-11.07,5.92-19.91,4.25-26.53-5.01"/>
    <path class="cls-9" d="M53.65,69.05c1.54.32,3.06.78,4.49,1.49.63.32,1.26.7,1.66,1.28,1.59,2.31-2.81,2.49-4.12,2.52-3.16.08-6.59-.22-9.59-1.62-2.32-1.08-1.95-3.59.26-4.2.9-.25,1.89-.17,2.86-.08,1.48.14,2.98.31,4.45.62Z"/>
    <path class="cls-9" d="M92.43,66.78c1.57.13,3.13.4,4.63.93.66.24,1.34.54,1.8,1.06,1.87,2.1-2.49,2.81-3.78,3-3.12.47-6.57.59-9.72-.44-2.43-.79-2.37-3.33-.26-4.2.87-.36,1.86-.4,2.83-.43,1.49-.04,2.99-.05,4.49.07Z"/>
  </g>
</svg>