<?xml version="1.0" encoding="UTF-8"?>
<svg id="Layer_1" data-name="Layer 1" xmlns="http://www.w3.org/2000/svg" xmlns:xlink="http://www.w3.org/1999/xlink" viewBox="0 0 150 150">
  <defs>
    <style>
      .cls-1 {
        fill: #422a16;
      }

      .cls-2 {
        fill: #fff;
      }

      .cls-3 {
        fill: none;
      }

      .cls-4 {
        clip-path: url(#clippath-1);
      }

      .cls-5 {
        fill: #de946c;
      }

      .cls-5, .cls-6, .cls-7 {
        fill-rule: evenodd;
      }

      .cls-8, .cls-6 {
        fill: #b6b7b4;
      }

      .cls-9 {
        fill: #fec9a1;
      }

      .cls-10 {
        clip-path: url(#clippath-3);
      }

      .cls-11 {
        clip-path: url(#clippath-2);
      }

      .cls-12 {
        opacity: .58;
      }

      .cls-13 {
        clip-path: url(#clippath);
      }

      .cls-14 {
        fill: #ed9b64;
      }

      .cls-7 {
        fill: #ff7e5f;
      }
    </style>
    <clipPath id="clippath">
      <path class="cls-3" d="M43.28,88.63c-1.81-1.79-3.69-3.56-5.93-4.77-2.24-1.22-4.89-1.85-7.36-1.24-3.57.88-6.18,4.38-6.51,8.04-.33,3.67,1.39,7.34,4.09,9.85,2.69,2.51,6.26,3.94,9.89,4.55,1.99.34,4.06.44,5.99-.15,1.93-.59,3.7-1.96,4.38-3.86"/>
    </clipPath>
    <clipPath id="clippath-1">
      <path class="cls-3" d="M113.76,87.13c1.81-1.79,3.69-3.56,5.93-4.77,2.24-1.22,4.89-1.85,7.36-1.24,3.57.88,6.18,4.38,6.51,8.04.33,3.67-1.39,7.34-4.09,9.85-2.69,2.51-6.26,3.94-9.89,4.55-1.99.34-4.06.44-5.99-.15-1.93-.59-3.7-1.96-4.38-3.86"/>
    </clipPath>
    <clipPath id="clippath-2">
      <circle class="cls-3" cx="60.05" cy="85.21" r="9.54"/>
    </clipPath>
    <clipPath id="clippath-3">
      <circle class="cls-3" cx="96.82" cy="84.49" r="9.54"/>
    </clipPath>
  </defs>
  <g>
    <circle class="cls-2" cx="75" cy="75" r="75"/>
    <g>
      <g>
        <g class="cls-13">
          <path class="cls-9" d="M43.28,88.63c-1.81-1.79-3.69-3.56-5.93-4.77-2.24-1.22-4.89-1.85-7.36-1.24-3.57.88-6.18,4.38-6.51,8.04-.33,3.67,1.39,7.34,4.09,9.85,2.69,2.51,6.26,3.94,9.89,4.55,1.99.34,4.06.44,5.99-.15,1.93-.59,3.7-1.96,4.38-3.86"/>
          <path d="M44.99,104.6c-4.07-10.04-14.99-19.67-26.05-12.86-.71.44-.06,1.56.65,1.12,10.29-6.34,20.38,2.8,24.14,12.08.31.76,1.56.43,1.25-.34h0Z"/>
          <path d="M38.74,95.7c-2.56.23-4.85,1.41-6.46,3.43-.51.65.4,1.57.92.92,1.38-1.75,3.31-2.85,5.54-3.05.82-.07.83-1.37,0-1.29h0Z"/>
        </g>
        <g class="cls-4">
          <path class="cls-9" d="M113.76,87.13c1.81-1.79,3.69-3.56,5.93-4.77,2.24-1.22,4.89-1.85,7.36-1.24,3.57.88,6.18,4.38,6.51,8.04.33,3.67-1.39,7.34-4.09,9.85-2.69,2.51-6.26,3.94-9.89,4.55-1.99.34-4.06.44-5.99-.15-1.93-.59-3.7-1.96-4.38-3.86"/>
          <path d="M112.04,103.11c4.07-10.04,14.99-19.67,26.05-12.86.71.44.06,1.56-.65,1.12-10.29-6.34-20.38,2.8-24.14,12.08-.31.76-1.56.43-1.25-.34h0Z"/>
          <path d="M118.29,94.21c2.56.23,4.85,1.41,6.46,3.43.51.65-.4,1.57-.92.92-1.38-1.75-3.31-2.85-5.54-3.05-.82-.07-.83-1.37,0-1.29h0Z"/>
        </g>
        <path class="cls-9" d="M122.04,36.9l-41.8-2.23-41.8,2.23s2.71,65.26,6.48,75.24c3.56,9.41,23.36,22.65,35.31,22.65s29.53-16.33,32.01-24.04c3.19-9.92,9.79-73.85,9.79-73.85Z"/>
        <path class="cls-14" d="M78.67,80.89c1.53.18,4.19,12.47,4.19,12.47,0,0,3.19,1.45,2.57,4.76-.62,3.31-4.21,5.9-8.36,3.14s-1.33-20.72,1.6-20.37Z"/>
        <path class="cls-8" d="M41.46,86.89c-.44-.33-5.83-3.82-5.83-3.82-1.55-2.81-2.29-10.36-2.29-10.36,0,0-9.38-1.59-8.97-2.81s6.93-8.56,6.93-8.56c0,0-15.29-15.5-14.89-16.11.41-.61,40.67-36.91,80-28.84,16.85,3.46,28.88,18.42,28.51,35.62-.38,17.65-7.22,34.74-8.71,34.89-2.45.25-4.98-38.25-4.98-38.25,0,0,1.2,10.27,0,9.47-1.2-.8-11.15-15.38-11.15-15.38,0,0-28.25,9.21-29.41,8.41s4.31-8.41,4.31-8.41c0,0-19.53,14.57-22.89,12.97-3.36-1.6-4.26-8.23-4.26-8.23,0,0-2.26,42.46-6.37,39.43Z"/>
        <path class="cls-14" d="M90.42,96.83c2.55.82,5.16,1.1,7.82.82.96-.1.97-1.61,0-1.51-2.54.27-4.99.02-7.42-.76-.93-.3-1.32,1.16-.4,1.45h0Z"/>
        <path class="cls-14" d="M65.58,95.37c-2.43.78-4.89,1.03-7.42.76-.96-.1-.96,1.41,0,1.51,2.67.28,5.27,0,7.82-.82.92-.3.53-1.75-.4-1.45h0Z"/>
        <path d="M67.74,111.16c7.45,3,15.45,3.01,22.91.03.89-.36.5-1.81-.4-1.45-7.24,2.89-14.88,2.88-22.11-.03-.9-.36-1.29,1.1-.4,1.45h0Z"/>
      </g>
      <g>
        <circle class="cls-2" cx="60.05" cy="85.21" r="9.54"/>
        <g class="cls-11">
          <circle class="cls-1" cx="60.89" cy="85.77" r="7.41"/>
        </g>
      </g>
      <g>
        <circle class="cls-2" cx="96.82" cy="84.49" r="9.54"/>
        <g class="cls-10">
          <circle class="cls-1" cx="95.99" cy="85.05" r="7.41"/>
        </g>
      </g>
      <path class="cls-7" d="M107.86,74.84c-3.01-3.02-6.68-4.53-10.99-4.53s-7.97,1.5-10.99,4.53c-2.5,2.55-3.95,5.51-4.38,8.89l-5.9.09c-.42-3.41-1.9-6.41-4.47-8.99-3.07-3.02-6.73-4.53-10.99-4.53s-7.89,1.51-10.91,4.53c-3.02,3.07-4.53,6.73-4.53,10.99s1.51,7.98,4.53,10.99c3.02,3.02,6.65,4.53,10.91,4.53s7.92-1.51,10.99-4.53c2.98-2.93,4.5-6.47,4.59-10.62h5.65c.08,4.14,1.59,7.69,4.51,10.63,3.02,3.01,6.69,4.53,10.99,4.53s7.98-1.52,10.99-4.53c3.07-3.02,4.61-6.69,4.61-10.99s-1.54-7.92-4.61-10.99M69.34,95.12c-2.53,2.53-5.63,3.8-9.29,3.8s-6.73-1.27-9.37-3.8c-2.53-2.64-3.8-5.76-3.8-9.37s1.27-6.76,3.8-9.29c2.64-2.64,5.76-3.96,9.37-3.96s6.76,1.32,9.29,3.96c2.64,2.53,3.96,5.63,3.96,9.29s-1.32,6.73-3.96,9.37M106.16,95.12c-2.63,2.52-5.74,3.8-9.29,3.8s-6.84-1.28-9.37-3.8c-2.63-2.65-3.96-5.77-3.96-9.37s1.32-6.77,3.96-9.29c2.54-2.65,5.66-3.96,9.37-3.96s6.66,1.31,9.29,3.96c2.54,2.52,3.8,5.62,3.8,9.29s-1.26,6.72-3.8,9.37"/>
      <path class="cls-6" d="M80.11,105.87c-6.62,9.25-15.52,10.92-26.71,5.01,4.8.35,8.79-1.76,11.95-6.33,5.39-8.02,10.31-7.59,14.76,1.32,4.33-8.9,9.22-9.34,14.67-1.32,3.1,4.57,7.06,6.68,11.86,6.33-11.07,5.91-19.91,4.24-26.53-5.01"/>
      <g class="cls-12">
        <path class="cls-5" d="M62.89,61.03l31.95-.89s-7.73,4.01-16.35,4.01-15.6-3.12-15.6-3.12"/>
        <path class="cls-5" d="M67.83,66.7l23.05-.34s-5.67,3.88-11.88,3.73c-6.21-.15-11.17-3.39-11.17-3.39"/>
      </g>
    </g>
  </g>
  <path class="cls-8" d="M98.47,63.02c-1.79-.24-3.6-.31-5.42-.07-.8.11-1.63.29-2.28.76-2.6,1.91,2.12,3.75,3.52,4.27,3.39,1.27,7.23,2.23,11,1.84,2.91-.3,3.46-3.16,1.29-4.65-.89-.61-1.99-.89-3.07-1.15-1.66-.4-3.34-.77-5.05-1Z"/>
  <path class="cls-8" d="M58.18,63.6c-1.72.55-3.39,1.26-4.93,2.25-.68.44-1.35.95-1.73,1.66-1.53,2.83,3.51,2.49,5.01,2.37,3.61-.29,7.49-1.06,10.73-3.03,2.51-1.52,1.78-4.34-.81-4.76-1.06-.17-2.18.04-3.27.26-1.67.34-3.35.72-4.99,1.25Z"/>
</svg>