<?xml version="1.0" encoding="UTF-8"?>
<svg id="Layer_1" data-name="Layer 1" xmlns="http://www.w3.org/2000/svg" xmlns:xlink="http://www.w3.org/1999/xlink" viewBox="0 0 150 150">
  <defs>
    <style>
      .cls-1 {
        fill: #422a16;
      }

      .cls-2 {
        fill: #fff;
      }

      .cls-3 {
        fill: none;
      }

      .cls-4 {
        fill: #c4b7ea;
      }

      .cls-5 {
        clip-path: url(#clippath-1);
      }

      .cls-6 {
        fill: #b6b7b4;
      }

      .cls-7 {
        fill: #fec9a1;
      }

      .cls-8 {
        clip-path: url(#clippath-3);
      }

      .cls-9 {
        clip-path: url(#clippath-2);
      }

      .cls-10 {
        clip-path: url(#clippath);
      }

      .cls-11 {
        fill: #ed9b64;
      }
    </style>
    <clipPath id="clippath">
      <path class="cls-3" d="M43.88,96.83c-1.54-1.53-3.15-3.03-5.05-4.07-1.91-1.04-4.17-1.58-6.28-1.05-3.05.75-5.28,3.73-5.56,6.86-.28,3.13,1.19,6.26,3.49,8.4,2.3,2.14,5.34,3.36,8.43,3.88,1.7.29,3.47.38,5.11-.13s3.15-1.67,3.73-3.29"/>
    </clipPath>
    <clipPath id="clippath-1">
      <path class="cls-3" d="M104.01,94.27c1.54-1.53,3.15-3.03,5.05-4.07,1.91-1.04,4.17-1.58,6.28-1.05,3.05.75,5.28,3.73,5.56,6.86.28,3.13-1.19,6.26-3.49,8.4s-5.34,3.36-8.43,3.88c-1.7.29-3.47.38-5.11-.13-1.65-.5-3.15-1.67-3.73-3.29"/>
    </clipPath>
    <clipPath id="clippath-2">
      <circle class="cls-3" cx="58.2" cy="93.92" r="8.14"/>
    </clipPath>
    <clipPath id="clippath-3">
      <circle class="cls-3" cx="89.56" cy="93.3" r="8.14"/>
    </clipPath>
  </defs>
  <circle class="cls-2" cx="75" cy="75" r="75"/>
  <path class="cls-6" d="M98.47,63.02c-1.79-.24-3.6-.31-5.42-.07-.8.11-1.63.29-2.28.76-2.6,1.91,2.12,3.75,3.52,4.27,3.39,1.27,7.23,2.23,11,1.84,2.91-.3,3.46-3.16,1.29-4.65-.89-.61-1.99-.89-3.07-1.15-1.66-.4-3.34-.77-5.05-1Z"/>
  <path class="cls-6" d="M58.18,63.6c-1.72.55-3.39,1.26-4.93,2.25-.68.44-1.35.95-1.73,1.66-1.53,2.83,3.51,2.49,5.01,2.37,3.61-.29,7.49-1.06,10.73-3.03,2.51-1.52,1.78-4.34-.81-4.76-1.06-.17-2.18.04-3.27.26-1.67.34-3.35.72-4.99,1.25Z"/>
  <g>
    <path class="cls-4" d="M46.71,91.12s-10.32,6.81-14.78,1.92c-4.46-4.88,2.58-9.58,5.72-6.54,3.13,3.04-8.08.94-9.31-3.52-1.22-4.46,5.48-2.03,5.48-2.03,0,0-7.98-1.68-7.42-5.1.56-3.42,6.38.2,6.38.2,0,0-14.16-9.4-10.6-19.53,3.56-10.13,15.81.12,15.81.12,0,0-6.68-7.24-5.07-9.59,1.61-2.35,7.45,6.97,7.45,6.97,0,0-10.5-12.22-3.2-21.27,7.3-9.05,18.64,7.77,18.64,7.77,0,0-8.5-13-4.96-16.04,3.54-3.04,10.58,13.26,10.58,13.26,0,0-11.2-15.86-.88-21.53,10.32-5.67,19.14,11.68,17.02,18.34-2.12,6.66-5.21-21.62,6.07-20.75,11.28.87,30.19,19.34,23.58,36.43,0,0,.68-18.66,4.65-16.56,3.97,2.1,5.76,17.06-1.16,24.27-6.92,7.2-.78-2.57-.78-2.57,0,0,8.25-11.47,15.53-2.36,7.28,9.11-4.17,18.77-9.17,19.58-5.01.82,9.89-5.28,11.86-2.39,1.97,2.89-8.41,5.96-8.41,5.96,0,0,7.82,1.13,7.18,7.33-.64,6.2-9.87,15.37-18.12,15.77-8.25.4-62.09-8.15-62.09-8.15Z"/>
    <path class="cls-7" d="M68.57,51.42c-15.23,1.81-24.94,10.86-28.06,14.03-.05-.05-.1-.09-.15-.14.89,16.95,2.69,45.66,4.93,51.57,3.04,8.03,19.92,19.32,30.12,19.32s25.19-13.93,27.3-20.51c1.82-5.65,4.94-31.87,6.8-48.65-2.22-2.36-18.04-18.35-40.95-15.63Z"/>
    <g class="cls-10">
      <path class="cls-7" d="M43.88,96.83c-1.54-1.53-3.15-3.03-5.05-4.07-1.91-1.04-4.17-1.58-6.28-1.05-3.05.75-5.28,3.73-5.56,6.86-.28,3.13,1.19,6.26,3.49,8.4,2.3,2.14,5.34,3.36,8.43,3.88,1.7.29,3.47.38,5.11-.13s3.15-1.67,3.73-3.29"/>
      <path d="M45.35,110.45c-3.47-8.56-12.79-16.78-22.22-10.97-.6.37-.05,1.33.56.95,8.77-5.41,17.39,2.39,20.6,10.31.26.65,1.33.37,1.07-.29h0Z"/>
      <path d="M40.02,102.86c-2.18.2-4.14,1.2-5.51,2.93-.44.55.34,1.34.78.78,1.18-1.49,2.83-2.43,4.73-2.6.7-.06.71-1.17,0-1.1h0Z"/>
    </g>
    <g class="cls-5">
      <path class="cls-7" d="M104.01,94.27c1.54-1.53,3.15-3.03,5.05-4.07,1.91-1.04,4.17-1.58,6.28-1.05,3.05.75,5.28,3.73,5.56,6.86.28,3.13-1.19,6.26-3.49,8.4s-5.34,3.36-8.43,3.88c-1.7.29-3.47.38-5.11-.13-1.65-.5-3.15-1.67-3.73-3.29"/>
      <path d="M102.55,107.9c3.47-8.56,12.79-16.78,22.22-10.97.6.37.05,1.33-.56.95-8.77-5.41-17.39,2.39-20.6,10.31-.26.65-1.33.37-1.07-.29h0Z"/>
      <path d="M107.88,100.3c2.18.2,4.14,1.2,5.51,2.93.44.55-.34,1.34-.78.78-1.18-1.49-2.83-2.43-4.73-2.6-.7-.06-.71-1.17,0-1.1h0Z"/>
    </g>
    <path class="cls-11" d="M74.08,90.23c1.3.16,3.57,10.64,3.57,10.64,0,0,2.72,1.23,2.19,4.06s-3.59,5.03-7.13,2.68c-3.54-2.35-1.13-17.68,1.37-17.38Z"/>
    <path d="M64.75,116.05c6.35,2.56,13.18,2.57,19.54.03.76-.3.43-1.55-.34-1.24-6.18,2.46-12.69,2.45-18.86-.03-.77-.31-1.1.93-.34,1.24h0Z"/>
    <path class="cls-11" d="M60.35,104.63c-2.07.67-4.17.88-6.33.65-.82-.09-.82,1.2,0,1.29,2.27.24,4.5,0,6.67-.7.78-.25.45-1.5-.34-1.24h0Z"/>
    <path class="cls-11" d="M93.88,103.27c-2.07.67-4.17.88-6.33.65-.82-.09-.82,1.2,0,1.29,2.27.24,4.5,0,6.67-.7.78-.25.45-1.5-.34-1.24h0Z"/>
    <g>
      <circle class="cls-2" cx="58.2" cy="93.92" r="8.14"/>
      <g class="cls-9">
        <circle class="cls-1" cx="58.91" cy="94.39" r="7.02"/>
      </g>
    </g>
    <g>
      <circle class="cls-2" cx="89.56" cy="93.3" r="8.14"/>
      <g class="cls-8">
        <circle class="cls-1" cx="88.85" cy="93.77" r="7.02"/>
      </g>
    </g>
    <path class="cls-4" d="M95.88,70.19c1.79.59,3.52,1.35,5.12,2.41.7.46,1.4,1.01,1.79,1.75,1.57,2.98-3.69,2.56-5.25,2.41-3.77-.35-7.8-1.2-11.17-3.28-2.6-1.61-1.81-4.55.9-4.96,1.11-.17,2.28.07,3.41.31,1.74.38,3.49.79,5.2,1.36Z"/>
    <path class="cls-4" d="M60.56,77.65c1.88.15,3.74.47,5.55,1.11.79.28,1.6.65,2.16,1.27,2.23,2.52-2.98,3.36-4.53,3.6-3.74.56-7.86.7-11.63-.52-2.91-.95-2.84-3.98-.31-5.03,1.04-.43,2.23-.48,3.39-.51,1.78-.05,3.58-.06,5.37.08Z"/>
    <path class="cls-4" d="M77.05,108.25s-14.1-6.69-17.08,4.52c-2.98,11.21,6.87,3.98,3.62,3.25,0,0-1.54,4.25,3.07,4.88,4.61.63,4.79-4.16,4.79-4.16l-1.63.18s-.81,4.34,1.08,4.52,2.08-3.8,2.08-3.8c0,0-.36,3.62,2.17,3.62s2.08-3.71,2.08-3.71c0,0-.36,3.71,3.43,3.43,3.8-.27,3.71-4.79,3.71-4.79,0,0-1.27,3.89.18,3.89s1.36-3.43,1.36-3.43c0,0,.54,3.53,1.9,3.34,1.36-.18,4.52-8.23-.09-10.94-4.61-2.71-10.67-.81-10.67-.81Z"/>
  </g>
</svg>