<?xml version="1.0" encoding="UTF-8"?>
<svg id="Layer_1" data-name="Layer 1" xmlns="http://www.w3.org/2000/svg" xmlns:xlink="http://www.w3.org/1999/xlink" viewBox="0 0 150 150">
  <defs>
    <style>
      .cls-1 {
        fill: #942725;
      }

      .cls-2 {
        fill: #fff;
      }

      .cls-3 {
        opacity: .4;
      }

      .cls-4, .cls-5, .cls-6, .cls-7, .cls-8, .cls-9 {
        fill: none;
      }

      .cls-10 {
        fill: #7d211f;
      }

      .cls-11 {
        fill: #ff4354;
      }

      .cls-12 {
        fill: #fbbd00;
      }

      .cls-13 {
        fill: #e83644;
      }

      .cls-14 {
        fill: #333;
      }

      .cls-5 {
        stroke: #4c527f;
        stroke-linecap: round;
        stroke-linejoin: round;
        stroke-width: .29px;
      }

      .cls-15 {
        fill: #42c5e5;
      }

      .cls-6 {
        stroke-width: .7px;
      }

      .cls-6, .cls-7, .cls-8, .cls-9 {
        stroke-miterlimit: 10;
      }

      .cls-6, .cls-8 {
        stroke: #942725;
      }

      .cls-16 {
        fill: #fed82e;
      }

      .cls-7 {
        stroke: #fff;
        stroke-width: .61px;
      }

      .cls-17 {
        fill: #36f;
      }

      .cls-8 {
        stroke-width: .65px;
      }

      .cls-18 {
        fill: #206cb6;
      }

      .cls-19 {
        clip-path: url(#clippath);
      }

      .cls-9 {
        stroke: #e83644;
        stroke-width: 1.59px;
      }
    </style>
    <clipPath id="clippath">
      <rect class="cls-4" x="72.23" y="62.94" width="43.25" height="37.97"/>
    </clipPath>
  </defs>
  <g>
    <path class="cls-11" d="M93.58,23.24c-5.66,2.31-15.11,5.36-27.14,5.49-12.83.13-22.88-3.12-28.66-5.49v-5.79c4.43-2.5,14.32-7.28,27.75-7.32,13.6-.04,23.62,4.82,28.05,7.32v5.79Z"/>
    <rect class="cls-11" x="37.78" y="17.44" width="55.8" height="5.79"/>
    <rect class="cls-11" x="44.72" y="26.21" width="41.39" height="96.51"/>
    <rect class="cls-13" x="42.89" y="25.29" width="45.74" height="4.8" rx="1.14" ry="1.14"/>
    <rect class="cls-9" x="47.69" y="32.38" width="35.22" height="88.73"/>
    <g>
      <path class="cls-14" d="M43.14,117.92h44.31c.77,0,1.4.63,1.4,1.4v20.56h-47.11v-20.56c0-.77.63-1.4,1.4-1.4Z"/>
      <line class="cls-5" x1="41.74" y1="120.22" x2="88.85" y2="120.22"/>
    </g>
    <rect class="cls-9" x="51.81" y="36.73" width="28.36" height="10.75"/>
    <rect class="cls-1" x="53.44" y="38.82" width="25.09" height="6.57"/>
    <rect class="cls-10" x="53.44" y="38.82" width="25.09" height="3.4"/>
    <rect class="cls-7" x="75.57" y="70.19" width="4.8" height="12.58"/>
    <g>
      <circle class="cls-2" cx="77.97" cy="74.23" r="1.07"/>
      <polygon class="cls-2" points="79.28 79.8 76.65 79.8 77.57 74.46 78.37 74.46 79.28 79.8"/>
    </g>
    <g class="cls-3">
      <line class="cls-8" x1="38.39" y1="18.51" x2="92.97" y2="18.51"/>
      <g>
        <rect class="cls-8" x="40.45" y="18.51" width="1.3" height="2.82"/>
        <rect class="cls-8" x="43.57" y="18.51" width="1.75" height="2.82"/>
        <rect class="cls-8" x="47.15" y="18.51" width="2.97" height="2.82"/>
        <rect class="cls-8" x="51.96" y="18.51" width="3.89" height="2.82"/>
        <rect class="cls-8" x="57.68" y="18.51" width="3.89" height="2.82"/>
        <rect class="cls-6" x="63.39" y="18.51" width="4.57" height="2.82"/>
        <rect class="cls-8" x="89.62" y="18.51" width="1.3" height="2.82" transform="translate(180.53 39.84) rotate(180)"/>
        <rect class="cls-8" x="86.03" y="18.51" width="1.75" height="2.82" transform="translate(173.82 39.84) rotate(180)"/>
        <rect class="cls-8" x="81.23" y="18.51" width="2.97" height="2.82" transform="translate(165.44 39.84) rotate(180)"/>
        <rect class="cls-8" x="75.51" y="18.51" width="3.89" height="2.82" transform="translate(154.92 39.84) rotate(180)"/>
        <rect class="cls-8" x="69.8" y="18.51" width="3.89" height="2.82" transform="translate(143.48 39.84) rotate(180)"/>
      </g>
    </g>
  </g>
  <g>
    <g>
      <g>
        <path class="cls-16" d="M93.86,55.83s-13.1-11.88-13.04-4.84c.06,7.04,9.37,6.86,13.04,4.84Z"/>
        <path class="cls-16" d="M93.86,55.83s13.1-11.88,13.04-4.84c-.06,7.04-9.37,6.86-13.04,4.84Z"/>
      </g>
      <path class="cls-12" d="M96.43,55.4c0,1.42-1.15,2.57-2.57,2.57s-2.57-1.15-2.57-2.57,1.15-2.57,2.57-2.57,2.57,1.15,2.57,2.57Z"/>
    </g>
    <g>
      <rect class="cls-17" x="69.58" y="56.66" width="48.56" height="6.28"/>
      <g class="cls-19">
        <rect class="cls-15" x="72.23" y="62.94" width="43.25" height="37.97"/>
        <polygon class="cls-17" points="80.34 84.03 82.72 86.6 86.19 86.09 84.48 89.15 86.03 92.29 82.6 91.61 80.09 94.06 79.67 90.58 76.57 88.96 79.75 87.48 80.34 84.03"/>
        <polygon class="cls-17" points="105.78 67.57 106.38 71.03 109.56 72.49 106.46 74.12 106.06 77.6 103.54 75.16 100.11 75.85 101.65 72.71 99.93 69.65 103.4 70.15 105.78 67.57"/>
        <polygon class="cls-17" points="104.53 89.05 105.13 92.5 108.31 93.96 105.22 95.6 104.81 99.08 102.3 96.64 98.86 97.32 100.4 94.18 98.69 91.13 102.16 91.62 104.53 89.05"/>
        <polygon class="cls-17" points="82.41 65.62 83.01 69.07 86.19 70.53 83.09 72.17 82.69 75.65 80.17 73.21 76.74 73.9 78.28 70.75 76.56 67.7 80.03 68.2 82.41 65.62"/>
        <polygon class="cls-18" points="91.5 75.87 91.89 78.13 93.97 79.09 91.95 80.16 91.68 82.44 90.04 80.84 87.79 81.29 88.8 79.23 87.67 77.23 89.94 77.56 91.5 75.87"/>
        <polygon class="cls-17" points="110.47 81.9 111.97 83.63 114.25 83.38 113.06 85.34 114.01 87.43 111.77 86.91 110.08 88.45 109.88 86.17 107.89 85.03 110 84.14 110.47 81.9"/>
        <polygon class="cls-17" points="90.08 95.8 91.58 97.53 93.86 97.28 92.67 99.24 93.62 101.33 91.38 100.81 89.69 102.35 89.49 100.07 87.5 98.94 89.61 98.04 90.08 95.8"/>
        <polygon class="cls-17" points="71.63 92.31 73.13 94.05 75.41 93.79 74.23 95.76 75.17 97.85 72.94 97.33 71.24 98.87 71.05 96.59 69.06 95.45 71.17 94.56 71.63 92.31"/>
        <polygon class="cls-17" points="115.56 64.79 117.06 66.52 119.34 66.27 118.15 68.23 119.1 70.32 116.86 69.8 115.17 71.35 114.97 69.06 112.98 67.93 115.1 67.04 115.56 64.79"/>
        <polygon class="cls-17" points="99.52 82.52 100.55 83.7 102.1 83.53 101.29 84.87 101.94 86.29 100.42 85.93 99.26 86.99 99.13 85.43 97.77 84.66 99.21 84.05 99.52 82.52"/>
        <polygon class="cls-17" points="73.99 77.38 75.01 78.57 76.57 78.39 75.76 79.73 76.4 81.16 74.88 80.8 73.72 81.85 73.59 80.3 72.23 79.52 73.67 78.92 73.99 77.38"/>
        <polygon class="cls-18" points="93.56 66.01 94.59 67.19 96.14 67.02 95.33 68.36 95.98 69.78 94.45 69.43 93.3 70.48 93.17 68.92 91.81 68.15 93.25 67.54 93.56 66.01"/>
        <polygon class="cls-18" points="90.41 87.83 91.44 89.01 92.99 88.83 92.18 90.17 92.83 91.6 91.3 91.24 90.15 92.29 90.02 90.74 88.66 89.96 90.1 89.36 90.41 87.83"/>
        <polygon class="cls-17" points="113.58 94.61 114.61 95.79 116.16 95.62 115.35 96.95 116 98.38 114.47 98.02 113.32 99.08 113.19 97.52 111.83 96.75 113.27 96.14 113.58 94.61"/>
        <polygon class="cls-17" points="71.82 65.34 72.85 66.52 74.4 66.35 73.59 67.69 74.24 69.11 72.71 68.76 71.56 69.81 71.43 68.25 70.07 67.48 71.51 66.87 71.82 65.34"/>
        <polygon class="cls-17" points="112.57 75.15 113.6 76.33 115.15 76.16 114.34 77.5 114.98 78.92 113.46 78.57 112.31 79.62 112.17 78.06 110.82 77.29 112.26 76.68 112.57 75.15"/>
      </g>
    </g>
    <rect class="cls-16" x="90.07" y="56.13" width="7.58" height="45.11"/>
  </g>
</svg>