<?xml version="1.0" encoding="UTF-8"?>
<svg id="Layer_1" data-name="Layer 1" xmlns="http://www.w3.org/2000/svg" viewBox="0 0 150 150">
  <defs>
    <style>
      .cls-1 {
        fill: #942725;
      }

      .cls-2 {
        fill: #fff;
      }

      .cls-3 {
        opacity: .4;
      }

      .cls-4 {
        fill: #7d211f;
      }

      .cls-5 {
        fill: #ff4354;
      }

      .cls-6 {
        fill: #fbbd00;
      }

      .cls-7 {
        fill: #e83644;
      }

      .cls-8 {
        fill: #333;
      }

      .cls-9 {
        stroke: #4c527f;
        stroke-linecap: round;
        stroke-linejoin: round;
        stroke-width: .29px;
      }

      .cls-9, .cls-10, .cls-11, .cls-12, .cls-13 {
        fill: none;
      }

      .cls-10 {
        stroke-width: .7px;
      }

      .cls-10, .cls-11, .cls-12, .cls-13 {
        stroke-miterlimit: 10;
      }

      .cls-10, .cls-12 {
        stroke: #942725;
      }

      .cls-14 {
        fill: #fed82e;
      }

      .cls-11 {
        stroke: #fff;
        stroke-width: .61px;
      }

      .cls-12 {
        stroke-width: .65px;
      }

      .cls-13 {
        stroke: #e83644;
        stroke-width: 1.59px;
      }
    </style>
  </defs>
  <g>
    <path class="cls-5" d="M93.58,23.24c-5.66,2.31-15.11,5.36-27.14,5.49-12.83.13-22.88-3.12-28.66-5.49v-5.79c4.43-2.5,14.32-7.28,27.75-7.32,13.6-.04,23.62,4.82,28.05,7.32v5.79Z"/>
    <rect class="cls-5" x="37.78" y="17.44" width="55.8" height="5.79"/>
    <rect class="cls-5" x="44.72" y="26.21" width="41.39" height="96.51"/>
    <rect class="cls-7" x="42.89" y="25.29" width="45.74" height="4.8" rx="1.14" ry="1.14"/>
    <rect class="cls-13" x="47.69" y="32.38" width="35.22" height="88.73"/>
    <g>
      <path class="cls-8" d="M43.14,117.92h44.31c.77,0,1.4.63,1.4,1.4v20.56h-47.11v-20.56c0-.77.63-1.4,1.4-1.4Z"/>
      <line class="cls-9" x1="41.74" y1="120.22" x2="88.85" y2="120.22"/>
    </g>
    <rect class="cls-13" x="51.81" y="36.73" width="28.36" height="10.75"/>
    <rect class="cls-1" x="53.44" y="38.82" width="25.09" height="6.57"/>
    <rect class="cls-4" x="53.44" y="38.82" width="25.09" height="3.4"/>
    <rect class="cls-11" x="75.57" y="70.19" width="4.8" height="12.58"/>
    <g>
      <circle class="cls-2" cx="77.97" cy="74.23" r="1.07"/>
      <polygon class="cls-2" points="79.28 79.8 76.65 79.8 77.57 74.46 78.37 74.46 79.28 79.8"/>
    </g>
    <g class="cls-3">
      <line class="cls-12" x1="38.39" y1="18.51" x2="92.97" y2="18.51"/>
      <g>
        <rect class="cls-12" x="40.45" y="18.51" width="1.3" height="2.82"/>
        <rect class="cls-12" x="43.57" y="18.51" width="1.75" height="2.82"/>
        <rect class="cls-12" x="47.15" y="18.51" width="2.97" height="2.82"/>
        <rect class="cls-12" x="51.96" y="18.51" width="3.89" height="2.82"/>
        <rect class="cls-12" x="57.68" y="18.51" width="3.89" height="2.82"/>
        <rect class="cls-10" x="63.39" y="18.51" width="4.57" height="2.82"/>
        <rect class="cls-12" x="89.62" y="18.51" width="1.3" height="2.82" transform="translate(180.53 39.84) rotate(180)"/>
        <rect class="cls-12" x="86.03" y="18.51" width="1.75" height="2.82" transform="translate(173.82 39.84) rotate(180)"/>
        <rect class="cls-12" x="81.23" y="18.51" width="2.97" height="2.82" transform="translate(165.44 39.84) rotate(180)"/>
        <rect class="cls-12" x="75.51" y="18.51" width="3.89" height="2.82" transform="translate(154.92 39.84) rotate(180)"/>
        <rect class="cls-12" x="69.8" y="18.51" width="3.89" height="2.82" transform="translate(143.48 39.84) rotate(180)"/>
      </g>
    </g>
  </g>
  <g>
    <path class="cls-6" d="M112.21,72.47c.02,7.32-.02,14.65,0,21.97-7.53,0-15.07,0-22.6,0s-15.07,0-22.6,0c.02-7.32-.02-14.65,0-21.97l22.5,13.76,22.7-13.76Z"/>
    <path class="cls-14" d="M89.3,64.31h22.91c0,2.71-.01,5.44,0,8.16l-22.7,13.76-22.5-13.76c0-2.72,0-5.45,0-8.16h22.29Z"/>
  </g>
</svg>