<?xml version="1.0" encoding="UTF-8"?>
<svg xmlns="http://www.w3.org/2000/svg" xmlns:xlink="http://www.w3.org/1999/xlink" viewBox="0 0 1920 1080">
  <defs>
    <style>
      .cls-1 {
        font-size: 12px;
      }

      .cls-1, .cls-2, .cls-3, .cls-4, .cls-5 {
        font-family: SegoeUIVariable-SemiboldText, 'Segoe UI Variable';
        font-variation-settings: 'wght' 600, 'opsz' 10;
        font-weight: 600;
      }

      .cls-6 {
        fill: url(#linear-gradient-15);
      }

      .cls-7 {
        fill: url(#linear-gradient-13);
      }

      .cls-8 {
        letter-spacing: -.03em;
      }

      .cls-9 {
        letter-spacing: -.03em;
      }

      .cls-10 {
        clip-path: url(#clippath-6);
      }

      .cls-11 {
        clip-path: url(#clippath-7);
      }

      .cls-12 {
        fill: #11997f;
      }

      .cls-13 {
        fill: #03b5d2;
      }

      .cls-14 {
        clip-path: url(#clippath-4);
      }

      .cls-15 {
        fill: url(#linear-gradient-2);
      }

      .cls-16 {
        fill: #ded9f4;
      }

      .cls-17 {
        stroke-width: 4px;
      }

      .cls-17, .cls-18, .cls-19, .cls-20 {
        fill: none;
      }

      .cls-17, .cls-19, .cls-20 {
        stroke-miterlimit: 10;
      }

      .cls-17, .cls-20 {
        opacity: .39;
        stroke: #ed9b64;
      }

      .cls-2 {
        font-size: 11.24px;
      }

      .cls-21 {
        fill: #422a16;
      }

      .cls-22, .cls-23 {
        fill: #fff;
      }

      .cls-24 {
        fill: #2b2b2b;
        font-family: BubbleGum, BubbleGum;
        font-size: 85.29px;
      }

      .cls-25 {
        fill: url(#linear-gradient-4);
      }

      .cls-26 {
        fill: #c4b7ea;
      }

      .cls-27 {
        fill: #ff3b3b;
      }

      .cls-3 {
        font-size: 11.87px;
      }

      .cls-4 {
        font-size: 11.12px;
      }

      .cls-28 {
        fill: url(#linear-gradient-12);
      }

      .cls-28, .cls-29 {
        mix-blend-mode: multiply;
      }

      .cls-30 {
        fill: url(#linear-gradient-3);
      }

      .cls-31 {
        clip-path: url(#clippath-1);
      }

      .cls-32 {
        fill: url(#linear-gradient-5);
      }

      .cls-33 {
        fill: #764abc;
      }

      .cls-34 {
        fill: #002733;
      }

      .cls-35 {
        isolation: isolate;
      }

      .cls-36 {
        clip-path: url(#clippath-5);
      }

      .cls-37 {
        fill: #fec9a1;
      }

      .cls-38 {
        fill: url(#linear-gradient-8);
      }

      .cls-5 {
        font-size: 12.38px;
      }

      .cls-39 {
        clip-path: url(#clippath-3);
      }

      .cls-40 {
        fill: #3acf29;
      }

      .cls-41 {
        fill: url(#linear-gradient-14);
      }

      .cls-29 {
        fill: url(#linear-gradient-10);
      }

      .cls-42 {
        fill: url(#linear-gradient-17);
      }

      .cls-43 {
        fill: url(#linear-gradient-7);
      }

      .cls-44 {
        letter-spacing: 0em;
      }

      .cls-45 {
        fill: url(#linear-gradient-9);
      }

      .cls-46 {
        fill: #edebfc;
      }

      .cls-47 {
        fill: url(#linear-gradient-11);
      }

      .cls-48 {
        fill: #fa64c6;
      }

      .cls-49 {
        fill: #f97003;
      }

      .cls-50 {
        fill: url(#linear-gradient-6);
      }

      .cls-19 {
        stroke: #422a16;
        stroke-width: 7.52px;
      }

      .cls-51 {
        fill: #66f7aa;
      }

      .cls-52 {
        clip-path: url(#clippath-2);
      }

      .cls-20 {
        stroke-width: 4.51px;
      }

      .cls-53 {
        fill: #fbc805;
      }

      .cls-23 {
        mix-blend-mode: soft-light;
      }

      .cls-54 {
        fill: url(#linear-gradient-16);
      }

      .cls-55 {
        fill: url(#linear-gradient);
      }

      .cls-56 {
        clip-path: url(#clippath);
      }

      .cls-57 {
        fill: #ed9b64;
      }
    </style>
    <clipPath id="clippath">
      <path class="cls-18" d="M163.78,810.54c-5.1-5.05-10.41-10.03-16.71-13.46-6.3-3.43-13.78-5.21-20.75-3.48-10.08,2.49-17.44,12.34-18.37,22.68-.93,10.34,3.93,20.7,11.52,27.78,7.59,7.08,17.65,11.11,27.89,12.84,5.61.95,11.46,1.24,16.9-.42s10.43-5.52,12.34-10.88"/>
    </clipPath>
    <clipPath id="clippath-1">
      <path class="cls-18" d="M362.57,802.09c5.1-5.05,10.41-10.03,16.71-13.46,6.3-3.43,13.78-5.21,20.75-3.48,10.08,2.49,17.44,12.34,18.37,22.68.93,10.34-3.93,20.7-11.52,27.78-7.59,7.08-17.65,11.11-27.89,12.84-5.61.95-11.46,1.24-16.9-.42-5.44-1.66-10.43-5.52-12.34-10.88"/>
    </clipPath>
    <clipPath id="clippath-2">
      <circle class="cls-18" cx="211.1" cy="800.91" r="26.91"/>
    </clipPath>
    <clipPath id="clippath-3">
      <circle class="cls-18" cx="314.8" cy="798.88" r="26.91"/>
    </clipPath>
    <linearGradient id="linear-gradient" x1="794.37" y1="616.97" x2="798.46" y2="720.85" gradientUnits="userSpaceOnUse">
      <stop offset="0" stop-color="#9f2729"/>
      <stop offset=".22" stop-color="#b5302f"/>
      <stop offset=".96" stop-color="#ff4f46"/>
    </linearGradient>
    <linearGradient id="linear-gradient-2" x1="797.54" y1="665.39" x2="797.54" y2="718.15" gradientUnits="userSpaceOnUse">
      <stop offset=".01" stop-color="#f9c13b"/>
      <stop offset=".21" stop-color="#f9ba3b"/>
      <stop offset=".48" stop-color="#f9a93b"/>
      <stop offset=".78" stop-color="#f98d3b"/>
      <stop offset="1" stop-color="#f9753b"/>
    </linearGradient>
    <linearGradient id="linear-gradient-3" x1="895.79" y1="617.09" x2="948.34" y2="617.09" gradientUnits="userSpaceOnUse">
      <stop offset="0" stop-color="#fff33b"/>
      <stop offset="1" stop-color="#f9c13b"/>
    </linearGradient>
    <linearGradient id="linear-gradient-4" x1="642.42" x2="683.64" xlink:href="#linear-gradient-3"/>
    <linearGradient id="linear-gradient-5" x1="939.42" y1="665.23" x2="982.05" y2="665.23" xlink:href="#linear-gradient-3"/>
    <linearGradient id="linear-gradient-6" x1="840.21" y1="569" x2="867.98" y2="569" xlink:href="#linear-gradient-3"/>
    <linearGradient id="linear-gradient-7" x1="723.57" y1="567.78" x2="759.76" y2="567.78" xlink:href="#linear-gradient-3"/>
    <linearGradient id="linear-gradient-8" x1="617.66" y1="665.18" x2="676.51" y2="665.18" xlink:href="#linear-gradient-3"/>
    <linearGradient id="linear-gradient-9" x1="816.75" y1="712.6" x2="955.07" y2="712.6" xlink:href="#linear-gradient-3"/>
    <linearGradient id="linear-gradient-10" x1="887.41" y1="739.67" x2="885.6" y2="728.14" xlink:href="#linear-gradient-3"/>
    <linearGradient id="linear-gradient-11" x1="644.87" y1="713.1" x2="768.53" y2="713.1" xlink:href="#linear-gradient-3"/>
    <linearGradient id="linear-gradient-12" x1="644.87" y1="724.09" x2="768.52" y2="724.09" xlink:href="#linear-gradient-3"/>
    <linearGradient id="linear-gradient-13" x1="859.07" y1="599.54" x2="902.57" y2="599.54" xlink:href="#linear-gradient-2"/>
    <linearGradient id="linear-gradient-14" x1="898.62" y1="654.2" x2="933.46" y2="654.2" xlink:href="#linear-gradient-2"/>
    <linearGradient id="linear-gradient-15" x1="776.44" y1="586.29" x2="812.95" y2="586.29" xlink:href="#linear-gradient-2"/>
    <linearGradient id="linear-gradient-16" x1="689.53" y1="600.77" x2="741.66" y2="600.77" xlink:href="#linear-gradient-2"/>
    <linearGradient id="linear-gradient-17" x1="667.67" y1="651.43" x2="691.01" y2="651.43" xlink:href="#linear-gradient-2"/>
    <clipPath id="clippath-4">
      <path class="cls-18" d="M698.45,810.56c-5.1-5.05-10.41-10.03-16.71-13.46-6.3-3.43-13.78-5.21-20.75-3.48-10.08,2.49-17.44,12.34-18.37,22.68-.93,10.34,3.93,20.7,11.52,27.78,7.59,7.08,17.65,11.11,27.89,12.84,5.61.95,11.46,1.24,16.9-.42,5.44-1.66,10.43-5.52,12.34-10.88"/>
    </clipPath>
    <clipPath id="clippath-5">
      <path class="cls-18" d="M897.24,802.11c5.1-5.05,10.41-10.03,16.71-13.46,6.3-3.43,13.78-5.21,20.75-3.48,10.08,2.49,17.44,12.34,18.37,22.68s-3.93,20.7-11.52,27.78c-7.59,7.08-17.65,11.11-27.89,12.84-5.61.95-11.46,1.24-16.9-.42-5.44-1.66-10.43-5.52-12.34-10.88"/>
    </clipPath>
    <clipPath id="clippath-6">
      <circle class="cls-18" cx="745.77" cy="800.93" r="26.91"/>
    </clipPath>
    <clipPath id="clippath-7">
      <circle class="cls-18" cx="849.47" cy="798.9" r="26.91"/>
    </clipPath>
  </defs>
  <g class="cls-35">
    <g id="Layer_1" data-name="Layer 1">
      <g>
        <g>
          <g>
            <path class="cls-26" d="M173.13,791.66s-34.11,22.5-48.86,6.36c-14.75-16.14,8.54-31.67,18.9-21.61,10.36,10.05-26.73,3.12-30.78-11.63-4.05-14.75,18.13-6.7,18.13-6.7,0,0-26.38-5.55-24.54-16.85,1.84-11.31,21.09.67,21.09.67,0,0-46.82-31.08-35.04-64.57,11.77-33.49,52.27.4,52.27.4,0,0-22.08-23.94-16.77-31.72,5.32-7.78,24.64,23.03,24.64,23.03,0,0-34.73-40.39-10.59-70.31,24.14-29.92,61.63,25.67,61.63,25.67,0,0-28.11-42.98-16.4-53.04,11.71-10.06,34.97,43.85,34.97,43.85,0,0-37.03-52.43-2.91-71.17,34.12-18.73,63.27,38.62,56.27,60.64-7,22.02-17.22-71.49,20.07-68.62,37.29,2.87,99.82,63.94,77.96,120.44,0,0,2.25-61.7,15.38-54.74,13.13,6.95,19.05,56.42-3.84,80.23-22.88,23.81-2.59-8.5-2.59-8.5,0,0,27.27-37.92,51.34-7.8,24.07,30.11-13.77,62.04-30.33,64.74-16.56,2.7,32.7-17.45,39.21-7.91,6.51,9.54-27.79,19.69-27.79,19.69,0,0,25.85,3.74,23.74,24.24-2.11,20.5-32.65,50.82-59.91,52.12-27.26,1.31-205.28-26.93-205.28-26.93Z"/>
            <path class="cls-37" d="M245.4,660.41c-50.35,5.99-82.46,35.9-92.76,46.38-.16-.15-.32-.3-.49-.45,2.94,56.04,8.88,150.94,16.29,170.5,10.05,26.55,65.87,63.88,99.59,63.88s83.27-46.06,90.27-67.81c6.01-18.69,16.32-105.37,22.49-160.85-7.35-7.82-59.66-60.67-135.4-51.66Z"/>
            <g class="cls-56">
              <path class="cls-37" d="M163.78,810.54c-5.1-5.05-10.41-10.03-16.71-13.46-6.3-3.43-13.78-5.21-20.75-3.48-10.08,2.49-17.44,12.34-18.37,22.68-.93,10.34,3.93,20.7,11.52,27.78,7.59,7.08,17.65,11.11,27.89,12.84,5.61.95,11.46,1.24,16.9-.42s10.43-5.52,12.34-10.88"/>
              <path d="M168.63,855.58c-11.47-28.31-42.28-55.48-73.46-36.26-2,1.23-.16,4.39,1.84,3.15,29.01-17.89,57.49,7.9,68.09,34.08.87,2.15,4.41,1.21,3.52-.97h0Z"/>
              <path d="M151.01,830.48c-7.22.65-13.69,3.97-18.22,9.68-1.45,1.82,1.12,4.42,2.58,2.58,3.91-4.92,9.34-8.04,15.63-8.61,2.32-.21,2.34-3.86,0-3.65h0Z"/>
            </g>
            <g class="cls-31">
              <path class="cls-37" d="M362.57,802.09c5.1-5.05,10.41-10.03,16.71-13.46,6.3-3.43,13.78-5.21,20.75-3.48,10.08,2.49,17.44,12.34,18.37,22.68.93,10.34-3.93,20.7-11.52,27.78-7.59,7.08-17.65,11.11-27.89,12.84-5.61.95-11.46,1.24-16.9-.42-5.44-1.66-10.43-5.52-12.34-10.88"/>
              <path d="M357.73,847.13c11.47-28.31,42.28-55.48,73.46-36.26,2,1.23.16,4.39-1.84,3.15-29.01-17.89-57.49,7.9-68.09,34.08-.87,2.15-4.41,1.21-3.52-.97h0Z"/>
              <path d="M375.35,822.03c7.22.65,13.69,3.97,18.22,9.68,1.45,1.82-1.12,4.42-2.58,2.58-3.91-4.92-9.34-8.04-15.63-8.61-2.32-.21-2.34-3.86,0-3.65h0Z"/>
            </g>
            <path class="cls-57" d="M263.6,788.73c4.3.52,11.81,35.18,11.81,35.18,0,0,9,4.08,7.25,13.42-1.76,9.34-11.87,16.63-23.57,8.86-11.71-7.77-3.74-58.45,4.52-57.46Z"/>
            <path d="M232.77,874.1c21,8.45,43.58,8.48,64.61.09,2.51-1,1.42-5.12-1.13-4.1-20.42,8.14-41.96,8.11-62.35-.09-2.54-1.02-3.64,3.09-1.13,4.1h0Z"/>
            <path class="cls-57" d="M218.22,836.35c-6.86,2.21-13.78,2.91-20.94,2.15-2.72-.29-2.7,3.97,0,4.25,7.52.79,14.87.01,22.07-2.31,2.59-.84,1.48-4.94-1.13-4.1h0Z"/>
            <path class="cls-57" d="M329.08,831.82c-6.86,2.21-13.78,2.91-20.94,2.15-2.72-.29-2.7,3.97,0,4.25,7.52.79,14.87.01,22.07-2.31,2.59-.84,1.48-4.94-1.13-4.1h0Z"/>
            <g>
              <circle class="cls-22" cx="211.1" cy="800.91" r="26.91"/>
              <g class="cls-52">
                <circle class="cls-21" cx="213.45" cy="802.48" r="23.22"/>
              </g>
            </g>
            <g>
              <circle class="cls-22" cx="314.8" cy="798.88" r="26.91"/>
              <g class="cls-39">
                <circle class="cls-21" cx="312.45" cy="800.44" r="23.22"/>
              </g>
            </g>
            <path class="cls-26" d="M218.93,754.64c6.22.5,12.38,1.57,18.34,3.68,2.63.93,5.3,2.14,7.14,4.21,7.38,8.32-9.84,11.12-14.96,11.89-12.36,1.85-25.99,2.32-38.46-1.73-9.62-3.13-9.4-13.17-1.01-16.64,3.43-1.42,7.36-1.58,11.2-1.68,5.88-.16,11.84-.21,17.76.27Z"/>
            <path class="cls-26" d="M273.42,848.31s-46.62-22.11-56.48,14.94c-9.86,37.06,22.71,13.15,11.95,10.76,0,0-5.08,14.05,10.16,16.14,15.24,2.09,15.84-13.75,15.84-13.75l-5.38.6s-2.69,14.34,3.59,14.94,6.87-12.55,6.87-12.55c0,0-1.2,11.95,7.17,11.95s6.87-12.25,6.87-12.25c0,0-1.2,12.25,11.36,11.36,12.55-.9,12.25-15.84,12.25-15.84,0,0-4.18,12.85.6,12.85s4.48-11.36,4.48-11.36c0,0,1.79,11.66,6.28,11.06,4.48-.6,14.94-27.19-.3-36.16-15.24-8.97-35.26-2.69-35.26-2.69Z"/>
            <path class="cls-19" d="M237.21,897.25c15.79-.25,31.57-5.76,47.36-6.01"/>
            <path class="cls-20" d="M191.35,732.62c15.51-6.45,36.68-13.21,62.39-15.79,47.86-4.8,86.16,7.4,106.73,15.79"/>
            <path class="cls-17" d="M209.4,700.29c12.21-6.45,28.86-13.21,49.09-15.79,37.65-4.8,67.78,7.4,83.97,15.79"/>
            <path class="cls-26" d="M335.68,722.48c5.92,1.97,11.65,4.48,16.93,7.96,2.33,1.53,4.63,3.34,5.92,5.79,5.18,9.84-12.21,8.45-17.37,7.97-12.45-1.15-25.8-3.95-36.93-10.86-8.59-5.33-5.98-15.04,2.98-16.4,3.67-.56,7.52.22,11.28,1.04,5.75,1.25,11.55,2.63,17.18,4.5Z"/>
          </g>
          <g>
            <path class="cls-33" d="M368.72,391.49c-24.21,49.5-66.61,82.8-122.7,93.75-8.6,2.11-17.43,3.14-26.28,3.07-32.28,0-61.87-13.45-76.24-35.48-19.29-29.35-25.85-91.57,37.74-137.6,1.29,7.02,3.93,16.65,5.68,22.35-12.48,9.27-22.7,21.26-29.89,35.05-11.84,23.24-10.52,46.46,3.5,67.93,9.68,14.47,25.02,23.27,44.74,25.96,24.63,3.12,49.61-1.59,71.42-13.45,34.19-17.97,56.98-39.44,71.88-68.79-4.21-4.35-6.71-10.09-7.02-16.14-.47-13.52,10.1-24.87,23.62-25.37h.91c13.59-.07,24.67,10.9,24.74,24.49.06,12.65-9.47,23.28-22.05,24.6l-.05-.38ZM445.85,337.15c32.85,37.23,33.73,81.05,21.04,106.48-11.84,23.22-43.04,46.46-85.01,46.46-19.59-.4-38.86-5.03-56.49-13.59,6.16-4.38,14.9-11.41,19.72-15.79,13.6,5.89,28.23,9.02,43.04,9.2,27.17,0,47.75-12.7,60.02-35.91,7.88-15.33,8.34-33.3.89-51.7-9.14-23.15-25.41-42.79-46.46-56.09-27.61-18.61-60.16-28.53-93.45-28.49h-7.88c-3.75,8.66-12.09,14.44-21.52,14.9h-.83c-13.56-.17-24.42-11.3-24.26-24.86.16-13.02,10.45-23.65,23.45-24.23h.89c9.07,0,17.38,5.08,21.52,13.15h7.02c55.95,0,105.08,21.47,138.33,60.47ZM223.24,399.02c-.46-4.47.62-8.96,3.07-12.72-24.53-42.5-37.66-96.39-17.51-152.48,14.45-42.15,50.82-70.64,90.25-70.64,42.07,0,85.9,36.83,91.14,107.79-6.56-2.18-16.14-5.38-21.9-6.56-1.43-23.22-21.04-81.05-67.5-80.19-16.65.46-41.19,8.34-53.8,24.53-15.61,19.33-24.69,43.11-25.93,67.93-2.96,34.02,5.03,68.1,22.79,97.27.98-.36,2.03-.5,3.07-.43h.86c13.55-.25,24.73,10.54,24.98,24.09.25,13.55-10.54,24.73-24.09,24.98h-.89c-13.19-.05-24-10.47-24.53-23.65v.08Z"/>
            <g>
              <circle class="cls-48" cx="142.84" cy="422.23" r="36.27"/>
              <text class="cls-5" transform="translate(128.16 425.62)"><tspan class="cls-8" x="0" y="0">S</tspan><tspan x="6.34" y="0">tore</tspan></text>
            </g>
            <g>
              <circle class="cls-13" cx="274.75" cy="286.23" r="32.57"/>
              <text class="cls-4" transform="translate(251.88 289.27)"><tspan class="cls-9" x="0" y="0">R</tspan><tspan class="cls-44" x="6.59" y="0">educers</tspan></text>
            </g>
            <g>
              <circle class="cls-12" cx="453.53" cy="439.01" r="32.94"/>
              <text class="cls-2" transform="translate(423.84 442.98) scale(.97 1)"><tspan x="0" y="0">Dispatchers</tspan></text>
            </g>
            <g>
              <circle class="cls-49" cx="294.83" cy="174.41" r="35.16"/>
              <text class="cls-1" transform="translate(279.83 177.69)"><tspan x="0" y="0">Slices</tspan></text>
            </g>
            <g>
              <circle class="cls-51" cx="366.56" cy="367.1" r="35.16"/>
              <text class="cls-1" transform="translate(341.97 370.38)"><tspan x="0" y="0">Selectors</tspan></text>
            </g>
            <g>
              <circle class="cls-53" cx="248.28" cy="396.82" r="34.79"/>
              <text class="cls-3" transform="translate(228.23 400.07)"><tspan x="0" y="0">Actions</tspan></text>
            </g>
          </g>
          <text class="cls-24" transform="translate(274.53 395.66)"><tspan x="0" y="0">?</tspan></text>
        </g>
        <g>
          <g>
            <path class="cls-55" d="M919.75,712.33l-37.52-9.01,33.35-20-41.27,7.97,23.62-42.77-44.45,31.9,9.7-51.76-28.28,37.9-9.7-95.75s-25.86,93.25-28.28,89.79c-2.42-3.45-19.39-31.08-19.39-31.08l1.62,35.7-62.22-65.92,35.56,75.12-37.98-9.2,18.59,20.42-50.1-19.08,29.09,27.72-35.56,18.04h243.24Z"/>
            <polygon class="cls-15" points="753.46 712.33 832.45 712.33 849.06 696.71 833.7 699.51 839.51 681.09 823.32 693.22 816.75 663.24 802.98 687.78 789.69 668.79 790.94 693.96 766.45 675.45 776.41 696.71 748.59 687.78 761.46 704.69 746.02 704.34 753.46 712.33"/>
            <path class="cls-30" d="M895.79,643.06l52.55-37.57s-19.61,4.46-12.78-14.38l-39.77,51.95Z"/>
            <path class="cls-25" d="M683.64,637.46l-41.22-29.47s15.38,3.5,10.02-11.28l31.19,40.75Z"/>
            <path class="cls-32" d="M939.42,676.88l40.16-10.91s-3.47-8.43,2.48-12.39l-42.64,23.3Z"/>
            <path class="cls-50" d="M854.1,531.57c-2.97,16.36-13.88,74.86-13.88,74.86,0-1.49,27.76-59.49,27.76-59.49,0,0-10.41-1.49-13.88-15.37Z"/>
            <path class="cls-43" d="M759.76,606.43c-.99.05-36.19-61.43-36.19-61.43,0,0,11.9-1.49,10.91-15.86l25.28,77.29Z"/>
            <path class="cls-38" d="M676.51,687.29l-56.37-44.23s3.47,15.14-2.48,16.3c9.92,6.12,58.85,27.93,58.85,27.93Z"/>
            <g>
              <path class="cls-45" d="M947.8,723.24c1.72-3.97.59-8.99-2.66-11.84-3.25-2.85-8.38-3.32-12.09-1.09,1.83-6.68-4.09-13.67-10.9-14.93-6.81-1.26-13.75,1.85-19.2,6.14-4.19,3.3-7.81,7.33-10.64,11.86-1.95-2-5.37-2.34-7.67-.76.99-3.64-2.3-7.35-5.99-8.11-3.69-.75-7.47.65-10.84,2.34-5.76,2.87-11.31,6.91-13.97,12.77-2.65-.8-5.72-.07-7.72,1.85-1.22-3.71-5.99-5.23-9.76-4.2-3.77,1.02-6.75,3.85-9.55,6.58-.82.79-1.7,1.93-1.18,2.95-3.31-1.02-7.32.24-8.86,3.34h138.32c-.9-3.79-3.54-8.02-7.27-6.88Z"/>
              <path class="cls-29" d="M947.83,727.92c-3.8-.7-7.27-3.02-9.36-6.27-1.89,1.57-4.23,2.7-6.68,2.79-2.46.09-5.02-.99-6.36-3.05-2.07,1.48-4.48,2.4-6.86,3.3-2.05.77-4.17,1.54-6.36,1.45-2.19-.09-4.24-1.21-5-3.27-3.85,2.18-9.19,1.24-12.08-2.11-4.1,2.83-9.49,3.18-14.37,2.22-2.87-.57-5.91-1.75-7.33-4.31-1.32,1.28-3.78,1.02-4.8-.51-1.48,2.79-3.8,5.16-6.66,6.49-2.86,1.33-6.26,1.57-9.2.44-2.65,1.54-6.04,1.49-8.56-.25-4.95,5.18-14.97,2.76-14.97,2.76-2.48,2.57-4.58.86-4.58.86l-7.91,1.64h138.32l-7.24-2.19Z"/>
              <path class="cls-23" d="M895.7,712.6s10.85-14.35,22.65-14.49c11.8-.14,12.07,9.76,12.07,9.76,0,0-10.85-9.68-34.72,4.72Z"/>
              <path class="cls-23" d="M858,716.28s8.95-9.09,17.77-9.76c8.81-.68,6.65,6.08,6.65,6.08,0,0-6.51-6.08-24.41,3.69Z"/>
              <path class="cls-23" d="M935.56,710.77s5.75-1.64,8.7,1.83c2.95,3.47,2,7.72,2,7.72,0,0-.48-7.55-10.7-9.55Z"/>
              <path class="cls-23" d="M828.56,723.76s4.6-5.48,9.63-5.59c5.03-.11,6.37,3.54,6.37,3.54,0,0-5.88-3.96-15.99,2.05Z"/>
            </g>
            <g>
              <path class="cls-47" d="M644.87,730.12h123.65c-1.19-1.27-2.85-2.68-4.37-3.52-1.52-.84-3.44-1.16-5-.4-2.44-3.01-5.08-6.16-8.76-7.36-3.68-1.2-8.6.58-9.23,4.4-1.16-2.64-4.53-4.05-7.22-3.04-3.42-5.39-9.03-9.34-15.25-10.76-5.64-1.29-9.6,2.55-11.71,7.54-.86-1.29-1.8-2.61-3.17-3.36-1.36-.74-3.28-.71-4.27.48-1.7-10.59-17.83-20.32-28.25-17.54-4.02,1.07-6.77,9.83-3.64,12.98-2.55-2.56-6.83-3.2-10.01-1.48-3.18,1.72-5,5.64-4.25,9.18.44,2.09,1.66,3.96,2.08,6.06-4.54-1.43-9.02,2.32-10.59,6.81Z"/>
              <path class="cls-28" d="M758.93,728.21s-12.74,2.64-16.86-2.1c-1.98,1.84-5.87,1.44-7.43-.77-1.44,1.1-3.67.99-5-.24-1.17,1.67-3.36,2.29-5.4,2.41-5,.3-10.09-1.83-13.39-5.61-1.6,2.09-5.18,2.18-6.89.17-2.73,1.57-6.07,2.04-9.14,1.3-3.06-.74-5.82-2.68-7.54-5.32-1.71,1.84-3.68,3.51-6.01,4.42-1.28.5-2.67.75-4.05.67-1.14-.07-2.27-.79-3.37-.74-1.86.09-2.78,2.26-4.48,2.83-1.93.65-5.1.77-6.77-.64.55.46-.04,1.33-.63,1.72-3.17,2.09-7.43,2.39-10.86.76,0,0-1.98,2.02-6.24,3.03h123.65s-8.04-.35-9.6-1.9Z"/>
              <path class="cls-23" d="M669.07,706.69s-1.33-7.23,4.82-8.2c6.15-.96,18.81,4.94,22.06,12.06,0,0-16.15-13.62-26.88-3.86Z"/>
              <path class="cls-23" d="M708.86,716.94s2.32-6.57,8.08-6.39c5.76.18,11.69,5.61,12.54,7.51,0,0-10.88-7.81-20.61-1.12Z"/>
              <path class="cls-23" d="M655.38,718.95s-2.24-5.61,1.04-8.4c3.28-2.79,7.91-1.91,9.39-.71,0,0-8.67-.4-10.43,9.11Z"/>
              <path class="cls-23" d="M742.24,723s1.83-4.47,6.37-3.39c4.54,1.08,6.91,4.88,6.91,4.88,0,0-5.9-5.76-13.29-1.49Z"/>
            </g>
            <path class="cls-7" d="M859.07,614.69s9.86-23.07,23.57-28.63c13.71-5.56,20.51,3.91,19.89,11.12,0,0-11.95-22.87-43.47,17.51Z"/>
            <path class="cls-41" d="M898.62,660.43s14.23-8.03,21.12-10.71c6.89-2.68,13.19-2.55,13.69,2.27.5,4.81-5.97,8.45-5.97,8.45,0,0,9.27-14.63-28.84,0Z"/>
            <path class="cls-6" d="M776.44,606.43s10.46-38.9,21.69-40.23c11.23-1.32,14.82,22.4,14.82,22.4,0,0-13.62-34.51-36.51,17.83Z"/>
            <path class="cls-54" d="M690.09,606.43s-2.95-20.14,4.69-23.09c7.64-2.96,22.79,0,46.88,35.74,0,0-45.72-53.61-51.57-12.64Z"/>
            <path class="cls-42" d="M668.95,656.84c0,.61-4.29-9.31,2.81-10.74,7.09-1.44,19.25,10.74,19.25,10.74,0,0-22.23-15-22.06,0Z"/>
            <path class="cls-23" d="M754.43,626.98s.99-5.23,5.02-5.01,9.07,8.59,9.07,8.59c0,0-8.73-10.37-14.09-3.58Z"/>
            <path class="cls-23" d="M891.44,657.97s1.24-6.64-3.86-7.85c-5.1-1.21-9.97,2.37-9.97,2.37,0,0,11.59-4.74,13.84,5.48Z"/>
          </g>
          <g>
            <path class="cls-46" d="M763.34,553.74c12.49,19.75,20.19,46.73,20.19,76.48s-7.7,56.73-20.19,76.48h75.36c-12.49-19.76-20.19-46.73-20.19-76.48s7.7-56.73,20.19-76.48h-75.36Z"/>
            <path class="cls-16" d="M965.47,484.94c0-7.94-3.62-15.04-9.31-19.72.01-.43.03-.85.03-1.29,0-20.55-15.94-37.36-36.12-38.79-4.95-10.69-15.76-18.1-28.32-18.1-4.2,0-8.2.83-11.85,2.34-4.5-3.97-10.41-6.38-16.88-6.38-.32,0-.64.01-.96.02-4.37-7.83-12.72-13.12-22.32-13.12-5.47,0-10.53,1.72-14.68,4.64-6.36-5.52-14.65-8.87-23.74-8.87-12.29,0-23.14,6.12-29.69,15.48-3.48-1.78-7.42-2.79-11.6-2.79-7.96,0-15.07,3.64-19.76,9.35-1.86-.43-3.8-.67-5.79-.67-6.97,0-13.28,2.79-17.89,7.32-3.45-1.31-7.19-2.04-11.09-2.04-10.5,0-19.78,5.19-25.44,13.15-17.08,2.55-30.51,16.2-32.76,33.37-6.49,4.63-10.72,12.22-10.72,20.8,0,13.64,10.69,24.78,24.15,25.51,1.76,9.68,8.97,17.46,18.35,20.03,3.87,12.83,15.78,22.17,29.87,22.17,4.83,0,9.41-1.1,13.49-3.06,5.66,5.85,13.58,9.5,22.36,9.52,6.51,9.64,17.54,15.98,30.05,15.98,10.59,0,20.12-4.55,26.74-11.79,6.62,7.24,16.15,11.79,26.74,11.79,12.51,0,23.54-6.34,30.05-15.98,8.78-.02,16.7-3.67,22.36-9.52,4.08,1.96,8.66,3.06,13.49,3.06,14.09,0,25.99-9.34,29.87-22.17,7.58-2.08,13.75-7.56,16.77-14.71,13.68-.49,24.62-11.72,24.62-25.52Z"/>
            <path class="cls-33" d="M694.72,478.75c-1.53-10.06,8.74-19.66,18.72-17.95,0,0-.49,2.5-.49,2.5-2.84-.81-2.18-4.51-2-6.69.49-3.23,1.08-6.37,2.32-9.4,1.2-2.46,2.88-4.72,4.63-6.76,14.72-17.52,41.04-26.74,59.92-10.01,0,0,2.17,1.97,2.17,1.97,0,0-2.27.42-2.27.42,3.35-6.87,13.89-8.58,19.11-2.99,0,0-1.19.33-1.19.33,1.29-4.49,6.13-7.55,10.64-6.75-2.21-.12-4.34.7-6,1.98-2.07,1.55-3.17,3.87-3.5,6.3,0,0-.95-.87-.95-.87-4.51-4.15-13.18-2.36-15.54,3.17,0,0-.75,1.77-.75,1.77l-1.51-1.35c-14.44-13.22-33.38-10.85-48.33.06-5.2,4.13-10.63,8.72-13.73,14.67-1.24,3.6-2.69,7.66-2.39,11.49.03.12.07.21.06.21,0,.02-.11-.1-.2-.07l-.49,2.5c-8.97-2-18.5,6.3-18.23,15.45h0Z"/>
            <path class="cls-33" d="M739.08,503.54c1.24,10.3,12.94,15.93,21.15,9.25,0,0,3.69-3.08,3.69-3.08l-.61,4.83c-1.44,11.69,9.24,21.08,20.7,18.74,0,0,1.65-.34,1.65-.34,0,0-.54,1.41-.54,1.41-.42,1.1-.32,2.44.17,3.65.51,1.2,1.45,2.3,2.75,2.91-3.06-.53-5.23-3.86-4.64-7,0,0,1.1,1.07,1.1,1.07-9.28,3.61-20.69-1.75-23.92-11.21-1.17-3.09-1.56-6.49-1.04-9.78l3.08,1.75c-9.89,7.76-24.88.59-23.55-12.2h0Z"/>
            <path class="cls-33" d="M817.12,493.18c2.15,9.99,12.51,15.2,21.67,17.12,12.73,2.65,26.22-2.66,30.47-15.64.99-2.98,1.24-6.19.69-9.33,0,0,1.9-.61,1.9-.61.5,1.72,2.06,2.99,3.76,3.55,1.78.6,3.94.51,5.63-.7-.68.78-1.64,1.33-2.66,1.63-3.25.93-7.17-.56-8.6-3.77,0,0,1.9-.61,1.9-.61,2.16,6.93.01,14.67-4.49,20.23-9.16,11.74-27.07,12.01-39.09,4.67-5.82-3.44-11.36-9.46-11.2-16.56h0Z"/>
            <path class="cls-33" d="M860.95,437.39c6.12-6.95,18.14-4.44,21.93,3.83,1.32,2.64,1.84,5.68,1.31,8.55l-1.98-1.18c2.32-1.12,4.96-1.64,7.5-1.27-2.25.85-4.32,1.96-6.12,3.46,0,0-1.8,1.48-1.8,1.48l-.17-2.66c-.76-10.55-11.15-16.05-20.67-12.19h0Z"/>
            <path class="cls-33" d="M932.91,465.81c-6.27.51-8.07,11.67-7.06,16.65.31,2.26,1.04,4.45,2.1,6.82-7.27-4.17-8.07-15.44-2.54-21.43,1.73-1.96,5.12-3.76,7.51-2.05h0Z"/>
            <path class="cls-33" d="M769.7,475.44c-1.48-.42-.77-2.52-.47-3.53,2.26-6.39,10.88-10.17,16.81-6.52-1.95.09-3.69.35-5.36.82-3.71,1.05-7.06,3.06-9.57,5.99-.53.64-1.18,1.35-1.52,2.08-.14.37-.26.8.1,1.16h0Z"/>
            <path class="cls-33" d="M689.2,510.3c2.28-6.11,11.47-8.33,16.27-3.9-5.87-.2-11.13,1.04-16.27,3.9h0Z"/>
            <path class="cls-33" d="M879.23,530.33c-3.91-5.25,1.75-14.09,8.16-12.72-4.63,2.88-7.49,7.31-8.16,12.72h0Z"/>
          </g>
          <path class="cls-26" d="M954.54,722.29c9.19-6.86,18.11-17.34,20.67-29.17l-1.34.61c-20.48,7.82-40.97,15.63-61.45,23.45-8.89-7.82-17.79-15.63-26.68-23.45-7.82,4.04-15.63,8.09-23.45,12.13l-23.8-14.72-46.82,16.08-52.48-9.69-38.41,24.9-25.27-6.78-31.57,11.09c9,9.34,17.79,15.17,17.79,15.17,0,0-19.25-11.98-21.09-.67-1.26,7.77,10.81,12.82,18.48,15.22-6.24-1.21-14.7-1.26-12.06,8.33,1.39,5.06,6.67,9.2,12.59,12.05-5.76,4.55-8.4,12.79-.71,21.19,14.75,16.14,48.86-6.36,48.86-6.36,0,0,178.01,28.24,205.28,26.93,27.26-1.31,57.8-31.63,59.91-52.12,2.11-20.5-23.74-24.24-23.74-24.24,0,0,34.31-10.15,27.79-19.69-2.71-3.97-12.81-2.8-22.5-.28Z"/>
          <path class="cls-37" d="M912.42,717.18c-8.89-7.82-17.79-15.63-26.68-23.45-7.82,4.04-15.63,8.09-23.45,12.13l-23.8-14.72-46.82,16.08-52.48-9.69-38.41,24.9-13.29-3.57c3.12,56.66,8.74,139.82,15.62,157.99,10.05,26.55,65.87,63.88,99.59,63.88s83.27-46.06,90.27-67.81c5.87-18.24,15.82-101.19,22.04-156.75-.86.33-1.72.66-2.59.99Z"/>
          <g class="cls-14">
            <path class="cls-37" d="M698.45,810.56c-5.1-5.05-10.41-10.03-16.71-13.46-6.3-3.43-13.78-5.21-20.75-3.48-10.08,2.49-17.44,12.34-18.37,22.68-.93,10.34,3.93,20.7,11.52,27.78,7.59,7.08,17.65,11.11,27.89,12.84,5.61.95,11.46,1.24,16.9-.42,5.44-1.66,10.43-5.52,12.34-10.88"/>
            <path d="M703.3,855.6c-11.47-28.31-42.28-55.48-73.46-36.26-2,1.23-.16,4.39,1.84,3.15,29.01-17.89,57.49,7.9,68.09,34.08.87,2.15,4.41,1.21,3.52-.97h0Z"/>
            <path d="M685.68,830.5c-7.22.65-13.69,3.97-18.22,9.68-1.45,1.82,1.12,4.42,2.58,2.58,3.91-4.92,9.34-8.04,15.63-8.61,2.32-.21,2.34-3.86,0-3.65h0Z"/>
          </g>
          <g class="cls-36">
            <path class="cls-37" d="M897.24,802.11c5.1-5.05,10.41-10.03,16.71-13.46,6.3-3.43,13.78-5.21,20.75-3.48,10.08,2.49,17.44,12.34,18.37,22.68s-3.93,20.7-11.52,27.78c-7.59,7.08-17.65,11.11-27.89,12.84-5.61.95-11.46,1.24-16.9-.42-5.44-1.66-10.43-5.52-12.34-10.88"/>
            <path d="M892.4,847.15c11.47-28.31,42.28-55.48,73.46-36.26,2,1.23.16,4.39-1.84,3.15-29.01-17.89-57.49,7.9-68.09,34.08-.87,2.15-4.41,1.21-3.52-.97h0Z"/>
            <path d="M910.02,822.06c7.22.65,13.69,3.97,18.22,9.68,1.45,1.82-1.12,4.42-2.58,2.58-3.91-4.92-9.34-8.04-15.63-8.61-2.32-.21-2.34-3.86,0-3.65h0Z"/>
          </g>
          <path class="cls-57" d="M798.27,788.75c4.3.52,11.81,35.18,11.81,35.18,0,0,9,4.08,7.25,13.42-1.76,9.34-11.87,16.63-23.57,8.86-11.71-7.77-3.74-58.45,4.52-57.46Z"/>
          <path d="M767.44,874.12c21,8.45,43.58,8.48,64.61.09,2.51-1,1.42-5.12-1.13-4.1-20.42,8.14-41.96,8.11-62.35-.09-2.54-1.02-3.64,3.09-1.13,4.1h0Z"/>
          <path class="cls-57" d="M752.89,836.37c-6.86,2.21-13.78,2.91-20.94,2.15-2.72-.29-2.7,3.97,0,4.25,7.52.79,14.87.01,22.07-2.31,2.59-.84,1.48-4.94-1.13-4.1h0Z"/>
          <path class="cls-57" d="M863.75,831.84c-6.86,2.21-13.78,2.91-20.94,2.15-2.72-.29-2.7,3.97,0,4.25,7.52.79,14.87.01,22.07-2.31,2.59-.84,1.48-4.94-1.13-4.1h0Z"/>
          <g>
            <circle class="cls-22" cx="745.77" cy="800.93" r="26.91"/>
            <g class="cls-10">
              <circle class="cls-21" cx="748.13" cy="802.5" r="23.22"/>
            </g>
          </g>
          <g>
            <circle class="cls-22" cx="849.47" cy="798.9" r="26.91"/>
            <g class="cls-11">
              <circle class="cls-21" cx="847.12" cy="800.46" r="23.22"/>
            </g>
          </g>
          <path class="cls-26" d="M740.56,728.12c5.52-2.91,11.3-5.3,17.47-6.7,2.72-.62,5.62-1.03,8.28-.26,10.69,3.08-2.37,14.66-6.28,18.05-9.45,8.18-20.72,15.87-33.41,19.11-9.8,2.5-14.99-6.1-9.76-13.51,2.14-3.03,5.37-5.27,8.56-7.41,4.88-3.28,9.89-6.51,15.15-9.28Z"/>
          <path class="cls-26" d="M808.09,848.33s-46.62-22.11-56.48,14.94,22.71,13.15,11.95,10.76c0,0-5.08,14.05,10.16,16.14,15.24,2.09,15.84-13.75,15.84-13.75l-5.38.6s-2.69,14.34,3.59,14.94c6.28.6,6.87-12.55,6.87-12.55,0,0-1.2,11.95,7.17,11.95s6.87-12.25,6.87-12.25c0,0-1.2,12.25,11.36,11.36,12.55-.9,12.25-15.84,12.25-15.84,0,0-4.18,12.85.6,12.85s4.48-11.36,4.48-11.36c0,0,1.79,11.66,6.28,11.06,4.48-.6,14.94-27.19-.3-36.16-15.24-8.97-35.26-2.69-35.26-2.69Z"/>
          <path class="cls-19" d="M771.88,897.27c15.79-.25,31.57-5.76,47.36-6.01"/>
          <path class="cls-20" d="M726.03,732.64c15.51-6.45,36.68-13.21,62.39-15.79,47.86-4.8,86.16,7.4,106.73,15.79"/>
          <path class="cls-26" d="M870.35,722.5c5.92,1.97,11.65,4.48,16.93,7.96,2.33,1.53,4.63,3.34,5.92,5.79,5.18,9.84-12.21,8.45-17.37,7.97-12.45-1.15-25.8-3.95-36.93-10.86-8.59-5.33-5.98-15.04,2.98-16.4,3.67-.56,7.52.22,11.28,1.04,5.75,1.25,11.55,2.63,17.18,4.5Z"/>
        </g>
      </g>
      <g>
        <polygon class="cls-34" points="1481 778.72 1481 519.91 1481 301.28 1267.35 301.28 1053.69 301.28 1053.69 519.91 1053.69 778.72 1481 778.72"/>
        <rect class="cls-40" x="1071.71" y="313.18" width="391.27" height="86.65"/>
        <g>
          <path class="cls-22" d="M1209.48,340.23c2.38,1.07,4.22,2.6,5.52,4.6,1.29,1.99,1.94,4.34,1.94,7.02s-.65,5.02-1.94,7c-1.29,1.97-3.13,3.5-5.52,4.57-2.38,1.07-5.19,1.61-8.43,1.61h-6.24v9.35h-10.11v-35.77h16.35c3.24,0,6.05.53,8.43,1.61ZM1205.14,355.71c1.06-.9,1.58-2.19,1.58-3.86s-.53-2.96-1.58-3.88c-1.06-.92-2.62-1.38-4.7-1.38h-5.62v10.47h5.62c2.08,0,3.64-.45,4.7-1.35Z"/>
          <path class="cls-22" d="M1243.61,364.88h-5.52v9.5h-10.12v-35.77h16.35c3.24,0,6.05.53,8.43,1.61,2.38,1.07,4.22,2.6,5.52,4.6,1.29,1.99,1.94,4.34,1.94,7.02s-.6,4.84-1.81,6.77c-1.21,1.92-2.94,3.43-5.19,4.52l7.72,11.24h-10.83l-6.49-9.5ZM1248.42,347.97c-1.06-.92-2.62-1.38-4.7-1.38h-5.62v10.47h5.62c2.08,0,3.65-.45,4.7-1.35,1.06-.9,1.58-2.19,1.58-3.86s-.53-2.96-1.58-3.88Z"/>
          <path class="cls-22" d="M1279.77,372.7c-3.01-1.6-5.38-3.81-7.1-6.64-1.72-2.83-2.58-6.01-2.58-9.55s.86-6.73,2.58-9.56c1.72-2.83,4.09-5.04,7.1-6.64,3.02-1.6,6.41-2.4,10.2-2.4s7.18.8,10.19,2.4c3.02,1.6,5.38,3.81,7.1,6.64,1.72,2.83,2.58,6.01,2.58,9.56s-.86,6.73-2.58,9.55c-1.72,2.83-4.09,5.04-7.1,6.64-3.01,1.6-6.41,2.4-10.19,2.4s-7.18-.8-10.2-2.4ZM1294.86,365.45c1.46-.85,2.62-2.05,3.48-3.6.85-1.55,1.28-3.33,1.28-5.34s-.43-3.79-1.28-5.34c-.85-1.55-2.01-2.75-3.48-3.6-1.47-.85-3.1-1.28-4.9-1.28s-3.44.42-4.91,1.28c-1.47.85-2.62,2.05-3.48,3.6-.85,1.55-1.28,3.33-1.28,5.34s.42,3.79,1.28,5.34c.85,1.55,2.01,2.75,3.48,3.6,1.46.85,3.1,1.28,4.91,1.28s3.44-.43,4.9-1.28Z"/>
          <path class="cls-22" d="M1325.42,374.03c-2.73-.72-4.94-1.67-6.64-2.86l3.32-7.46c1.6,1.06,3.46,1.91,5.57,2.56,2.11.65,4.19.97,6.23.97,3.88,0,5.83-.97,5.83-2.91,0-1.02-.55-1.78-1.66-2.27-1.11-.49-2.89-1.02-5.34-1.56-2.69-.58-4.94-1.2-6.74-1.86-1.81-.66-3.36-1.73-4.65-3.19-1.29-1.46-1.94-3.44-1.94-5.92,0-2.18.59-4.15,1.79-5.9,1.19-1.75,2.97-3.14,5.34-4.16,2.37-1.02,5.27-1.53,8.71-1.53,2.35,0,4.67.26,6.95.79,2.28.53,4.29,1.3,6.03,2.32l-3.12,7.51c-3.41-1.84-6.71-2.76-9.91-2.76-2.01,0-3.47.3-4.39.9-.92.59-1.38,1.37-1.38,2.32s.55,1.67,1.64,2.15c1.09.48,2.85.97,5.26,1.48,2.73.58,4.98,1.2,6.77,1.87,1.79.66,3.34,1.72,4.65,3.17,1.31,1.45,1.97,3.41,1.97,5.9,0,2.15-.59,4.09-1.79,5.83-1.19,1.74-2.98,3.12-5.37,4.16-2.38,1.04-5.28,1.56-8.69,1.56-2.9,0-5.71-.36-8.43-1.08Z"/>
        </g>
        <g>
          <polygon class="cls-34" points="1890.02 778.67 1890.02 520.2 1890.02 301.85 1694.18 301.85 1498.33 301.85 1498.33 520.2 1498.33 778.67 1890.02 778.67"/>
          <rect class="cls-27" x="1508.5" y="313.75" width="371.36" height="86.65"/>
          <g>
            <path class="cls-22" d="M1617.69,373.3c-2.98-1.59-5.32-3.79-7.02-6.62-1.71-2.83-2.56-6.03-2.56-9.6s.85-6.78,2.56-9.61c1.7-2.83,4.04-5.03,7.02-6.62,2.98-1.58,6.35-2.37,10.09-2.37,3.27,0,6.22.58,8.84,1.73,2.62,1.16,4.8,2.83,6.54,5.01l-6.44,5.83c-2.32-2.79-5.13-4.19-8.43-4.19-1.94,0-3.67.42-5.19,1.28-1.51.85-2.69,2.05-3.52,3.6-.84,1.55-1.25,3.33-1.25,5.34s.42,3.79,1.25,5.34c.84,1.55,2.01,2.75,3.52,3.6,1.52.85,3.25,1.28,5.19,1.28,3.3,0,6.11-1.4,8.43-4.19l6.44,5.82c-1.73,2.18-3.92,3.85-6.54,5.01-2.62,1.16-5.57,1.74-8.84,1.74-3.74,0-7.11-.79-10.09-2.38Z"/>
            <path class="cls-22" d="M1660.86,373.28c-3.01-1.6-5.38-3.81-7.1-6.64-1.72-2.83-2.58-6.01-2.58-9.55s.86-6.73,2.58-9.56c1.72-2.83,4.09-5.04,7.1-6.64,3.02-1.6,6.41-2.4,10.2-2.4s7.18.8,10.19,2.4c3.02,1.6,5.38,3.81,7.1,6.64,1.72,2.83,2.58,6.01,2.58,9.56s-.86,6.73-2.58,9.55c-1.72,2.83-4.09,5.04-7.1,6.64-3.01,1.6-6.41,2.4-10.19,2.4s-7.18-.8-10.2-2.4ZM1675.96,366.02c1.46-.85,2.62-2.05,3.48-3.6.85-1.55,1.28-3.33,1.28-5.34s-.43-3.79-1.28-5.34c-.85-1.55-2.01-2.75-3.48-3.6-1.47-.85-3.1-1.28-4.9-1.28s-3.44.42-4.91,1.28c-1.47.85-2.62,2.05-3.48,3.6-.85,1.55-1.28,3.33-1.28,5.34s.42,3.79,1.28,5.34c.85,1.55,2.01,2.75,3.48,3.6,1.46.85,3.1,1.28,4.91,1.28s3.44-.43,4.9-1.28Z"/>
            <path class="cls-22" d="M1736.41,339.2v35.77h-8.33l-15.79-19.06v19.06h-9.91v-35.77h8.33l15.79,19.06v-19.06h9.91Z"/>
            <path class="cls-22" d="M1753.83,374.6c-2.73-.72-4.94-1.67-6.64-2.86l3.32-7.46c1.6,1.06,3.46,1.91,5.57,2.56,2.11.65,4.19.97,6.24.97,3.88,0,5.82-.97,5.82-2.91,0-1.02-.55-1.78-1.66-2.27-1.11-.49-2.89-1.02-5.34-1.56-2.69-.58-4.94-1.2-6.75-1.86-1.8-.66-3.35-1.73-4.65-3.19-1.3-1.46-1.94-3.44-1.94-5.92,0-2.18.6-4.15,1.79-5.9,1.19-1.75,2.97-3.14,5.34-4.16,2.37-1.02,5.27-1.53,8.71-1.53,2.35,0,4.67.26,6.95.79,2.28.53,4.29,1.3,6.03,2.32l-3.12,7.51c-3.41-1.84-6.71-2.76-9.91-2.76-2.01,0-3.48.3-4.39.9-.92.59-1.38,1.37-1.38,2.32s.54,1.67,1.63,2.15c1.09.48,2.84.97,5.26,1.48,2.72.58,4.98,1.2,6.77,1.87,1.79.66,3.34,1.72,4.65,3.17,1.31,1.45,1.97,3.41,1.97,5.9,0,2.15-.6,4.09-1.79,5.83-1.19,1.74-2.98,3.12-5.36,4.16-2.39,1.04-5.28,1.56-8.69,1.56-2.9,0-5.71-.36-8.43-1.08Z"/>
          </g>
        </g>
        <g>
          <polygon class="cls-40" points="1092.4 479.92 1081.66 469.18 1086.32 464.51 1092.4 470.58 1106.98 456 1111.65 460.67 1092.4 479.92"/>
          <g>
            <path class="cls-22" d="M1130.77,458.88h-6.07v-2.19h14.79v2.19h-6.1v17.78h-2.61v-17.78Z"/>
            <path class="cls-22" d="M1144.17,458.29c.03.89-.62,1.6-1.66,1.6-.92,0-1.57-.71-1.57-1.6s.68-1.63,1.63-1.63,1.6.71,1.6,1.63ZM1141.26,476.66v-14.34h2.61v14.34h-2.61Z"/>
            <path class="cls-22" d="M1148.2,466.2c0-1.48-.03-2.7-.12-3.88h2.28l.12,2.31h.09c.8-1.36,2.13-2.64,4.5-2.64,1.96,0,3.44,1.18,4.06,2.87h.06c.44-.8,1.01-1.42,1.6-1.87.86-.65,1.81-1.01,3.17-1.01,1.9,0,4.71,1.24,4.71,6.22v8.45h-2.55v-8.12c0-2.76-1.01-4.42-3.11-4.42-1.48,0-2.64,1.1-3.08,2.37-.12.36-.21.83-.21,1.3v8.86h-2.55v-8.59c0-2.28-1.01-3.94-2.99-3.94-1.63,0-2.82,1.3-3.23,2.61-.15.38-.21.83-.21,1.27v8.65h-2.55v-10.46Z"/>
            <path class="cls-22" d="M1174.37,469.96c.06,3.53,2.31,4.98,4.92,4.98,1.87,0,2.99-.33,3.97-.74l.44,1.87c-.92.42-2.49.89-4.77.89-4.42,0-7.05-2.9-7.05-7.23s2.55-7.73,6.73-7.73c4.68,0,5.93,4.12,5.93,6.76,0,.53-.06.95-.09,1.21h-10.08ZM1182.01,468.1c.03-1.66-.68-4.24-3.62-4.24-2.64,0-3.79,2.43-4,4.24h7.62Z"/>
            <path class="cls-22" d="M1194.64,467.68v1.93h-7.32v-1.93h7.32Z"/>
            <path class="cls-22" d="M1200.09,458.88h-6.07v-2.19h14.79v2.19h-6.1v17.78h-2.61v-17.78Z"/>
            <path class="cls-22" d="M1209.61,466.79c0-1.69-.03-3.14-.12-4.47h2.28l.09,2.82h.12c.65-1.93,2.22-3.14,3.97-3.14.3,0,.5.03.74.09v2.46c-.27-.06-.53-.09-.89-.09-1.84,0-3.14,1.39-3.5,3.35-.06.36-.12.77-.12,1.21v7.65h-2.58v-9.87Z"/>
            <path class="cls-22" d="M1227.1,476.66l-.21-1.81h-.09c-.8,1.13-2.34,2.13-4.39,2.13-2.9,0-4.39-2.04-4.39-4.12,0-3.47,3.08-5.36,8.62-5.33v-.3c0-1.18-.33-3.32-3.26-3.32-1.33,0-2.73.42-3.73,1.07l-.59-1.72c1.19-.77,2.9-1.27,4.71-1.27,4.39,0,5.45,2.99,5.45,5.87v5.36c0,1.24.06,2.46.24,3.44h-2.37ZM1226.71,469.34c-2.84-.06-6.08.44-6.08,3.23,0,1.69,1.13,2.49,2.46,2.49,1.87,0,3.05-1.19,3.47-2.4.09-.27.15-.56.15-.83v-2.49Z"/>
            <path class="cls-22" d="M1234.21,462.32l2.81,8.06c.47,1.3.86,2.49,1.16,3.67h.09c.33-1.19.74-2.37,1.21-3.67l2.79-8.06h2.73l-5.63,14.34h-2.49l-5.45-14.34h2.79Z"/>
            <path class="cls-22" d="M1248.62,469.96c.06,3.53,2.31,4.98,4.92,4.98,1.87,0,2.99-.33,3.97-.74l.44,1.87c-.92.42-2.49.89-4.77.89-4.42,0-7.05-2.9-7.05-7.23s2.55-7.73,6.73-7.73c4.68,0,5.93,4.12,5.93,6.76,0,.53-.06.95-.09,1.21h-10.08ZM1256.26,468.1c.03-1.66-.68-4.24-3.62-4.24-2.64,0-3.79,2.43-4,4.24h7.62Z"/>
            <path class="cls-22" d="M1262.01,455.62h2.61v21.04h-2.61v-21.04Z"/>
            <path class="cls-22" d="M1275.38,456.95c1.57-.24,3.44-.42,5.48-.42,3.7,0,6.34.86,8.09,2.49,1.78,1.63,2.81,3.94,2.81,7.17s-1.01,5.93-2.87,7.76c-1.87,1.87-4.95,2.88-8.83,2.88-1.84,0-3.38-.09-4.68-.24v-19.65ZM1277.96,474.62c.65.12,1.6.15,2.61.15,5.51,0,8.5-3.08,8.5-8.48.03-4.71-2.64-7.7-8.09-7.7-1.33,0-2.34.12-3.02.27v15.76Z"/>
            <path class="cls-22" d="M1296.6,469.96c.06,3.53,2.31,4.98,4.92,4.98,1.87,0,2.99-.33,3.97-.74l.44,1.87c-.92.42-2.49.89-4.77.89-4.42,0-7.05-2.9-7.05-7.23s2.55-7.73,6.73-7.73c4.68,0,5.93,4.12,5.93,6.76,0,.53-.06.95-.09,1.21h-10.08ZM1304.25,468.1c.03-1.66-.68-4.24-3.62-4.24-2.64,0-3.79,2.43-4,4.24h7.62Z"/>
            <path class="cls-22" d="M1309.88,476.66c.06-.98.12-2.43.12-3.7v-17.33h2.58v9.01h.06c.92-1.6,2.58-2.64,4.89-2.64,3.56,0,6.08,2.96,6.05,7.32,0,5.13-3.23,7.67-6.43,7.67-2.07,0-3.73-.8-4.8-2.7h-.09l-.12,2.37h-2.25ZM1312.58,470.91c0,.33.06.65.12.95.5,1.81,2.02,3.05,3.91,3.05,2.73,0,4.36-2.22,4.36-5.51,0-2.88-1.48-5.33-4.27-5.33-1.78,0-3.44,1.21-3.97,3.2-.06.3-.15.65-.15,1.07v2.58Z"/>
            <path class="cls-22" d="M1338.86,472.75c0,1.48.03,2.79.12,3.91h-2.31l-.15-2.34h-.06c-.68,1.16-2.19,2.67-4.74,2.67-2.25,0-4.95-1.25-4.95-6.28v-8.39h2.61v7.94c0,2.73.83,4.56,3.2,4.56,1.75,0,2.96-1.21,3.44-2.37.15-.39.24-.86.24-1.33v-8.8h2.61v10.43Z"/>
            <path class="cls-22" d="M1355.55,462.32c-.06,1.04-.12,2.19-.12,3.94v8.33c0,3.29-.65,5.3-2.04,6.55-1.39,1.3-3.41,1.72-5.21,1.72s-3.62-.42-4.77-1.19l.65-1.99c.95.59,2.43,1.13,4.21,1.13,2.67,0,4.62-1.39,4.62-5.01v-1.6h-.06c-.8,1.33-2.34,2.4-4.56,2.4-3.56,0-6.1-3.02-6.1-6.99,0-4.86,3.17-7.62,6.46-7.62,2.49,0,3.85,1.3,4.47,2.49h.06l.12-2.16h2.28ZM1352.85,467.98c0-.44-.03-.83-.15-1.19-.47-1.51-1.75-2.76-3.64-2.76-2.49,0-4.27,2.1-4.27,5.42,0,2.82,1.42,5.16,4.24,5.16,1.6,0,3.05-1.01,3.62-2.67.15-.44.21-.95.21-1.39v-2.58Z"/>
            <path class="cls-22" d="M1372.12,462.32c-.06,1.04-.12,2.19-.12,3.94v8.33c0,3.29-.65,5.3-2.04,6.55-1.39,1.3-3.41,1.72-5.21,1.72s-3.62-.42-4.77-1.19l.65-1.99c.95.59,2.43,1.13,4.21,1.13,2.67,0,4.62-1.39,4.62-5.01v-1.6h-.06c-.8,1.33-2.34,2.4-4.56,2.4-3.56,0-6.1-3.02-6.1-6.99,0-4.86,3.17-7.62,6.46-7.62,2.49,0,3.85,1.3,4.47,2.49h.06l.12-2.16h2.28ZM1369.42,467.98c0-.44-.03-.83-.15-1.19-.47-1.51-1.75-2.76-3.64-2.76-2.49,0-4.27,2.1-4.27,5.42,0,2.82,1.42,5.16,4.24,5.16,1.6,0,3.05-1.01,3.62-2.67.15-.44.21-.95.21-1.39v-2.58Z"/>
            <path class="cls-22" d="M1379.06,458.29c.03.89-.62,1.6-1.66,1.6-.92,0-1.57-.71-1.57-1.6s.68-1.63,1.63-1.63,1.6.71,1.6,1.63ZM1376.15,476.66v-14.34h2.61v14.34h-2.61Z"/>
            <path class="cls-22" d="M1383.09,466.2c0-1.48-.03-2.7-.12-3.88h2.31l.15,2.37h.06c.71-1.36,2.37-2.7,4.74-2.7,1.99,0,5.07,1.18,5.07,6.1v8.56h-2.61v-8.27c0-2.31-.86-4.24-3.32-4.24-1.72,0-3.05,1.21-3.5,2.67-.12.33-.18.77-.18,1.21v8.62h-2.61v-10.46Z"/>
            <path class="cls-22" d="M1411.89,462.32c-.06,1.04-.12,2.19-.12,3.94v8.33c0,3.29-.65,5.3-2.04,6.55-1.39,1.3-3.41,1.72-5.21,1.72s-3.62-.42-4.77-1.19l.65-1.99c.95.59,2.43,1.13,4.21,1.13,2.67,0,4.62-1.39,4.62-5.01v-1.6h-.06c-.8,1.33-2.34,2.4-4.56,2.4-3.56,0-6.1-3.02-6.1-6.99,0-4.86,3.17-7.62,6.46-7.62,2.49,0,3.85,1.3,4.47,2.49h.06l.12-2.16h2.28ZM1409.2,467.98c0-.44-.03-.83-.15-1.19-.47-1.51-1.75-2.76-3.64-2.76-2.49,0-4.27,2.1-4.27,5.42,0,2.82,1.42,5.16,4.24,5.16,1.6,0,3.05-1.01,3.62-2.67.15-.44.21-.95.21-1.39v-2.58Z"/>
          </g>
        </g>
        <g>
          <polygon class="cls-40" points="1092.4 548.85 1081.66 538.1 1086.32 533.44 1092.4 539.51 1106.98 524.93 1111.65 529.6 1092.4 548.85"/>
          <g>
            <path class="cls-22" d="M1140.93,544.94c-.95.47-2.84.95-5.27.95-5.63,0-9.87-3.56-9.87-10.1s4.24-10.49,10.43-10.49c2.49,0,4.06.53,4.74.89l-.62,2.1c-.98-.47-2.37-.83-4.03-.83-4.68,0-7.79,2.99-7.79,8.24,0,4.89,2.82,8.03,7.67,8.03,1.57,0,3.17-.33,4.21-.83l.53,2.04Z"/>
            <path class="cls-22" d="M1145.2,538.89c.06,3.53,2.31,4.98,4.92,4.98,1.87,0,2.99-.33,3.97-.74l.44,1.87c-.92.42-2.49.89-4.77.89-4.42,0-7.05-2.9-7.05-7.23s2.55-7.73,6.73-7.73c4.68,0,5.93,4.12,5.93,6.76,0,.53-.06.95-.09,1.21h-10.08ZM1152.85,537.02c.03-1.66-.68-4.24-3.62-4.24-2.64,0-3.79,2.43-4,4.24h7.62Z"/>
            <path class="cls-22" d="M1158.6,535.13c0-1.48-.03-2.7-.12-3.88h2.31l.15,2.37h.06c.71-1.36,2.37-2.7,4.74-2.7,1.99,0,5.07,1.18,5.07,6.1v8.56h-2.61v-8.27c0-2.31-.86-4.24-3.32-4.24-1.72,0-3.05,1.21-3.5,2.67-.12.33-.18.77-.18,1.21v8.62h-2.61v-10.46Z"/>
            <path class="cls-22" d="M1178.07,527.13v4.12h3.73v1.99h-3.73v7.73c0,1.78.5,2.79,1.96,2.79.68,0,1.19-.09,1.51-.18l.12,1.96c-.5.21-1.3.36-2.31.36-1.21,0-2.19-.38-2.81-1.1-.74-.77-1.01-2.04-1.01-3.73v-7.82h-2.22v-1.99h2.22v-3.44l2.55-.68Z"/>
            <path class="cls-22" d="M1184.74,535.72c0-1.69-.03-3.14-.12-4.47h2.28l.09,2.82h.12c.65-1.93,2.22-3.14,3.97-3.14.3,0,.5.03.74.09v2.46c-.27-.06-.53-.09-.89-.09-1.84,0-3.14,1.39-3.5,3.35-.06.36-.12.77-.12,1.21v7.65h-2.58v-9.87Z"/>
            <path class="cls-22" d="M1202.23,545.59l-.21-1.81h-.09c-.8,1.13-2.34,2.13-4.39,2.13-2.9,0-4.39-2.04-4.39-4.12,0-3.47,3.08-5.36,8.62-5.33v-.3c0-1.18-.33-3.32-3.26-3.32-1.33,0-2.73.42-3.73,1.07l-.59-1.72c1.19-.77,2.9-1.27,4.71-1.27,4.39,0,5.45,2.99,5.45,5.87v5.36c0,1.24.06,2.46.24,3.44h-2.37ZM1201.84,538.27c-2.84-.06-6.08.44-6.08,3.23,0,1.69,1.13,2.49,2.46,2.49,1.87,0,3.05-1.19,3.47-2.4.09-.27.15-.56.15-.83v-2.49Z"/>
            <path class="cls-22" d="M1208.57,524.55h2.61v21.04h-2.61v-21.04Z"/>
            <path class="cls-22" d="M1221.5,542.92c.77.5,2.13,1.04,3.44,1.04,1.9,0,2.79-.95,2.79-2.13,0-1.24-.74-1.93-2.67-2.64-2.58-.92-3.79-2.34-3.79-4.06,0-2.31,1.87-4.21,4.95-4.21,1.45,0,2.73.41,3.53.89l-.65,1.9c-.56-.36-1.6-.83-2.93-.83-1.54,0-2.4.89-2.4,1.96,0,1.19.86,1.72,2.73,2.43,2.49.95,3.76,2.19,3.76,4.33,0,2.52-1.96,4.3-5.36,4.3-1.57,0-3.02-.38-4.03-.98l.65-1.99Z"/>
            <path class="cls-22" d="M1236.73,527.13v4.12h3.73v1.99h-3.73v7.73c0,1.78.5,2.79,1.96,2.79.68,0,1.19-.09,1.51-.18l.12,1.96c-.5.21-1.3.36-2.31.36-1.21,0-2.19-.38-2.81-1.1-.74-.77-1.01-2.04-1.01-3.73v-7.82h-2.22v-1.99h2.22v-3.44l2.55-.68Z"/>
            <path class="cls-22" d="M1251.34,545.59l-.21-1.81h-.09c-.8,1.13-2.34,2.13-4.39,2.13-2.9,0-4.39-2.04-4.39-4.12,0-3.47,3.08-5.36,8.62-5.33v-.3c0-1.18-.33-3.32-3.26-3.32-1.33,0-2.73.42-3.73,1.07l-.59-1.72c1.19-.77,2.9-1.27,4.71-1.27,4.39,0,5.45,2.99,5.45,5.87v5.36c0,1.24.06,2.46.24,3.44h-2.37ZM1250.96,538.27c-2.84-.06-6.08.44-6.08,3.23,0,1.69,1.13,2.49,2.46,2.49,1.87,0,3.05-1.19,3.47-2.4.09-.27.15-.56.15-.83v-2.49Z"/>
            <path class="cls-22" d="M1260.71,527.13v4.12h3.73v1.99h-3.73v7.73c0,1.78.5,2.79,1.96,2.79.68,0,1.19-.09,1.51-.18l.12,1.96c-.5.21-1.3.36-2.31.36-1.21,0-2.19-.38-2.81-1.1-.74-.77-1.01-2.04-1.01-3.73v-7.82h-2.22v-1.99h2.22v-3.44l2.55-.68Z"/>
            <path class="cls-22" d="M1268.65,538.89c.06,3.53,2.31,4.98,4.92,4.98,1.87,0,2.99-.33,3.97-.74l.44,1.87c-.92.42-2.49.89-4.77.89-4.42,0-7.05-2.9-7.05-7.23s2.55-7.73,6.73-7.73c4.68,0,5.93,4.12,5.93,6.76,0,.53-.06.95-.09,1.21h-10.08ZM1276.3,537.02c.03-1.66-.68-4.24-3.62-4.24-2.64,0-3.79,2.43-4,4.24h7.62Z"/>
            <path class="cls-22" d="M1288.33,535.13c0-1.48-.03-2.7-.12-3.88h2.28l.12,2.31h.09c.8-1.36,2.13-2.64,4.5-2.64,1.96,0,3.44,1.18,4.06,2.87h.06c.44-.8,1.01-1.42,1.6-1.87.86-.65,1.81-1.01,3.17-1.01,1.9,0,4.71,1.24,4.71,6.22v8.45h-2.55v-8.12c0-2.76-1.01-4.42-3.11-4.42-1.48,0-2.64,1.1-3.08,2.37-.12.36-.21.83-.21,1.3v8.86h-2.55v-8.59c0-2.28-1.01-3.94-2.99-3.94-1.63,0-2.82,1.3-3.23,2.61-.15.38-.21.83-.21,1.27v8.65h-2.55v-10.46Z"/>
            <path class="cls-22" d="M1320.99,545.59l-.21-1.81h-.09c-.8,1.13-2.34,2.13-4.39,2.13-2.9,0-4.39-2.04-4.39-4.12,0-3.47,3.08-5.36,8.62-5.33v-.3c0-1.18-.33-3.32-3.26-3.32-1.33,0-2.73.42-3.73,1.07l-.59-1.72c1.19-.77,2.9-1.27,4.71-1.27,4.39,0,5.45,2.99,5.45,5.87v5.36c0,1.24.06,2.46.24,3.44h-2.37ZM1320.61,538.27c-2.84-.06-6.08.44-6.08,3.23,0,1.69,1.13,2.49,2.46,2.49,1.87,0,3.05-1.19,3.47-2.4.09-.27.15-.56.15-.83v-2.49Z"/>
            <path class="cls-22" d="M1327.34,535.13c0-1.48-.03-2.7-.12-3.88h2.31l.15,2.37h.06c.71-1.36,2.37-2.7,4.74-2.7,1.99,0,5.07,1.18,5.07,6.1v8.56h-2.61v-8.27c0-2.31-.86-4.24-3.32-4.24-1.72,0-3.05,1.21-3.5,2.67-.12.33-.18.77-.18,1.21v8.62h-2.61v-10.46Z"/>
            <path class="cls-22" d="M1351.73,545.59l-.21-1.81h-.09c-.8,1.13-2.34,2.13-4.39,2.13-2.9,0-4.39-2.04-4.39-4.12,0-3.47,3.08-5.36,8.62-5.33v-.3c0-1.18-.33-3.32-3.26-3.32-1.33,0-2.73.42-3.73,1.07l-.59-1.72c1.19-.77,2.9-1.27,4.71-1.27,4.39,0,5.45,2.99,5.45,5.87v5.36c0,1.24.06,2.46.24,3.44h-2.37ZM1351.34,538.27c-2.84-.06-6.08.44-6.08,3.23,0,1.69,1.13,2.49,2.46,2.49,1.87,0,3.05-1.19,3.47-2.4.09-.27.15-.56.15-.83v-2.49Z"/>
            <path class="cls-22" d="M1370.43,531.25c-.06,1.04-.12,2.19-.12,3.94v8.33c0,3.29-.65,5.3-2.04,6.55-1.39,1.3-3.41,1.72-5.21,1.72s-3.62-.42-4.77-1.19l.65-1.99c.95.59,2.43,1.13,4.21,1.13,2.67,0,4.62-1.39,4.62-5.01v-1.6h-.06c-.8,1.33-2.34,2.4-4.56,2.4-3.56,0-6.1-3.02-6.1-6.99,0-4.86,3.17-7.62,6.46-7.62,2.49,0,3.85,1.3,4.47,2.49h.06l.12-2.16h2.28ZM1367.73,536.91c0-.44-.03-.83-.15-1.19-.47-1.51-1.75-2.76-3.64-2.76-2.49,0-4.27,2.1-4.27,5.42,0,2.82,1.42,5.16,4.24,5.16,1.6,0,3.05-1.01,3.62-2.67.15-.44.21-.95.21-1.39v-2.58Z"/>
            <path class="cls-22" d="M1376.09,538.89c.06,3.53,2.31,4.98,4.92,4.98,1.87,0,2.99-.33,3.97-.74l.44,1.87c-.92.42-2.49.89-4.77.89-4.42,0-7.05-2.9-7.05-7.23s2.55-7.73,6.73-7.73c4.68,0,5.93,4.12,5.93,6.76,0,.53-.06.95-.09,1.21h-10.08ZM1383.74,537.02c.03-1.66-.68-4.24-3.62-4.24-2.64,0-3.79,2.43-4,4.24h7.62Z"/>
            <path class="cls-22" d="M1389.49,535.13c0-1.48-.03-2.7-.12-3.88h2.28l.12,2.31h.09c.8-1.36,2.13-2.64,4.5-2.64,1.96,0,3.44,1.18,4.06,2.87h.06c.44-.8,1.01-1.42,1.6-1.87.86-.65,1.81-1.01,3.17-1.01,1.9,0,4.71,1.24,4.71,6.22v8.45h-2.55v-8.12c0-2.76-1.01-4.42-3.11-4.42-1.48,0-2.64,1.1-3.08,2.37-.12.36-.21.83-.21,1.3v8.86h-2.55v-8.59c0-2.28-1.01-3.94-2.99-3.94-1.63,0-2.82,1.3-3.23,2.61-.15.38-.21.83-.21,1.27v8.65h-2.55v-10.46Z"/>
            <path class="cls-22" d="M1415.66,538.89c.06,3.53,2.31,4.98,4.92,4.98,1.87,0,2.99-.33,3.97-.74l.44,1.87c-.92.42-2.49.89-4.77.89-4.42,0-7.05-2.9-7.05-7.23s2.55-7.73,6.73-7.73c4.68,0,5.93,4.12,5.93,6.76,0,.53-.06.95-.09,1.21h-10.08ZM1423.31,537.02c.03-1.66-.68-4.24-3.62-4.24-2.64,0-3.79,2.43-4,4.24h7.62Z"/>
            <path class="cls-22" d="M1429.06,535.13c0-1.48-.03-2.7-.12-3.88h2.31l.15,2.37h.06c.71-1.36,2.37-2.7,4.74-2.7,1.99,0,5.07,1.18,5.07,6.1v8.56h-2.61v-8.27c0-2.31-.86-4.24-3.32-4.24-1.72,0-3.05,1.21-3.5,2.67-.12.33-.18.77-.18,1.21v8.62h-2.61v-10.46Z"/>
            <path class="cls-22" d="M1448.53,527.13v4.12h3.73v1.99h-3.73v7.73c0,1.78.5,2.79,1.96,2.79.68,0,1.19-.09,1.51-.18l.12,1.96c-.5.21-1.3.36-2.31.36-1.21,0-2.19-.38-2.81-1.1-.74-.77-1.01-2.04-1.01-3.73v-7.82h-2.22v-1.99h2.22v-3.44l2.55-.68Z"/>
          </g>
        </g>
        <g>
          <polygon class="cls-40" points="1092.4 617.78 1081.66 607.03 1086.32 602.37 1092.4 608.44 1106.98 593.86 1111.65 598.53 1092.4 617.78"/>
          <g>
            <path class="cls-22" d="M1126.62,611.38c1.16.71,2.84,1.3,4.62,1.3,2.64,0,4.18-1.39,4.18-3.41,0-1.87-1.07-2.93-3.76-3.97-3.26-1.16-5.27-2.84-5.27-5.66,0-3.11,2.58-5.42,6.46-5.42,2.04,0,3.53.47,4.42.98l-.71,2.1c-.65-.36-1.99-.95-3.79-.95-2.73,0-3.76,1.63-3.76,2.99,0,1.87,1.21,2.79,3.97,3.85,3.38,1.3,5.1,2.93,5.1,5.87,0,3.08-2.28,5.75-6.99,5.75-1.93,0-4.03-.56-5.1-1.27l.65-2.16Z"/>
            <path class="cls-22" d="M1143.13,607.82c.06,3.53,2.31,4.98,4.92,4.98,1.87,0,2.99-.33,3.97-.74l.44,1.87c-.92.42-2.49.89-4.77.89-4.42,0-7.05-2.9-7.05-7.23s2.55-7.73,6.73-7.73c4.68,0,5.93,4.12,5.93,6.76,0,.53-.06.95-.09,1.22h-10.08ZM1150.77,605.95c.03-1.66-.68-4.24-3.62-4.24-2.64,0-3.79,2.43-4,4.24h7.62Z"/>
            <path class="cls-22" d="M1156.53,593.48h2.61v21.04h-2.61v-21.04Z"/>
            <path class="cls-22" d="M1164.97,607.82c.06,3.53,2.31,4.98,4.92,4.98,1.87,0,2.99-.33,3.97-.74l.44,1.87c-.92.42-2.49.89-4.77.89-4.42,0-7.05-2.9-7.05-7.23s2.55-7.73,6.73-7.73c4.68,0,5.93,4.12,5.93,6.76,0,.53-.06.95-.09,1.22h-10.08ZM1172.62,605.95c.03-1.66-.68-4.24-3.62-4.24-2.64,0-3.79,2.43-4,4.24h7.62Z"/>
            <path class="cls-22" d="M1188.59,613.98c-.68.36-2.19.83-4.12.83-4.33,0-7.14-2.93-7.14-7.32s3.02-7.62,7.7-7.62c1.54,0,2.9.39,3.62.74l-.59,2.01c-.62-.36-1.6-.68-3.02-.68-3.29,0-5.07,2.43-5.07,5.42,0,3.32,2.13,5.36,4.98,5.36,1.48,0,2.46-.39,3.2-.71l.44,1.96Z"/>
            <path class="cls-22" d="M1195.17,596.06v4.12h3.73v1.99h-3.73v7.73c0,1.78.5,2.79,1.96,2.79.68,0,1.19-.09,1.51-.18l.12,1.96c-.5.21-1.3.36-2.31.36-1.21,0-2.19-.39-2.81-1.1-.74-.77-1.01-2.04-1.01-3.73v-7.82h-2.22v-1.99h2.22v-3.44l2.55-.68Z"/>
            <path class="cls-22" d="M1204.75,596.15c.03.89-.62,1.6-1.66,1.6-.92,0-1.57-.71-1.57-1.6s.68-1.63,1.63-1.63,1.6.71,1.6,1.63ZM1201.84,614.52v-14.34h2.61v14.34h-2.61Z"/>
            <path class="cls-22" d="M1209.79,600.18l2.81,8.06c.47,1.3.86,2.49,1.16,3.67h.09c.33-1.19.74-2.37,1.21-3.67l2.79-8.06h2.73l-5.63,14.34h-2.49l-5.45-14.34h2.79Z"/>
            <path class="cls-22" d="M1224.19,607.82c.06,3.53,2.31,4.98,4.92,4.98,1.87,0,2.99-.33,3.97-.74l.44,1.87c-.92.42-2.49.89-4.77.89-4.42,0-7.05-2.9-7.05-7.23s2.55-7.73,6.73-7.73c4.68,0,5.93,4.12,5.93,6.76,0,.53-.06.95-.09,1.22h-10.08ZM1231.84,605.95c.03-1.66-.68-4.24-3.62-4.24-2.64,0-3.79,2.43-4,4.24h7.62Z"/>
            <path class="cls-22" d="M1255.87,610.61c0,1.48.03,2.79.12,3.91h-2.31l-.15-2.34h-.06c-.68,1.16-2.19,2.67-4.74,2.67-2.25,0-4.95-1.24-4.95-6.28v-8.39h2.61v7.94c0,2.73.83,4.56,3.2,4.56,1.75,0,2.96-1.21,3.44-2.37.15-.38.24-.86.24-1.33v-8.8h2.61v10.43Z"/>
            <path class="cls-22" d="M1260.2,604.86c0-1.84-.06-3.32-.12-4.68h2.34l.12,2.46h.06c1.07-1.75,2.76-2.79,5.1-2.79,3.47,0,6.08,2.93,6.08,7.29,0,5.16-3.14,7.7-6.52,7.7-1.9,0-3.56-.83-4.42-2.25h-.06v7.79h-2.58v-15.53ZM1262.78,608.68c0,.38.06.74.12,1.07.47,1.81,2.04,3.05,3.91,3.05,2.76,0,4.36-2.25,4.36-5.54,0-2.87-1.51-5.33-4.27-5.33-1.78,0-3.44,1.27-3.94,3.23-.09.33-.18.71-.18,1.07v2.46Z"/>
            <path class="cls-22" d="M1289.45,593.48v17.33c0,1.27.03,2.73.12,3.7h-2.34l-.12-2.49h-.06c-.8,1.6-2.55,2.82-4.89,2.82-3.47,0-6.13-2.93-6.13-7.29-.03-4.77,2.93-7.7,6.43-7.7,2.19,0,3.67,1.04,4.33,2.19h.06v-8.56h2.61ZM1286.85,606.01c0-.33-.03-.77-.12-1.1-.38-1.66-1.81-3.02-3.76-3.02-2.7,0-4.3,2.37-4.3,5.54,0,2.9,1.42,5.3,4.24,5.3,1.75,0,3.35-1.16,3.82-3.11.09-.36.12-.71.12-1.13v-2.49Z"/>
            <path class="cls-22" d="M1301.72,614.52l-.21-1.81h-.09c-.8,1.13-2.34,2.13-4.39,2.13-2.9,0-4.39-2.04-4.39-4.12,0-3.47,3.08-5.36,8.62-5.33v-.3c0-1.19-.33-3.32-3.26-3.32-1.33,0-2.73.42-3.73,1.07l-.59-1.72c1.19-.77,2.9-1.27,4.71-1.27,4.39,0,5.45,2.99,5.45,5.87v5.36c0,1.25.06,2.46.24,3.44h-2.37ZM1301.34,607.2c-2.84-.06-6.08.44-6.08,3.23,0,1.69,1.13,2.49,2.46,2.49,1.87,0,3.05-1.19,3.47-2.4.09-.27.15-.56.15-.83v-2.49Z"/>
            <path class="cls-22" d="M1311.09,596.06v4.12h3.73v1.99h-3.73v7.73c0,1.78.5,2.79,1.96,2.79.68,0,1.19-.09,1.51-.18l.12,1.96c-.5.21-1.3.36-2.31.36-1.21,0-2.19-.39-2.81-1.1-.74-.77-1.01-2.04-1.01-3.73v-7.82h-2.22v-1.99h2.22v-3.44l2.55-.68Z"/>
            <path class="cls-22" d="M1319.04,607.82c.06,3.53,2.31,4.98,4.92,4.98,1.87,0,2.99-.33,3.97-.74l.44,1.87c-.92.42-2.49.89-4.77.89-4.42,0-7.05-2.9-7.05-7.23s2.55-7.73,6.73-7.73c4.68,0,5.93,4.12,5.93,6.76,0,.53-.06.95-.09,1.22h-10.08ZM1326.68,605.95c.03-1.66-.68-4.24-3.62-4.24-2.64,0-3.79,2.43-4,4.24h7.62Z"/>
            <path class="cls-22" d="M1332.08,611.85c.77.5,2.13,1.04,3.44,1.04,1.9,0,2.79-.95,2.79-2.13,0-1.25-.74-1.93-2.67-2.64-2.58-.92-3.79-2.34-3.79-4.06,0-2.31,1.87-4.21,4.95-4.21,1.45,0,2.73.42,3.53.89l-.65,1.9c-.56-.36-1.6-.83-2.93-.83-1.54,0-2.4.89-2.4,1.96,0,1.19.86,1.72,2.73,2.43,2.49.95,3.76,2.19,3.76,4.33,0,2.52-1.96,4.3-5.36,4.3-1.57,0-3.02-.39-4.03-.98l.65-1.99Z"/>
          </g>
        </g>
        <g>
          <polygon class="cls-40" points="1092.4 686.7 1081.66 675.96 1086.32 671.29 1092.4 677.37 1106.98 662.79 1111.65 667.46 1092.4 686.7"/>
          <g>
            <path class="cls-22" d="M1126.98,663.47h2.58v17.81h8.53v2.16h-11.11v-19.97Z"/>
            <path class="cls-22" d="M1148.82,683.45l-.21-1.81h-.09c-.8,1.13-2.34,2.13-4.39,2.13-2.9,0-4.39-2.04-4.39-4.12,0-3.47,3.08-5.36,8.62-5.33v-.3c0-1.19-.33-3.32-3.26-3.32-1.33,0-2.73.42-3.73,1.07l-.59-1.72c1.19-.77,2.9-1.27,4.71-1.27,4.39,0,5.45,2.99,5.45,5.87v5.36c0,1.25.06,2.46.24,3.44h-2.37ZM1148.43,676.13c-2.84-.06-6.08.44-6.08,3.23,0,1.69,1.13,2.49,2.46,2.49,1.87,0,3.05-1.19,3.47-2.4.09-.27.15-.56.15-.83v-2.49Z"/>
            <path class="cls-22" d="M1155.16,673.58c0-1.69-.03-3.14-.12-4.47h2.28l.09,2.82h.12c.65-1.93,2.22-3.14,3.97-3.14.3,0,.5.03.74.09v2.46c-.27-.06-.53-.09-.89-.09-1.84,0-3.14,1.39-3.5,3.35-.06.36-.12.77-.12,1.22v7.64h-2.58v-9.87Z"/>
            <path class="cls-22" d="M1176.97,669.1c-.06,1.04-.12,2.19-.12,3.94v8.33c0,3.29-.65,5.3-2.04,6.55-1.39,1.3-3.41,1.72-5.21,1.72s-3.62-.42-4.77-1.19l.65-1.99c.95.59,2.43,1.13,4.21,1.13,2.67,0,4.62-1.39,4.62-5.01v-1.6h-.06c-.8,1.33-2.34,2.4-4.56,2.4-3.56,0-6.1-3.02-6.1-6.99,0-4.86,3.17-7.62,6.46-7.62,2.49,0,3.85,1.3,4.47,2.49h.06l.12-2.16h2.28ZM1174.28,674.76c0-.45-.03-.83-.15-1.19-.47-1.51-1.75-2.76-3.64-2.76-2.49,0-4.27,2.1-4.27,5.42,0,2.81,1.42,5.16,4.24,5.16,1.6,0,3.05-1.01,3.62-2.67.15-.45.21-.95.21-1.39v-2.58Z"/>
            <path class="cls-22" d="M1182.64,676.75c.06,3.53,2.31,4.98,4.92,4.98,1.87,0,2.99-.33,3.97-.74l.44,1.87c-.92.42-2.49.89-4.77.89-4.42,0-7.05-2.9-7.05-7.23s2.55-7.73,6.73-7.73c4.68,0,5.93,4.12,5.93,6.76,0,.53-.06.95-.09,1.22h-10.08ZM1190.28,674.88c.03-1.66-.68-4.24-3.62-4.24-2.64,0-3.79,2.43-4,4.24h7.62Z"/>
            <path class="cls-22" d="M1203.77,676.75c.06,3.53,2.31,4.98,4.92,4.98,1.87,0,2.99-.33,3.97-.74l.44,1.87c-.92.42-2.49.89-4.77.89-4.42,0-7.05-2.9-7.05-7.23s2.55-7.73,6.73-7.73c4.68,0,5.93,4.12,5.93,6.76,0,.53-.06.95-.09,1.22h-10.08ZM1211.42,674.88c.03-1.66-.68-4.24-3.62-4.24-2.64,0-3.79,2.43-4,4.24h7.62Z"/>
            <path class="cls-22" d="M1227.39,682.91c-.68.36-2.19.83-4.12.83-4.33,0-7.14-2.93-7.14-7.32s3.02-7.62,7.7-7.62c1.54,0,2.9.39,3.62.74l-.59,2.01c-.62-.36-1.6-.68-3.02-.68-3.29,0-5.07,2.43-5.07,5.42,0,3.32,2.13,5.36,4.98,5.36,1.48,0,2.46-.39,3.2-.71l.44,1.96Z"/>
            <path class="cls-22" d="M1243.25,676.16c0,5.3-3.67,7.62-7.14,7.62-3.88,0-6.88-2.84-6.88-7.38,0-4.8,3.14-7.62,7.11-7.62s6.9,2.99,6.9,7.38ZM1231.87,676.3c0,3.14,1.81,5.51,4.36,5.51s4.36-2.34,4.36-5.57c0-2.43-1.21-5.51-4.3-5.51s-4.42,2.84-4.42,5.57Z"/>
            <path class="cls-22" d="M1246.18,680.78c.77.5,2.13,1.04,3.44,1.04,1.9,0,2.79-.95,2.79-2.13,0-1.25-.74-1.93-2.67-2.64-2.58-.92-3.79-2.34-3.79-4.06,0-2.31,1.87-4.21,4.95-4.21,1.45,0,2.73.42,3.53.89l-.65,1.9c-.56-.36-1.6-.83-2.93-.83-1.54,0-2.4.89-2.4,1.96,0,1.19.86,1.72,2.73,2.43,2.49.95,3.76,2.19,3.76,4.33,0,2.52-1.96,4.3-5.36,4.3-1.57,0-3.02-.39-4.03-.98l.65-1.99Z"/>
            <path class="cls-22" d="M1259.22,669.1l3.14,8.47c.33.95.68,2.07.92,2.93h.06c.27-.86.56-1.96.92-2.99l2.84-8.42h2.75l-3.91,10.22c-1.87,4.92-3.14,7.44-4.92,8.98-1.27,1.13-2.55,1.57-3.2,1.69l-.65-2.19c.65-.21,1.51-.62,2.28-1.27.71-.56,1.6-1.57,2.19-2.9.12-.27.21-.47.21-.62s-.06-.36-.18-.68l-5.3-13.22h2.84Z"/>
            <path class="cls-22" d="M1271.7,680.78c.77.5,2.13,1.04,3.44,1.04,1.9,0,2.79-.95,2.79-2.13,0-1.25-.74-1.93-2.67-2.64-2.58-.92-3.79-2.34-3.79-4.06,0-2.31,1.87-4.21,4.95-4.21,1.45,0,2.73.42,3.53.89l-.65,1.9c-.56-.36-1.6-.83-2.93-.83-1.54,0-2.4.89-2.4,1.96,0,1.19.86,1.72,2.73,2.43,2.49.95,3.76,2.19,3.76,4.33,0,2.52-1.96,4.3-5.36,4.3-1.57,0-3.02-.39-4.03-.98l.65-1.99Z"/>
            <path class="cls-22" d="M1286.94,664.99v4.12h3.73v1.99h-3.73v7.73c0,1.78.5,2.79,1.96,2.79.68,0,1.19-.09,1.51-.18l.12,1.96c-.5.21-1.3.36-2.31.36-1.21,0-2.19-.39-2.81-1.1-.74-.77-1.01-2.04-1.01-3.73v-7.82h-2.22v-1.99h2.22v-3.44l2.55-.68Z"/>
            <path class="cls-22" d="M1294.88,676.75c.06,3.53,2.31,4.98,4.92,4.98,1.87,0,2.99-.33,3.97-.74l.44,1.87c-.92.42-2.49.89-4.77.89-4.42,0-7.05-2.9-7.05-7.23s2.55-7.73,6.73-7.73c4.68,0,5.93,4.12,5.93,6.76,0,.53-.06.95-.09,1.22h-10.08ZM1302.53,674.88c.03-1.66-.68-4.24-3.62-4.24-2.64,0-3.79,2.43-4,4.24h7.62Z"/>
            <path class="cls-22" d="M1308.28,672.99c0-1.48-.03-2.7-.12-3.88h2.28l.12,2.31h.09c.8-1.36,2.13-2.64,4.5-2.64,1.96,0,3.44,1.19,4.06,2.87h.06c.44-.8,1.01-1.42,1.6-1.87.86-.65,1.81-1.01,3.17-1.01,1.9,0,4.71,1.25,4.71,6.22v8.45h-2.55v-8.12c0-2.76-1.01-4.42-3.11-4.42-1.48,0-2.64,1.1-3.08,2.37-.12.36-.21.83-.21,1.3v8.86h-2.55v-8.59c0-2.28-1.01-3.94-2.99-3.94-1.63,0-2.82,1.3-3.23,2.61-.15.39-.21.83-.21,1.27v8.65h-2.55v-10.46Z"/>
          </g>
        </g>
        <g>
          <g>
            <polygon class="cls-27" points="1571.65 460.85 1566.26 455.46 1559.15 462.58 1552.03 455.46 1546.65 460.85 1553.77 467.96 1546.65 475.08 1552.03 480.46 1559.15 473.34 1566.26 480.46 1571.65 475.08 1564.53 467.96 1571.65 460.85"/>
            <g>
              <path class="cls-22" d="M1592.7,470.38l-2.07,6.28h-2.67l6.79-19.97h3.11l6.82,19.97h-2.76l-2.13-6.28h-7.08ZM1599.25,468.36l-1.96-5.75c-.44-1.3-.74-2.49-1.04-3.64h-.06c-.3,1.19-.62,2.4-1.01,3.62l-1.96,5.78h6.02Z"/>
              <path class="cls-22" d="M1613.81,455.62h2.61v21.04h-2.61v-21.04Z"/>
              <path class="cls-22" d="M1633.78,469.37c0,5.3-3.67,7.62-7.14,7.62-3.88,0-6.88-2.84-6.88-7.38,0-4.8,3.14-7.62,7.11-7.62s6.9,2.99,6.9,7.38ZM1622.4,469.52c0,3.14,1.81,5.51,4.36,5.51s4.36-2.34,4.36-5.57c0-2.43-1.21-5.51-4.3-5.51s-4.42,2.84-4.42,5.57Z"/>
              <path class="cls-22" d="M1640.21,458.2v4.12h3.73v1.99h-3.73v7.73c0,1.78.5,2.79,1.96,2.79.68,0,1.19-.09,1.51-.18l.12,1.96c-.5.21-1.3.36-2.31.36-1.21,0-2.19-.39-2.81-1.1-.74-.77-1.01-2.04-1.01-3.73v-7.82h-2.22v-1.99h2.22v-3.44l2.55-.68Z"/>
              <path class="cls-22" d="M1666.15,469.37c0,5.3-3.67,7.62-7.14,7.62-3.88,0-6.88-2.84-6.88-7.38,0-4.8,3.14-7.62,7.11-7.62s6.9,2.99,6.9,7.38ZM1654.77,469.52c0,3.14,1.81,5.51,4.36,5.51s4.36-2.34,4.36-5.57c0-2.43-1.21-5.51-4.3-5.51s-4.42,2.84-4.42,5.57Z"/>
              <path class="cls-22" d="M1669.7,476.66v-12.36h-2.01v-1.99h2.01v-.68c0-2.01.44-3.85,1.66-5.01.98-.95,2.28-1.33,3.5-1.33.92,0,1.72.21,2.22.42l-.36,2.02c-.39-.18-.92-.33-1.66-.33-2.22,0-2.79,1.96-2.79,4.15v.77h3.47v1.99h-3.47v12.36h-2.58Z"/>
              <path class="cls-22" d="M1684.26,476.66c.06-.98.12-2.43.12-3.7v-17.33h2.58v9.01h.06c.92-1.6,2.58-2.64,4.89-2.64,3.56,0,6.08,2.96,6.05,7.32,0,5.13-3.23,7.67-6.43,7.67-2.07,0-3.73-.8-4.8-2.7h-.09l-.12,2.37h-2.25ZM1686.95,470.91c0,.33.06.65.12.95.5,1.81,2.02,3.05,3.91,3.05,2.73,0,4.36-2.22,4.36-5.51,0-2.87-1.48-5.33-4.27-5.33-1.78,0-3.44,1.21-3.97,3.2-.06.3-.15.65-.15,1.07v2.58Z"/>
              <path class="cls-22" d="M1714.22,469.37c0,5.3-3.67,7.62-7.14,7.62-3.88,0-6.88-2.84-6.88-7.38,0-4.8,3.14-7.62,7.11-7.62s6.9,2.99,6.9,7.38ZM1702.84,469.52c0,3.14,1.81,5.51,4.36,5.51s4.36-2.34,4.36-5.57c0-2.43-1.21-5.51-4.3-5.51s-4.42,2.84-4.42,5.57Z"/>
              <path class="cls-22" d="M1720.42,458.29c.03.89-.62,1.6-1.66,1.6-.92,0-1.57-.71-1.57-1.6s.68-1.63,1.63-1.63,1.6.71,1.6,1.63ZM1717.51,476.66v-14.34h2.61v14.34h-2.61Z"/>
              <path class="cls-22" d="M1724.45,455.62h2.61v21.04h-2.61v-21.04Z"/>
              <path class="cls-22" d="M1732.89,469.96c.06,3.53,2.31,4.98,4.92,4.98,1.87,0,2.99-.33,3.97-.74l.44,1.87c-.92.42-2.49.89-4.77.89-4.42,0-7.05-2.9-7.05-7.23s2.55-7.73,6.73-7.73c4.68,0,5.93,4.12,5.93,6.76,0,.53-.06.95-.09,1.22h-10.08ZM1740.54,468.1c.03-1.66-.68-4.24-3.62-4.24-2.64,0-3.79,2.43-4,4.24h7.62Z"/>
              <path class="cls-22" d="M1746.29,466.79c0-1.69-.03-3.14-.12-4.47h2.28l.09,2.82h.12c.65-1.93,2.22-3.14,3.97-3.14.3,0,.5.03.74.09v2.46c-.27-.06-.53-.09-.89-.09-1.84,0-3.14,1.39-3.5,3.35-.06.36-.12.77-.12,1.22v7.64h-2.58v-9.87Z"/>
              <path class="cls-22" d="M1762.27,467c0-1.84-.06-3.32-.12-4.68h2.34l.12,2.46h.06c1.07-1.75,2.76-2.79,5.1-2.79,3.47,0,6.08,2.93,6.08,7.29,0,5.16-3.14,7.7-6.52,7.7-1.9,0-3.56-.83-4.42-2.25h-.06v7.79h-2.58v-15.53ZM1764.84,470.82c0,.38.06.74.12,1.07.47,1.81,2.04,3.05,3.91,3.05,2.76,0,4.36-2.25,4.36-5.54,0-2.87-1.51-5.33-4.27-5.33-1.78,0-3.44,1.27-3.94,3.23-.09.33-.18.71-.18,1.07v2.46Z"/>
              <path class="cls-22" d="M1779.13,455.62h2.61v21.04h-2.61v-21.04Z"/>
              <path class="cls-22" d="M1794.07,476.66l-.21-1.81h-.09c-.8,1.13-2.34,2.13-4.39,2.13-2.9,0-4.39-2.04-4.39-4.12,0-3.47,3.08-5.36,8.62-5.33v-.3c0-1.19-.33-3.32-3.26-3.32-1.33,0-2.73.42-3.73,1.07l-.59-1.72c1.19-.77,2.9-1.27,4.71-1.27,4.39,0,5.45,2.99,5.45,5.87v5.36c0,1.25.06,2.46.24,3.44h-2.37ZM1793.68,469.34c-2.84-.06-6.08.44-6.08,3.23,0,1.69,1.13,2.49,2.46,2.49,1.87,0,3.05-1.19,3.47-2.4.09-.27.15-.56.15-.83v-2.49Z"/>
              <path class="cls-22" d="M1803.43,458.2v4.12h3.73v1.99h-3.73v7.73c0,1.78.5,2.79,1.96,2.79.68,0,1.19-.09,1.51-.18l.12,1.96c-.5.21-1.3.36-2.31.36-1.21,0-2.19-.39-2.81-1.1-.74-.77-1.01-2.04-1.01-3.73v-7.82h-2.22v-1.99h2.22v-3.44l2.55-.68Z"/>
              <path class="cls-22" d="M1811.38,469.96c.06,3.53,2.31,4.98,4.92,4.98,1.87,0,2.99-.33,3.97-.74l.44,1.87c-.92.42-2.49.89-4.77.89-4.42,0-7.05-2.9-7.05-7.23s2.55-7.73,6.73-7.73c4.68,0,5.93,4.12,5.93,6.76,0,.53-.06.95-.09,1.22h-10.08ZM1819.02,468.1c.03-1.66-.68-4.24-3.62-4.24-2.64,0-3.79,2.43-4,4.24h7.62Z"/>
            </g>
          </g>
          <g>
            <polygon class="cls-27" points="1571.65 529.77 1566.26 524.39 1559.15 531.51 1552.03 524.39 1546.65 529.77 1553.77 536.89 1546.65 544 1552.03 549.39 1559.15 542.27 1566.26 549.39 1571.65 544 1564.53 536.89 1571.65 529.77"/>
            <g>
              <path class="cls-22" d="M1589.12,542.45c1.16.71,2.84,1.3,4.62,1.3,2.64,0,4.18-1.39,4.18-3.41,0-1.87-1.07-2.93-3.76-3.97-3.26-1.16-5.27-2.84-5.27-5.66,0-3.11,2.58-5.42,6.46-5.42,2.04,0,3.53.47,4.42.98l-.71,2.1c-.65-.36-1.99-.95-3.79-.95-2.73,0-3.76,1.63-3.76,2.99,0,1.87,1.21,2.79,3.97,3.85,3.38,1.3,5.1,2.93,5.1,5.87,0,3.08-2.28,5.75-6.99,5.75-1.93,0-4.03-.56-5.1-1.27l.65-2.16Z"/>
              <path class="cls-22" d="M1607.05,527.13v4.12h3.73v1.99h-3.73v7.73c0,1.78.5,2.79,1.96,2.79.68,0,1.19-.09,1.51-.18l.12,1.96c-.5.21-1.3.36-2.31.36-1.21,0-2.19-.38-2.81-1.1-.74-.77-1.01-2.04-1.01-3.73v-7.82h-2.22v-1.99h2.22v-3.44l2.55-.68Z"/>
              <path class="cls-22" d="M1614.99,538.89c.06,3.53,2.31,4.98,4.92,4.98,1.87,0,2.99-.33,3.97-.74l.44,1.87c-.92.42-2.49.89-4.77.89-4.42,0-7.05-2.9-7.05-7.23s2.55-7.73,6.73-7.73c4.68,0,5.93,4.12,5.93,6.76,0,.53-.06.95-.09,1.21h-10.08ZM1622.64,537.02c.03-1.66-.68-4.24-3.62-4.24-2.64,0-3.79,2.43-4,4.24h7.62Z"/>
              <path class="cls-22" d="M1629.84,538.89c.06,3.53,2.31,4.98,4.92,4.98,1.87,0,2.99-.33,3.97-.74l.44,1.87c-.92.42-2.49.89-4.77.89-4.42,0-7.05-2.9-7.05-7.23s2.55-7.73,6.73-7.73c4.68,0,5.93,4.12,5.93,6.76,0,.53-.06.95-.09,1.21h-10.08ZM1637.49,537.02c.03-1.66-.68-4.24-3.62-4.24-2.64,0-3.79,2.43-4,4.24h7.62Z"/>
              <path class="cls-22" d="M1643.24,535.93c0-1.84-.06-3.32-.12-4.68h2.34l.12,2.46h.06c1.07-1.75,2.76-2.79,5.1-2.79,3.47,0,6.08,2.93,6.08,7.29,0,5.16-3.14,7.71-6.52,7.71-1.9,0-3.56-.83-4.42-2.25h-.06v7.79h-2.58v-15.53ZM1645.82,539.75c0,.39.06.74.12,1.07.47,1.81,2.04,3.05,3.91,3.05,2.76,0,4.36-2.25,4.36-5.54,0-2.88-1.51-5.33-4.27-5.33-1.78,0-3.44,1.27-3.94,3.23-.09.33-.18.71-.18,1.07v2.46Z"/>
              <path class="cls-22" d="M1666.38,524.55h2.61v21.04h-2.61v-21.04Z"/>
              <path class="cls-22" d="M1674.83,538.89c.06,3.53,2.31,4.98,4.92,4.98,1.87,0,2.99-.33,3.97-.74l.44,1.87c-.92.42-2.49.89-4.77.89-4.42,0-7.05-2.9-7.05-7.23s2.55-7.73,6.73-7.73c4.68,0,5.93,4.12,5.93,6.76,0,.53-.06.95-.09,1.21h-10.08ZM1682.48,537.02c.03-1.66-.68-4.24-3.62-4.24-2.64,0-3.79,2.43-4,4.24h7.62Z"/>
              <path class="cls-22" d="M1696.17,545.59l-.21-1.81h-.09c-.8,1.13-2.34,2.13-4.39,2.13-2.9,0-4.39-2.04-4.39-4.12,0-3.47,3.08-5.36,8.62-5.33v-.3c0-1.18-.33-3.32-3.26-3.32-1.33,0-2.73.42-3.73,1.07l-.59-1.72c1.19-.77,2.9-1.27,4.71-1.27,4.39,0,5.45,2.99,5.45,5.87v5.36c0,1.24.06,2.46.24,3.44h-2.37ZM1695.79,538.27c-2.84-.06-6.08.44-6.08,3.23,0,1.69,1.13,2.49,2.46,2.49,1.87,0,3.05-1.19,3.47-2.4.09-.27.15-.56.15-.83v-2.49Z"/>
              <path class="cls-22" d="M1702.51,535.72c0-1.69-.03-3.14-.12-4.47h2.28l.09,2.82h.12c.65-1.93,2.22-3.14,3.97-3.14.3,0,.5.03.74.09v2.46c-.27-.06-.53-.09-.89-.09-1.84,0-3.14,1.39-3.5,3.35-.06.36-.12.77-.12,1.21v7.65h-2.58v-9.87Z"/>
              <path class="cls-22" d="M1712.33,535.13c0-1.48-.03-2.7-.12-3.88h2.31l.15,2.37h.06c.71-1.36,2.37-2.7,4.74-2.7,1.99,0,5.07,1.18,5.07,6.1v8.56h-2.61v-8.27c0-2.31-.86-4.24-3.32-4.24-1.72,0-3.05,1.21-3.5,2.67-.12.33-.18.77-.18,1.21v8.62h-2.61v-10.46Z"/>
              <path class="cls-22" d="M1731.68,527.22c.03.89-.62,1.6-1.66,1.6-.92,0-1.57-.71-1.57-1.6s.68-1.63,1.63-1.63,1.6.71,1.6,1.63ZM1728.78,545.59v-14.34h2.61v14.34h-2.61Z"/>
              <path class="cls-22" d="M1735.71,535.13c0-1.48-.03-2.7-.12-3.88h2.31l.15,2.37h.06c.71-1.36,2.37-2.7,4.74-2.7,1.99,0,5.07,1.18,5.07,6.1v8.56h-2.61v-8.27c0-2.31-.86-4.24-3.32-4.24-1.72,0-3.05,1.21-3.5,2.67-.12.33-.18.77-.18,1.21v8.62h-2.61v-10.46Z"/>
              <path class="cls-22" d="M1764.52,531.25c-.06,1.04-.12,2.19-.12,3.94v8.33c0,3.29-.65,5.3-2.04,6.55-1.39,1.3-3.41,1.72-5.21,1.72s-3.62-.42-4.77-1.19l.65-1.99c.95.59,2.43,1.13,4.21,1.13,2.67,0,4.62-1.39,4.62-5.01v-1.6h-.06c-.8,1.33-2.34,2.4-4.56,2.4-3.56,0-6.1-3.02-6.1-6.99,0-4.86,3.17-7.62,6.46-7.62,2.49,0,3.85,1.3,4.47,2.49h.06l.12-2.16h2.28ZM1761.82,536.91c0-.44-.03-.83-.15-1.19-.47-1.51-1.75-2.76-3.64-2.76-2.49,0-4.27,2.1-4.27,5.42,0,2.82,1.42,5.16,4.24,5.16,1.6,0,3.05-1.01,3.62-2.67.15-.44.21-.95.21-1.39v-2.58Z"/>
              <path class="cls-22" d="M1785.24,545.06c-.68.36-2.19.83-4.12.83-4.33,0-7.14-2.93-7.14-7.32s3.02-7.62,7.7-7.62c1.54,0,2.9.38,3.62.74l-.59,2.01c-.62-.36-1.6-.68-3.02-.68-3.29,0-5.07,2.43-5.07,5.42,0,3.32,2.13,5.36,4.98,5.36,1.48,0,2.46-.38,3.2-.71l.44,1.96Z"/>
              <path class="cls-22" d="M1800.29,541.68c0,1.48.03,2.79.12,3.91h-2.31l-.15-2.34h-.06c-.68,1.16-2.19,2.67-4.74,2.67-2.25,0-4.95-1.25-4.95-6.28v-8.39h2.61v7.94c0,2.73.83,4.56,3.2,4.56,1.75,0,2.96-1.21,3.44-2.37.15-.39.24-.86.24-1.33v-8.8h2.61v10.43Z"/>
              <path class="cls-22" d="M1804.62,535.72c0-1.69-.03-3.14-.12-4.47h2.28l.09,2.82h.12c.65-1.93,2.22-3.14,3.97-3.14.3,0,.5.03.74.09v2.46c-.27-.06-.53-.09-.89-.09-1.84,0-3.14,1.39-3.5,3.35-.06.36-.12.77-.12,1.21v7.65h-2.58v-9.87Z"/>
              <path class="cls-22" d="M1816.06,531.25l2.81,8.06c.47,1.3.86,2.49,1.16,3.67h.09c.33-1.19.74-2.37,1.21-3.67l2.79-8.06h2.73l-5.63,14.34h-2.49l-5.45-14.34h2.79Z"/>
              <path class="cls-22" d="M1830.47,538.89c.06,3.53,2.31,4.98,4.92,4.98,1.87,0,2.99-.33,3.97-.74l.44,1.87c-.92.42-2.49.89-4.77.89-4.42,0-7.05-2.9-7.05-7.23s2.55-7.73,6.73-7.73c4.68,0,5.93,4.12,5.93,6.76,0,.53-.06.95-.09,1.21h-10.08ZM1838.11,537.02c.03-1.66-.68-4.24-3.62-4.24-2.64,0-3.79,2.43-4,4.24h7.62Z"/>
            </g>
          </g>
          <g>
            <polygon class="cls-27" points="1571.65 598.7 1566.26 593.32 1559.15 600.44 1552.03 593.32 1546.65 598.7 1553.77 605.82 1546.65 612.93 1552.03 618.31 1559.15 611.2 1566.26 618.31 1571.65 612.93 1564.53 605.82 1571.65 598.7"/>
            <g>
              <path class="cls-22" d="M1589.47,594.55h2.58v17.81h8.53v2.16h-11.11v-19.97Z"/>
              <path class="cls-22" d="M1611.31,614.52l-.21-1.81h-.09c-.8,1.13-2.34,2.13-4.39,2.13-2.9,0-4.39-2.04-4.39-4.12,0-3.47,3.08-5.36,8.62-5.33v-.3c0-1.18-.33-3.32-3.26-3.32-1.33,0-2.73.42-3.73,1.07l-.59-1.72c1.19-.77,2.9-1.27,4.71-1.27,4.39,0,5.45,2.99,5.45,5.87v5.36c0,1.24.06,2.46.24,3.44h-2.37ZM1610.93,607.2c-2.84-.06-6.08.44-6.08,3.23,0,1.69,1.13,2.49,2.46,2.49,1.87,0,3.05-1.19,3.47-2.4.09-.27.15-.56.15-.83v-2.49Z"/>
              <path class="cls-22" d="M1617.66,604.65c0-1.69-.03-3.14-.12-4.47h2.28l.09,2.82h.12c.65-1.93,2.22-3.14,3.97-3.14.3,0,.5.03.74.09v2.46c-.27-.06-.53-.09-.89-.09-1.84,0-3.14,1.39-3.5,3.35-.06.36-.12.77-.12,1.21v7.65h-2.58v-9.87Z"/>
              <path class="cls-22" d="M1639.47,600.18c-.06,1.04-.12,2.19-.12,3.94v8.33c0,3.29-.65,5.3-2.04,6.55-1.39,1.3-3.41,1.72-5.21,1.72s-3.62-.42-4.77-1.19l.65-1.99c.95.59,2.43,1.13,4.21,1.13,2.67,0,4.62-1.39,4.62-5.01v-1.6h-.06c-.8,1.33-2.34,2.4-4.56,2.4-3.56,0-6.1-3.02-6.1-6.99,0-4.86,3.17-7.62,6.46-7.62,2.49,0,3.85,1.3,4.47,2.49h.06l.12-2.16h2.28ZM1636.77,605.84c0-.44-.03-.83-.15-1.19-.47-1.51-1.75-2.76-3.64-2.76-2.49,0-4.27,2.1-4.27,5.42,0,2.82,1.42,5.16,4.24,5.16,1.6,0,3.05-1.01,3.62-2.67.15-.44.21-.95.21-1.39v-2.58Z"/>
              <path class="cls-22" d="M1645.13,607.82c.06,3.53,2.31,4.98,4.92,4.98,1.87,0,2.99-.33,3.97-.74l.44,1.87c-.92.42-2.49.89-4.77.89-4.42,0-7.05-2.9-7.05-7.23s2.55-7.73,6.73-7.73c4.68,0,5.93,4.12,5.93,6.76,0,.53-.06.95-.09,1.21h-10.08ZM1652.78,605.95c.03-1.66-.68-4.24-3.62-4.24-2.64,0-3.79,2.43-4,4.24h7.62Z"/>
              <path class="cls-22" d="M1664.7,614.52c.06-.98.12-2.43.12-3.7v-17.33h2.58v9.01h.06c.92-1.6,2.58-2.64,4.89-2.64,3.56,0,6.08,2.96,6.05,7.32,0,5.13-3.23,7.67-6.43,7.67-2.07,0-3.73-.8-4.8-2.7h-.09l-.12,2.37h-2.25ZM1667.39,608.77c0,.33.06.65.12.95.5,1.81,2.02,3.05,3.91,3.05,2.73,0,4.36-2.22,4.36-5.51,0-2.88-1.48-5.33-4.27-5.33-1.78,0-3.44,1.21-3.97,3.2-.06.3-.15.65-.15,1.07v2.58Z"/>
              <path class="cls-22" d="M1693.68,610.61c0,1.48.03,2.79.12,3.91h-2.31l-.15-2.34h-.06c-.68,1.16-2.19,2.67-4.74,2.67-2.25,0-4.95-1.25-4.95-6.28v-8.39h2.61v7.94c0,2.73.83,4.56,3.2,4.56,1.75,0,2.96-1.21,3.44-2.37.15-.39.24-.86.24-1.33v-8.8h2.61v10.43Z"/>
              <path class="cls-22" d="M1698.01,604.06c0-1.48-.03-2.7-.12-3.88h2.31l.15,2.37h.06c.71-1.36,2.37-2.7,4.74-2.7,1.99,0,5.07,1.18,5.07,6.1v8.56h-2.61v-8.27c0-2.31-.86-4.24-3.32-4.24-1.72,0-3.05,1.21-3.5,2.67-.12.33-.18.77-.18,1.21v8.62h-2.61v-10.46Z"/>
              <path class="cls-22" d="M1726.85,593.48v17.33c0,1.27.03,2.73.12,3.7h-2.34l-.12-2.49h-.06c-.8,1.6-2.55,2.82-4.89,2.82-3.47,0-6.13-2.93-6.13-7.29-.03-4.77,2.93-7.7,6.43-7.7,2.19,0,3.67,1.04,4.33,2.19h.06v-8.56h2.61ZM1724.24,606.01c0-.33-.03-.77-.12-1.1-.38-1.66-1.81-3.02-3.76-3.02-2.7,0-4.3,2.37-4.3,5.54,0,2.9,1.42,5.3,4.24,5.3,1.75,0,3.35-1.16,3.82-3.11.09-.36.12-.71.12-1.13v-2.49Z"/>
              <path class="cls-22" d="M1731.18,593.48h2.61v21.04h-2.61v-21.04Z"/>
              <path class="cls-22" d="M1739.62,607.82c.06,3.53,2.31,4.98,4.92,4.98,1.87,0,2.99-.33,3.97-.74l.44,1.87c-.92.42-2.49.89-4.77.89-4.42,0-7.05-2.9-7.05-7.23s2.55-7.73,6.73-7.73c4.68,0,5.93,4.12,5.93,6.76,0,.53-.06.95-.09,1.21h-10.08ZM1747.27,605.95c.03-1.66-.68-4.24-3.62-4.24-2.64,0-3.79,2.43-4,4.24h7.62Z"/>
              <path class="cls-22" d="M1758.95,611.85c.77.5,2.13,1.04,3.44,1.04,1.9,0,2.79-.95,2.79-2.13,0-1.24-.74-1.93-2.67-2.64-2.58-.92-3.79-2.34-3.79-4.06,0-2.31,1.87-4.21,4.95-4.21,1.45,0,2.73.41,3.53.89l-.65,1.9c-.56-.36-1.6-.83-2.93-.83-1.54,0-2.4.89-2.4,1.96,0,1.19.86,1.72,2.73,2.43,2.49.95,3.76,2.19,3.76,4.33,0,2.52-1.96,4.3-5.36,4.3-1.57,0-3.02-.38-4.03-.98l.65-1.99Z"/>
              <path class="cls-22" d="M1773.94,596.15c.03.89-.62,1.6-1.66,1.6-.92,0-1.57-.71-1.57-1.6s.68-1.63,1.63-1.63,1.6.71,1.6,1.63ZM1771.04,614.52v-14.34h2.61v14.34h-2.61Z"/>
              <path class="cls-22" d="M1776.35,613.01l6.49-8.45c.62-.77,1.22-1.45,1.87-2.22v-.06h-7.76v-2.1h10.93l-.03,1.63-6.4,8.33c-.59.8-1.18,1.51-1.84,2.25v.06h8.39v2.07h-11.65v-1.51Z"/>
              <path class="cls-22" d="M1791.91,607.82c.06,3.53,2.31,4.98,4.92,4.98,1.87,0,2.99-.33,3.97-.74l.44,1.87c-.92.42-2.49.89-4.77.89-4.42,0-7.05-2.9-7.05-7.23s2.55-7.73,6.73-7.73c4.68,0,5.93,4.12,5.93,6.76,0,.53-.06.95-.09,1.21h-10.08ZM1799.55,605.95c.03-1.66-.68-4.24-3.62-4.24-2.64,0-3.79,2.43-4,4.24h7.62Z"/>
            </g>
          </g>
        </g>
      </g>
    </g>
  </g>
</svg>