<?xml version="1.0" encoding="UTF-8"?>
<svg id="Layer_1" data-name="Layer 1" xmlns="http://www.w3.org/2000/svg" xmlns:xlink="http://www.w3.org/1999/xlink" viewBox="0 0 150 150">
  <defs>
    <style>
      .cls-1 {
        fill: #3f363b;
      }

      .cls-2 {
        fill: #2e373c;
      }

      .cls-3, .cls-4 {
        fill: none;
      }

      .cls-5 {
        fill: #86939c;
      }

      .cls-6 {
        fill: #e8f1f8;
      }

      .cls-7 {
        fill: #30383a;
      }

      .cls-8 {
        fill: #ff4354;
      }

      .cls-9 {
        fill: #fbbd00;
      }

      .cls-10 {
        fill: #3e3536;
      }

      .cls-11 {
        fill: #42c5e5;
      }

      .cls-12 {
        fill: #fed82e;
      }

      .cls-13 {
        fill: #e6f3f9;
      }

      .cls-14 {
        fill: #206cb6;
      }

      .cls-15 {
        clip-path: url(#clippath);
      }

      .cls-4 {
        stroke: #e83644;
        stroke-miterlimit: 10;
        stroke-width: 1.59px;
      }
    </style>
    <clipPath id="clippath">
      <rect class="cls-3" x="43.07" y="58.51" width="22.76" height="19.98"/>
    </clipPath>
  </defs>
  <g>
    <g>
      <path class="cls-8" d="M136.98,78.34c-2.05-4.98-6.15-7.43-7.72-8.26-1.16-.39-2.34-.76-3.55-1.13-5.12-1.54-10.03-2.62-14.65-3.38-4.76-4.51-9.52-9.02-14.27-13.52-1.14-.87-3.18-2.29-6.01-3.38-6.79-2.62-13.96-1.77-14.6-2.19-.39-.12-.68-.35-.89-.65-6.41-.36-31.31-.32-57.39-.17-.92.3-2.87,1.08-4.51,3.01-1.08,1.26-1.61,2.54-1.88,3.38v38.69l126.22,1.88.38-9.39c-.09-1.34-.37-3.05-1.13-4.88Z"/>
      <path class="cls-7" d="M139.58,86.02c-.02-.61-.05-1.13-.46-1.61-.41-.49-1.01-.71-1.38-.81h-14.67v10.89h14.67c.37-.1.96-.31,1.38-.81.41-.49.44-1.01.46-1.61.03-.84.04-1.86,0-3.03.04-1.17.02-2.19,0-3.03Z"/>
      <rect class="cls-7" x="22.03" y="90.36" width="103.68" height="4.13"/>
      <path class="cls-7" d="M23.54,94.12h-10.52c-.33-.16-.73-.4-1.13-.75-.91-.8-1.32-1.73-1.5-2.25v-6.39h18.78"/>
      <path class="cls-6" d="M83.64,67.82c6.76.13,13.52.25,20.28.38v-5.63c-1.56-2.17-6.26-8.09-14.27-9.77-2.24-.47-4.29-.51-6.01-.38-.24.03-.59.11-.75.38-.17.29-.03.67,0,.75.19.55.26,3.64,0,12.77,0,.22.05.69.38,1.13.12.17.26.29.38.38Z"/>
      <path class="cls-1" d="M103.92,61.81v5.92h5.86c-.29-.46-.61-.93-.98-1.41-1.57-2.06-3.35-3.51-4.88-4.51Z"/>
      <rect class="cls-1" x="83.26" y="71.21" width="6.39" height="1.88"/>
      <rect class="cls-1" x="70.49" y="69.7" width="1.88" height="6.76" rx=".79" ry=".79"/>
      <path class="cls-13" d="M133.98,78.72c-.72,0-3.11-.1-5.26-1.88-2.74-2.26-2.97-5.47-3.01-6.01.88.01,3.31.16,5.63,1.88,2.93,2.16,3.61,5.26,3.76,6.01"/>
      <g>
        <circle class="cls-10" cx="34.56" cy="92.99" r="11.46"/>
        <circle class="cls-5" cx="34.56" cy="92.99" r="7.33"/>
        <circle class="cls-2" cx="34.56" cy="92.99" r="2.25"/>
      </g>
      <g>
        <circle class="cls-10" cx="117.57" cy="92.99" r="11.46"/>
        <circle class="cls-5" cx="117.57" cy="92.99" r="7.33"/>
        <circle class="cls-2" cx="117.57" cy="92.99" r="2.25"/>
      </g>
    </g>
    <path class="cls-4" d="M74.34,51.66c-.14-.7-.45-1.61-1.22-2.24-.97-.8-2.2-.76-2.63-.75-2.39.05-14.51,0-31.18,0-.51-.12-1.04-.06-1.49.15-.3-.1-.63-.15-.97-.15h-19.51c-1.77,0-3.2,1.43-3.2,3.2v24.4c0,1.77,1.43,3.2,3.2,3.2h19.51c.62,0,1.2-.18,1.69-.49.93.55,2.01.44,2.64.49,1.5.12,3.6,1.46,6.01,7.14.39.26.9.53,1.5.75,1.39.5,2.63.46,3.38.38,6.39.13,12.77.25,19.16.38.39-.08,1.63-.37,2.63-1.5.93-1.06,1.1-2.22,1.15-2.63-.23-10.77-.45-21.55-.68-32.32Z"/>
  </g>
  <g>
    <g>
      <g>
        <path class="cls-12" d="M54.45,54.77s-6.89-6.25-6.86-2.55c.03,3.71,4.93,3.61,6.86,2.55Z"/>
        <path class="cls-12" d="M54.45,54.77s6.89-6.25,6.86-2.55c-.03,3.71-4.93,3.61-6.86,2.55Z"/>
      </g>
      <path class="cls-9" d="M55.81,54.55c0,.75-.61,1.35-1.35,1.35s-1.35-.61-1.35-1.35.61-1.35,1.35-1.35,1.35.61,1.35,1.35Z"/>
    </g>
    <g>
      <rect class="cls-14" x="41.68" y="55.21" width="25.55" height="3.3"/>
      <g class="cls-15">
        <rect class="cls-11" x="43.07" y="58.51" width="22.76" height="19.98"/>
        <polygon class="cls-14" points="47.34 69.61 48.59 70.96 50.42 70.7 49.52 72.31 50.34 73.96 48.53 73.6 47.21 74.89 46.99 73.06 45.36 72.2 47.03 71.43 47.34 69.61"/>
        <polygon class="cls-14" points="60.73 60.95 61.04 62.77 62.72 63.54 61.09 64.4 60.87 66.23 59.55 64.95 57.74 65.31 58.56 63.65 57.65 62.05 59.48 62.31 60.73 60.95"/>
        <polygon class="cls-14" points="60.07 72.25 60.39 74.07 62.06 74.84 60.43 75.7 60.22 77.53 58.9 76.25 57.09 76.61 57.9 74.95 57 73.35 58.82 73.61 60.07 72.25"/>
        <polygon class="cls-14" points="48.43 59.92 48.74 61.74 50.42 62.51 48.79 63.37 48.58 65.2 47.25 63.92 45.44 64.28 46.26 62.63 45.35 61.02 47.18 61.28 48.43 59.92"/>
        <polygon class="cls-14" points="53.21 65.32 53.42 66.51 54.52 67.01 53.45 67.57 53.31 68.77 52.44 67.93 51.26 68.17 51.79 67.09 51.2 66.03 52.4 66.21 53.21 65.32"/>
        <polygon class="cls-14" points="63.2 68.49 63.99 69.4 65.18 69.27 64.56 70.3 65.06 71.4 63.88 71.13 62.99 71.94 62.89 70.74 61.84 70.14 62.95 69.67 63.2 68.49"/>
        <polygon class="cls-14" points="52.47 75.81 53.26 76.72 54.45 76.58 53.83 77.62 54.33 78.72 53.15 78.44 52.26 79.26 52.16 78.05 51.11 77.46 52.22 76.99 52.47 75.81"/>
        <polygon class="cls-14" points="42.76 73.97 43.55 74.88 44.75 74.75 44.12 75.78 44.62 76.88 43.45 76.61 42.55 77.42 42.45 76.22 41.4 75.62 42.51 75.15 42.76 73.97"/>
        <polygon class="cls-14" points="65.87 59.49 66.66 60.4 67.86 60.27 67.24 61.3 67.74 62.4 66.56 62.13 65.67 62.94 65.57 61.74 64.52 61.14 65.63 60.67 65.87 59.49"/>
        <polygon class="cls-14" points="57.44 68.82 57.98 69.44 58.79 69.35 58.37 70.05 58.71 70.8 57.91 70.61 57.3 71.17 57.23 70.35 56.51 69.94 57.27 69.62 57.44 68.82"/>
        <polygon class="cls-14" points="44 66.12 44.54 66.74 45.35 66.65 44.93 67.35 45.27 68.1 44.47 67.91 43.86 68.47 43.79 67.65 43.07 67.24 43.83 66.92 44 66.12"/>
        <polygon class="cls-14" points="54.3 60.13 54.84 60.75 55.66 60.66 55.23 61.37 55.57 62.11 54.77 61.93 54.16 62.48 54.09 61.66 53.38 61.26 54.13 60.94 54.3 60.13"/>
        <polygon class="cls-14" points="52.64 71.61 53.18 72.23 54 72.14 53.57 72.85 53.91 73.59 53.11 73.41 52.5 73.96 52.43 73.14 51.72 72.74 52.48 72.42 52.64 71.61"/>
        <polygon class="cls-14" points="64.84 75.18 65.37 75.8 66.19 75.71 65.77 76.41 66.11 77.16 65.3 76.98 64.7 77.53 64.63 76.71 63.91 76.3 64.67 75.98 64.84 75.18"/>
        <polygon class="cls-14" points="42.86 59.78 43.4 60.4 44.21 60.31 43.79 61.01 44.13 61.76 43.33 61.57 42.72 62.13 42.65 61.31 41.93 60.9 42.69 60.58 42.86 59.78"/>
        <polygon class="cls-14" points="64.3 64.94 64.84 65.56 65.66 65.47 65.23 66.17 65.57 66.92 64.77 66.74 64.16 67.29 64.09 66.47 63.38 66.06 64.14 65.74 64.3 64.94"/>
      </g>
    </g>
    <rect class="cls-12" x="52.46" y="54.93" width="3.99" height="23.74"/>
  </g>
</svg>