<?xml version="1.0" encoding="UTF-8"?>
<svg id="Layer_1" data-name="Layer 1" xmlns="http://www.w3.org/2000/svg" viewBox="0 0 150 150">
  <defs>
    <style>
      .cls-1 {
        fill: #3f363b;
      }

      .cls-2 {
        fill: #2e373c;
      }

      .cls-3 {
        fill: #86939c;
      }

      .cls-4 {
        fill: #e8f1f8;
      }

      .cls-5 {
        fill: #30383a;
      }

      .cls-6 {
        fill: #ff4354;
      }

      .cls-7 {
        fill: #3e3536;
      }

      .cls-8 {
        fill: #e6f3f9;
      }

      .cls-9 {
        fill: none;
        stroke: #e83644;
        stroke-miterlimit: 10;
        stroke-width: 1.59px;
      }
    </style>
  </defs>
  <g>
    <path class="cls-6" d="M136.98,78.34c-2.05-4.98-6.15-7.43-7.72-8.26-1.16-.39-2.34-.76-3.55-1.13-5.12-1.54-10.03-2.62-14.65-3.38-4.76-4.51-9.52-9.02-14.27-13.52-1.14-.87-3.18-2.29-6.01-3.38-6.79-2.62-13.96-1.77-14.6-2.19-.39-.12-.68-.35-.89-.65-6.41-.36-31.31-.32-57.39-.17-.92.3-2.87,1.08-4.51,3.01-1.08,1.26-1.61,2.54-1.88,3.38v38.69l126.22,1.88.38-9.39c-.09-1.34-.37-3.05-1.13-4.88Z"/>
    <path class="cls-5" d="M139.58,86.02c-.02-.61-.05-1.13-.46-1.61-.41-.49-1.01-.71-1.38-.81h-14.67v10.89h14.67c.37-.1.96-.31,1.38-.81.41-.49.44-1.01.46-1.61.03-.84.04-1.86,0-3.03.04-1.17.02-2.19,0-3.03Z"/>
    <rect class="cls-5" x="22.03" y="90.36" width="103.68" height="4.13"/>
    <path class="cls-5" d="M23.54,94.12h-10.52c-.33-.16-.73-.4-1.13-.75-.91-.8-1.32-1.73-1.5-2.25v-6.39h18.78"/>
    <path class="cls-4" d="M83.64,67.82c6.76.13,13.52.25,20.28.38v-5.63c-1.56-2.17-6.26-8.09-14.27-9.77-2.24-.47-4.29-.51-6.01-.38-.24.03-.59.11-.75.38-.17.29-.03.67,0,.75.19.55.26,3.64,0,12.77,0,.22.05.69.38,1.13.12.17.26.29.38.38Z"/>
    <path class="cls-1" d="M103.92,61.81v5.92h5.86c-.29-.46-.61-.93-.98-1.41-1.57-2.06-3.35-3.51-4.88-4.51Z"/>
    <rect class="cls-1" x="83.26" y="71.21" width="6.39" height="1.88"/>
    <rect class="cls-1" x="70.49" y="69.7" width="1.88" height="6.76" rx=".79" ry=".79"/>
    <path class="cls-8" d="M133.98,78.72c-.72,0-3.11-.1-5.26-1.88-2.74-2.26-2.97-5.47-3.01-6.01.88.01,3.31.16,5.63,1.88,2.93,2.16,3.61,5.26,3.76,6.01"/>
    <g>
      <circle class="cls-7" cx="34.56" cy="92.99" r="11.46"/>
      <circle class="cls-3" cx="34.56" cy="92.99" r="7.33"/>
      <circle class="cls-2" cx="34.56" cy="92.99" r="2.25"/>
    </g>
    <g>
      <circle class="cls-7" cx="117.57" cy="92.99" r="11.46"/>
      <circle class="cls-3" cx="117.57" cy="92.99" r="7.33"/>
      <circle class="cls-2" cx="117.57" cy="92.99" r="2.25"/>
    </g>
  </g>
  <path class="cls-9" d="M74.34,51.66c-.14-.7-.45-1.61-1.22-2.24-.97-.8-2.2-.76-2.63-.75-2.39.05-14.51,0-31.18,0-.51-.12-1.04-.06-1.49.15-.3-.1-.63-.15-.97-.15h-19.51c-1.77,0-3.2,1.43-3.2,3.2v24.4c0,1.77,1.43,3.2,3.2,3.2h19.51c.62,0,1.2-.18,1.69-.49.93.55,2.01.44,2.64.49,1.5.12,3.6,1.46,6.01,7.14.39.26.9.53,1.5.75,1.39.5,2.63.46,3.38.38,6.39.13,12.77.25,19.16.38.39-.08,1.63-.37,2.63-1.5.93-1.06,1.1-2.22,1.15-2.63-.23-10.77-.45-21.55-.68-32.32Z"/>
</svg>