<?xml version="1.0" encoding="UTF-8"?>
<svg xmlns="http://www.w3.org/2000/svg" version="1.1" xmlns:xlink="http://www.w3.org/1999/xlink" viewBox="0 0 300 300">
  <defs>
    <style>
      .cls-1 {
        fill: #422a16;
      }

      .cls-2 {
        fill: #fff;
      }

      .cls-3 {
        fill: none;
      }

      .cls-4 {
        clip-path: url(#clippath-1);
      }

      .cls-5 {
        fill: #de946c;
      }

      .cls-5, .cls-6, .cls-7 {
        fill-rule: evenodd;
      }

      .cls-8, .cls-7 {
        fill: #b6b7b4;
      }

      .cls-9 {
        fill: #fec9a1;
      }

      .cls-6 {
        fill: #332009;
      }

      .cls-10 {
        clip-path: url(#clippath-3);
      }

      .cls-11 {
        clip-path: url(#clippath-2);
      }

      .cls-12 {
        opacity: .6;
      }

      .cls-13 {
        clip-path: url(#clippath);
      }

      .cls-14 {
        fill: #ed9b64;
      }
    </style>
    <clipPath id="clippath">
      <path class="cls-3" d="M88.5,176.4c-3.5-3.5-7.2-6.9-11.5-9.2-4.3-2.4-9.5-3.6-14.3-2.4-6.9,1.7-12,8.5-12.6,15.6-.6,7.1,2.7,14.2,7.9,19.1,5.2,4.9,12.1,7.6,19.2,8.8,3.9.7,7.9.9,11.6-.3,3.7-1.1,7.2-3.8,8.5-7.5"/>
    </clipPath>
    <clipPath id="clippath-1">
      <path class="cls-3" d="M225.1,173.5c3.5-3.5,7.2-6.9,11.5-9.2,4.3-2.4,9.5-3.6,14.3-2.4,6.9,1.7,12,8.5,12.6,15.6.6,7.1-2.7,14.2-7.9,19.1-5.2,4.9-12.1,7.6-19.2,8.8-3.9.7-7.9.9-11.6-.3-3.7-1.1-7.2-3.8-8.5-7.5"/>
    </clipPath>
    <clipPath id="clippath-2">
      <circle class="cls-3" cx="121" cy="169.8" r="18.5"/>
    </clipPath>
    <clipPath id="clippath-3">
      <circle class="cls-3" cx="192.3" cy="168.4" r="18.5"/>
    </clipPath>
  </defs>
  <!-- Generator: Adobe Illustrator 28.7.8, SVG Export Plug-In . SVG Version: 1.2.0 Build 200)  -->
  <g>
    <g id="Layer_1">
      <circle class="cls-2" cx="150.3" cy="149.7" r="149.7"/>
      <g>
        <path class="cls-1" d="M124.2,126.9c3.3-.4,6.6-.6,9.9-.1,1.5.2,3,.5,4.1,1.4,4.7,3.5-3.8,6.8-6.4,7.8-6.2,2.3-13.1,4.1-20,3.3-5.3-.6-6.3-5.8-2.4-8.5,1.6-1.1,3.6-1.6,5.6-2.1,3-.7,6.1-1.4,9.2-1.8Z"/>
        <path class="cls-1" d="M195.4,128.3c-3.3-.4-6.6-.6-9.9-.1-1.5.2-3,.5-4.1,1.4-4.7,3.5,3.8,6.8,6.4,7.8,6.2,2.3,13.1,4.1,20,3.3,5.3-.6,6.3-5.8,2.4-8.5-1.6-1.1-3.6-1.6-5.6-2.1-3-.7-6.1-1.4-9.2-1.8Z"/>
        <g>
          <g>
            <g>
              <g class="cls-13">
                <path class="cls-9" d="M88.5,176.4c-3.5-3.5-7.2-6.9-11.5-9.2-4.3-2.4-9.5-3.6-14.3-2.4-6.9,1.7-12,8.5-12.6,15.6-.6,7.1,2.7,14.2,7.9,19.1,5.2,4.9,12.1,7.6,19.2,8.8,3.9.7,7.9.9,11.6-.3,3.7-1.1,7.2-3.8,8.5-7.5"/>
                <path d="M91.8,207.4c-7.9-19.5-29.1-38.1-50.5-24.9-1.4.8-.1,3,1.3,2.2,19.9-12.3,39.5,5.4,46.8,23.4.6,1.5,3,.8,2.4-.7h0Z"/>
                <path d="M79.7,190.1c-5,.4-9.4,2.7-12.5,6.6s.8,3,1.8,1.8c2.7-3.4,6.4-5.5,10.7-5.9,1.6-.1,1.6-2.7,0-2.5h0Z"/>
              </g>
              <g class="cls-4">
                <path class="cls-9" d="M225.1,173.5c3.5-3.5,7.2-6.9,11.5-9.2,4.3-2.4,9.5-3.6,14.3-2.4,6.9,1.7,12,8.5,12.6,15.6.6,7.1-2.7,14.2-7.9,19.1-5.2,4.9-12.1,7.6-19.2,8.8-3.9.7-7.9.9-11.6-.3-3.7-1.1-7.2-3.8-8.5-7.5"/>
                <path d="M221.8,204.5c7.9-19.5,29.1-38.1,50.5-24.9,1.4.8.1,3-1.3,2.2-19.9-12.3-39.5,5.4-46.8,23.4-.6,1.5-3,.8-2.4-.7h0Z"/>
                <path d="M233.9,187.2c5,.4,9.4,2.7,12.5,6.6,1,1.3-.8,3-1.8,1.8-2.7-3.4-6.4-5.5-10.7-5.9-1.6-.1-1.6-2.7,0-2.5h0Z"/>
              </g>
              <path class="cls-9" d="M241.2,76.2l-81-4.3-81,4.3s5.2,126.5,12.6,145.8c6.9,18.2,45.3,43.9,68.4,43.9s57.2-31.7,62-46.6c6.2-19.2,19-143.1,19-143.1Z"/>
              <path class="cls-14" d="M157.1,161.4c3,.4,8.1,24.2,8.1,24.2,0,0,6.2,2.8,5,9.2-1.2,6.4-8.2,11.4-16.2,6.1s-2.6-40.2,3.1-39.5Z"/>
              <path class="cls-8" d="M85,173c-.9-.6-11.3-7.4-11.3-7.4-3-5.4-4.4-20.1-4.4-20.1,0,0-18.2-3.1-17.4-5.5.8-2.4,13.4-16.6,13.4-16.6,0,0-29.6-30-28.8-31.2.8-1.2,78.8-71.5,155-55.9,32.7,6.7,56,35.7,55.3,69-.7,34.2-14,67.3-16.9,67.6-4.7.5-9.6-74.1-9.6-74.1,0,0,2.3,19.9,0,18.3-2.3-1.6-21.6-29.8-21.6-29.8,0,0-54.8,17.8-57,16.3s8.4-16.3,8.4-16.3c0,0-37.9,28.2-44.4,25.1-6.5-3.1-8.3-16-8.3-16,0,0-4.4,82.3-12.3,76.4Z"/>
              <path class="cls-14" d="M179.9,192.3c4.9,1.6,10,2.1,15.2,1.6s1.9-3.1,0-2.9c-4.9.5-9.7,0-14.4-1.5-1.8-.6-2.6,2.2-.8,2.8h0Z"/>
              <path class="cls-14" d="M131.8,189.5c-4.7,1.5-9.5,2-14.4,1.5-1.9-.2-1.9,2.7,0,2.9,5.2.5,10.2,0,15.2-1.6,1.8-.6,1-3.4-.8-2.8h0Z"/>
              <path d="M135.9,220.1c14.4,5.8,29.9,5.8,44.4,0,1.7-.7,1-3.5-.8-2.8-14,5.6-28.8,5.6-42.8,0-1.7-.7-2.5,2.1-.8,2.8h0Z"/>
            </g>
            <g>
              <circle class="cls-2" cx="121" cy="169.8" r="18.5"/>
              <g class="cls-11">
                <circle cx="122.7" cy="170.9" r="16"/>
              </g>
            </g>
            <g>
              <circle class="cls-2" cx="192.3" cy="168.4" r="18.5"/>
              <g class="cls-10">
                <circle cx="190.7" cy="169.5" r="16"/>
              </g>
            </g>
            <path class="cls-6" d="M213.7,149.7c-5.8-5.9-12.9-8.8-21.3-8.8s-15.4,2.9-21.3,8.8c-4.8,4.9-7.7,10.7-8.5,17.2l-11.4.2c-.8-6.6-3.7-12.4-8.7-17.4-5.9-5.8-13-8.8-21.3-8.8s-15.3,2.9-21.1,8.8c-5.8,5.9-8.8,13-8.8,21.3s2.9,15.5,8.8,21.3c5.8,5.8,12.9,8.8,21.1,8.8s15.3-2.9,21.3-8.8c5.8-5.7,8.7-12.5,8.9-20.6h11c.2,8,3.1,14.9,8.7,20.6,5.9,5.8,13,8.8,21.3,8.8s15.5-2.9,21.3-8.8c6-5.9,8.9-13,8.9-21.3s-3-15.3-8.9-21.3M139,189c-4.9,4.9-10.9,7.4-18,7.4s-13.1-2.5-18.2-7.4c-4.9-5.1-7.4-11.2-7.4-18.2s2.5-13.1,7.4-18c5.1-5.1,11.2-7.7,18.2-7.7s13.1,2.6,18,7.7c5.1,4.9,7.7,10.9,7.7,18s-2.6,13-7.7,18.2M210.4,189c-5.1,4.9-11.1,7.4-18,7.4s-13.2-2.5-18.2-7.4c-5.1-5.1-7.7-11.2-7.7-18.2s2.6-13.1,7.7-18c4.9-5.1,11-7.7,18.2-7.7s12.9,2.5,18,7.7c4.9,4.9,7.4,10.9,7.4,18s-2.4,13-7.4,18.2"/>
            <path class="cls-7" d="M159.9,209.8c-12.8,17.9-30.1,21.2-51.8,9.7,9.3.7,17-3.4,23.2-12.3,10.4-15.6,20-14.7,28.6,2.6,8.4-17.3,17.9-18.1,28.4-2.6,6,8.9,13.7,12.9,23,12.3-21.4,11.5-38.6,8.2-51.4-9.7"/>
            <g class="cls-12">
              <path class="cls-5" d="M126.5,122.9l61.9-1.7s-15,7.8-31.7,7.8-30.2-6-30.2-6"/>
              <path class="cls-5" d="M136.1,133.9l44.7-.7s-11,7.5-23,7.2c-12-.3-21.6-6.6-21.6-6.6"/>
            </g>
          </g>
          <path class="cls-8" d="M196.8,127.7c-3.3-.4-6.6-.6-10-.1-1.5.2-3,.5-4.2,1.4-4.8,3.5,3.9,6.9,6.5,7.9,6.2,2.3,13.3,4.1,20.2,3.4,5.4-.6,6.4-5.8,2.4-8.5-1.6-1.1-3.7-1.6-5.6-2.1-3-.7-6.1-1.4-9.3-1.8Z"/>
          <path class="cls-8" d="M127.6,126.8c-3.3.3-6.6.9-9.7,2.1-1.4.5-2.8,1.2-3.8,2.3-3.9,4.5,5.3,5.9,8,6.2,6.6.9,13.9,1.1,20.5-1.2,5.1-1.7,4.9-7.1.4-8.9-1.8-.7-3.9-.8-6-.8-3.1,0-6.3,0-9.5.3Z"/>
        </g>
      </g>
    </g>
  </g>
</svg>