<?xml version="1.0" encoding="UTF-8"?>
<svg xmlns="http://www.w3.org/2000/svg" version="1.1" xmlns:xlink="http://www.w3.org/1999/xlink" viewBox="0 0 300 300">
  <defs>
    <style>
      .cls-1 {
        fill: #422a16;
      }

      .cls-2 {
        fill: #fff;
      }

      .cls-3 {
        fill: none;
      }

      .cls-4 {
        clip-path: url(#clippath-1);
      }

      .cls-5 {
        fill: #fec9a1;
      }

      .cls-6 {
        clip-path: url(#clippath-3);
      }

      .cls-7 {
        clip-path: url(#clippath-2);
      }

      .cls-8 {
        clip-path: url(#clippath);
      }

      .cls-9 {
        fill: #ed9b64;
      }
    </style>
    <clipPath id="clippath">
      <path class="cls-5" d="M100,186.8c-3.9-3.9-8-7.7-12.9-10.4-4.9-2.6-10.6-4-16-2.7-7.8,1.9-13.4,9.5-14.1,17.5-.7,8,3,15.9,8.9,21.4,5.8,5.4,13.6,8.5,21.5,9.9,4.3.7,8.8,1,13-.3,4.2-1.3,8-4.2,9.5-8.4"/>
    </clipPath>
    <clipPath id="clippath-1">
      <path class="cls-5" d="M214,186.8c3.9-3.9,8-7.7,12.9-10.4,4.9-2.6,10.6-4,16-2.7,7.8,1.9,13.4,9.5,14.1,17.5.7,8-3,15.9-8.9,21.4-5.8,5.4-13.6,8.5-21.5,9.9-4.3.7-8.8,1-13-.3-4.2-1.3-8-4.2-9.5-8.4"/>
    </clipPath>
    <clipPath id="clippath-2">
      <circle class="cls-3" cx="121.2" cy="179.5" r="21.5"/>
    </clipPath>
    <clipPath id="clippath-3">
      <circle class="cls-3" cx="192.7" cy="179.5" r="21.5"/>
    </clipPath>
  </defs>
  <!-- Generator: Adobe Illustrator 28.7.8, SVG Export Plug-In . SVG Version: 1.2.0 Build 200)  -->
  <g>
    <g id="Layer_1">
      <circle class="cls-2" cx="150.3" cy="149.7" r="149.7"/>
      <g>
        <g>
          <g>
            <g>
              <path class="cls-5" d="M100,186.8c-3.9-3.9-8-7.7-12.9-10.4-4.9-2.6-10.6-4-16-2.7-7.8,1.9-13.4,9.5-14.1,17.5-.7,8,3,15.9,8.9,21.4,5.8,5.4,13.6,8.5,21.5,9.9,4.3.7,8.8,1,13-.3,4.2-1.3,8-4.2,9.5-8.4"/>
              <g class="cls-8">
                <path class="cls-5" d="M100,186.8c-3.9-3.9-8-7.7-12.9-10.4-4.9-2.6-10.6-4-16-2.7-7.8,1.9-13.4,9.5-14.1,17.5-.7,8,3,15.9,8.9,21.4,5.8,5.4,13.6,8.5,21.5,9.9,4.3.7,8.8,1,13-.3,4.2-1.3,8-4.2,9.5-8.4"/>
                <path d="M103.7,221.5c-8.8-21.8-32.5-42.7-56.5-27.9-1.5.9-.1,3.4,1.4,2.4,22.3-13.8,44.3,6.1,52.4,26.2.7,1.7,3.4.9,2.7-.7h0Z"/>
                <path d="M90.1,202.2c-5.6.5-10.5,3.1-14,7.4-1.1,1.4.9,3.4,2,2,3-3.8,7.2-6.2,12-6.6,1.8-.2,1.8-3,0-2.8h0Z"/>
              </g>
            </g>
            <g>
              <path class="cls-5" d="M214,186.8c3.9-3.9,8-7.7,12.9-10.4,4.9-2.6,10.6-4,16-2.7,7.8,1.9,13.4,9.5,14.1,17.5.7,8-3,15.9-8.9,21.4-5.8,5.4-13.6,8.5-21.5,9.9-4.3.7-8.8,1-13-.3-4.2-1.3-8-4.2-9.5-8.4"/>
              <g class="cls-4">
                <path class="cls-5" d="M214,186.8c3.9-3.9,8-7.7,12.9-10.4,4.9-2.6,10.6-4,16-2.7,7.8,1.9,13.4,9.5,14.1,17.5.7,8-3,15.9-8.9,21.4-5.8,5.4-13.6,8.5-21.5,9.9-4.3.7-8.8,1-13-.3-4.2-1.3-8-4.2-9.5-8.4"/>
                <path d="M213,222.3c8.2-20.2,30.1-40,52.4-26.2,1.5,1,3-1.5,1.4-2.4-24-14.8-47.7,6.1-56.5,27.9-.7,1.7,2,2.4,2.7.7h0Z"/>
                <path d="M223.9,205c4.8.4,9,2.8,12,6.6,1.1,1.4,3.1-.6,2-2-3.5-4.4-8.5-6.9-14-7.4-1.8-.2-1.8,2.6,0,2.8h0Z"/>
              </g>
            </g>
            <path class="cls-5" d="M223.4,105.2l-67.6-3.6-67.6,3.6-7.2,48.7s13.5,43.7,14.4,56.8c.9,13.1,6.8,46.8,60.4,46.8s59.5-33.8,60.4-46.8c.9-13.1,14.4-56.8,14.4-56.8l-7.2-48.7Z"/>
            <path class="cls-1" d="M83.1,83.6s5.4-32.9,21.2-40.1c15.8-7.2-5,31.7-5,31.7,0,0,57.3-35.3,119.9-4.7,62.6,30.6,34.4,99.2,2.3,115.3-3.7.9-4.1-68-4.1-68,0,0-33.8,18.5-40.5,15.3-6.8-3.2-3.6-27-3.6-27,0,0-46.4,33.8-55,32-8.6-1.8-5.9-15.8-5.9-15.8l-22.1,36s7.4,39.7,3,39.9c-4.4.2-20.6-26.4-20.6-26.4,0,0-28.8-9.9-29.7-14.4-.9-4.5,12.6-37,12.6-37,0,0-10.4-4.5-9-10.8,1.4-6.3,36.5-26.1,36.5-26.1Z"/>
            <g>
              <circle class="cls-2" cx="121.2" cy="179.5" r="21.5"/>
              <g class="cls-7">
                <circle class="cls-1" cx="123" cy="180.7" r="18.5"/>
              </g>
            </g>
            <g>
              <circle class="cls-2" cx="192.7" cy="179.5" r="21.5"/>
              <g class="cls-6">
                <circle class="cls-1" cx="190.9" cy="180.7" r="18.5"/>
              </g>
            </g>
            <path class="cls-9" d="M155.5,166.8c2.5,0,9.1,19.2,9.1,19.2,0,0,11.2.7,10.9,6.2-.4,5.4-12.8,11.2-20,7.6-7.2-3.6-4.8-33,0-33Z"/>
          </g>
          <path class="cls-1" d="M193.2,148.5c-2.2-.7-4.5-1.1-6.8-1.2-1,0-2.1,0-3,.5-3.7,1.9,1.9,5.2,3.6,6.1,4,2.3,8.7,4.3,13.5,4.6,3.7.2,5-3.3,2.6-5.6-1-.9-2.3-1.5-3.6-2.1-2-.8-4.1-1.7-6.2-2.3Z"/>
          <path class="cls-1" d="M117.6,148.9c2.2-.8,4.4-1.5,6.7-1.7,1-.1,2.1-.1,3.1.2,3.8,1.6-1.5,5.3-3.1,6.4-3.8,2.6-8.3,5-13.1,5.7-3.7.5-5.3-2.9-3-5.4.9-1,2.2-1.7,3.5-2.4,1.9-1,3.9-2,6-2.8Z"/>
        </g>
        <path class="cls-1" d="M180.9,222c-.3-.9-1.3-1.6-2.2-2.2-5.2-4.3-11.5-5.4-18-5.7v.2c-7.2,0-13.6,2.3-18.3,8-.6.7-.3,2.2-.4,3.3,1-.3,2.4-.2,3-.9,4.2-4.7,9.8-6.2,15.7-6.9,0,0,0,.1,0,.1,6.7-.2,12.6,1.5,17.4,6.5.7.7,2,.9,3.1,1.3,0-1.2,0-2.5-.3-3.6Z"/>
      </g>
    </g>
  </g>
</svg>